<svg width="557" height="531" viewBox="0 0 557 531" fill="none" xmlns="http://www.w3.org/2000/svg">
<g clip-path="url(#clip0_2317_11626)">
<path d="M537.371 407.127C505.596 457.133 449.766 458.555 399.578 441.721C394.002 439.853 388.508 437.769 383.08 435.537C331.457 412.882 281.518 446.914 236.939 469.8C231.627 472.892 226.117 476.034 220.441 478.977C180.846 499.631 134.42 510.049 103.568 472.627C84.7109 449.774 89.2314 419.381 89.1324 392.013C89.0169 361.537 78.1941 334.93 61.9104 309.547C40.3638 275.797 11.327 243.766 3.73784 203.153C-7.20045 144.913 14.5606 82.6043 75.5544 64.9602C114.276 53.7652 153.756 67.7713 192.081 73.5921C223.427 78.3545 255.302 71.8392 284.553 60.76C289.899 58.7426 295.227 56.6094 300.556 54.4266C335.912 39.8582 370.971 22.644 408.289 16.8067C441.599 11.5813 471.857 20.3455 484.561 54.3935C495.697 84.1587 487.86 117.446 492.81 148.27C495.581 165.252 502.032 180.78 509.687 195.828C522.985 221.922 539.879 246.577 547.633 274.987C549.827 283.122 551.708 291.523 553.143 300.105C559.215 336.567 557.284 375.808 537.371 407.127Z" fill="url(#paint0_linear_2317_11626)"/>
<path d="M464.55 95.535V145.805H138.117V95.535C138.117 85.1014 142.252 75.0952 149.613 67.7176C156.974 60.34 166.957 56.1953 177.366 56.1953H425.317C435.724 56.1997 445.703 60.3463 453.06 67.7235C460.417 75.1006 464.55 85.1043 464.55 95.535Z" fill="url(#paint1_linear_2317_11626)"/>
<path d="M464.548 95.535V157.447H386.066V95.535C386.066 85.1014 390.202 75.0952 397.562 67.7176C404.923 60.34 414.906 56.1953 425.316 56.1953C435.722 56.1997 445.701 60.3463 453.058 67.7235C460.415 75.1006 464.548 85.1043 464.548 95.535Z" fill="white"/>
<path d="M463.657 95.4028V160.175H386.957V95.4028C386.961 85.209 391.005 75.4342 398.198 68.2276C405.391 61.021 415.145 56.9727 425.315 56.9727C435.484 56.9727 445.237 61.0215 452.427 68.2286C459.618 75.4356 463.657 85.2105 463.657 95.4028Z" fill="url(#paint2_linear_2317_11626)"/>
<path d="M386.956 97.04H138.988V415.263H386.956V97.04Z" fill="white"/>
<path d="M386.085 97.04H138.117V415.263H386.085V97.04Z" fill="white"/>
<path d="M176.36 139.716V120.276H180.296V139.716H176.36ZM183.273 139.716V120.276H186.033L190.353 130.404V120.276H193.617V139.716H190.977L186.657 128.964V139.716H183.273ZM199.322 139.716L195.626 120.276H199.058L201.362 133.716L203.522 120.276H207.098L203.402 139.716H199.322ZM214.525 139.98C213.101 139.98 211.973 139.724 211.141 139.212C210.309 138.7 209.709 137.972 209.341 137.028C208.989 136.068 208.813 134.924 208.813 133.596V126.348C208.813 125.02 208.989 123.884 209.341 122.94C209.709 121.996 210.309 121.276 211.141 120.78C211.973 120.284 213.101 120.036 214.525 120.036C215.965 120.036 217.101 120.292 217.933 120.804C218.781 121.3 219.381 122.02 219.733 122.964C220.101 123.892 220.285 125.02 220.285 126.348V133.596C220.285 134.924 220.101 136.068 219.733 137.028C219.381 137.972 218.781 138.7 217.933 139.212C217.101 139.724 215.965 139.98 214.525 139.98ZM214.525 137.124C215.037 137.124 215.413 137.012 215.653 136.788C215.893 136.548 216.053 136.236 216.133 135.852C216.213 135.452 216.253 135.028 216.253 134.58V125.388C216.253 124.94 216.213 124.524 216.133 124.14C216.053 123.756 215.893 123.452 215.653 123.228C215.413 122.988 215.037 122.868 214.525 122.868C214.045 122.868 213.685 122.988 213.445 123.228C213.205 123.452 213.045 123.756 212.965 124.14C212.885 124.524 212.845 124.94 212.845 125.388V134.58C212.845 135.028 212.877 135.452 212.941 135.852C213.021 136.236 213.181 136.548 213.421 136.788C213.661 137.012 214.029 137.124 214.525 137.124ZM222.977 139.716V120.276H226.913V139.716H222.977ZM235.29 139.98C233.85 139.98 232.706 139.708 231.858 139.164C231.026 138.62 230.442 137.868 230.106 136.908C229.77 135.932 229.602 134.804 229.602 133.524V126.54C229.602 125.196 229.77 124.044 230.106 123.084C230.442 122.108 231.026 121.356 231.858 120.828C232.706 120.3 233.85 120.036 235.29 120.036C236.682 120.036 237.77 120.268 238.554 120.732C239.354 121.196 239.914 121.852 240.234 122.7C240.57 123.548 240.738 124.532 240.738 125.652V127.284H236.898V125.46C236.898 125.012 236.874 124.596 236.826 124.212C236.778 123.812 236.642 123.492 236.418 123.252C236.21 122.996 235.842 122.868 235.314 122.868C234.786 122.868 234.402 122.996 234.162 123.252C233.922 123.508 233.77 123.844 233.706 124.26C233.642 124.66 233.61 125.108 233.61 125.604V134.436C233.61 134.98 233.65 135.46 233.73 135.876C233.826 136.276 233.994 136.588 234.234 136.812C234.49 137.02 234.85 137.124 235.314 137.124C235.826 137.124 236.186 137.004 236.394 136.764C236.618 136.508 236.754 136.172 236.802 135.756C236.866 135.34 236.898 134.9 236.898 134.436V132.54H240.738V134.148C240.738 135.284 240.578 136.292 240.258 137.172C239.938 138.036 239.386 138.724 238.602 139.236C237.818 139.732 236.714 139.98 235.29 139.98ZM243.155 139.716V120.276H251.627V123.012H247.115V128.172H250.595V130.932H247.115V137.028H251.675V139.716H243.155Z" fill="#8BC7FD"/>
<path d="M353.301 119.529H268.93V123.812H353.301V119.529Z" fill="#DAEBFE"/>
<path d="M353.301 133.089H268.93V137.372H353.301V133.089Z" fill="#DAEBFE"/>
<path d="M353.301 308.538H268.93V318.344H353.301V308.538Z" fill="#DAEBFE"/>
<path d="M353.319 328.53H298.133V338.336H353.319V328.53Z" fill="#DAEBFE"/>
<path d="M353.301 168.493H165.09V170.048H353.301V168.493Z" fill="url(#paint3_linear_2317_11626)"/>
<path d="M353.118 149.212H164.973V153.495H353.118V149.212Z" fill="#DAEBFE"/>
<path d="M293.592 186.716H164.973V198.969H293.592V186.716Z" fill="#DAEBFE"/>
<path d="M352.955 186.716H300.59V198.969H352.955V186.716Z" fill="#DAEBFE"/>
<path d="M293.592 224.071H164.973V236.325H293.592V224.071Z" fill="#DAEBFE"/>
<path d="M352.955 224.071H300.59V236.325H352.955V224.071Z" fill="#DAEBFE"/>
<path d="M293.592 261.427H164.973V273.68H293.592V261.427Z" fill="#DAEBFE"/>
<path d="M352.955 261.427H300.59V273.68H352.955V261.427Z" fill="#DAEBFE"/>
<path d="M235.173 332.059V330.464C233.586 330.433 232.408 329.917 231.637 328.916C230.867 327.914 230.443 326.62 230.366 325.033L232.677 324.409C232.723 325.072 232.823 325.711 232.978 326.327C233.147 326.944 233.417 327.452 233.786 327.853C234.156 328.238 234.672 328.43 235.335 328.43C236.013 328.43 236.521 328.246 236.86 327.876C237.214 327.491 237.392 326.944 237.392 326.235C237.392 325.388 237.199 324.71 236.814 324.201C236.429 323.678 235.943 323.154 235.358 322.63L232.215 319.857C231.814 319.487 231.475 319.102 231.198 318.701C230.936 318.301 230.736 317.862 230.597 317.384C230.474 316.891 230.412 316.336 230.412 315.72C230.412 314.38 230.79 313.34 231.545 312.6C232.3 311.845 233.324 311.445 234.618 311.398V309.85H235.427V311.398C236.074 311.445 236.637 311.583 237.114 311.814C237.607 312.03 238.016 312.338 238.339 312.739C238.678 313.139 238.94 313.632 239.125 314.218C239.325 314.788 239.456 315.458 239.518 316.228L237.299 316.829C237.253 316.213 237.16 315.643 237.022 315.119C236.883 314.58 236.637 314.149 236.282 313.825C235.943 313.501 235.45 313.363 234.803 313.409C234.156 313.455 233.648 313.64 233.278 313.964C232.924 314.287 232.746 314.788 232.746 315.466C232.746 316.036 232.839 316.506 233.024 316.875C233.224 317.23 233.54 317.607 233.971 318.008L237.137 320.781C237.6 321.197 238.031 321.667 238.432 322.191C238.848 322.699 239.179 323.269 239.425 323.901C239.687 324.533 239.818 325.241 239.818 326.027C239.818 326.874 239.656 327.622 239.333 328.269C239.009 328.9 238.555 329.401 237.969 329.771C237.399 330.141 236.729 330.364 235.959 330.441V332.059H235.173Z" fill="#8BC7FD"/>
<path d="M513.391 222.633H371.985C369.402 222.633 367.309 224.731 367.309 227.32V303.934C367.309 306.523 369.402 308.621 371.985 308.621H513.391C515.973 308.621 518.067 306.523 518.067 303.934V227.32C518.067 224.731 515.973 222.633 513.391 222.633Z" fill="url(#paint4_linear_2317_11626)"/>
<g style="mix-blend-mode:multiply">
<path d="M518.067 234.527H367.309V250.844H518.067V234.527Z" fill="#DBE7EE"/>
</g>
<path d="M496.127 297.832C503.834 297.832 510.082 291.57 510.082 283.845C510.082 276.12 503.834 269.857 496.127 269.857C488.42 269.857 482.172 276.12 482.172 283.845C482.172 291.57 488.42 297.832 496.127 297.832Z" fill="url(#paint5_linear_2317_11626)"/>
<path d="M403.764 258.848H375.191V264.581H403.764V258.848Z" fill="url(#paint6_linear_2317_11626)"/>
<path d="M439.233 258.848H410.66V264.581H439.233V258.848Z" fill="url(#paint7_linear_2317_11626)"/>
<path d="M474.705 258.848H446.133V264.581H474.705V258.848Z" fill="url(#paint8_linear_2317_11626)"/>
<path d="M510.17 258.848H481.598V264.581H510.17V258.848Z" fill="url(#paint9_linear_2317_11626)"/>
<path style="mix-blend-mode:screen" d="M403.764 279.777H375.191V288.488H403.764V279.777Z" fill="url(#paint10_linear_2317_11626)"/>
<path style="mix-blend-mode:screen" d="M439.541 279.777H410.969V288.488H439.541V279.777Z" fill="url(#paint11_linear_2317_11626)"/>
<path style="mix-blend-mode:screen" d="M475.318 279.777H446.746V288.488H475.318V279.777Z" fill="url(#paint12_linear_2317_11626)"/>
<g opacity="0.9">
<path opacity="0.9" d="M240.882 21.5195H67.2223C65.4729 21.5195 64.0547 22.941 64.0547 24.6945V87.5652C64.0547 89.3186 65.4729 90.7401 67.2223 90.7401H240.882C242.632 90.7401 244.05 89.3186 244.05 87.5652V24.6945C244.05 22.941 242.632 21.5195 240.882 21.5195Z" fill="url(#paint13_linear_2317_11626)"/>
<path opacity="0.9" d="M96.5373 61.1133V44.9133H99.8173V61.1133H96.5373ZM102.298 61.1133V44.9133H104.598L108.198 53.3533V44.9133H110.918V61.1133H108.718L105.118 52.1533V61.1133H102.298ZM115.672 61.1133L112.592 44.9133H115.452L117.372 56.1133L119.172 44.9133H122.152L119.072 61.1133H115.672ZM128.342 61.3333C127.155 61.3333 126.215 61.1199 125.522 60.6933C124.828 60.2666 124.328 59.6599 124.022 58.8733C123.728 58.0733 123.582 57.1199 123.582 56.0133V49.9733C123.582 48.8666 123.728 47.9199 124.022 47.1333C124.328 46.3466 124.828 45.7466 125.522 45.3333C126.215 44.9199 127.155 44.7133 128.342 44.7133C129.542 44.7133 130.488 44.9266 131.182 45.3533C131.888 45.7666 132.388 46.3666 132.682 47.1533C132.988 47.9266 133.142 48.8666 133.142 49.9733V56.0133C133.142 57.1199 132.988 58.0733 132.682 58.8733C132.388 59.6599 131.888 60.2666 131.182 60.6933C130.488 61.1199 129.542 61.3333 128.342 61.3333ZM128.342 58.9533C128.768 58.9533 129.082 58.8599 129.282 58.6733C129.482 58.4733 129.615 58.2133 129.682 57.8933C129.748 57.5599 129.782 57.2066 129.782 56.8333V49.1733C129.782 48.7999 129.748 48.4533 129.682 48.1333C129.615 47.8133 129.482 47.5599 129.282 47.3733C129.082 47.1733 128.768 47.0733 128.342 47.0733C127.942 47.0733 127.642 47.1733 127.442 47.3733C127.242 47.5599 127.108 47.8133 127.042 48.1333C126.975 48.4533 126.942 48.7999 126.942 49.1733V56.8333C126.942 57.2066 126.968 57.5599 127.022 57.8933C127.088 58.2133 127.222 58.4733 127.422 58.6733C127.622 58.8599 127.928 58.9533 128.342 58.9533ZM135.385 61.1133V44.9133H138.665V61.1133H135.385ZM145.646 61.3333C144.446 61.3333 143.492 61.1066 142.786 60.6533C142.092 60.1999 141.606 59.5733 141.326 58.7733C141.046 57.9599 140.906 57.0199 140.906 55.9533V50.1333C140.906 49.0133 141.046 48.0533 141.326 47.2533C141.606 46.4399 142.092 45.8133 142.786 45.3733C143.492 44.9333 144.446 44.7133 145.646 44.7133C146.806 44.7133 147.712 44.9066 148.366 45.2933C149.032 45.6799 149.499 46.2266 149.766 46.9333C150.046 47.6399 150.186 48.4599 150.186 49.3933V50.7533H146.986V49.2333C146.986 48.8599 146.966 48.5133 146.926 48.1933C146.886 47.8599 146.772 47.5933 146.586 47.3933C146.412 47.1799 146.106 47.0733 145.666 47.0733C145.226 47.0733 144.906 47.1799 144.706 47.3933C144.506 47.6066 144.379 47.8866 144.326 48.2333C144.272 48.5666 144.246 48.9399 144.246 49.3533V56.7133C144.246 57.1666 144.279 57.5666 144.346 57.9133C144.426 58.2466 144.566 58.5066 144.766 58.6933C144.979 58.8666 145.279 58.9533 145.666 58.9533C146.092 58.9533 146.392 58.8533 146.566 58.6533C146.752 58.4399 146.866 58.1599 146.906 57.8133C146.959 57.4666 146.986 57.0999 146.986 56.7133V55.1333H150.186V56.4733C150.186 57.4199 150.052 58.2599 149.786 58.9933C149.519 59.7133 149.059 60.2866 148.406 60.7133C147.752 61.1266 146.832 61.3333 145.646 61.3333ZM152.2 61.1133V44.9133H159.26V47.1933H155.5V51.4933H158.4V53.7933H155.5V58.8733H159.3V61.1133H152.2Z" fill="white"/>
<path opacity="0.9" d="M212.488 38.2705H196.303C195.686 38.2705 195.094 38.5162 194.658 38.9534C194.222 39.3907 193.977 39.9837 193.977 40.6021V71.6571C193.977 72.277 194.221 72.8718 194.657 73.3117C195.093 73.7516 195.684 74.0009 196.303 74.0053H220.06C220.68 74.0009 221.274 73.7521 221.712 73.3127C222.15 72.8733 222.399 72.2785 222.403 71.6571V48.2088L212.488 38.2705ZM217.734 64.8111C217.734 64.8988 217.699 64.983 217.637 65.045C217.575 65.107 217.491 65.1418 217.404 65.1418H199.025C198.936 65.142 198.85 65.1076 198.786 65.0461C198.721 64.9845 198.683 64.9003 198.679 64.8111V64.6954C198.683 64.6062 198.721 64.522 198.786 64.4604C198.85 64.3989 198.936 64.3645 199.025 64.3647H217.47C217.513 64.3647 217.556 64.3732 217.596 64.3898C217.636 64.4064 217.673 64.4308 217.703 64.4615C217.734 64.4922 217.758 64.5287 217.775 64.5688C217.791 64.6089 217.8 64.6519 217.8 64.6954L217.734 64.8111ZM217.734 59.751C217.734 59.8388 217.699 59.9229 217.637 59.9849C217.575 60.0469 217.491 60.0818 217.404 60.0818H199.025C198.936 60.0819 198.85 60.0476 198.786 59.986C198.721 59.9244 198.683 59.8403 198.679 59.751V59.6518C198.679 59.5597 198.715 59.4714 198.78 59.4063C198.845 59.3412 198.933 59.3046 199.025 59.3046H217.47C217.515 59.3045 217.559 59.3136 217.6 59.3312C217.641 59.3489 217.678 59.3747 217.709 59.4072C217.74 59.4397 217.764 59.4781 217.78 59.5202C217.795 59.5622 217.802 59.607 217.8 59.6518L217.734 59.751ZM217.734 54.691C217.734 54.7787 217.699 54.8628 217.637 54.9248C217.575 54.9868 217.491 55.0217 217.404 55.0217H199.025C198.936 55.0218 198.85 54.9875 198.786 54.9259C198.721 54.8643 198.683 54.7802 198.679 54.691V54.5918C198.683 54.5009 198.72 54.4149 198.784 54.3507C198.849 54.2864 198.934 54.2485 199.025 54.2445H217.47C217.559 54.2487 217.643 54.2872 217.704 54.3519C217.766 54.4165 217.8 54.5024 217.8 54.5918L217.734 54.691ZM217.734 49.7301C217.734 49.8178 217.699 49.9019 217.637 49.964C217.575 50.026 217.491 50.0608 217.404 50.0608H199.025C198.936 50.0609 198.85 50.0266 198.786 49.965C198.721 49.9034 198.683 49.8193 198.679 49.7301V49.6144C198.683 49.5251 198.721 49.441 198.786 49.3794C198.85 49.3178 198.936 49.2835 199.025 49.2836H217.47C217.557 49.2836 217.641 49.3185 217.703 49.3805C217.765 49.4425 217.8 49.5266 217.8 49.6144L217.734 49.7301Z" fill="url(#paint14_linear_2317_11626)"/>
<path opacity="0.9" d="M212.488 48.2088H222.404L212.488 38.2705V48.2088Z" fill="#C7E6F9"/>
<path opacity="0.9" d="M184.326 69.0614H82.7793C82.6969 69.0614 82.6154 69.0452 82.5394 69.0136C82.4633 68.982 82.3942 68.9357 82.336 68.8774C82.2778 68.819 82.2316 68.7498 82.2001 68.6735C82.1686 68.5973 82.1523 68.5156 82.1523 68.4331C82.1523 68.2664 82.2184 68.1066 82.336 67.9887C82.4535 67.8709 82.613 67.8047 82.7793 67.8047H184.326C184.492 67.8047 184.651 67.8709 184.769 67.9887C184.886 68.1066 184.952 68.2664 184.952 68.4331C184.952 68.5156 184.936 68.5973 184.905 68.6735C184.873 68.7498 184.827 68.819 184.769 68.8774C184.711 68.9357 184.642 68.982 184.565 69.0136C184.489 69.0452 184.408 69.0614 184.326 69.0614Z" fill="white"/>
</g>
<path d="M428.37 207.24V204.558C427.567 204.579 426.769 204.426 426.03 204.109C425.291 203.792 424.629 203.319 424.089 202.723C423.027 201.196 422.497 199.361 422.579 197.502L426.789 196.858C426.741 197.895 426.911 198.931 427.288 199.898C427.404 200.181 427.602 200.423 427.856 200.593C428.11 200.763 428.409 200.853 428.715 200.852C429.508 200.852 429.924 200.315 429.964 199.242C429.97 198.67 429.861 198.103 429.643 197.574C429.449 197.103 429.184 196.665 428.858 196.274C428.445 195.825 428.005 195.403 427.538 195.011L425.564 193.306C425.145 192.953 424.748 192.575 424.374 192.174C424.033 191.806 423.726 191.407 423.459 190.982C423.154 190.501 422.929 189.974 422.793 189.421C422.644 188.8 422.573 188.164 422.579 187.525C422.538 186.78 422.647 186.033 422.9 185.331C423.154 184.628 423.546 183.984 424.053 183.437C425.145 182.378 426.59 181.762 428.109 181.709V179.17H429.512V181.697C430.055 181.727 430.591 181.831 431.105 182.007C431.53 182.153 431.931 182.362 432.295 182.627C432.626 182.876 432.916 183.178 433.151 183.521C433.38 183.845 433.575 184.193 433.734 184.558C433.884 184.944 433.999 185.343 434.078 185.749C434.17 186.142 434.234 186.54 434.269 186.941C434.269 187.275 434.328 187.657 434.34 188.062L430.095 188.622C430.095 188.241 430.095 187.931 430.095 187.68C430.095 187.43 430.095 187.168 430.023 186.894C430.001 186.665 429.949 186.441 429.869 186.226C429.812 186.055 429.727 185.894 429.619 185.749C429.532 185.602 429.398 185.489 429.238 185.428C429.059 185.366 428.869 185.338 428.679 185.344C428.482 185.347 428.289 185.398 428.117 185.494C427.945 185.589 427.799 185.726 427.692 185.893C427.465 186.248 427.345 186.662 427.347 187.084C427.343 187.487 427.395 187.888 427.502 188.276C427.619 188.64 427.8 188.979 428.037 189.278C428.233 189.532 428.443 189.775 428.668 190.005C428.822 190.172 429.096 190.422 429.464 190.768L431.367 192.424C431.835 192.849 432.279 193.299 432.699 193.771C433.099 194.221 433.461 194.704 433.781 195.214C434.123 195.772 434.38 196.379 434.542 197.013C434.723 197.694 434.811 198.395 434.804 199.099C434.85 200.502 434.349 201.868 433.408 202.907C432.467 203.946 431.159 204.577 429.762 204.666V207.371L428.37 207.24Z" fill="white"/>
<path d="M428.693 216.68C424.059 216.682 419.529 215.307 415.674 212.728C411.82 210.149 408.816 206.483 407.041 202.192C405.266 197.902 404.8 193.18 405.703 188.625C406.605 184.069 408.836 179.884 412.111 176.599C415.387 173.313 419.562 171.076 424.106 170.169C428.651 169.262 433.362 169.726 437.644 171.503C441.925 173.28 445.585 176.29 448.16 180.151C450.734 184.013 452.109 188.554 452.109 193.198C452.099 199.421 449.63 205.386 445.241 209.787C440.852 214.189 434.902 216.667 428.693 216.68ZM428.693 170.837C424.277 170.835 419.96 172.145 416.288 174.603C412.615 177.06 409.752 180.554 408.061 184.643C406.37 188.731 405.927 193.231 406.788 197.572C407.649 201.913 409.775 205.901 412.898 209.03C416.02 212.16 419.999 214.291 424.33 215.154C428.661 216.017 433.15 215.573 437.229 213.878C441.308 212.183 444.794 209.313 447.246 205.632C449.698 201.951 451.005 197.624 451.003 193.198C450.996 187.269 448.644 181.583 444.462 177.389C440.28 173.195 434.609 170.835 428.693 170.825V170.837Z" fill="white"/>
<path d="M74.1529 176.614V173.875C73.3326 173.896 72.5175 173.739 71.7631 173.416C71.0086 173.092 70.3327 172.61 69.7813 172.001C68.6971 170.442 68.1552 168.568 68.2391 166.67L72.5378 166.012C72.4895 167.071 72.6633 168.129 73.0478 169.116C73.1664 169.405 73.3684 169.653 73.628 169.826C73.8876 170 74.193 170.091 74.505 170.09C75.3146 170.09 75.7396 169.542 75.7801 168.447C75.7862 167.862 75.6747 167.283 75.4522 166.743C75.2546 166.262 74.9843 165.814 74.6508 165.416C74.2297 164.957 73.7795 164.526 73.3028 164.126L71.287 162.385C70.8598 162.024 70.4543 161.638 70.0727 161.229C69.7239 160.853 69.4109 160.446 69.1377 160.012C68.8261 159.521 68.5964 158.983 68.4577 158.418C68.3062 157.784 68.2328 157.134 68.2391 156.482C68.1971 155.721 68.3088 154.958 68.5675 154.241C68.8263 153.524 69.2267 152.866 69.7448 152.308C70.8595 151.226 72.335 150.597 73.8857 150.543V147.95H75.3186V150.531C75.8729 150.561 76.4204 150.667 76.9458 150.847C77.3796 150.997 77.7888 151.21 78.1602 151.48C78.499 151.735 78.7943 152.043 79.0345 152.393C79.2686 152.724 79.468 153.079 79.6295 153.452C79.7827 153.846 79.9006 154.253 79.9817 154.669C80.0754 155.069 80.1403 155.476 80.176 155.886C80.176 156.227 80.2367 156.616 80.2488 157.03L75.9136 157.602C75.9136 157.213 75.9136 156.896 75.9136 156.641C75.9136 156.385 75.9136 156.117 75.8408 155.837C75.818 155.604 75.7649 155.375 75.6829 155.156C75.625 154.98 75.5388 154.816 75.4279 154.669C75.3388 154.519 75.2019 154.403 75.0393 154.34C74.8557 154.278 74.6624 154.249 74.4686 154.255C74.2675 154.257 74.0701 154.31 73.8942 154.407C73.7183 154.505 73.5693 154.645 73.4607 154.815C73.2282 155.178 73.1059 155.601 73.1085 156.032C73.1038 156.443 73.1569 156.853 73.2664 157.249C73.3854 157.62 73.5706 157.967 73.8129 158.271C74.0125 158.532 74.2274 158.779 74.4565 159.014C74.6143 159.184 74.8936 159.44 75.27 159.793L77.213 161.485C77.6907 161.918 78.1447 162.377 78.573 162.86C78.9816 163.319 79.3512 163.812 79.6781 164.333C80.0273 164.903 80.2893 165.523 80.4553 166.171C80.6396 166.865 80.7294 167.582 80.7224 168.301C80.7695 169.733 80.2583 171.127 79.2972 172.188C78.3361 173.249 77.0005 173.894 75.5736 173.985V176.748L74.1529 176.614Z" fill="white"/>
<path d="M74.4775 186.253C69.7455 186.255 65.1192 184.851 61.1836 182.218C57.248 179.585 54.1799 175.841 52.3674 171.46C50.5549 167.078 50.0795 162.257 51.0012 157.605C51.9228 152.953 54.2002 148.68 57.5454 145.325C60.8905 141.97 65.153 139.686 69.7938 138.759C74.4346 137.833 79.2452 138.307 83.6172 140.122C87.9891 141.936 91.726 145.01 94.3552 148.953C96.9843 152.896 98.3877 157.533 98.3877 162.275C98.378 168.63 95.8562 174.721 91.3746 179.215C86.893 183.709 80.817 186.24 74.4775 186.253ZM74.4775 139.442C69.9684 139.44 65.5599 140.778 61.8098 143.287C58.0596 145.796 55.1363 149.364 53.4096 153.539C51.683 157.714 51.2306 162.309 52.1097 166.742C52.9887 171.174 55.1598 175.246 58.3482 178.442C61.5366 181.638 65.5991 183.814 70.0216 184.695C74.4442 185.576 79.0281 185.122 83.1934 183.392C87.3588 181.661 90.9185 178.731 93.4221 174.972C95.9257 171.213 97.2607 166.795 97.2584 162.275C97.2519 156.22 94.8501 150.415 90.5796 146.133C86.3091 141.85 80.5185 139.439 74.4775 139.43V139.442Z" fill="white"/>
<path d="M286.914 24.7276V23.074C286.407 23.082 285.904 22.9831 285.438 22.7837C284.972 22.5843 284.553 22.2888 284.208 21.9164C283.537 20.9485 283.201 19.7868 283.251 18.6092L285.907 18.2123C285.876 18.8682 285.988 19.5231 286.237 20.1305C286.31 20.3075 286.433 20.4587 286.592 20.5648C286.751 20.6708 286.937 20.7269 287.128 20.7258C287.656 20.7258 287.92 20.3951 287.92 19.7171C287.923 19.3548 287.856 18.9954 287.722 18.6588C287.592 18.3653 287.419 18.0923 287.211 17.8485C286.956 17.5583 286.68 17.2875 286.386 17.0383L285.148 15.9303C284.877 15.7137 284.623 15.4759 284.389 15.2193C284.182 14.9771 283.99 14.7231 283.812 14.4586C283.621 14.1526 283.482 13.8175 283.4 13.4664C283.303 13.0772 283.259 12.6768 283.268 12.2758C283.243 11.8059 283.312 11.3357 283.47 10.8927C283.629 10.4498 283.874 10.043 284.191 9.69618C284.876 9.02271 285.79 8.63297 286.749 8.60479V6.95117H287.64V8.60479C287.981 8.6326 288.319 8.69917 288.646 8.80323C288.914 8.90505 289.168 9.03827 289.405 9.2001C289.614 9.35803 289.798 9.54772 289.949 9.76233C290.095 9.9682 290.217 10.1901 290.312 10.4238C290.408 10.6585 290.48 10.9023 290.527 11.1514C290.586 11.3902 290.624 11.6336 290.642 11.879C290.66 12.1156 290.66 12.3533 290.642 12.59L287.969 12.9373C287.969 12.7058 287.969 12.5073 287.969 12.342C287.969 12.1766 287.969 12.0278 287.969 11.8459C287.944 11.7064 287.911 11.5684 287.871 11.4325C287.829 11.3263 287.774 11.2262 287.706 11.1348C287.644 11.0419 287.559 10.9676 287.458 10.9199C287.343 10.9001 287.226 10.9001 287.112 10.9199C286.987 10.9243 286.866 10.9581 286.757 11.0184C286.648 11.0787 286.555 11.1639 286.485 11.2671C286.347 11.497 286.273 11.7596 286.27 12.0278C286.267 12.2685 286.301 12.5082 286.369 12.7388C286.442 12.9743 286.56 13.1933 286.716 13.3838L287.112 13.8302C287.211 13.946 287.376 14.0948 287.607 14.3098L288.811 15.3681C289.108 15.6324 289.389 15.914 289.652 16.2115C289.904 16.4943 290.13 16.7986 290.329 17.1209C290.547 17.476 290.713 17.8601 290.824 18.2619C290.931 18.6891 290.987 19.1277 290.989 19.5683C291.016 20.4544 290.7 21.3167 290.106 21.9736C289.512 22.6306 288.687 23.031 287.805 23.0905V24.7441L286.914 24.7276Z" fill="url(#paint15_linear_2317_11626)"/>
<path d="M287.11 30.6802C284.173 30.6802 281.303 29.8074 278.861 28.1721C276.419 26.5367 274.516 24.2124 273.392 21.493C272.268 18.7735 271.974 15.7811 272.547 12.8942C273.12 10.0072 274.534 7.35542 276.611 5.27406C278.687 3.19269 281.333 1.77526 284.213 1.20101C287.094 0.626763 290.079 0.921487 292.792 2.04792C295.506 3.17434 297.825 5.08188 299.456 7.52931C301.088 9.97674 301.958 12.8541 301.958 15.7976C301.958 19.7447 300.394 23.5302 297.61 26.3212C294.825 29.1122 291.048 30.6802 287.11 30.6802ZM287.11 1.74186C284.326 1.74189 281.605 2.56848 279.289 4.11731C276.974 5.66615 275.168 7.86779 274.1 10.4444C273.031 13.021 272.748 15.857 273.287 18.5946C273.825 21.3322 275.16 23.8485 277.124 25.8261C279.088 27.8037 281.592 29.1539 284.321 29.7062C287.05 30.2586 289.881 29.9883 292.456 28.9296C295.032 27.8709 297.237 26.0712 298.793 23.7575C300.349 21.4439 301.187 18.7201 301.2 15.9299C301.206 14.0705 300.847 12.228 300.142 10.508C299.437 8.78795 298.4 7.22421 297.091 5.90629C295.783 4.58837 294.227 3.54216 292.515 2.82756C290.802 2.11296 288.965 1.74402 287.11 1.74186Z" fill="url(#paint16_linear_2317_11626)"/>
<path d="M113.035 322.512V320.858C112.528 320.871 112.023 320.774 111.557 320.574C111.09 320.374 110.671 320.076 110.329 319.701C109.657 318.733 109.321 317.571 109.372 316.393L112.029 315.98C112.006 316.635 112.118 317.288 112.359 317.898C112.431 318.075 112.554 318.226 112.713 318.333C112.872 318.439 113.059 318.495 113.249 318.494C113.777 318.494 114.041 318.163 114.041 317.485C114.053 316.794 113.799 316.125 113.332 315.616C113.085 315.324 112.809 315.058 112.507 314.823L111.27 313.731C111.007 313.511 110.759 313.273 110.527 313.02C110.309 312.783 110.111 312.528 109.933 312.259C109.75 311.95 109.611 311.616 109.521 311.267C109.433 310.877 109.388 310.477 109.389 310.077C109.364 309.607 109.433 309.136 109.592 308.694C109.75 308.251 109.995 307.844 110.313 307.497C111 306.826 111.912 306.437 112.87 306.406V304.752H113.761V306.406C114.103 306.433 114.44 306.5 114.767 306.604C115.036 306.703 115.291 306.836 115.526 307.001C115.736 307.159 115.919 307.349 116.071 307.563C116.216 307.769 116.338 307.991 116.434 308.225C116.529 308.459 116.601 308.703 116.648 308.952C116.648 309.217 116.747 309.465 116.78 309.68C116.813 309.895 116.78 310.126 116.78 310.391L114.107 310.738C114.107 310.507 114.107 310.308 114.107 310.159C114.107 310.011 114.107 309.829 114.107 309.663C114.084 309.518 114.051 309.374 114.008 309.233C113.974 309.124 113.918 309.023 113.843 308.936C113.82 308.889 113.787 308.847 113.748 308.813C113.708 308.779 113.662 308.753 113.612 308.737C113.493 308.709 113.369 308.709 113.249 308.737C113.127 308.74 113.007 308.773 112.901 308.834C112.794 308.895 112.704 308.981 112.639 309.084C112.494 309.311 112.419 309.576 112.425 309.845C112.417 310.09 112.445 310.335 112.507 310.573C112.58 310.803 112.698 311.017 112.853 311.201L113.249 311.664L113.761 312.127L114.949 313.185C115.246 313.45 115.526 313.731 115.79 314.029C116.042 314.312 116.268 314.616 116.467 314.938C116.684 315.293 116.851 315.677 116.961 316.079C117.077 316.505 117.133 316.945 117.126 317.386C117.111 318.249 116.771 319.074 116.175 319.697C115.578 320.319 114.769 320.693 113.909 320.743V322.396L113.035 322.512Z" fill="white"/>
<path d="M113.235 328.464C110.298 328.464 107.428 327.592 104.986 325.956C102.544 324.321 100.641 321.997 99.517 319.277C98.3931 316.558 98.0991 313.565 98.672 310.678C99.245 307.791 100.659 305.14 102.736 303.058C104.812 300.977 107.458 299.559 110.338 298.985C113.219 298.411 116.204 298.706 118.917 299.832C121.63 300.959 123.949 302.866 125.581 305.313C127.213 307.761 128.083 310.638 128.083 313.582C128.083 317.529 126.519 321.314 123.734 324.105C120.95 326.896 117.173 328.464 113.235 328.464ZM113.235 299.526C110.448 299.526 107.724 300.354 105.407 301.906C103.09 303.458 101.285 305.663 100.218 308.244C99.1517 310.824 98.8727 313.664 99.4164 316.403C99.96 319.142 101.302 321.659 103.272 323.634C105.243 325.609 107.753 326.954 110.486 327.499C113.219 328.043 116.052 327.764 118.627 326.695C121.201 325.626 123.402 323.816 124.95 321.494C126.498 319.171 127.325 316.441 127.325 313.648C127.325 309.903 125.84 306.311 123.198 303.662C120.556 301.014 116.972 299.526 113.235 299.526Z" fill="white"/>
<path d="M260.061 531C115.066 531 91.7148 450.651 91.7148 450.651L482.815 432.591C482.815 432.591 389.217 531 260.061 531Z" fill="#D9EDFF"/>
<path d="M178.029 459.697C177.906 459.601 166.17 449.928 155.428 431.183C145.532 413.886 134.45 385.112 137.926 346.215L138.893 346.297C135.445 384.921 146.432 413.49 156.26 430.65C166.906 449.258 178.519 458.85 178.642 458.945L178.029 459.697Z" fill="#79A2FF"/>
<path d="M142.201 321.239C142.201 321.239 129.62 331.022 137.798 349.767C148.703 337.32 142.201 321.239 142.201 321.239Z" fill="#79A2FF"/>
<path d="M152.708 341.951C152.708 341.951 137.305 346.173 137.809 366.667C152.599 359.303 152.708 341.951 152.708 341.951Z" fill="#79A2FF"/>
<path d="M122.809 339.941C122.809 339.941 138.212 344.177 137.803 364.63C122.904 357.293 122.809 339.941 122.809 339.941Z" fill="#79A2FF"/>
<path d="M121.156 360.913C121.156 360.913 136.996 362.921 139.436 383.238C123.705 378.073 121.156 360.913 121.156 360.913Z" fill="#79A2FF"/>
<path d="M124.496 377.486C124.496 377.486 140.336 379.495 142.776 399.811C127.045 394.647 124.496 377.486 124.496 377.486Z" fill="#79A2FF"/>
<path d="M123.789 399.454C123.789 399.454 139.465 396.407 148.093 414.947C131.545 414.961 123.789 399.454 123.789 399.454Z" fill="#79A2FF"/>
<path d="M126.512 421.48C126.512 421.48 140.388 413.555 154.51 428.311C138.834 433.612 126.512 421.48 126.512 421.48Z" fill="#79A2FF"/>
<path d="M134.098 433.612C134.098 433.612 147.974 425.674 162.083 440.443C146.42 445.908 134.098 433.612 134.098 433.612Z" fill="#79A2FF"/>
<path d="M154.502 358.879C154.502 358.879 139.099 363.114 139.508 383.567C154.407 376.23 154.502 358.879 154.502 358.879Z" fill="#79A2FF"/>
<path d="M157.409 372.773C157.409 372.773 142.005 376.995 142.414 397.462C157.313 390.111 157.409 372.773 157.409 372.773Z" fill="#79A2FF"/>
<path d="M161.315 386.737C161.315 386.737 145.912 390.973 146.321 411.426C161.206 404.089 161.315 386.737 161.315 386.737Z" fill="#79A2FF"/>
<path d="M166.909 399.088C166.909 399.088 151.505 403.323 151.914 423.776C166.8 416.439 166.909 399.088 166.909 399.088Z" fill="#79A2FF"/>
<path d="M171.107 411.426C171.107 411.426 156.494 417.888 159.956 438.054C173.56 428.6 171.107 411.426 171.107 411.426Z" fill="#79A2FF"/>
<path d="M179.919 422.927C179.919 422.927 165.307 429.389 168.769 449.555C182.359 440.101 179.919 422.927 179.919 422.927Z" fill="#79A2FF"/>
<path d="M189.879 424.694C185.854 417.594 183.031 409.875 181.523 401.85C178.797 388.802 177.856 368.212 188.216 344.275L188.802 344.535C178.524 368.308 179.519 388.734 182.15 401.686C183.641 409.643 186.437 417.298 190.424 424.338L189.879 424.694Z" fill="#4DC1B9"/>
<path d="M196.17 329.326C196.17 329.326 186.097 332.865 187.364 346.486C196.906 340.898 196.17 329.326 196.17 329.326Z" fill="#79A2FF"/>
<path d="M198.486 344.669C198.486 344.669 187.826 344.123 183.832 357.184C194.778 355.654 198.486 344.669 198.486 344.669Z" fill="#79A2FF"/>
<path d="M179.936 337.101C179.936 337.101 188.824 343.03 184.244 355.914C176.365 348.126 179.936 337.101 179.936 337.101Z" fill="#79A2FF"/>
<path d="M174.501 350.064C174.501 350.064 184.152 354.669 181.425 368.031C172.538 361.486 174.501 350.064 174.501 350.064Z" fill="#79A2FF"/>
<path d="M173.148 361.283C173.148 361.283 182.785 365.887 180.073 379.291C171.171 372.705 173.148 361.283 173.148 361.283Z" fill="#79A2FF"/>
<path d="M168.105 375.068C168.105 375.068 178.683 376.435 180.278 390.015C169.782 386.531 168.105 375.068 168.105 375.068Z" fill="#79A2FF"/>
<path d="M165.227 389.619C165.227 389.619 175.682 387.501 181.584 399.852C170.515 399.934 165.227 389.619 165.227 389.619Z" fill="#79A2FF"/>
<path d="M167.473 398.937C167.473 398.937 177.928 396.819 183.83 409.17C172.734 409.252 167.473 398.937 167.473 398.937Z" fill="#79A2FF"/>
<path d="M196.083 355.736C196.083 355.736 185.424 355.176 181.43 368.251C192.321 366.775 196.083 355.736 196.083 355.736Z" fill="#79A2FF"/>
<path d="M195.06 365.217C195.06 365.217 184.4 364.657 180.406 377.732C191.338 376.229 195.06 365.217 195.06 365.217Z" fill="#79A2FF"/>
<path d="M194.558 374.864C194.558 374.864 183.898 374.317 179.918 387.392C190.864 385.876 194.558 374.864 194.558 374.864Z" fill="#4DC1B9"/>
<path d="M195.525 383.907C195.525 383.907 184.865 383.347 180.871 396.422C191.817 394.878 195.525 383.907 195.525 383.907Z" fill="#4DC1B9"/>
<path d="M195.615 392.625C195.615 392.625 184.982 393.65 182.965 407.176C193.57 404.02 195.615 392.625 195.615 392.625Z" fill="#4DC1B9"/>
<path d="M198.794 401.766C198.794 401.766 188.176 402.79 186.145 416.316C196.75 413.119 198.794 401.766 198.794 401.766Z" fill="#4DC1B9"/>
<path d="M149.894 473.371C149.894 473.261 143.896 461.867 130.306 449.734C117.765 438.531 95.9687 424.376 63.322 420.523L63.2266 421.343C95.6416 425.169 117.288 439.214 129.733 450.322C143.215 462.358 149.103 473.63 149.171 473.753L149.894 473.371Z" fill="#79A2FF"/>
<path d="M42 419.744C42 419.744 52.2507 410.973 66.2772 421.001C54.1318 427.901 42 419.744 42 419.744Z" fill="#79A2FF"/>
<path d="M57.2578 432.028C57.2578 432.028 63.4055 420.005 80.1855 423.926C71.557 434.979 57.2578 432.028 57.2578 432.028Z" fill="#79A2FF"/>
<path d="M60.7695 406.916C60.7695 406.916 61.5874 420.401 78.4901 423.557C75.0959 410.004 60.7695 406.916 60.7695 406.916Z" fill="#79A2FF"/>
<path d="M78.3394 409.197C78.3394 409.197 77.2489 422.655 93.5654 428.188C92.0251 414.28 78.3394 409.197 78.3394 409.197Z" fill="#79A2FF"/>
<path d="M91.4605 414.828C91.4605 414.828 90.37 428.299 106.687 433.819C105.092 419.952 91.4605 414.828 91.4605 414.828Z" fill="#79A2FF"/>
<path d="M109.638 418.037C109.638 418.037 104.417 430.497 118.198 440.854C121.075 427.15 109.638 418.037 109.638 418.037Z" fill="#79A2FF"/>
<path d="M127.324 424.118C127.324 424.118 118.382 434.229 128.129 448.479C135.23 436.428 127.324 424.118 127.324 424.118Z" fill="#79A2FF"/>
<path d="M136.041 432.508C136.041 432.508 127.113 442.618 136.845 456.855C143.961 444.804 136.041 432.508 136.041 432.508Z" fill="#79A2FF"/>
<path d="M70.8906 436.441C70.8906 436.441 77.0383 424.431 93.8183 428.352C85.2034 439.364 70.8906 436.441 70.8906 436.441Z" fill="#79A2FF"/>
<path d="M81.832 441.265C81.832 441.265 87.9797 429.255 104.76 433.176C96.1448 444.189 81.832 441.265 81.832 441.265Z" fill="#79A2FF"/>
<path d="M92.668 446.907C92.668 446.907 98.8157 434.883 115.596 438.805C106.981 449.817 92.668 446.907 92.668 446.907Z" fill="#79A2FF"/>
<path d="M101.871 453.671C101.871 453.671 108.019 441.648 124.799 445.569C116.184 456.595 101.871 453.671 101.871 453.671Z" fill="#79A2FF"/>
<path d="M111.32 459.284C111.32 459.284 119.172 448.354 135.189 454.666C125.047 464.285 111.32 459.284 111.32 459.284Z" fill="#79A2FF"/>
<path d="M119.277 468.574C119.277 468.574 127.129 457.644 143.146 463.956C133.004 473.575 119.277 468.574 119.277 468.574Z" fill="#79A2FF"/>
<path d="M427.719 477.116C429.374 469.121 432.341 461.458 436.497 454.436C443.095 442.863 455.908 426.742 479.449 415.62L479.722 416.208C456.344 427.261 443.626 443.246 437.07 454.723C432.954 461.693 430.011 469.296 428.359 477.225L427.719 477.116Z" fill="#79A2FF"/>
<path d="M495.259 409.65C495.259 409.65 485.363 405.647 477.348 416.713C488.198 418.831 495.259 409.65 495.259 409.65Z" fill="#79A2FF"/>
<path d="M486.896 422.684C486.896 422.684 479.262 415.21 467.648 422.397C476.89 428.518 486.896 422.684 486.896 422.684Z" fill="#79A2FF"/>
<path d="M477.957 404.757C477.957 404.757 480.684 415.086 468.797 421.726C468.02 410.673 477.957 404.757 477.957 404.757Z" fill="#79A2FF"/>
<path d="M465.328 410.892C465.328 410.892 469.527 420.729 458.663 428.995C456.318 418.16 465.328 410.892 465.328 410.892Z" fill="#79A2FF"/>
<path d="M456.934 418.421C456.934 418.421 461.132 428.258 450.268 436.524C447.924 425.689 456.934 418.421 456.934 418.421Z" fill="#79A2FF"/>
<path d="M444.052 425.415C444.052 425.415 451.099 433.449 443.357 444.693C437.754 435.156 444.052 425.415 444.052 425.415Z" fill="#79A2FF"/>
<path d="M432.319 434.448C432.319 434.448 441.561 439.79 437.772 452.934C429.511 445.679 432.319 434.448 432.319 434.448Z" fill="#79A2FF"/>
<path d="M427.863 442.943C427.863 442.943 437.118 448.285 433.315 461.429C425.014 454.174 427.863 442.943 427.863 442.943Z" fill="#4DC1B9"/>
<path d="M477.779 429.514C477.779 429.514 470.131 422.041 458.531 429.213C467.76 435.266 477.779 429.514 477.779 429.514Z" fill="#79A2FF"/>
<path d="M470.771 435.854C470.771 435.854 463.137 428.38 451.523 435.553C460.752 441.647 470.771 435.854 470.771 435.854Z" fill="#79A2FF"/>
<path d="M464.042 442.822C464.042 442.822 456.409 435.348 444.809 442.521C454.051 448.642 464.042 442.822 464.042 442.822Z" fill="#79A2FF"/>
<path d="M458.833 450.215C458.833 450.215 451.2 442.755 439.586 449.928C448.828 456.021 458.833 450.215 458.833 450.215Z" fill="#79A2FF"/>
<path d="M453.146 456.838C453.146 456.838 444.504 450.581 434.062 459.393C444.109 464.025 453.146 456.838 453.146 456.838Z" fill="#79A2FF"/>
<path d="M449.502 465.787C449.502 465.787 440.859 459.53 430.418 468.342C440.41 473.015 449.502 465.787 449.502 465.787Z" fill="#79A2FF"/>
<path d="M429.815 443.654C428.901 437.155 429.067 430.548 430.306 424.103C432.174 413.556 437.503 397.871 452.321 383.047L452.689 383.416C441.398 394.421 433.78 408.656 430.879 424.171C429.648 430.562 429.477 437.112 430.374 443.559L429.815 443.654Z" fill="#79A2FF"/>
<path d="M462.657 374.235C462.657 374.235 454.083 373.907 451.016 384.454C459.794 383.061 462.657 374.235 462.657 374.235Z" fill="#79A2FF"/>
<path d="M459.868 386.394C459.868 386.394 452.071 382.814 445.215 391.408C453.857 393.512 459.868 386.394 459.868 386.394Z" fill="#79A2FF"/>
<path d="M448.236 375.247C448.236 375.247 453.13 382.311 445.905 390.577C442.307 382.42 448.236 375.247 448.236 375.247Z" fill="#79A2FF"/>
<path d="M440.42 383.321C440.42 383.321 446.254 389.62 440.27 398.828C435.499 391.259 440.42 383.321 440.42 383.321Z" fill="#79A2FF"/>
<path d="M436.026 391.258C436.026 391.258 441.86 397.556 435.876 406.765C431.173 399.237 436.026 391.258 436.026 391.258Z" fill="#79A2FF"/>
<path d="M428.146 400.098C428.146 400.098 435.657 404.196 432.835 414.881C426.047 409.17 428.146 400.098 428.146 400.098Z" fill="#4DC1B9"/>
<path d="M421.727 410.112C421.727 410.112 430.178 411.643 430.9 422.614C422.613 419.389 421.727 410.112 421.727 410.112Z" fill="#4DC1B9"/>
<path d="M420.656 417.75C420.656 417.75 429.094 419.28 429.83 430.251C421.542 427.027 420.656 417.75 420.656 417.75Z" fill="#4DC1B9"/>
<path d="M454.777 393.992C454.777 393.992 446.98 390.413 440.137 399.007C448.779 401.111 454.777 393.992 454.777 393.992Z" fill="#79A2FF"/>
<path d="M451.21 400.728C451.21 400.728 443.413 397.148 436.57 405.728C445.199 407.832 451.21 400.728 451.21 400.728Z" fill="#79A2FF"/>
<path d="M448.007 407.831C448.007 407.831 440.21 404.252 433.367 412.832C441.996 414.936 448.007 407.831 448.007 407.831Z" fill="#79A2FF"/>
<path d="M446.068 414.841C446.068 414.841 438.257 411.261 431.414 419.855C440.056 421.959 446.068 414.841 446.068 414.841Z" fill="#79A2FF"/>
<path d="M443.549 421.385C443.549 421.385 435.37 418.994 429.809 428.503C438.655 429.296 443.549 421.385 443.549 421.385Z" fill="#79A2FF"/>
<path d="M443.225 429.159C443.225 429.159 434.964 426.781 429.512 436.345C438.331 437.083 443.225 429.159 443.225 429.159Z" fill="#79A2FF"/>
<path d="M416.176 319.011H305.504V456.771H416.176V319.011Z" fill="white"/>
<path d="M433.668 416.591H415.879V325.365L433.668 335.476V416.591Z" fill="#C9D9FF"/>
<path d="M305.495 416.591H287.992V335.476L305.495 320.256V416.591Z" fill="#C9D9FF"/>
<path d="M282.451 311.468H260.055L293.642 287.176H308.568L282.451 311.468Z" fill="#6991EA"/>
<path d="M327.283 311.468H304.859L323.507 287.176H338.501L327.283 311.468Z" fill="#6991EA"/>
<path d="M372.025 311.468H349.629C350.874 303.361 352.119 295.264 353.364 287.176H368.29C369.535 295.282 370.78 303.38 372.025 311.468Z" fill="#6991EA"/>
<path d="M416.806 311.468H394.41C390.684 303.361 386.954 295.264 383.219 287.176H398.159L416.806 311.468Z" fill="#6991EA"/>
<path d="M461.59 311.468H439.193L413.062 287.176H428.057L461.59 311.468Z" fill="#6991EA"/>
<path d="M304.857 311.468H282.461L308.578 287.176H323.573L304.857 311.468Z" fill="#E9FFFD"/>
<path d="M349.632 311.468H327.277L338.482 287.176H353.408C352.145 295.282 350.887 303.38 349.632 311.468Z" fill="#E9FFFD"/>
<path d="M394.41 311.468H372.028C370.774 303.361 369.529 295.264 368.293 287.176H383.287C386.977 295.282 390.685 303.38 394.41 311.468Z" fill="#E9FFFD"/>
<path d="M439.2 311.468H416.804L398.156 287.176H413.082L439.2 311.468Z" fill="#E9FFFD"/>
<path d="M260.074 311.469H282.47V328.479C282.47 331.07 281.443 333.554 279.616 335.386C277.788 337.218 275.309 338.248 272.724 338.248H269.821C267.236 338.248 264.757 337.218 262.929 335.386C261.101 333.554 260.074 331.07 260.074 328.479V311.469Z" fill="#79A2FF"/>
<path d="M304.859 311.469H327.255V328.479C327.255 331.07 326.229 333.554 324.401 335.386C322.573 337.218 320.094 338.248 317.509 338.248H314.606C312.021 338.248 309.542 337.218 307.714 335.386C305.886 333.554 304.859 331.07 304.859 328.479V311.469Z" fill="#79A2FF"/>
<path d="M349.629 311.469H372.025V328.479C372.025 331.07 370.998 333.554 369.17 335.386C367.343 337.218 364.864 338.248 362.279 338.248H359.375C356.79 338.248 354.311 337.218 352.484 335.386C350.656 333.554 349.629 331.07 349.629 328.479V311.469Z" fill="#79A2FF"/>
<path d="M394.422 311.469H416.818V328.479C416.818 331.07 415.791 333.554 413.963 335.386C412.135 337.218 409.656 338.248 407.072 338.248H404.168C401.583 338.248 399.104 337.218 397.277 335.386C395.449 333.554 394.422 331.07 394.422 328.479V311.469Z" fill="#79A2FF"/>
<path d="M439.199 311.469H461.595V328.479C461.595 331.07 460.569 333.554 458.741 335.386C456.913 337.218 454.434 338.248 451.849 338.248H448.946C446.361 338.248 443.882 337.218 442.054 335.386C440.226 333.554 439.199 331.07 439.199 328.479V311.469Z" fill="#79A2FF"/>
<path d="M282.461 311.469H304.857V328.479C304.857 331.07 303.83 333.554 302.002 335.386C300.175 337.218 297.696 338.248 295.111 338.248H292.207C289.622 338.248 287.143 337.218 285.316 335.386C283.488 333.554 282.461 331.07 282.461 328.479V311.469Z" fill="#D7F4F0"/>
<path d="M327.246 311.469H349.642V328.479C349.642 331.07 348.615 333.554 346.787 335.386C344.96 337.218 342.481 338.248 339.896 338.248H336.992C334.408 338.248 331.929 337.218 330.101 335.386C328.273 333.554 327.246 331.07 327.246 328.479V311.469Z" fill="#D7F4F0"/>
<path d="M372.023 311.469H394.419V328.479C394.419 331.07 393.393 333.554 391.565 335.386C389.737 337.218 387.258 338.248 384.673 338.248H381.77C379.185 338.248 376.706 337.218 374.878 335.386C373.05 333.554 372.023 331.07 372.023 328.479V311.469Z" fill="#D7F4F0"/>
<path d="M416.818 311.469H439.201V328.479C439.201 331.07 438.174 333.554 436.346 335.386C434.518 337.218 432.039 338.248 429.454 338.248H426.551C423.966 338.248 421.487 337.218 419.659 335.386C417.832 333.554 416.805 331.07 416.805 328.479V311.469H416.818Z" fill="#D7F4F0"/>
<path d="M428.013 277.858H293.664V287.19H428.013V277.858Z" fill="#79A2FF"/>
<path d="M434.601 420.579H287.043V473.754H434.601V420.579Z" fill="#C9D9FF"/>
<path d="M436.31 416.589H285.345C284.434 416.589 283.695 417.329 283.695 418.242V418.925C283.695 419.838 284.434 420.578 285.345 420.578H436.31C437.221 420.578 437.96 419.838 437.96 418.925V418.242C437.96 417.329 437.221 416.589 436.31 416.589Z" fill="#0033A4"/>
<path d="M444.179 468.481H277.496V482.814H444.179V468.481Z" fill="#0033A4"/>
<path d="M245.153 518.808C298.081 518.808 340.987 511.117 340.987 501.63C340.987 492.143 298.081 484.452 245.153 484.452C192.226 484.452 149.32 492.143 149.32 501.63C149.32 511.117 192.226 518.808 245.153 518.808Z" fill="#B5CEFF"/>
<path d="M155.031 442.262L328.025 442.275L284.541 475.325L183.098 477.621L155.031 442.262Z" fill="#0B2D50"/>
<path d="M330.464 377.174H308.586V408.571H330.464V377.174Z" fill="#E8E8E8"/>
<path d="M185.008 381.287C185.008 381.287 162.79 417.861 178.37 446.731C193.951 475.6 209.831 477.608 209.831 477.608L215.024 452.442C215.024 452.442 179.242 437.331 205.782 396.425C202.034 380.603 185.008 381.287 185.008 381.287Z" fill="#F9AF78"/>
<path d="M303.237 381.287C303.237 381.287 325.456 417.861 309.875 446.731C294.295 475.6 278.428 477.608 278.428 477.608L273.234 452.442C273.234 452.442 309.003 437.331 282.463 396.425C286.211 380.603 303.237 381.287 303.237 381.287Z" fill="#F9AF78"/>
<path d="M173.312 394.635C173.312 394.635 193.855 399.457 202.47 411.754C208.527 387.38 217.961 363.976 230.495 342.225C230.495 342.225 196.854 342.553 187.543 367.582C183.972 377.172 179.189 386.263 173.312 394.635Z" fill="#407BFF"/>
<path d="M313.126 394.634C313.126 394.634 292.584 399.457 283.969 411.753C277.912 387.36 268.474 363.937 255.93 342.17C255.93 342.17 283.792 339.109 296.823 362.404C307.606 381.696 313.126 394.634 313.126 394.634Z" fill="#407BFF"/>
<path d="M243.07 340.583C243.07 340.583 208.883 336.184 202.612 358.809C196.342 381.434 208.256 457.399 208.256 457.399H276.616C276.616 457.399 292.292 390.206 285.708 358.14C282.287 340.583 255.024 340.706 243.07 340.583Z" fill="#79A2FF"/>
<path d="M232.548 321.456C232.548 321.456 234.47 332.919 231.852 342.087C230.23 347.279 228.472 357.676 244.025 357.771C256.47 357.853 258.774 353.017 259.019 346.773C259.019 346.172 257.588 342.005 257.057 339.942C255.012 332.195 256.157 325.077 255.912 321.128C249.341 320.759 232.548 321.456 232.548 321.456Z" fill="#F9AF78"/>
<path d="M244.606 330.502C257.156 330.502 267.329 317.975 267.329 302.521C267.329 287.068 257.156 274.54 244.606 274.54C232.056 274.54 221.883 287.068 221.883 302.521C221.883 317.975 232.056 330.502 244.606 330.502Z" fill="#F9AF78"/>
<path d="M265.938 301.222C265.938 301.222 268.269 296.918 271.65 299.391C275.03 301.864 270.287 311.688 268.146 311.893C266.006 312.098 264.902 308.586 265.025 307.794C265.148 307.001 265.938 301.222 265.938 301.222Z" fill="#F9AF78"/>
<path d="M223.571 301.222C223.571 301.222 221.24 296.918 217.859 299.391C214.479 301.864 219.222 311.688 221.376 311.893C223.53 312.098 224.62 308.586 224.484 307.794C224.348 307.001 223.571 301.222 223.571 301.222Z" fill="#F9AF78"/>
<path d="M254.115 304.309C254.92 304.309 255.573 303.477 255.573 302.451C255.573 301.425 254.92 300.593 254.115 300.593C253.309 300.593 252.656 301.425 252.656 302.451C252.656 303.477 253.309 304.309 254.115 304.309Z" fill="#0B2D50"/>
<path d="M254.008 303.806C254.287 303.806 254.513 303.537 254.513 303.205C254.513 302.873 254.287 302.604 254.008 302.604C253.73 302.604 253.504 302.873 253.504 303.205C253.504 303.537 253.73 303.806 254.008 303.806Z" fill="white"/>
<path d="M259.367 300.211C259.367 300.211 257.036 296.7 253.724 296.112C250.411 295.525 250.316 298.162 251.529 298.462C252.742 298.763 256.695 298.845 259.367 300.211Z" fill="#0B2D50"/>
<path d="M236.044 304.309C236.85 304.309 237.503 303.477 237.503 302.451C237.503 301.425 236.85 300.593 236.044 300.593C235.239 300.593 234.586 301.425 234.586 302.451C234.586 303.477 235.239 304.309 236.044 304.309Z" fill="#0B2D50"/>
<path d="M236.149 303.806C236.427 303.806 236.653 303.537 236.653 303.205C236.653 302.873 236.427 302.604 236.149 302.604C235.87 302.604 235.645 302.873 235.645 303.205C235.645 303.537 235.87 303.806 236.149 303.806Z" fill="white"/>
<path d="M230.777 300.211C230.777 300.211 233.122 296.7 236.421 296.112C239.719 295.525 239.828 298.162 238.615 298.462C237.402 298.763 233.463 298.845 230.777 300.211Z" fill="#0B2D50"/>
<path d="M268.044 281.959C265.713 276.999 263.955 276.931 263.955 276.931C263.955 276.931 263.955 262.927 247.325 265.263C235.125 268.378 234.825 273.324 222.789 276.576C221.109 277.165 219.332 277.429 217.554 277.354C219.023 279.52 221.061 281.237 223.443 282.314C220.24 283.229 216.75 279.909 216.75 279.909C216.776 281.417 217.16 282.896 217.872 284.225C218.583 285.553 219.6 286.692 220.839 287.547C220.086 291.208 220.003 294.977 220.594 298.668C221.928 301.011 222.85 303.567 223.32 306.223C223.838 310.035 222.925 313.273 223.702 317.7C224.479 322.127 230.027 331.65 232.794 334.232C238.246 339.301 245.839 339.601 253.241 337.511C260.642 335.421 264.214 322.646 265.645 319.394C267.076 316.143 266.027 307.959 266.681 305.226C267.174 302.939 267.914 300.712 268.889 298.586C268.889 298.586 271.384 291.96 268.044 281.959ZM264.282 298.9C264.116 300.32 264.039 301.748 264.05 303.177C264.167 305.417 264.13 307.663 263.941 309.899C263.26 313.342 260.097 320.569 253.99 317.441C247.884 314.312 237.061 315.282 231.744 317.099C226.428 318.916 227.069 310.759 226.033 307.726C224.997 304.693 225.774 303.122 226.033 301.182C226.292 299.242 229.4 296.851 229.4 291.495C235.275 292.861 250.187 295.034 257.725 285.566C257.725 285.566 258.093 292.697 263.832 296.496L264.2 297.001C264.325 297.64 264.353 298.294 264.282 298.941V298.9Z" fill="#0B2D50"/>
<path d="M236.102 319.53C236.102 319.53 249.542 320.61 253.727 319.53C249.051 325.87 241.554 328.998 236.102 319.53Z" fill="white"/>
<path d="M206.078 474.602C206.078 474.602 240.02 484.261 281.05 474.602C268.373 490.122 254.837 494.125 243.564 495.096C232.291 496.066 206.078 474.602 206.078 474.602Z" fill="#0B2D50"/>
<path d="M254.692 491.364C246.438 493.15 237.991 493.871 229.556 493.509C216.592 497.458 225.057 511.079 229.637 511.967C234.667 512.937 257.922 511.599 261.643 500.614C259.203 490.995 254.692 491.364 254.692 491.364Z" fill="#E2915A"/>
<path d="M240.294 493.346C240.294 493.346 243.184 502.773 241.657 511.599C237.97 512.18 234.235 512.39 230.507 512.227C230.598 505.973 230.266 499.719 229.512 493.51L240.294 493.346Z" fill="#F9F9F8"/>
<path d="M235.033 512.214C234.228 510.248 233.969 508.1 234.284 505.998C234.708 506.057 235.141 505.977 235.516 505.771C235.892 505.564 236.191 505.241 236.369 504.85C237.021 503.88 237.326 502.717 237.235 501.551C237.143 500.385 236.66 499.285 235.865 498.429C235.191 497.757 234.304 497.341 233.357 497.254C232.212 494.74 233.357 493.578 233.357 493.578C233.357 493.578 199.77 487.266 197.698 495.887C195.626 504.508 202.06 511.613 213.523 512.61C220.689 513.196 227.894 513.064 235.033 512.214Z" fill="#407BFF"/>
<path d="M215.732 512.72C204.281 511.723 197.834 504.605 199.906 495.997C200.874 491.994 208.616 491.215 216.631 491.529C207.88 490.983 198.747 491.529 197.698 495.888C195.612 504.495 202.06 511.614 213.523 512.611C215.05 512.748 216.563 512.83 218.035 512.884L215.732 512.72Z" fill="#F9F9F8"/>
<path d="M249.754 488.414C253.927 493.703 256.284 500.201 256.474 506.941C266.929 506.504 359.73 480.094 349.998 453.247C344.341 441.907 329.946 440.841 319.423 443.423C308.9 446.006 288.562 473.345 249.754 488.414Z" fill="#0B2D50"/>
<path d="M231.747 491.364C231.747 491.364 241.779 494.78 256.883 493.509C269.846 497.458 265.907 509.904 261.613 511.721C257.033 513.662 228.53 511.599 224.809 500.614C227.235 490.995 231.747 491.364 231.747 491.364Z" fill="#F9AF78"/>
<path d="M246.156 493.729C246.156 493.729 242.502 502.432 243.988 511.259C249.195 512.188 250.136 512.174 261.709 512.966C261.709 500.67 256.952 493.538 256.952 493.538L246.156 493.729Z" fill="#F9F9F8"/>
<path d="M251.401 512.214C252.206 510.248 252.466 508.1 252.151 505.998C251.726 506.057 251.294 505.977 250.918 505.771C250.542 505.564 250.243 505.241 250.065 504.85C249.415 503.879 249.112 502.717 249.203 501.551C249.295 500.386 249.776 499.286 250.569 498.429C251.244 497.757 252.131 497.341 253.077 497.254C254.223 494.74 253.077 493.578 253.077 493.578C253.077 493.578 286.665 487.266 288.737 495.887C290.809 504.508 284.375 511.613 272.925 512.61C265.755 513.196 258.544 513.064 251.401 512.214Z" fill="#407BFF"/>
<path d="M288.748 495.888C288.121 493.264 284.563 492.021 279.929 491.57C283.241 492.199 285.64 493.415 286.145 495.519C288.217 504.126 281.769 511.244 270.319 512.242C264.039 512.759 257.726 512.722 251.453 512.133V512.215C258.597 513.064 265.807 513.197 272.977 512.611C284.386 511.613 290.834 504.495 288.748 495.888Z" fill="#F9F9F8"/>
<path d="M236.688 488.414C232.515 493.703 230.158 500.201 229.968 506.941C219.513 506.504 126.712 480.094 136.445 453.247C142.101 441.907 156.496 440.841 167.019 443.423C177.543 446.006 197.88 473.345 236.688 488.414Z" fill="#0B2D50"/>
<path d="M288.701 484.999H200.316C198.918 484.999 197.57 484.47 196.544 483.518C195.518 482.565 194.888 481.259 194.782 479.861L189.602 412.272C189.544 411.508 189.644 410.741 189.895 410.017C190.147 409.294 190.545 408.63 191.065 408.069C191.585 407.507 192.215 407.059 192.915 406.752C193.616 406.446 194.372 406.288 195.136 406.288H293.881C294.645 406.288 295.401 406.446 296.102 406.752C296.803 407.059 297.432 407.507 297.952 408.069C298.472 408.63 298.87 409.294 299.122 410.017C299.373 410.741 299.473 411.508 299.415 412.272L294.235 479.861C294.129 481.259 293.499 482.565 292.473 483.518C291.447 484.47 290.1 484.999 288.701 484.999Z" fill="#E8E6E6"/>
<path d="M244.513 453.766C249.67 453.766 253.851 449.576 253.851 444.407C253.851 439.238 249.67 435.048 244.513 435.048C239.356 435.048 235.176 439.238 235.176 444.407C235.176 449.576 239.356 453.766 244.513 453.766Z" fill="#FCFCFC"/>
<path d="M244.509 453.041C248.694 453.041 252.088 449.639 252.088 445.444C252.088 441.249 248.694 437.848 244.509 437.848C240.323 437.848 236.93 441.249 236.93 445.444C236.93 449.639 240.323 453.041 244.509 453.041Z" fill="white"/>
<path d="M411.569 346.174H365.223V351.188H411.569V346.174Z" fill="#E8E8E8"/>
<path d="M411.569 360.518H365.223V365.532H411.569V360.518Z" fill="#E8E8E8"/>
<path d="M411.569 374.864H365.223V379.878H411.569V374.864Z" fill="#E8E8E8"/>
<path d="M411.569 389.209H365.223V394.223H411.569V389.209Z" fill="#E8E8E8"/>
<path d="M411.569 403.556H365.223V408.57H411.569V403.556Z" fill="#E8E8E8"/>
<path d="M330.464 341.171H308.586V372.568H330.464V341.171Z" fill="#E8E8E8"/>
<path d="M355.683 341.171H333.805V372.568H355.683V341.171Z" fill="#E8E8E8"/>
<path d="M355.683 377.174H333.805V408.571H355.683V377.174Z" fill="#E8E8E8"/>
</g>
<defs>
<linearGradient id="paint0_linear_2317_11626" x1="1.04864" y1="256.516" x2="556.179" y2="256.516" gradientUnits="userSpaceOnUse">
<stop stop-color="#E2F4FF"/>
<stop offset="1" stop-color="#D7ECFF"/>
</linearGradient>
<linearGradient id="paint1_linear_2317_11626" x1="301.334" y1="98.3296" x2="301.334" y2="55.0874" gradientUnits="userSpaceOnUse">
<stop stop-color="white"/>
<stop offset="1" stop-color="#E9F3FE"/>
</linearGradient>
<linearGradient id="paint2_linear_2317_11626" x1="425.315" y1="170.461" x2="425.315" y2="57.8656" gradientUnits="userSpaceOnUse">
<stop stop-color="#DAEBFD"/>
<stop offset="1" stop-color="#7FB4FD"/>
</linearGradient>
<linearGradient id="paint3_linear_2317_11626" x1="18878.9" y1="326.624" x2="40351.9" y2="326.624" gradientUnits="userSpaceOnUse">
<stop stop-color="#8AD3FF"/>
<stop offset="1" stop-color="#5F9CFF"/>
</linearGradient>
<linearGradient id="paint4_linear_2317_11626" x1="367.309" y1="265.627" x2="518.067" y2="265.627" gradientUnits="userSpaceOnUse">
<stop stop-color="#9972FF"/>
<stop offset="1" stop-color="#7F85FF"/>
</linearGradient>
<linearGradient id="paint5_linear_2317_11626" x1="482.172" y1="283.845" x2="510.082" y2="283.845" gradientUnits="userSpaceOnUse">
<stop stop-color="#294698"/>
<stop offset="1" stop-color="#0E4BA6"/>
</linearGradient>
<linearGradient id="paint6_linear_2317_11626" x1="5181.63" y1="1635.13" x2="5737.07" y2="1635.13" gradientUnits="userSpaceOnUse">
<stop stop-color="#E2F4FF"/>
<stop offset="1" stop-color="#D7ECFF"/>
</linearGradient>
<linearGradient id="paint7_linear_2317_11626" x1="5906.27" y1="1635.13" x2="6461.72" y2="1635.13" gradientUnits="userSpaceOnUse">
<stop stop-color="#E2F4FF"/>
<stop offset="1" stop-color="#D7ECFF"/>
</linearGradient>
<linearGradient id="paint8_linear_2317_11626" x1="6630.89" y1="1635.13" x2="7186.34" y2="1635.13" gradientUnits="userSpaceOnUse">
<stop stop-color="#E2F4FF"/>
<stop offset="1" stop-color="#D7ECFF"/>
</linearGradient>
<linearGradient id="paint9_linear_2317_11626" x1="7355.54" y1="1635.13" x2="7910.98" y2="1635.13" gradientUnits="userSpaceOnUse">
<stop stop-color="#E2F4FF"/>
<stop offset="1" stop-color="#D7ECFF"/>
</linearGradient>
<linearGradient id="paint10_linear_2317_11626" x1="5459.35" y1="2255.14" x2="5459.35" y2="2441.82" gradientUnits="userSpaceOnUse">
<stop stop-color="#8AD3FF"/>
<stop offset="1" stop-color="#5F9CFF"/>
</linearGradient>
<linearGradient id="paint11_linear_2317_11626" x1="6190.3" y1="2255.14" x2="6190.3" y2="2441.82" gradientUnits="userSpaceOnUse">
<stop stop-color="#8AD3FF"/>
<stop offset="1" stop-color="#5F9CFF"/>
</linearGradient>
<linearGradient id="paint12_linear_2317_11626" x1="6921.24" y1="2255.14" x2="6921.24" y2="2441.82" gradientUnits="userSpaceOnUse">
<stop stop-color="#8AD3FF"/>
<stop offset="1" stop-color="#5F9CFF"/>
</linearGradient>
<linearGradient id="paint13_linear_2317_11626" x1="6938.06" y1="2327.26" x2="26575.5" y2="2327.26" gradientUnits="userSpaceOnUse">
<stop stop-color="#8AD3FF"/>
<stop offset="1" stop-color="#5F9CFF"/>
</linearGradient>
<linearGradient id="paint14_linear_2317_11626" x1="3518.15" y1="1228.6" x2="4007.94" y2="1228.6" gradientUnits="userSpaceOnUse">
<stop stop-color="#294698"/>
<stop offset="1" stop-color="#0E4BA6"/>
</linearGradient>
<linearGradient id="paint15_linear_2317_11626" x1="1626.02" y1="14.7801" x2="1626.02" y2="456.224" gradientUnits="userSpaceOnUse">
<stop stop-color="#8AD3FF"/>
<stop offset="1" stop-color="#5F9CFF"/>
</linearGradient>
<linearGradient id="paint16_linear_2317_11626" x1="5421.39" y1="14.0117" x2="5421.39" y2="752.486" gradientUnits="userSpaceOnUse">
<stop stop-color="#8AD3FF"/>
<stop offset="1" stop-color="#5F9CFF"/>
</linearGradient>
<clipPath id="clip0_2317_11626">
<rect width="557" height="531" fill="white"/>
</clipPath>
</defs>
</svg>
