<svg width="27" height="39" viewBox="0 0 27 39" fill="none" xmlns="http://www.w3.org/2000/svg">
<path d="M14.4009 21.0642V20.408C16.1509 20.1892 17.5259 18.6892 17.5259 16.8767C17.5259 15.2205 16.4009 13.8142 14.8384 13.408L12.5884 12.8455C11.8384 12.658 11.3071 11.9705 11.3071 11.1892C11.3071 10.2517 12.0571 9.50171 12.9946 9.50171H14.0884C14.9634 9.50171 15.6509 10.1892 15.6509 11.0642C15.6509 11.5955 16.0571 12.0017 16.5884 12.0017C17.1196 12.0017 17.5259 11.5955 17.5259 11.0642C17.5259 9.28296 16.1509 7.81421 14.4009 7.65796V7.00171C14.4009 6.47046 13.9946 6.06421 13.4634 6.06421C12.9321 6.06421 12.5259 6.47046 12.5259 7.00171V7.65796C10.7759 7.87671 9.40088 9.37671 9.40088 11.1892C9.40088 12.8455 10.5259 14.2517 12.0884 14.658L14.3384 15.2205C15.0884 15.408 15.6196 16.0955 15.6196 16.8767C15.6196 17.8142 14.8696 18.5642 13.9321 18.5642H12.8384C11.9634 18.5642 11.2759 17.8767 11.2759 17.0017C11.2759 16.4705 10.8696 16.0642 10.3384 16.0642C9.80713 16.0642 9.40088 16.4705 9.40088 17.0017C9.40088 18.783 10.7759 20.2517 12.5259 20.408V21.0642C12.5259 21.5955 12.9321 22.0017 13.4634 22.0017C13.9946 22.0017 14.4009 21.5955 14.4009 21.0642Z" fill="#126D2C"/>
<path d="M22.8384 27.7205C22.3696 27.658 21.9009 27.6267 21.4321 27.6267C18.8071 27.6267 16.3384 28.783 14.6196 30.783C14.5571 30.8455 14.4946 30.9392 14.4321 31.0017V27.4392C21.4009 26.908 26.9009 21.0955 26.9009 14.033C26.9009 6.62671 20.8696 0.595459 13.4634 0.595459C6.05713 0.595459 0.0258789 6.62671 0.0258789 14.033C0.0258789 21.158 5.58838 26.9705 12.5884 27.4392V32.533C11.4009 31.3455 9.80713 30.658 8.11963 30.658C7.80713 30.658 7.46338 30.6892 7.15088 30.7205C6.74463 30.783 6.43213 31.0955 6.36963 31.5017C6.08838 33.3142 6.61963 35.158 7.80713 36.5642C7.93213 36.7205 8.05713 36.8455 8.21338 37.0017H4.15088C3.61963 37.0017 3.21338 37.408 3.21338 37.9392C3.21338 38.4705 3.61963 38.8767 4.15088 38.8767H15.2134C17.6509 38.7517 19.9634 37.6267 21.5884 35.7517C23.3071 33.7517 24.0571 31.1267 23.6509 28.533C23.5571 28.1267 23.2446 27.783 22.8384 27.7205ZM16.0571 32.0017C17.4946 30.3142 19.6196 29.408 21.8384 29.533L14.4634 36.908V35.4705C14.6509 34.1892 15.2134 33.0017 16.0571 32.0017ZM1.90088 14.033C1.90088 7.65796 7.08838 2.47046 13.4634 2.47046C19.8384 2.47046 25.0259 7.65796 25.0259 14.033C25.0259 20.408 19.8384 25.5955 13.4634 25.5955C7.08838 25.5955 1.90088 20.408 1.90088 14.033ZM11.4634 34.0955C12.0259 34.7517 12.3696 35.533 12.4946 36.3767V36.908C11.2446 36.8767 10.0571 36.3142 9.21338 35.3455C8.52588 34.533 8.15088 33.5642 8.15088 32.533C9.43213 32.533 10.6196 33.0955 11.4634 34.0955ZM0.338379 37.283C0.150879 37.4705 0.057129 37.6892 0.057129 37.9392C0.057129 38.1892 0.150879 38.4392 0.338379 38.5955C0.525879 38.783 0.744629 38.8767 0.994629 38.8767C1.24463 38.8767 1.49463 38.783 1.65088 38.5955C1.83838 38.408 1.93213 38.1892 1.93213 37.9392C1.93213 37.6892 1.83838 37.4392 1.65088 37.283C1.33838 36.9392 0.713379 36.9392 0.338379 37.283Z" fill="#126D2C"/>
</svg>
