<svg width="29" height="40" viewBox="0 0 29 40" fill="none" xmlns="http://www.w3.org/2000/svg">
<path d="M27.7344 0H1.17188C0.524609 0 0 0.524609 0 1.17188V38.8281C0 39.4754 0.524609 40 1.17188 40H27.7344C28.3816 40 28.9062 39.4754 28.9062 38.8281V1.17188C28.9062 0.524609 28.3816 0 27.7344 0ZM12.5781 33.6719H5.85938C5.21211 33.6719 4.6875 33.1473 4.6875 32.5C4.6875 31.8527 5.21211 31.3281 5.85938 31.3281H12.5781C13.2254 31.3281 13.75 31.8527 13.75 32.5C13.75 33.1473 13.2254 33.6719 12.5781 33.6719ZM12.5781 28.9844H5.85938C5.21211 28.9844 4.6875 28.4598 4.6875 27.8125C4.6875 27.1652 5.21211 26.6406 5.85938 26.6406H12.5781C13.2254 26.6406 13.75 27.1652 13.75 27.8125C13.75 28.4598 13.2254 28.9844 12.5781 28.9844ZM12.5781 24.2969H5.85938C5.21211 24.2969 4.6875 23.7723 4.6875 23.125C4.6875 22.4777 5.21211 21.9531 5.85938 21.9531H12.5781C13.2254 21.9531 13.75 22.4777 13.75 23.125C13.75 23.7723 13.2254 24.2969 12.5781 24.2969ZM12.5781 13.2812H5.85938C5.21211 13.2812 4.6875 12.7566 4.6875 12.1094C4.6875 11.4621 5.21211 10.9375 5.85938 10.9375H12.5781C13.2254 10.9375 13.75 11.4621 13.75 12.1094C13.75 12.7566 13.2254 13.2812 12.5781 13.2812ZM23.0469 33.6719H19.9219C19.2746 33.6719 18.75 33.1473 18.75 32.5C18.75 31.8527 19.2746 31.3281 19.9219 31.3281H23.0469C23.6941 31.3281 24.2188 31.8527 24.2188 32.5C24.2188 33.1473 23.6941 33.6719 23.0469 33.6719ZM23.0469 28.9844H19.9219C19.2746 28.9844 18.75 28.4598 18.75 27.8125C18.75 27.1652 19.2746 26.6406 19.9219 26.6406H23.0469C23.6941 26.6406 24.2188 27.1652 24.2188 27.8125C24.2188 28.4598 23.6941 28.9844 23.0469 28.9844ZM23.0469 24.2969H19.9219C19.2746 24.2969 18.75 23.7723 18.75 23.125C18.75 22.4777 19.2746 21.9531 19.9219 21.9531H23.0469C23.6941 21.9531 24.2188 22.4777 24.2188 23.125C24.2188 23.7723 23.6941 24.2969 23.0469 24.2969ZM20.7031 10.9375C22.6416 10.9375 24.2188 12.5147 24.2188 14.4531C24.2188 15.9809 23.2391 17.2834 21.875 17.7673V18.3594C21.875 19.0066 21.3504 19.5312 20.7031 19.5312C20.0559 19.5312 19.5312 19.0066 19.5312 18.3594V17.9688H18.3594C17.7121 17.9688 17.1875 17.4441 17.1875 16.7969C17.1875 16.1496 17.7121 15.625 18.3594 15.625H20.7031C21.3492 15.625 21.875 15.0992 21.875 14.4531C21.875 13.807 21.3492 13.2812 20.7031 13.2812C18.7646 13.2812 17.1875 11.7041 17.1875 9.76562C17.1875 8.23789 18.1672 6.93539 19.5312 6.45141V5.85938C19.5312 5.21211 20.0559 4.6875 20.7031 4.6875C21.3504 4.6875 21.875 5.21211 21.875 5.85938V6.25H23.0469C23.6941 6.25 24.2188 6.77461 24.2188 7.42188C24.2188 8.06914 23.6941 8.59375 23.0469 8.59375H20.7031C20.057 8.59375 19.5312 9.11953 19.5312 9.76562C19.5312 10.4117 20.057 10.9375 20.7031 10.9375Z" fill="#7A5CD1"/>
</svg>
