<svg width="38" height="39" viewBox="0 0 38 39" fill="none" xmlns="http://www.w3.org/2000/svg">
<path d="M20.9942 13.7349L20.9278 13.6764H17.2859L17.2192 13.7359C16.2949 14.5599 11.6838 18.9511 11.6838 24.4905C11.6838 26.8619 12.8517 27.5816 13.7302 27.9167C15.0826 28.4326 17.0524 28.4326 19.1381 28.4326C21.2238 28.4326 23.1956 28.4326 24.5479 27.9167C25.4263 27.5816 26.5942 26.8618 26.5942 24.4905C26.5942 18.9488 21.9292 14.5587 20.9941 13.7349H20.9942ZM20.4716 24.9906C20.2329 25.1179 19.9779 25.2118 19.7136 25.2696L19.5299 25.3103V26.4017C19.5299 26.6171 19.3546 26.7923 19.1392 26.7923C18.9238 26.7923 18.7486 26.6171 18.7486 26.4017V25.3324L18.5538 25.299C18.3347 25.2619 18.1205 25.1997 17.9155 25.1137C17.2799 24.8452 16.8206 24.3598 16.6554 23.7816C16.6412 23.7323 16.6368 23.6807 16.6427 23.6297C16.6485 23.5787 16.6644 23.5294 16.6895 23.4846C16.7142 23.4397 16.7477 23.4001 16.7879 23.3682C16.8281 23.3363 16.8742 23.3127 16.9235 23.2987C16.9586 23.2886 16.995 23.2834 17.0315 23.2833C17.1163 23.2837 17.1986 23.3115 17.2662 23.3626C17.3338 23.4137 17.3831 23.4853 17.4065 23.5668C17.5435 24.0455 17.9746 24.2906 18.2196 24.3941C18.4763 24.5026 18.766 24.5599 19.0574 24.5599C19.4269 24.5599 19.788 24.4708 20.1019 24.3023C20.6369 24.015 20.939 23.4184 20.8367 22.8514C20.7035 22.112 19.9621 21.5969 18.8028 21.4382C17.8538 21.3083 17.158 20.7944 16.8938 20.0283C16.6565 19.3399 16.832 18.5566 17.3409 18.0326C17.6517 17.7123 18.0869 17.476 18.5663 17.3669L18.7487 17.3255V16.2372C18.7487 16.0218 18.9239 15.8466 19.1393 15.8466C19.3547 15.8466 19.5299 16.0218 19.5299 16.2372V17.313L19.7185 17.3505C20.3349 17.4733 20.8751 17.8021 21.2805 18.3014C21.3456 18.3819 21.3762 18.4849 21.3655 18.5879C21.3549 18.691 21.3038 18.7855 21.2235 18.8509C21.1541 18.9077 21.0671 18.9385 20.9775 18.9383C20.9194 18.9384 20.8619 18.9255 20.8094 18.9005C20.7569 18.8755 20.7106 18.8391 20.674 18.7939C20.3204 18.3584 19.8207 18.105 19.267 18.0803C19.2381 18.079 19.2091 18.0784 19.1802 18.0784C18.6825 18.0784 18.2045 18.2648 17.9014 18.5768C17.596 18.8914 17.4903 19.3612 17.6325 19.7735C17.7996 20.258 18.2529 20.5743 18.9088 20.6641C20.4031 20.8686 21.4113 21.6344 21.6057 22.7126C21.7699 23.6226 21.3142 24.538 20.4717 24.9905L20.4716 24.9906ZM17.2731 12.7891C16.7763 12.0295 16.5222 11.2535 16.4964 10.4166L16.4924 10.286L17.1164 9.87296L17.9095 10.398C17.9736 10.4405 18.0482 10.4629 18.1253 10.4629C18.2023 10.4629 18.2767 10.4404 18.3409 10.3979L19.1338 9.87296L19.9266 10.398C19.9907 10.4405 20.0653 10.4629 20.1423 10.4629C20.2192 10.4629 20.2938 10.4405 20.358 10.398L21.1508 9.87288L21.7807 10.2902L21.7828 10.4135C21.8006 11.4555 21.5407 12.2435 20.9886 12.8226L20.9194 12.8952H17.3424L17.2729 12.7892L17.2731 12.7891ZM30.1932 11.8011C30.2756 11.5473 30.2038 11.2584 30.0104 11.0651L27.6536 8.70843C27.5139 8.56866 27.3296 8.49179 27.1346 8.49179C27.0643 8.49179 26.9945 8.5021 26.9272 8.52241C26.4529 8.66655 25.9891 8.88491 25.5485 9.17163C25.3048 9.33015 25.0196 9.41405 24.7236 9.41405C24.4972 9.41405 24.2709 9.36304 24.0691 9.26647C23.7005 9.09023 23.3228 8.93391 22.9374 8.79819C22.4315 8.6203 22.0496 8.19147 21.9405 7.67937C21.8324 7.17132 21.6664 6.69601 21.4472 6.26647C21.3258 6.0289 21.0706 5.87538 20.7968 5.87538H17.4651C17.1928 5.87538 16.9452 6.02194 16.819 6.25788C16.5857 6.69452 16.4122 7.17671 16.3033 7.69108C16.1952 8.20241 15.8206 8.62874 15.3257 8.80382C14.9406 8.94003 14.5632 9.09679 14.1949 9.27343C13.9837 9.37439 13.7526 9.42692 13.5185 9.42718C13.2224 9.42718 12.9385 9.34444 12.6974 9.18788C12.2614 8.90491 11.8077 8.68601 11.3488 8.53733C11.2793 8.51483 11.2066 8.50341 11.1335 8.50351C10.9382 8.50439 10.7511 8.58226 10.6128 8.72023L8.25619 11.0769C8.06385 11.2692 7.9926 11.5476 8.07018 11.8035C8.214 12.2774 8.43236 12.7412 8.71916 13.182C9.00447 13.6205 9.04088 14.1875 8.81408 14.6616C8.63782 15.0301 8.48156 15.4078 8.34596 15.7931C8.16791 16.2991 7.73908 16.6812 7.22689 16.7901C6.71853 16.8983 6.2433 17.0644 5.81416 17.2834C5.57658 17.4047 5.42307 17.6599 5.42307 17.9337V21.2655C5.42307 21.5378 5.56963 21.7854 5.80557 21.9116C6.24236 22.1449 6.72455 22.3183 7.23885 22.4272C7.75033 22.5355 8.17666 22.9101 8.35158 23.4049C8.48773 23.79 8.64455 24.1675 8.82135 24.5357C9.05369 25.0199 9.02088 25.5938 8.73549 26.0332C8.4526 26.4691 8.23369 26.9227 8.08502 27.3817C8.00275 27.6354 8.07447 27.9243 8.26783 28.1178L10.6246 30.4745C10.7644 30.6142 10.9485 30.6911 11.1433 30.6911C11.2137 30.6911 11.2837 30.6808 11.3511 30.6603C11.8251 30.5165 12.2889 30.2981 12.7298 30.0112C12.9735 29.8526 13.2587 29.7688 13.5546 29.7688C13.781 29.7688 14.0074 29.8198 14.2092 29.9164C14.5777 30.0926 14.9554 30.2489 15.3406 30.3845C15.8467 30.5626 16.2287 30.9915 16.3378 31.5035C16.446 32.0118 16.6121 32.4871 16.831 32.9163C16.9524 33.154 17.2077 33.3075 17.4814 33.3075H20.8131C21.0855 33.3075 21.3331 33.1609 21.4592 32.9249C21.6925 32.4883 21.866 32.0061 21.9749 31.4918C22.0831 30.9803 22.4577 30.554 22.9526 30.379C23.3377 30.2428 23.7152 30.0861 24.0834 29.9093C24.2946 29.8084 24.5256 29.7559 24.7597 29.7556C25.0557 29.7556 25.3396 29.8384 25.5808 29.9948C26.0167 30.278 26.4706 30.4969 26.9294 30.6455C26.999 30.668 27.0718 30.6794 27.1449 30.6794C27.3402 30.6785 27.5272 30.6006 27.6654 30.4626L30.0221 28.1059C30.2144 27.9138 30.2857 27.6354 30.2081 27.3794C30.0641 26.9052 29.8457 26.4414 29.5591 26.0008C29.2738 25.5623 29.2374 24.9954 29.4642 24.5212C29.6404 24.1528 29.7967 23.7751 29.9323 23.3898C30.1103 22.8838 30.5392 22.5018 31.0514 22.3927C31.5596 22.2845 32.0349 22.1185 32.4641 21.8994C32.7017 21.7782 32.8552 21.523 32.8552 21.2491V17.9173C32.8552 17.6449 32.7086 17.3973 32.4727 17.2713C32.0361 17.038 31.5538 16.8645 31.0395 16.7556C30.5281 16.6473 30.1017 16.2726 29.9267 15.7779C29.7906 15.3928 29.6338 15.0154 29.457 14.6472C29.2246 14.163 29.2574 13.5891 29.5428 13.1497C29.8257 12.7139 30.0446 12.2601 30.1933 11.8011H30.1932ZM24.8266 28.6467C23.3397 29.214 21.2997 29.214 19.1401 29.214C16.9805 29.214 14.9387 29.214 13.4517 28.6467C11.7365 27.9923 10.9027 26.6328 10.9027 24.4905C10.9027 21.7895 11.9399 18.9423 13.9022 16.2569C14.9306 14.8496 15.9572 13.8329 16.4776 13.352L16.6187 13.2217L16.5186 13.0577C15.9446 12.1178 15.6751 11.108 15.7176 10.0563C15.7227 9.93132 15.7879 9.81546 15.8922 9.7464L16.9008 9.07858C16.9649 9.03616 17.0395 9.01366 17.1165 9.01366C17.1935 9.01366 17.268 9.03608 17.3322 9.07858L18.1253 9.60358L18.9182 9.07866C18.9824 9.03608 19.0569 9.01366 19.1338 9.01366C19.2108 9.01366 19.2853 9.03608 19.3496 9.07858L20.1424 9.60358L20.9352 9.07858C20.9993 9.03608 21.0739 9.01366 21.1509 9.01366C21.2278 9.01366 21.3024 9.03608 21.3666 9.07858L22.375 9.7464C22.425 9.77972 22.4667 9.82405 22.4969 9.87598C22.5271 9.92792 22.545 9.98608 22.5492 10.046C22.6333 11.3066 22.3751 12.3339 21.7819 13.0992L21.6503 13.2691L21.8081 13.4149C22.3211 13.8893 23.3328 14.8891 24.342 16.2551C26.3267 18.9408 27.3757 21.7885 27.3757 24.4903C27.3757 26.6326 26.5419 27.9921 24.8267 28.6466L24.8266 28.6467ZM1.96205 26.0991C1.83207 26.099 1.70552 26.0574 1.60084 25.9803C1.49617 25.9033 1.41886 25.7948 1.38018 25.6707C0.45791 22.7123 0.296347 19.5328 0.91291 16.4762C1.81033 12.0275 4.29525 8.07046 7.90994 5.33405C11.1272 2.89851 15.0281 1.58187 19.0203 1.5596L18.7418 1.36671C18.6114 1.27364 18.5229 1.13297 18.4953 0.975128C18.4678 0.817286 18.5036 0.654957 18.5948 0.52325C18.686 0.391542 18.8254 0.301043 18.9829 0.271324C19.1403 0.241606 19.3031 0.275057 19.4361 0.364443L21.3379 1.6821C21.4188 1.73814 21.4849 1.81291 21.5305 1.90003C21.5762 1.98714 21.6002 2.08402 21.6003 2.1824C21.6005 2.28077 21.5768 2.37772 21.5313 2.46496C21.4859 2.55221 21.42 2.62716 21.3393 2.68343L19.5319 3.94312C19.4299 4.01445 19.3083 4.05269 19.1838 4.05265C19.054 4.05283 18.9275 4.01153 18.8227 3.93478C18.718 3.85803 18.6405 3.74984 18.6015 3.62596C18.5625 3.50209 18.5641 3.369 18.6061 3.24611C18.648 3.12321 18.7281 3.01692 18.8347 2.94272L19.0713 2.7778C10.9158 2.80015 3.74424 8.60632 2.10807 16.7173C1.53189 19.5737 1.68268 22.5442 2.54424 25.3078C2.57268 25.3991 2.57926 25.4958 2.56345 25.5901C2.54764 25.6844 2.50987 25.7736 2.45321 25.8506C2.39654 25.9276 2.32257 25.9902 2.23725 26.0334C2.15193 26.0765 2.05766 26.099 1.96205 26.099V26.0991ZM37.36 23.8284C36.9749 25.7379 36.3042 27.5501 35.3649 29.2297L35.8924 29.0405C36.0447 28.9861 36.2123 28.9942 36.3585 29.0633C36.5046 29.1323 36.6174 29.2566 36.6721 29.4087C36.7266 29.561 36.7184 29.7286 36.6493 29.8748C36.5803 30.021 36.456 30.1338 36.3038 30.1883L34.0726 30.988C33.9818 31.0206 33.8845 31.0312 33.7887 31.0188C33.693 31.0064 33.6016 30.9714 33.5221 30.9168C33.4425 30.8622 33.377 30.7895 33.3309 30.7046C33.2849 30.6198 33.2597 30.5252 33.2574 30.4287L33.2012 28.0936C33.1973 27.9319 33.2578 27.7754 33.3694 27.6583C33.4809 27.5413 33.6344 27.4734 33.796 27.4694L33.811 27.4693C33.9701 27.4694 34.1229 27.5316 34.2367 27.6428C34.3505 27.754 34.4164 27.9052 34.4202 28.0643L34.4284 28.4041C35.2396 26.9001 35.8223 25.2848 36.1648 23.5872C38.0588 14.1976 31.9608 5.01788 22.5714 3.12382C22.493 3.10799 22.4184 3.07686 22.3519 3.0322C22.2855 2.98754 22.2285 2.93024 22.1842 2.86355C22.1399 2.79687 22.1092 2.72211 22.0938 2.64355C22.0783 2.56499 22.0786 2.48417 22.0944 2.40569C22.161 2.07569 22.4825 1.86179 22.8125 1.92866C27.6802 2.91054 31.8742 5.72929 34.6217 9.86554C37.3694 14.0019 38.3418 18.9605 37.3599 23.8283L37.36 23.8284ZM33.3774 32.108C29.8 36.3616 24.5678 38.7437 19.1395 38.7437C17.9039 38.7436 16.6715 38.6204 15.4604 38.3759C12.5363 37.7861 9.77213 36.4904 7.46666 34.6287C5.67728 33.1839 4.15838 31.3962 3.00932 29.3971L2.934 29.9494C2.91212 30.1095 2.82751 30.2545 2.6988 30.3523C2.57008 30.4501 2.40779 30.4928 2.2476 30.471C2.08741 30.4491 1.94246 30.3645 1.84464 30.2358C1.74682 30.1071 1.70413 29.9448 1.72596 29.7846L2.06752 27.2808C2.08048 27.1857 2.11571 27.095 2.17034 27.0161C2.22496 26.9372 2.29745 26.8723 2.38189 26.8267C2.46634 26.7811 2.56036 26.7561 2.65629 26.7537C2.75223 26.7513 2.84738 26.7716 2.934 26.8129L5.09846 27.8451C5.17072 27.8795 5.23549 27.9279 5.28907 27.9874C5.34265 28.0468 5.38398 28.1163 5.41072 28.1918C5.43745 28.2672 5.44906 28.3472 5.44488 28.4272C5.44069 28.5071 5.42081 28.5855 5.38635 28.6577C5.35191 28.73 5.30357 28.7948 5.24408 28.8484C5.1846 28.902 5.11514 28.9433 5.03967 28.97C4.9642 28.9968 4.8842 29.0084 4.80425 29.0042C4.72429 29 4.64595 28.9801 4.57369 28.9456L3.99955 28.6719C6.4676 33.0434 10.7476 36.1815 15.7017 37.1808C21.9328 38.4378 28.3486 36.1934 32.4443 31.3233C32.5485 31.1998 32.6974 31.1228 32.8583 31.109C33.0192 31.0952 33.179 31.1459 33.3027 31.2498C33.4263 31.3538 33.5036 31.5025 33.5177 31.6634C33.5317 31.8243 33.4813 31.9842 33.3776 32.108L33.3774 32.108Z" fill="#00468C"/>
</svg>
