<svg width="33" height="40" viewBox="0 0 33 40" fill="none" xmlns="http://www.w3.org/2000/svg">
<path fill-rule="evenodd" clip-rule="evenodd" d="M16.4995 10.9677L18.1675 14.9355L22.4566 15.2957L19.1984 18.1082L20.1812 22.2987L16.4995 20.069L12.8179 22.2987L13.8007 18.1082L10.5425 15.2957L14.8316 14.9355L16.4995 10.9677ZM28.3879 24.0447C27.6073 23.0807 26.1517 23.0049 25.2744 23.8753L20.0659 29.0429C19.393 29.7105 19.2589 30.6471 19.3817 31.587L19.5908 33.1867L27.3356 35.2619C27.4018 34.4071 27.7218 33.6453 28.4003 32.9154L31.233 29.8684C31.878 29.1746 32.2411 28.3821 32.2411 27.4346L32.2412 15.725C32.2412 14.6801 31.3862 13.8254 30.3414 13.8253C29.2966 13.8253 28.4416 14.6801 28.4416 15.725L28.4414 22.6039C30.256 23.3383 30.7245 25.7113 29.3367 27.0882L26.5545 29.8487C26.4336 29.9677 26.2706 30.0339 26.1011 30.033C25.9315 30.0322 25.7693 29.9642 25.6497 29.844C25.5301 29.7237 25.463 29.5611 25.4631 29.3915C25.4631 29.222 25.5302 29.0594 25.6498 28.9392L28.4321 26.1787C29.0026 25.6128 29.0063 24.6832 28.4413 24.1138C28.4213 24.0926 28.4034 24.0695 28.3879 24.0447ZM18.9531 34.3477L28.0673 36.7898C28.2896 36.8494 28.4228 37.08 28.3633 37.3022L27.912 38.9868C27.8524 39.209 27.6217 39.3422 27.3995 39.2825L18.2852 36.8404C18.063 36.7809 17.9298 36.5503 17.9893 36.328L18.4406 34.6436C18.5002 34.4213 18.7309 34.2882 18.9531 34.3477ZM4.61117 24.0447C4.59573 24.0694 4.57783 24.0925 4.55773 24.1136C3.99273 24.683 3.99656 25.6126 4.56695 26.1786L7.34922 28.939C7.40944 28.9983 7.45735 29.0689 7.4902 29.1468C7.52304 29.2246 7.54018 29.3082 7.54063 29.3927C7.54107 29.4772 7.52481 29.561 7.49279 29.6392C7.46076 29.7174 7.41359 29.7885 7.354 29.8484C7.29441 29.9083 7.22357 29.9559 7.14554 29.9883C7.06751 30.0208 6.98384 30.0375 6.89934 30.0375C6.81483 30.0375 6.73116 30.0208 6.65312 29.9884C6.57508 29.956 6.50422 29.9085 6.44461 29.8486L3.66234 27.0881C2.27453 25.7111 2.74297 23.3382 4.55766 22.6037L4.5575 15.7248C4.5575 14.68 3.7025 13.8251 2.65766 13.8251C1.61281 13.8253 0.757812 14.68 0.757812 15.7248L0.757969 27.4344C0.757969 28.3819 1.12109 29.1744 1.76609 29.8682L4.59875 32.9152C5.27734 33.6451 5.59734 34.4069 5.66344 35.2618L13.4083 33.1865L13.6173 31.5868C13.7402 30.647 13.606 29.7104 12.9332 29.0428L7.72469 23.8751C6.84742 23.0049 5.3918 23.0807 4.61117 24.0447ZM14.0459 34.3477C14.2682 34.2882 14.4989 34.4213 14.5584 34.6436L15.0098 36.328C15.0693 36.5503 14.9361 36.7809 14.7138 36.8404L5.59961 39.2825C5.37734 39.3422 5.14664 39.209 5.08711 38.9868L4.63578 37.3022C4.57625 37.08 4.70937 36.8493 4.93172 36.7898L14.0459 34.3477ZM17.6145 4.14872H18.7043C18.9454 4.14879 19.0929 3.87106 18.9387 3.67153L16.7339 0.818325C16.7063 0.78248 16.6708 0.753454 16.6302 0.733482C16.5895 0.713511 16.5449 0.703125 16.4996 0.703125C16.4543 0.703125 16.4097 0.713511 16.3691 0.733482C16.3284 0.753454 16.293 0.78248 16.2653 0.818325L14.0605 3.67153C13.9063 3.87114 14.0539 4.14887 14.295 4.14872H15.3846L15.3847 7.80325C16.1257 7.71934 16.8737 7.71934 17.6147 7.80325L17.6145 4.14872ZM23.993 7.6109H25.0827C25.3238 7.61098 25.4713 7.33325 25.3171 7.13372L23.1123 4.28043C23.0846 4.24459 23.0491 4.21556 23.0085 4.19559C22.9679 4.17562 22.9232 4.16523 22.878 4.16523C22.8327 4.16523 22.788 4.17562 22.7474 4.19559C22.7068 4.21556 22.6713 4.24459 22.6437 4.28043L20.4388 7.13364C20.2846 7.33317 20.4322 7.61098 20.6733 7.61083H21.7629V9.25575C22.5972 9.78111 23.3488 10.4276 23.993 11.174V7.6109ZM11.2361 7.6109H12.3259C12.5669 7.61098 12.7145 7.33325 12.5602 7.13372L10.3555 4.28043C10.3278 4.24459 10.2923 4.21556 10.2517 4.19559C10.2111 4.17562 10.1664 4.16523 10.1212 4.16523C10.0759 4.16523 10.0312 4.17562 9.99063 4.19559C9.95001 4.21556 9.91451 4.24459 9.88688 4.28043L7.68203 7.13364C7.52781 7.33317 7.67539 7.61098 7.91648 7.61083H9.00609V11.1739C9.65024 10.4275 10.4018 9.78101 11.2361 9.25567V7.6109ZM16.4995 9.02676C11.746 9.02676 7.8925 12.8803 7.8925 17.6338C7.8925 22.3873 11.746 26.2408 16.4995 26.2408C21.253 26.2408 25.1066 22.3874 25.1066 17.6338C25.1066 12.8802 21.253 9.02676 16.4995 9.02676Z" fill="white"/>
</svg>
