<svg width="54" height="50" viewBox="0 0 54 50" fill="none" xmlns="http://www.w3.org/2000/svg">
<path fill-rule="evenodd" clip-rule="evenodd" d="M41.9341 47.7738V48.8588C41.9341 49.4614 41.443 49.9525 40.8403 49.9525H13.1597C12.557 49.9525 12.0659 49.4614 12.0659 48.8588V47.7738C12.0659 46.575 13.047 45.595 14.2447 45.595H39.7553C40.9541 45.595 41.9341 46.5761 41.9341 47.7738ZM32.3014 37.2103H21.6986C21.5564 40.7573 20.7066 43.203 19.2978 44.5013H34.7022C33.2934 43.203 32.4436 40.7573 32.3014 37.2103ZM53.25 3.32812V32.8353C53.25 34.6422 51.7756 36.1166 49.9688 36.1166H4.03125C2.22438 36.1166 0.75 34.6422 0.75 32.8353V3.32812C0.75 1.52125 2.22438 0.046875 4.03125 0.046875H49.9688C51.7756 0.046875 53.25 1.52125 53.25 3.32812ZM51.1719 3.32812C51.1719 2.66859 50.6283 2.125 49.9688 2.125H4.03125C3.37172 2.125 2.82812 2.66969 2.82812 3.32812V29.8811C2.82812 30.5395 3.37391 31.0842 4.03125 31.0842H49.9688C50.6283 31.0842 51.1719 30.5406 51.1719 29.8811V3.32812ZM50.0781 3.32812V29.8811C50.0781 29.938 50.0256 29.9905 49.9688 29.9905H4.03125C3.97328 29.9905 3.92188 29.9391 3.92188 29.8811V3.32812C3.92188 3.27125 3.97328 3.21875 4.03125 3.21875H49.9688C50.0256 3.21875 50.0781 3.27125 50.0781 3.32812ZM36.0716 12.2367C36.1742 12.3392 36.3132 12.3967 36.4582 12.3967C36.6032 12.3967 36.7422 12.3392 36.8448 12.2367L39.0848 9.99672C39.2981 9.78344 39.2981 9.43672 39.0848 9.22344C38.8716 9.01016 38.5248 9.01016 38.3116 9.22344L36.0716 11.4634C35.9691 11.566 35.9116 11.7051 35.9116 11.8501C35.9116 11.9951 35.9691 12.1341 36.0716 12.2367ZM35.1342 14.4822C35.1342 13.7417 34.6464 13.0997 33.9322 12.9017L32.8417 12.5987V7.23391C32.8417 6.00016 31.8355 4.99391 30.6017 4.99391C29.368 4.99391 28.3617 6.00016 28.3617 7.23391V7.91969L27.6475 8.53547C25.32 10.5425 22.1219 11.2283 19.1305 11.3409C17.8016 11.3912 16.5984 11.3223 15.2717 11.3223C12.9858 11.3223 11.2369 13.2036 11.2369 15.4666C11.2369 17.2691 12.3459 18.8288 13.9527 19.3898L15.8055 26.3034C16.1719 27.6695 17.5981 28.4931 18.9642 28.1267C20.3303 27.7603 21.1539 26.3341 20.7875 24.968L19.3492 19.602C22.263 19.7322 25.3845 20.4475 27.6475 22.3988L28.3617 23.0145V23.7003C28.3617 24.9341 29.368 25.9403 30.6017 25.9403C31.8355 25.9403 32.8417 24.9341 32.8417 23.7003V18.3355L33.9322 18.0325C34.2782 17.9375 34.5834 17.7313 34.8007 17.4457C35.0179 17.1601 35.1351 16.8109 35.1342 16.452V14.4833V14.4822ZM39.0848 20.9364L36.8448 18.6964C36.6316 18.4831 36.2848 18.4831 36.0716 18.6964C35.8583 18.9097 35.8583 19.2564 36.0716 19.4697L38.3116 21.7097C38.5248 21.923 38.8716 21.923 39.0848 21.7097C39.2981 21.4964 39.2981 21.1497 39.0848 20.9364ZM41.6705 15.4666C41.6705 15.1647 41.4255 14.9197 41.1236 14.9197H37.9561C37.6542 14.9197 37.4092 15.1647 37.4092 15.4666C37.4092 15.7684 37.6542 16.0134 37.9561 16.0134H41.1236C41.4255 16.0134 41.6705 15.7684 41.6705 15.4666ZM15.2706 19.6108C15.228 19.6108 15.1853 19.6108 15.1427 19.6086L16.8609 26.0202C17.072 26.8098 17.8912 27.2823 18.6798 27.0702C19.4684 26.8591 19.942 26.0398 19.7298 25.2512L18.2084 19.5725L15.2706 19.6108ZM30.6006 6.08766C29.9706 6.08766 29.4544 6.60391 29.4544 7.23391V23.7003C29.4544 24.3303 29.9706 24.8466 30.6006 24.8466C31.2306 24.8466 31.7469 24.3303 31.7469 23.7003V7.23391C31.7469 6.60391 31.2306 6.08766 30.6006 6.08766ZM19.1698 12.4347V18.4995C19.2989 18.5039 19.4323 18.5105 19.5734 18.517C23.7253 18.7227 26.5669 20.0231 28.3606 21.5697V9.36453C26.5669 10.9111 23.7253 12.2116 19.5734 12.4172C19.4334 12.4238 19.2989 12.4303 19.1698 12.4347ZM33.6391 13.9561L32.8406 13.7352V17.2013L33.6391 16.9803C33.8797 16.9136 34.0394 16.7025 34.0394 16.4531V14.4844C34.0404 14.3646 34.0016 14.2479 33.9292 14.1525C33.8567 14.0571 33.7547 13.9884 33.6391 13.9572V13.9561ZM18.0761 18.4788V12.4555C17.1869 12.4555 16.4409 12.4172 15.2706 12.4172C13.653 12.4172 12.3295 13.7406 12.3295 15.4677C12.3295 17.1947 13.653 18.5181 15.2706 18.5181C16.4409 18.5181 17.188 18.4798 18.0761 18.4798V18.4788Z" fill="white"/>
</svg>
