<svg width="1511" height="29" viewBox="0 0 1511 29" fill="none" xmlns="http://www.w3.org/2000/svg">
<g opacity="0.5">
<path d="M46.2189 39.5795L28.5137 21.8998L46.2189 4.21997V39.5795Z" fill="#2B652E"/>
<path d="M34.4154 16.0031V27.7913L28.5137 21.8998L34.4154 16.0031ZM46.2189 16.0031V27.7913L40.3172 21.8998L46.2189 16.0031ZM40.3172 21.8998V33.688L34.4154 27.7913L40.3172 21.8998ZM46.2189 27.7913V39.5795L40.3172 33.688L46.2189 27.7913ZM40.3172 10.1115V21.8998L34.4154 16.0031L40.3172 10.1115ZM46.2189 4.21997V16.0031L40.3172 10.1115L46.2189 4.21997Z" fill="#418533"/>
<path d="M-1 4.21997L16.7103 21.8998L-1 39.5795V4.21997Z" fill="#2B652E"/>
<path d="M10.8086 27.7913V16.0031L16.7103 21.8998L10.8086 27.7913ZM-1 27.7913V16.0031L4.90684 21.8998L-1 27.7913ZM4.90684 21.8998V10.1115L10.8086 16.0031L4.90684 21.8998ZM-1 16.0031V4.21997L4.90684 10.1115L-1 16.0031ZM4.90684 33.688V21.8998L10.8086 27.7913L4.90684 33.688ZM-1 39.5795V27.7913L4.90684 33.688L-1 39.5795Z" fill="#418533"/>
<path d="M36.7376 37.9349L40.0322 41.2244H5.192L8.48659 37.9349H36.7376ZM14.7601 31.6665H30.459L34.11 35.3125H11.1141L14.7601 31.6665ZM22.6121 23.8298L27.8315 29.0441H17.3876L22.6121 23.8298ZM36.1011 47.6965H9.1231L5.26838 43.8468H39.9558L36.1011 47.6965ZM30.2299 53.5575H14.9943L11.7506 50.3189H33.4735L30.2299 53.5575ZM22.6121 61.1651L17.6218 56.185H27.6023L22.6121 61.1651ZM20.1526 63.6195L-1 84.7415H3.91388L8.82267 79.8429H33.2291L30.6016 77.2154H11.4502L15.9618 72.714H26.09L23.4625 70.0864H18.5893L21.1557 67.5251L22.6121 66.0688L41.3103 84.7415H46.2191L25.0665 63.6195L46.2191 42.4974L25.0665 21.3754L46.2191 0.258423H41.3052L36.6408 4.9126H11.6895L14.317 7.54013H34.0133L29.5017 12.0415H18.8286L21.4562 14.6691H26.8742L24.1652 17.373L22.6121 18.921L3.91388 0.258423H-1L20.1526 21.3754L-1 42.4974L20.1526 63.6195Z" fill="#418533"/>
<path d="M93.4377 39.5795L75.7324 21.8998L93.4377 4.21997V39.5795Z" fill="#2B652E"/>
<path d="M81.6342 16.0031V27.7913L75.7324 21.8998L81.6342 16.0031ZM93.4377 16.0031V27.7913L87.5359 21.8998L93.4377 16.0031ZM87.5359 21.8998V33.688L81.6342 27.7913L87.5359 21.8998ZM93.4377 27.7913V39.5795L87.5359 33.688L93.4377 27.7913ZM87.5359 10.1115V21.8998L81.6342 16.0031L87.5359 10.1115ZM93.4377 4.21997V16.0031L87.5359 10.1115L93.4377 4.21997Z" fill="#418533"/>
<path d="M46.2188 4.21997L63.9291 21.8998L46.2188 39.5795V4.21997Z" fill="#2B652E"/>
<path d="M58.0273 27.7915V16.0033L63.9291 21.9L58.0273 27.7915ZM46.2188 27.7915V16.0033L52.1256 21.9L46.2188 27.7915Z" fill="#418533"/>
<path d="M52.1206 21.8999V10.1117L58.0274 16.0033L52.1206 21.8999Z" fill="#418533"/>
<path d="M46.2188 16.0031V4.21997L52.1256 10.1115L46.2188 16.0031ZM52.1205 33.688V21.8998L58.0273 27.7913L52.1205 33.688Z" fill="#418533"/>
<path d="M46.2188 39.5796V27.7914L52.1256 33.688L46.2188 39.5796Z" fill="#418533"/>
<path d="M83.9563 37.9349L87.2509 41.2244H52.4107L55.7053 37.9349H83.9563ZM61.9788 31.6665H77.6778L81.3288 35.3125H58.3329L61.9788 31.6665ZM69.8308 23.8298L75.0502 29.0441H64.6063L69.8308 23.8298ZM83.3198 47.6965H56.3419L52.4871 43.8468H87.1694L83.3198 47.6965ZM77.4486 53.5575H62.213L58.9694 50.3189H80.6923L77.4486 53.5575ZM69.8308 61.1651L64.8406 56.185H74.8211L69.8308 61.1651ZM67.3713 63.6195L46.2188 84.7415H51.1326L56.0414 79.8429H80.4479L77.8152 77.2154H58.6689L63.1805 72.714H73.3087L70.6812 70.0864H65.8081L68.3745 67.5251L69.8308 66.0688L88.5239 84.7415H93.4378L72.2852 63.6195L93.4378 42.4974L72.2852 21.3754L93.4378 0.258423H88.5239L83.8596 4.9126H58.9083L61.5358 7.54013H81.232L76.7204 12.0415H66.0423L68.6749 14.6691H74.0929L71.3839 17.373L69.8308 18.921L51.1326 0.258423H46.2188L67.3713 21.3754L46.2188 42.4974L67.3713 63.6195Z" fill="#418533"/>
<path d="M140.657 39.5795L122.952 21.8998L140.657 4.21997V39.5795Z" fill="#2B652E"/>
<path d="M128.853 16.0031V27.7913L122.952 21.8998L128.853 16.0031ZM140.657 16.0031V27.7913L134.755 21.8998L140.657 16.0031ZM134.755 21.8998V33.688L128.853 27.7913L134.755 21.8998ZM140.657 27.7913V39.5795L134.755 33.688L140.657 27.7913ZM134.755 10.1115V21.8998L128.853 16.0031L134.755 10.1115ZM140.657 4.21997V16.0031L134.755 10.1115L140.657 4.21997Z" fill="#418533"/>
<path d="M93.438 4.21997L111.148 21.8998L93.438 39.5795V4.21997Z" fill="#2B652E"/>
<path d="M105.241 27.7915V16.0033L111.148 21.9L105.241 27.7915ZM93.438 27.7915V16.0033L99.3397 21.9L93.438 27.7915Z" fill="#418533"/>
<path d="M99.3397 21.8998V10.1115L105.247 16.0031L99.3397 21.8998ZM93.438 16.0031V4.21997L99.3397 10.1115L93.438 16.0031ZM99.3397 33.688V21.8998L105.247 27.7913L99.3397 33.688ZM93.438 39.5795V27.7913L99.3397 33.688L93.438 39.5795Z" fill="#418533"/>
<path d="M131.176 37.9349L134.47 41.2244H99.63L102.925 37.9349H131.176ZM109.198 31.6665H124.897L128.548 35.3125H105.552L109.198 31.6665ZM117.05 23.8298L122.269 29.0441H111.826L117.05 23.8298ZM130.539 47.6965H103.556L99.7064 43.8468H134.389L130.539 47.6965ZM124.668 53.5575H109.432L106.189 50.3189H127.912L124.668 53.5575ZM117.05 61.1651L112.06 56.185H122.04L117.05 61.1651ZM114.591 63.6195L93.438 84.7415H98.3519L103.261 79.8429H127.662L125.034 77.2154H105.888L110.395 72.714H120.528L117.9 70.0864H113.027L115.594 67.5251L117.05 66.0688L135.743 84.7415H140.657L119.504 63.6195L140.657 42.4974L119.504 21.3754L140.657 0.258423H135.743L131.079 4.9126H106.128L108.755 7.54013H128.451L123.94 12.0415H113.262L115.894 14.6691H121.312L118.603 17.373L117.05 18.921L98.3519 0.258423H93.438L114.591 21.3754L93.438 42.4974L114.591 63.6195Z" fill="#418533"/>
<path d="M187.876 39.5795L170.17 21.8998L187.876 4.21997V39.5795Z" fill="#2B652E"/>
<path d="M176.072 16.0033V27.7915L170.17 21.9L176.072 16.0033ZM187.876 16.0033V27.7915L181.974 21.9L187.876 16.0033Z" fill="#418533"/>
<path d="M181.975 21.8998V33.688L176.073 27.7913L181.975 21.8998ZM187.876 27.7913V39.5795L181.975 33.688L187.876 27.7913ZM181.975 10.1115V21.8998L176.073 16.0031L181.975 10.1115ZM187.876 4.21997V16.0031L181.975 10.1115L187.876 4.21997Z" fill="#418533"/>
<path d="M140.657 4.21997L158.362 21.8998L140.657 39.5795V4.21997Z" fill="#2B652E"/>
<path d="M152.46 27.7915V16.0033L158.367 21.9L152.46 27.7915ZM140.657 27.7915V16.0033L146.558 21.9L140.657 27.7915Z" fill="#418533"/>
<path d="M146.559 21.8999V10.1117L152.461 16.0033L146.559 21.8999Z" fill="#418533"/>
<path d="M140.657 16.0031V4.21997L146.558 10.1115L140.657 16.0031ZM146.558 33.688V21.8998L152.46 27.7913L146.558 33.688Z" fill="#418533"/>
<path d="M140.657 39.5796V27.7914L146.558 33.688L140.657 39.5796Z" fill="#418533"/>
<path d="M178.394 37.9349L181.689 41.2244H146.849L150.138 37.9349H178.394ZM156.417 31.6665H172.116L175.767 35.3125H152.771L156.417 31.6665ZM164.269 23.8298L169.488 29.0441H159.044L164.269 23.8298ZM177.758 47.6965H150.775L146.925 43.8468H181.607L177.758 47.6965ZM171.887 53.5575H156.651L153.402 50.3189H175.13L171.887 53.5575ZM164.269 61.1651L159.279 56.185H169.254L164.269 61.1651ZM161.809 63.6195L140.657 84.7415H145.571L150.479 79.8429H174.881L172.253 77.2154H153.107L157.613 72.714H167.747L165.119 70.0864H160.241L162.812 67.5251L164.269 66.0688L182.962 84.7415H187.876L166.723 63.6195L187.876 42.4974L166.723 21.3754L187.876 0.258423H182.962L178.298 4.9126H153.341L155.974 7.54013H175.67L171.158 12.0415H160.48L163.108 14.6691H168.531L165.822 17.373L164.269 18.921L145.571 0.258423H140.657L161.809 21.3754L140.657 42.4974L161.809 63.6195Z" fill="#418533"/>
<path d="M235.095 39.5795L217.39 21.8998L235.095 4.21997V39.5795Z" fill="#2B652E"/>
<path d="M223.291 16.0033V27.7915L217.39 21.9L223.291 16.0033ZM235.095 16.0033V27.7915L229.193 21.9L235.095 16.0033Z" fill="#418533"/>
<path d="M229.194 21.8999V33.6881L223.292 27.7915L229.194 21.8999ZM235.095 27.7915V39.5797L229.194 33.6881L235.095 27.7915ZM229.194 10.1117V21.8999L223.292 16.0033L229.194 10.1117Z" fill="#418533"/>
<path d="M235.095 4.21997V16.0031L229.193 10.1115L235.095 4.21997Z" fill="#418533"/>
<path d="M187.876 4.21997L205.581 21.8998L187.876 39.5795V4.21997Z" fill="#2B652E"/>
<path d="M199.679 27.7915V16.0033L205.581 21.9L199.679 27.7915ZM187.876 27.7915V16.0033L193.778 21.9L187.876 27.7915Z" fill="#418533"/>
<path d="M193.778 21.8998V10.1115L199.679 16.0031L193.778 21.8998ZM187.876 16.0031V4.21997L193.778 10.1115L187.876 16.0031ZM193.778 33.688V21.8998L199.679 27.7913L193.778 33.688ZM187.876 39.5795V27.7913L193.778 33.688L187.876 39.5795Z" fill="#418533"/>
<path d="M225.614 37.9349L228.908 41.2244H194.063L197.357 37.9349H225.614ZM203.636 31.6665H219.335L222.986 35.3125H199.985L203.636 31.6665ZM211.488 23.8298L216.707 29.0441H206.264L211.488 23.8298ZM224.977 47.6965H197.994L194.144 43.8468H228.827L224.977 47.6965ZM219.101 53.5575H203.87L200.622 50.3189H222.35L219.101 53.5575ZM211.488 61.1651L206.498 56.185H216.473L211.488 61.1651ZM209.029 63.6195L187.876 84.7415H192.79L197.694 79.8429H222.1L219.472 77.2154H200.326L204.833 72.714H214.966L212.338 70.0864H207.46L210.032 67.5251L211.488 66.0688L230.181 84.7415H235.095L213.942 63.6195L235.095 42.4974L213.942 21.3754L235.095 0.258423H230.181L225.517 4.9126H200.56L203.188 7.54013H222.889L218.378 12.0415H207.7L210.327 14.6691H215.75L213.041 17.373L211.488 18.921L192.79 0.258423H187.876L209.029 21.3754L187.876 42.4974L209.029 63.6195Z" fill="#418533"/>
<path d="M282.314 39.5795L264.609 21.8998L282.314 4.21997V39.5795Z" fill="#2B652E"/>
<path d="M270.511 16.0031V27.7913L264.609 21.8998L270.511 16.0031ZM282.314 16.0031V27.7913L276.412 21.8998L282.314 16.0031ZM276.412 21.8998V33.688L270.511 27.7913L276.412 21.8998ZM282.314 27.7913V39.5795L276.412 33.688L282.314 27.7913ZM276.412 10.1115V21.8998L270.511 16.0031L276.412 10.1115ZM282.314 4.21997V16.0031L276.412 10.1115L282.314 4.21997Z" fill="#418533"/>
<path d="M235.095 4.21997L252.8 21.8998L235.095 39.5795V4.21997Z" fill="#2B652E"/>
<path d="M246.898 27.7913V16.0031L252.8 21.8998L246.898 27.7913ZM235.095 27.7913V16.0031L240.996 21.8998L235.095 27.7913ZM240.996 21.8998V10.1115L246.898 16.0031L240.996 21.8998ZM235.095 16.0031V4.21997L240.996 10.1115L235.095 16.0031ZM240.996 33.688V21.8998L246.898 27.7913L240.996 33.688ZM235.095 39.5795V27.7913L240.996 33.688L235.095 39.5795Z" fill="#418533"/>
<path d="M272.832 37.9349L276.127 41.2244H241.282L244.576 37.9349H272.832ZM250.855 31.6665H266.554L270.205 35.3125H247.204L250.855 31.6665ZM258.707 23.8298L263.926 29.0441H253.482L258.707 23.8298ZM272.196 47.6965H245.213L241.363 43.8468H276.045L272.196 47.6965ZM266.319 53.5575H251.089L247.84 50.3189H269.568L266.319 53.5575ZM258.707 61.1651L253.717 56.185H263.692L258.707 61.1651ZM256.247 63.6195L235.095 84.7415H240.009L244.912 79.8429H269.319L266.691 77.2154H247.54L252.051 72.714H262.185L259.552 70.0864H254.679L257.25 67.5251L258.707 66.0688L277.4 84.7415H282.314L261.161 63.6195L282.314 42.4974L261.161 21.3754L282.314 0.258423H277.4L272.736 4.9126H247.779L250.407 7.54013H270.108L265.596 12.0415H254.918L257.546 14.6691H262.969L260.255 17.373L258.707 18.921L240.009 0.258423H235.095L256.247 21.3754L235.095 42.4974L256.247 63.6195Z" fill="#418533"/>
<path d="M329.533 39.5795L311.828 21.8998L329.533 4.21997V39.5795Z" fill="#2B652E"/>
<path d="M317.73 16.0031V27.7913L311.823 21.8998L317.73 16.0031ZM329.533 16.0031V27.7913L323.631 21.8998L329.533 16.0031ZM323.631 21.8998V33.688L317.73 27.7913L323.631 21.8998ZM329.533 27.7913V39.5795L323.631 33.688L329.533 27.7913ZM323.631 10.1115V21.8998L317.73 16.0031L323.631 10.1115ZM329.533 4.21997V16.0031L323.631 10.1115L329.533 4.21997Z" fill="#418533"/>
<path d="M282.314 4.21997L300.02 21.8998L282.314 39.5795V4.21997Z" fill="#2B652E"/>
<path d="M294.118 27.7915V16.0033L300.02 21.9L294.118 27.7915ZM282.314 27.7915V16.0033L288.216 21.9L282.314 27.7915Z" fill="#418533"/>
<path d="M288.216 21.8999V10.1117L294.118 16.0033L288.216 21.8999Z" fill="#418533"/>
<path d="M282.314 16.0031V4.21997L288.216 10.1115L282.314 16.0031ZM288.216 33.688V21.8998L294.118 27.7913L288.216 33.688Z" fill="#418533"/>
<path d="M282.314 39.5796V27.7914L288.216 33.688L282.314 39.5796Z" fill="#418533"/>
<path d="M320.047 37.9349L323.347 41.2244H288.501L291.796 37.9349H320.047ZM298.075 31.6665H313.773L317.419 35.3125H294.423L298.075 31.6665ZM305.921 23.8298L311.146 29.0441H300.702L305.921 23.8298ZM319.416 47.6965H292.432L288.583 43.8468H323.265L319.416 47.6965ZM313.539 53.5575H298.304L295.06 50.3189H316.788L313.539 53.5575ZM305.921 61.1651L300.931 56.185H310.912L305.921 61.1651ZM303.467 63.6195L282.314 84.7415H287.228L292.132 79.8429H316.538L313.911 77.2154H294.76L299.271 72.714H309.399L306.772 70.0864H301.899L304.47 67.5251L305.921 66.0688L324.62 84.7415H329.534L308.381 63.6195L329.534 42.4974L308.381 21.3754L329.534 0.258423H324.62L319.955 4.9126H294.999L297.626 7.54013H317.323L312.816 12.0415H302.138L304.766 14.6691H310.189L307.475 17.373L305.921 18.921L287.228 0.258423H282.314L303.467 21.3754L282.314 42.4974L303.467 63.6195Z" fill="#418533"/>
<path d="M376.752 39.5795L359.042 21.8998L376.752 4.21997V39.5795Z" fill="#2B652E"/>
<path d="M364.948 16.0033V27.7915L359.042 21.9L364.948 16.0033ZM376.752 16.0033V27.7915L370.85 21.9L376.752 16.0033Z" fill="#418533"/>
<path d="M370.851 21.8998V33.688L364.944 27.7913L370.851 21.8998ZM376.752 27.7913V39.5795L370.851 33.688L376.752 27.7913ZM370.851 10.1115V21.8998L364.944 16.0031L370.851 10.1115ZM376.752 4.21997V16.0031L370.851 10.1115L376.752 4.21997Z" fill="#418533"/>
<path d="M329.533 4.21997L347.238 21.8998L329.533 39.5795V4.21997Z" fill="#2B652E"/>
<path d="M341.337 27.7915V16.0033L347.238 21.9L341.337 27.7915ZM329.533 27.7915V16.0033L335.435 21.9L329.533 27.7915Z" fill="#418533"/>
<path d="M335.435 21.8998V10.1115L341.337 16.0031L335.435 21.8998ZM329.533 16.0031V4.21997L335.435 10.1115L329.533 16.0031ZM335.435 33.688V21.8998L341.337 27.7913L335.435 33.688ZM329.533 39.5795V27.7913L335.435 33.688L329.533 39.5795Z" fill="#418533"/>
<path d="M367.266 37.9349L370.565 41.2244H335.72L339.015 37.9349H367.266ZM345.293 31.6665H360.992L364.638 35.3125H341.642L345.293 31.6665ZM353.14 23.8298L358.365 29.0441H347.921L353.14 23.8298ZM366.634 47.6965H339.651L335.802 43.8468H370.484L366.634 47.6965ZM360.758 53.5575H345.522L342.279 50.3189H364.007L360.758 53.5575ZM353.14 61.1651L348.15 56.185H358.13L353.14 61.1651ZM350.686 63.6195L329.533 84.7415H334.447L339.351 79.8429H363.757L361.13 77.2154H341.978L346.49 72.714H356.618L353.991 70.0864H349.117L351.689 67.5251L353.14 66.0688L371.838 84.7415H376.752L355.6 63.6195L376.752 42.4974L355.6 21.3754L376.752 0.258423H371.838L367.169 4.9126H342.218L344.845 7.54013H364.541L360.035 12.0415H349.357L351.984 14.6691H357.407L354.693 17.373L353.14 18.921L334.447 0.258423H329.533L350.686 21.3754L329.533 42.4974L350.686 63.6195Z" fill="#418533"/>
<path d="M423.971 39.5795L406.261 21.8998L423.971 4.21997V39.5795Z" fill="#2B652E"/>
<path d="M412.162 16.0033V27.7915L406.261 21.9L412.162 16.0033ZM423.971 16.0033V27.7915L418.064 21.9L423.971 16.0033Z" fill="#418533"/>
<path d="M418.069 21.9V33.6882L412.163 27.7916L418.069 21.9Z" fill="#418533"/>
<path d="M423.971 27.7915V39.5797L418.064 33.6881L423.971 27.7915ZM418.069 10.1117V21.8999L412.163 16.0033L418.069 10.1117Z" fill="#418533"/>
<path d="M423.971 4.21997V16.0031L418.064 10.1115L423.971 4.21997Z" fill="#418533"/>
<path d="M376.752 4.21997L394.458 21.8998L376.752 39.5795V4.21997Z" fill="#2B652E"/>
<path d="M388.556 27.7913V16.0031L394.458 21.8998L388.556 27.7913ZM376.752 27.7913V16.0031L382.654 21.8998L376.752 27.7913ZM382.654 21.8998V10.1115L388.556 16.0031L382.654 21.8998ZM376.752 16.0031V4.21997L382.654 10.1115L376.752 16.0031ZM382.654 33.688V21.8998L388.556 27.7913L382.654 33.688ZM376.752 39.5795V27.7913L382.654 33.688L376.752 39.5795Z" fill="#418533"/>
<path d="M414.485 37.9349L417.78 41.2244H382.939L386.234 37.9349H414.485ZM392.512 31.6665H408.211L411.857 35.3125H388.861L392.512 31.6665ZM400.359 23.8298L405.584 29.0441H395.14L400.359 23.8298ZM413.854 47.6965H386.87L383.016 43.8468H417.703L413.854 47.6965ZM407.977 53.5575H392.742L389.498 50.3189H411.221L407.977 53.5575ZM400.359 61.1651L395.369 56.185H405.35L400.359 61.1651ZM397.905 63.6195L376.752 84.7415H381.666L386.57 79.8429H410.976L408.349 77.2154H389.198L393.709 72.714H403.837L401.21 70.0864H396.337L398.908 67.5251L400.359 66.0688L419.058 84.7415H423.972L402.819 63.6195L423.972 42.4974L402.819 21.3754L423.972 0.258423H419.058L414.388 4.9126H389.437L392.064 7.54013H411.761L407.254 12.0415H396.576L399.204 14.6691H404.622L401.913 17.373L400.359 18.921L381.666 0.258423H376.752L397.905 21.3754L376.752 42.4974L397.905 63.6195Z" fill="#418533"/>
<path d="M471.19 39.5795L453.479 21.8998L471.19 4.21997V39.5795Z" fill="#2B652E"/>
<path d="M459.381 16.0031V27.7913L453.479 21.8998L459.381 16.0031ZM471.19 16.0031V27.7913L465.283 21.8998L471.19 16.0031ZM465.283 21.8998V33.688L459.381 27.7913L465.283 21.8998ZM471.19 27.7913V39.5795L465.283 33.688L471.19 27.7913ZM465.283 10.1115V21.8998L459.381 16.0031L465.283 10.1115ZM471.19 4.21997V16.0031L465.283 10.1115L471.19 4.21997Z" fill="#418533"/>
<path d="M423.971 4.21997L441.676 21.8998L423.971 39.5795V4.21997Z" fill="#2B652E"/>
<path d="M435.775 27.7913V16.0031L441.676 21.8998L435.775 27.7913ZM423.971 27.7913V16.0031L429.873 21.8998L423.971 27.7913ZM429.873 21.8998V10.1115L435.775 16.0031L429.873 21.8998ZM423.971 16.0031V4.21997L429.873 10.1115L423.971 16.0031ZM429.873 33.688V21.8998L435.775 27.7913L429.873 33.688ZM423.971 39.5795V27.7913L429.873 33.688L423.971 39.5795Z" fill="#418533"/>
<path d="M461.704 37.9349L464.998 41.2244H430.158L433.453 37.9349H461.704ZM439.731 31.6665H455.43L459.076 35.3125H436.08L439.731 31.6665ZM447.578 23.8298L452.798 29.0441H442.359L447.578 23.8298ZM461.072 47.6965H434.089L430.234 43.8468H464.922L461.072 47.6965ZM455.196 53.5575H439.96L436.717 50.3189H458.44L455.196 53.5575ZM447.578 61.1651L442.588 56.185H452.568L447.578 61.1651ZM445.124 63.6195L423.971 84.7415H428.885L433.789 79.8429H458.195L455.568 77.2154H436.416L440.928 72.714H451.056L448.429 70.0864H443.555L446.127 67.5251L447.578 66.0688L466.276 84.7415H471.19L450.038 63.6195L471.19 42.4974L450.038 21.3754L471.19 0.258423H466.276L461.607 4.9126H436.656L439.283 7.54013H458.979L454.468 12.0415H443.795L446.422 14.6691H451.84L449.131 17.373L447.578 18.921L428.885 0.258423H423.971L445.124 21.3754L423.971 42.4974L445.124 63.6195Z" fill="#418533"/>
<path d="M518.404 39.5795L500.699 21.8998L518.404 4.21997V39.5795Z" fill="#2B652E"/>
<path d="M506.601 16.0031V27.7913L500.699 21.8998L506.601 16.0031ZM518.404 16.0031V27.7913L512.503 21.8998L518.404 16.0031ZM512.503 21.8998V33.688L506.601 27.7913L512.503 21.8998ZM518.404 27.7913V39.5795L512.503 33.688L518.404 27.7913ZM512.503 10.1115V21.8998L506.601 16.0031L512.503 10.1115ZM518.404 4.21997V16.0031L512.503 10.1115L518.404 4.21997Z" fill="#418533"/>
<path d="M471.19 4.21997L488.896 21.8998L471.19 39.5795V4.21997Z" fill="#2B652E"/>
<path d="M482.994 27.7913V16.0031L488.896 21.8998L482.994 27.7913ZM471.19 27.7913V16.0031L477.092 21.8998L471.19 27.7913ZM477.092 21.8998V10.1115L482.994 16.0031L477.092 21.8998ZM471.19 16.0031V4.21997L477.092 10.1115L471.19 16.0031ZM477.092 33.688V21.8998L482.994 27.7913L477.092 33.688ZM471.19 39.5795V27.7913L477.092 33.688L471.19 39.5795Z" fill="#418533"/>
<path d="M508.923 37.9349L512.218 41.2244H477.378L480.672 37.9349H508.923ZM486.946 31.6665H502.65L506.296 35.3125H483.3L486.946 31.6665ZM494.798 23.8298L500.017 29.0441H489.578L494.798 23.8298ZM508.287 47.6965H481.309L477.454 43.8468H512.141L508.287 47.6965ZM502.415 53.5575H487.18L483.936 50.3189H505.659L502.415 53.5575ZM494.798 61.1651L489.807 56.185H499.788L494.798 61.1651ZM492.343 63.6195L471.186 84.7415H476.105L481.008 79.8429H505.415L502.787 77.2154H483.636L488.147 72.714H498.276L495.648 70.0864H490.775L493.341 67.5251L494.798 66.0688L513.491 84.7415H518.41L497.252 63.6195L518.41 42.4974L497.252 21.3754L518.41 0.258423H513.491L508.826 4.9126H483.875L486.503 7.54013H506.199L501.687 12.0415H491.014L493.642 14.6691H499.06L496.351 17.373L494.798 18.921L476.105 0.258423H471.186L492.343 21.3754L471.186 42.4974L492.343 63.6195Z" fill="#418533"/>
<path d="M565.623 39.5795L547.918 21.8998L565.623 4.21997V39.5795Z" fill="#2B652E"/>
<path d="M553.82 16.0031V27.7913L547.918 21.8998L553.82 16.0031ZM565.623 16.0031V27.7913L559.721 21.8998L565.623 16.0031ZM559.721 21.8998V33.688L553.82 27.7913L559.721 21.8998ZM565.623 27.7913V39.5795L559.721 33.688L565.623 27.7913ZM559.721 10.1115V21.8998L553.82 16.0031L559.721 10.1115ZM565.623 4.21997V16.0031L559.721 10.1115L565.623 4.21997Z" fill="#418533"/>
<path d="M518.405 4.21997L536.115 21.8998L518.405 39.5795V4.21997Z" fill="#2B652E"/>
<path d="M530.213 27.7913V16.0031L536.115 21.8998L530.213 27.7913ZM518.405 27.7913V16.0031L524.312 21.8998L518.405 27.7913ZM524.312 21.8998V10.1115L530.213 16.0031L524.312 21.8998ZM518.405 16.0031V4.21997L524.312 10.1115L518.405 16.0031ZM524.312 33.688V21.8998L530.213 27.7913L524.312 33.688ZM518.405 39.5795V27.7913L524.312 33.688L518.405 39.5795Z" fill="#418533"/>
<path d="M556.142 37.9349L559.437 41.2244H524.597L527.891 37.9349H556.142ZM534.165 31.6665H549.864L553.515 35.3125H530.519L534.165 31.6665ZM542.017 23.8298L547.236 29.0441H536.797L542.017 23.8298ZM555.506 47.6965H528.528L524.673 43.8468H559.361L555.506 47.6965ZM549.635 53.5575H534.399L531.155 50.3189H552.878L549.635 53.5575ZM542.017 61.1651L537.027 56.185H547.007L542.017 61.1651ZM539.557 63.6195L518.405 84.7415H523.324L528.227 79.8429H552.634L550.006 77.2154H530.855L535.367 72.714H545.495L542.867 70.0864H537.994L540.561 67.5251L542.017 66.0688L560.71 84.7415H565.624L544.471 63.6195L565.624 42.4974L544.471 21.3754L565.624 0.258423H560.71L556.046 4.9126H531.094L533.722 7.54013H553.418L548.906 12.0415H538.233L540.861 14.6691H546.279L543.57 17.373L542.017 18.921L523.324 0.258423H518.405L539.557 21.3754L518.405 42.4974L539.557 63.6195Z" fill="#418533"/>
<path d="M612.842 39.5795L595.137 21.8998L612.842 4.21997V39.5795Z" fill="#2B652E"/>
<path d="M601.039 16.0031V27.7913L595.137 21.8998L601.039 16.0031ZM612.842 16.0031V27.7913L606.941 21.8998L612.842 16.0031ZM606.941 21.8998V33.688L601.039 27.7913L606.941 21.8998ZM612.842 27.7913V39.5795L606.941 33.688L612.842 27.7913ZM606.941 10.1115V21.8998L601.039 16.0031L606.941 10.1115ZM612.842 4.21997V16.0031L606.941 10.1115L612.842 4.21997Z" fill="#418533"/>
<path d="M565.624 4.21997L583.334 21.8998L565.624 39.5795V4.21997Z" fill="#2B652E"/>
<path d="M577.432 27.7915V16.0033L583.334 21.9L577.432 27.7915ZM565.624 27.7915V16.0033L571.53 21.9L565.624 27.7915Z" fill="#418533"/>
<path d="M571.525 21.8999V10.1117L577.432 16.0033L571.525 21.8999Z" fill="#418533"/>
<path d="M565.624 16.0031V4.21997L571.53 10.1115L565.624 16.0031ZM571.525 33.688V21.8998L577.432 27.7913L571.525 33.688Z" fill="#418533"/>
<path d="M565.624 39.5796V27.7914L571.53 33.688L565.624 39.5796Z" fill="#418533"/>
<path d="M603.361 37.9349L606.656 41.2244H571.816L575.11 37.9349H603.361ZM581.384 31.6665H597.083L600.734 35.3125H577.738L581.384 31.6665ZM589.236 23.8298L594.455 29.0441H584.011L589.236 23.8298ZM602.725 47.6965H575.747L571.892 43.8468H606.579L602.725 47.6965ZM596.853 53.5575H581.618L578.374 50.3189H600.097L596.853 53.5575ZM589.236 61.1651L584.245 56.185H594.226L589.236 61.1651ZM586.776 63.6195L565.624 84.7415H570.537L575.446 79.8429H599.853L597.22 77.2154H578.074L582.585 72.714H592.714L590.086 70.0864H585.213L587.779 67.5251L589.236 66.0688L607.929 84.7415H612.843L591.69 63.6195L612.843 42.4974L591.69 21.3754L612.843 0.258423H607.929L603.264 4.9126H578.313L580.941 7.54013H600.637L596.125 12.0415H585.452L588.08 14.6691H593.498L590.789 17.373L589.236 18.921L570.537 0.258423H565.624L586.776 21.3754L565.624 42.4974L586.776 63.6195Z" fill="#418533"/>
<path d="M660.061 39.5795L642.356 21.8998L660.061 4.21997V39.5795Z" fill="#2B652E"/>
<path d="M648.258 16.0031V27.7913L642.356 21.8998L648.258 16.0031ZM660.061 16.0031V27.7913L654.159 21.8998L660.061 16.0031ZM654.159 21.8998V33.688L648.258 27.7913L654.159 21.8998ZM660.061 27.7913V39.5795L654.159 33.688L660.061 27.7913ZM654.159 10.1115V21.8998L648.258 16.0031L654.159 10.1115ZM660.061 4.21997V16.0031L654.159 10.1115L660.061 4.21997Z" fill="#418533"/>
<path d="M612.843 4.21997L630.553 21.8998L612.843 39.5795V4.21997Z" fill="#2B652E"/>
<path d="M624.651 27.7913V16.0031L630.553 21.8998L624.651 27.7913ZM612.843 27.7913V16.0031L618.745 21.8998L612.843 27.7913ZM618.745 21.8998V10.1115L624.651 16.0031L618.745 21.8998ZM612.843 16.0031V4.21997L618.745 10.1115L612.843 16.0031ZM618.745 33.688V21.8998L624.651 27.7913L618.745 33.688ZM612.843 39.5795V27.7913L618.745 33.688L612.843 39.5795Z" fill="#418533"/>
<path d="M650.58 37.9349L653.875 41.2244H619.035L622.329 37.9349H650.58ZM628.603 31.6665H644.302L647.953 35.3125H624.957L628.603 31.6665ZM636.455 23.8298L641.674 29.0441H631.23L636.455 23.8298ZM649.944 47.6965H622.966L619.111 43.8468H653.793L649.944 47.6965ZM644.073 53.5575H628.837L625.593 50.3189H647.316L644.073 53.5575ZM636.455 61.1651L631.465 56.185H641.445L636.455 61.1651ZM633.995 63.6195L612.843 84.7415H617.757L622.665 79.8429H647.067L644.439 77.2154H625.293L629.799 72.714H639.933L637.305 70.0864H632.432L634.999 67.5251L636.455 66.0688L655.148 84.7415H660.062L638.909 63.6195L660.062 42.4974L638.909 21.3754L660.062 0.258423H655.148L650.484 4.9126H625.532L628.16 7.54013H647.856L643.344 12.0415H632.666L635.299 14.6691H640.717L638.008 17.373L636.455 18.921L617.757 0.258423H612.843L633.995 21.3754L612.843 42.4974L633.995 63.6195Z" fill="#418533"/>
<path d="M707.28 39.5795L689.575 21.8998L707.28 4.21997V39.5795Z" fill="#2B652E"/>
<path d="M695.477 16.0031V27.7913L689.575 21.8998L695.477 16.0031ZM707.28 16.0031V27.7913L701.379 21.8998L707.28 16.0031ZM701.379 21.8998V33.688L695.477 27.7913L701.379 21.8998ZM707.28 27.7913V39.5795L701.379 33.688L707.28 27.7913ZM701.379 10.1115V21.8998L695.477 16.0031L701.379 10.1115ZM707.28 4.21997V16.0031L701.379 10.1115L707.28 4.21997Z" fill="#418533"/>
<path d="M660.062 4.21997L677.767 21.8998L660.062 39.5795V4.21997Z" fill="#2B652E"/>
<path d="M671.865 27.7915V16.0033L677.772 21.9L671.865 27.7915ZM660.062 27.7915V16.0033L665.963 21.9L660.062 27.7915Z" fill="#418533"/>
<path d="M665.963 21.8998V10.1115L671.87 16.0031L665.963 21.8998ZM660.062 16.0031V4.21997L665.963 10.1115L660.062 16.0031ZM665.963 33.688V21.8998L671.87 27.7913L665.963 33.688ZM660.062 39.5795V27.7913L665.963 33.688L660.062 39.5795Z" fill="#418533"/>
<path d="M697.799 37.9349L701.094 41.2244H666.254L669.543 37.9349H697.799ZM675.822 31.6665H691.521L695.172 35.3125H672.176L675.822 31.6665ZM683.674 23.8298L688.893 29.0441H678.449L683.674 23.8298ZM697.163 47.6965H670.18L666.33 43.8468H701.012L697.163 47.6965ZM691.291 53.5575H676.056L672.812 50.3189H694.535L691.291 53.5575ZM683.674 61.1651L678.683 56.185H688.659L683.674 61.1651ZM681.214 63.6195L660.062 84.7415H664.975L669.884 79.8429H694.286L691.658 77.2154H672.512L677.018 72.714H687.152L684.524 70.0864H679.646L682.217 67.5251L683.674 66.0688L702.367 84.7415H707.281L686.128 63.6195L707.281 42.4974L686.128 21.3754L707.281 0.258423H702.367L697.702 4.9126H672.746L675.379 7.54013H695.075L690.563 12.0415H679.885L682.513 14.6691H687.936L685.227 17.373L683.674 18.921L664.975 0.258423H660.062L681.214 21.3754L660.062 42.4974L681.214 63.6195Z" fill="#418533"/>
<path d="M754.499 39.5795L736.794 21.8998L754.499 4.21997V39.5795Z" fill="#2B652E"/>
<path d="M742.696 16.0031V27.7913L736.794 21.8998L742.696 16.0031ZM754.499 16.0031V27.7913L748.597 21.8998L754.499 16.0031ZM748.597 21.8998V33.688L742.696 27.7913L748.597 21.8998ZM754.499 27.7913V39.5795L748.597 33.688L754.499 27.7913ZM748.597 10.1115V21.8998L742.696 16.0031L748.597 10.1115ZM754.499 4.21997V16.0031L748.597 10.1115L754.499 4.21997Z" fill="#418533"/>
<path d="M707.28 4.21997L724.986 21.8998L707.28 39.5795V4.21997Z" fill="#2B652E"/>
<path d="M719.084 27.7913V16.0031L724.991 21.8998L719.084 27.7913ZM707.28 27.7913V16.0031L713.182 21.8998L707.28 27.7913ZM713.182 21.8998V10.1115L719.084 16.0031L713.182 21.8998ZM707.28 16.0031V4.21997L713.182 10.1115L707.28 16.0031ZM713.182 33.688V21.8998L719.084 27.7913L713.182 33.688ZM707.28 39.5795V27.7913L713.182 33.688L707.28 39.5795Z" fill="#418533"/>
<path d="M745.018 37.9349L748.312 41.2244H713.472L716.762 37.9349H745.018ZM723.04 31.6665H738.739L742.39 35.3125H719.394L723.04 31.6665ZM730.892 23.8298L736.112 29.0441H725.668L730.892 23.8298ZM744.381 47.6965H717.398L713.549 43.8468H748.231L744.381 47.6965ZM738.51 53.5575H723.275L720.026 50.3189H741.754L738.51 53.5575ZM730.892 61.1651L725.902 56.185H735.878L730.892 61.1651ZM728.433 63.6195L707.28 84.7415H712.194L717.098 79.8429H741.504L738.877 77.2154H719.73L724.237 72.714H734.37L731.743 70.0864H726.865L729.436 67.5251L730.892 66.0688L749.585 84.7415H754.499L733.347 63.6195L754.499 42.4974L733.347 21.3754L754.499 0.258423H749.585L744.921 4.9126H719.965L722.597 7.54013H742.294L737.782 12.0415H727.104L729.731 14.6691H735.154L732.445 17.373L730.892 18.921L712.194 0.258423H707.28L728.433 21.3754L707.28 42.4974L728.433 63.6195Z" fill="#418533"/>
<path d="M801.719 39.5795L784.014 21.8998L801.719 4.21997V39.5795Z" fill="#2B652E"/>
<path d="M789.916 16.0031V27.7913L784.014 21.8998L789.916 16.0031ZM801.719 16.0031V27.7913L795.818 21.8998L801.719 16.0031ZM795.818 21.8998V33.688L789.916 27.7913L795.818 21.8998ZM801.719 27.7913V39.5795L795.818 33.688L801.719 27.7913ZM795.818 10.1115V21.8998L789.916 16.0031L795.818 10.1115ZM801.719 4.21997V16.0031L795.818 10.1115L801.719 4.21997Z" fill="#418533"/>
<path d="M754.5 4.21997L772.21 21.8998L754.5 39.5795V4.21997Z" fill="#2B652E"/>
<path d="M766.309 27.7913V16.0031L772.21 21.8998L766.309 27.7913ZM754.5 27.7913V16.0031L760.407 21.8998L754.5 27.7913ZM760.407 21.8998V10.1115L766.309 16.0031L760.407 21.8998ZM754.5 16.0031V4.21997L760.407 10.1115L754.5 16.0031ZM760.407 33.688V21.8998L766.309 27.7913L760.407 33.688ZM754.5 39.5795V27.7913L760.407 33.688L754.5 39.5795Z" fill="#418533"/>
<path d="M792.238 37.9349L795.532 41.2244H760.692L763.987 37.9349H792.238ZM770.26 31.6665H785.959L789.61 35.3125H766.614L770.26 31.6665ZM778.112 23.8298L783.331 29.0441H772.888L778.112 23.8298ZM791.601 47.6965H764.623L760.768 43.8468H795.456L791.601 47.6965ZM785.73 53.5575H770.494L767.251 50.3189H788.974L785.73 53.5575ZM778.112 61.1651L773.122 56.185H783.102L778.112 61.1651ZM775.653 63.6195L754.5 84.7415H759.414L764.323 79.8429H788.729L786.102 77.2154H766.95L771.462 72.714H781.59L778.962 70.0864H774.089L776.656 67.5251L778.112 66.0688L796.81 84.7415H801.719L780.566 63.6195L801.719 42.4974L780.566 21.3754L801.719 0.258423H796.805L792.141 4.9126H767.19L769.817 7.54013H789.513L785.002 12.0415H774.329L776.956 14.6691H782.374L779.665 17.373L778.112 18.921L759.414 0.258423H754.5L775.653 21.3754L754.5 42.4974L775.653 63.6195Z" fill="#418533"/>
<path d="M848.938 39.5795L831.233 21.8998L848.938 4.21997V39.5795Z" fill="#2B652E"/>
<path d="M837.135 16.0031V27.7913L831.233 21.8998L837.135 16.0031ZM848.938 16.0031V27.7913L843.036 21.8998L848.938 16.0031ZM843.036 21.8998V33.688L837.135 27.7913L843.036 21.8998ZM848.938 27.7913V39.5795L843.036 33.688L848.938 27.7913ZM843.036 10.1115V21.8998L837.135 16.0031L843.036 10.1115ZM848.938 4.21997V16.0031L843.036 10.1115L848.938 4.21997Z" fill="#418533"/>
<path d="M801.719 4.21997L819.429 21.8998L801.719 39.5795V4.21997Z" fill="#2B652E"/>
<path d="M813.527 27.7915V16.0033L819.429 21.9L813.527 27.7915ZM801.719 27.7915V16.0033L807.626 21.9L801.719 27.7915Z" fill="#418533"/>
<path d="M807.622 21.8999V10.1117L813.528 16.0033L807.622 21.8999Z" fill="#418533"/>
<path d="M801.719 16.0031V4.21997L807.626 10.1115L801.719 16.0031ZM807.62 33.688V21.8998L813.527 27.7913L807.62 33.688Z" fill="#418533"/>
<path d="M801.719 39.5796V27.7914L807.626 33.688L801.719 39.5796Z" fill="#418533"/>
<path d="M839.456 37.9349L842.751 41.2244H807.911L811.205 37.9349H839.456ZM817.479 31.6665H833.178L836.829 35.3125H813.833L817.479 31.6665ZM825.331 23.8298L830.55 29.0441H820.106L825.331 23.8298ZM838.82 47.6965H811.842L807.987 43.8468H842.669L838.82 47.6965ZM832.949 53.5575H817.713L814.469 50.3189H836.192L832.949 53.5575ZM825.331 61.1651L820.341 56.185H830.321L825.331 61.1651ZM822.871 63.6195L801.719 84.7415H806.633L811.541 79.8429H835.948L833.315 77.2154H814.169L818.681 72.714H828.809L826.181 70.0864H821.308L823.874 67.5251L825.331 66.0688L844.024 84.7415H848.938L827.785 63.6195L848.938 42.4974L827.785 21.3754L848.938 0.258423H844.024L839.36 4.9126H814.408L817.036 7.54013H836.732L832.22 12.0415H821.542L824.175 14.6691H829.593L826.884 17.373L825.331 18.921L806.633 0.258423H801.719L822.871 21.3754L801.719 42.4974L822.871 63.6195Z" fill="#418533"/>
<path d="M896.157 39.5795L878.452 21.8998L896.157 4.21997V39.5795Z" fill="#2B652E"/>
<path d="M884.354 16.0031V27.7913L878.452 21.8998L884.354 16.0031ZM896.157 16.0031V27.7913L890.256 21.8998L896.157 16.0031ZM890.256 21.8998V33.688L884.354 27.7913L890.256 21.8998ZM896.157 27.7913V39.5795L890.256 33.688L896.157 27.7913ZM890.256 10.1115V21.8998L884.354 16.0031L890.256 10.1115ZM896.157 4.21997V16.0031L890.256 10.1115L896.157 4.21997Z" fill="#418533"/>
<path d="M848.938 4.21997L866.648 21.8998L848.938 39.5795V4.21997Z" fill="#2B652E"/>
<path d="M860.741 27.7915V16.0033L866.648 21.9L860.741 27.7915ZM848.938 27.7915V16.0033L854.84 21.9L848.938 27.7915Z" fill="#418533"/>
<path d="M854.84 21.8998V10.1115L860.747 16.0031L854.84 21.8998ZM848.938 16.0031V4.21997L854.84 10.1115L848.938 16.0031ZM854.84 33.688V21.8998L860.747 27.7913L854.84 33.688ZM848.938 39.5795V27.7913L854.84 33.688L848.938 39.5795Z" fill="#418533"/>
<path d="M886.676 37.9349L889.97 41.2244H855.13L858.425 37.9349H886.676ZM864.698 31.6665H880.397L884.048 35.3125H861.052L864.698 31.6665ZM872.55 23.8298L877.769 29.0441H867.326L872.55 23.8298ZM886.039 47.6965H859.056L855.206 43.8468H889.889L886.039 47.6965ZM880.168 53.5575H864.932L861.689 50.3189H883.412L880.168 53.5575ZM872.55 61.1651L867.56 56.185H877.54L872.55 61.1651ZM870.091 63.6195L848.938 84.7415H853.852L858.761 79.8429H883.162L880.534 77.2154H861.388L865.895 72.714H876.028L873.4 70.0864H868.527L871.094 67.5251L872.55 66.0688L891.243 84.7415H896.157L875.004 63.6195L896.157 42.4974L875.004 21.3754L896.157 0.258423H891.243L886.579 4.9126H861.628L864.255 7.54013H883.951L879.44 12.0415H868.762L871.394 14.6691H876.812L874.103 17.373L872.55 18.921L853.852 0.258423H848.938L870.091 21.3754L848.938 42.4974L870.091 63.6195Z" fill="#418533"/>
<path d="M943.377 39.5795L925.671 21.8998L943.377 4.21997V39.5795Z" fill="#2B652E"/>
<path d="M931.573 16.0033V27.7915L925.671 21.9L931.573 16.0033ZM943.377 16.0033V27.7915L937.475 21.9L943.377 16.0033Z" fill="#418533"/>
<path d="M937.475 21.8998V33.688L931.573 27.7913L937.475 21.8998ZM943.376 27.7913V39.5795L937.475 33.688L943.376 27.7913ZM937.475 10.1115V21.8998L931.573 16.0031L937.475 10.1115ZM943.376 4.21997V16.0031L937.475 10.1115L943.376 4.21997Z" fill="#418533"/>
<path d="M896.157 4.21997L913.862 21.8998L896.157 39.5795V4.21997Z" fill="#2B652E"/>
<path d="M907.96 27.7915V16.0033L913.867 21.9L907.96 27.7915ZM896.157 27.7915V16.0033L902.058 21.9L896.157 27.7915Z" fill="#418533"/>
<path d="M902.06 21.8999V10.1117L907.961 16.0033L902.06 21.8999Z" fill="#418533"/>
<path d="M896.157 16.0031V4.21997L902.058 10.1115L896.157 16.0031ZM902.058 33.688V21.8998L907.96 27.7913L902.058 33.688Z" fill="#418533"/>
<path d="M896.157 39.5796V27.7914L902.058 33.688L896.157 39.5796Z" fill="#418533"/>
<path d="M933.894 37.9349L937.189 41.2244H902.349L905.638 37.9349H933.894ZM911.917 31.6665H927.616L931.267 35.3125H908.271L911.917 31.6665ZM919.769 23.8298L924.988 29.0441H914.544L919.769 23.8298ZM933.258 47.6965H906.275L902.425 43.8468H937.107L933.258 47.6965ZM927.387 53.5575H912.151L908.902 50.3189H930.63L927.387 53.5575ZM919.769 61.1651L914.779 56.185H924.754L919.769 61.1651ZM917.309 63.6195L896.157 84.7415H901.071L905.979 79.8429H930.381L927.753 77.2154H908.607L913.113 72.714H923.247L920.619 70.0864H915.741L918.312 67.5251L919.769 66.0688L938.462 84.7415H943.376L922.223 63.6195L943.376 42.4974L922.223 21.3754L943.376 0.258423H938.462L933.798 4.9126H908.841L911.474 7.54013H931.17L926.658 12.0415H915.98L918.608 14.6691H924.031L921.322 17.373L919.769 18.921L901.071 0.258423H896.157L917.309 21.3754L896.157 42.4974L917.309 63.6195Z" fill="#418533"/>
<path d="M990.596 39.5795L972.891 21.8998L990.596 4.21997V39.5795Z" fill="#2B652E"/>
<path d="M978.792 16.0033V27.7915L972.891 21.9L978.792 16.0033ZM990.596 16.0033V27.7915L984.694 21.9L990.596 16.0033Z" fill="#418533"/>
<path d="M984.694 21.8999V33.6881L978.792 27.7915L984.694 21.8999ZM990.595 27.7915V39.5797L984.694 33.6881L990.595 27.7915ZM984.694 10.1117V21.8999L978.792 16.0033L984.694 10.1117Z" fill="#418533"/>
<path d="M990.595 4.21997V16.0031L984.693 10.1115L990.595 4.21997Z" fill="#418533"/>
<path d="M943.376 4.21997L961.082 21.8998L943.376 39.5795V4.21997Z" fill="#2B652E"/>
<path d="M955.18 27.7915V16.0033L961.082 21.9L955.18 27.7915ZM943.376 27.7915V16.0033L949.278 21.9L943.376 27.7915Z" fill="#418533"/>
<path d="M949.278 21.8998V10.1115L955.18 16.0031L949.278 21.8998ZM943.376 16.0031V4.21997L949.278 10.1115L943.376 16.0031ZM949.278 33.688V21.8998L955.18 27.7913L949.278 33.688ZM943.376 39.5795V27.7913L949.278 33.688L943.376 39.5795Z" fill="#418533"/>
<path d="M981.114 37.9349L984.409 41.2244H949.563L952.858 37.9349H981.114ZM959.137 31.6665H974.835L978.487 35.3125H955.485L959.137 31.6665ZM966.989 23.8298L972.208 29.0441H961.764L966.989 23.8298ZM980.478 47.6965H953.494L949.645 43.8468H984.327L980.478 47.6965ZM974.601 53.5575H959.371L956.122 50.3189H977.85L974.601 53.5575ZM966.989 61.1651L961.998 56.185H971.974L966.989 61.1651ZM964.529 63.6195L943.376 84.7415H948.29L953.194 79.8429H977.6L974.973 77.2154H955.827L960.333 72.714H970.466L967.839 70.0864H962.961L965.532 67.5251L966.989 66.0688L985.682 84.7415H990.596L969.443 63.6195L990.596 42.4974L969.443 21.3754L990.596 0.258423H985.682L981.017 4.9126H956.061L958.688 7.54013H978.39L973.878 12.0415H963.2L965.828 14.6691H971.251L968.542 17.373L966.989 18.921L948.29 0.258423H943.376L964.529 21.3754L943.376 42.4974L964.529 63.6195Z" fill="#418533"/>
<path d="M1037.81 39.5795L1020.11 21.8998L1037.81 4.21997V39.5795Z" fill="#2B652E"/>
<path d="M1026.01 16.0031V27.7913L1020.11 21.8998L1026.01 16.0031ZM1037.81 16.0031V27.7913L1031.91 21.8998L1037.81 16.0031ZM1031.91 21.8998V33.688L1026.01 27.7913L1031.91 21.8998ZM1037.81 27.7913V39.5795L1031.91 33.688L1037.81 27.7913ZM1031.91 10.1115V21.8998L1026.01 16.0031L1031.91 10.1115ZM1037.81 4.21997V16.0031L1031.91 10.1115L1037.81 4.21997Z" fill="#418533"/>
<path d="M990.595 4.21997L1008.3 21.8998L990.595 39.5795V4.21997Z" fill="#2B652E"/>
<path d="M1002.4 27.7913V16.0031L1008.3 21.8998L1002.4 27.7913ZM990.595 27.7913V16.0031L996.497 21.8998L990.595 27.7913ZM996.497 21.8998V10.1115L1002.4 16.0031L996.497 21.8998ZM990.595 16.0031V4.21997L996.497 10.1115L990.595 16.0031ZM996.497 33.688V21.8998L1002.4 27.7913L996.497 33.688ZM990.595 39.5795V27.7913L996.497 33.688L990.595 39.5795Z" fill="#418533"/>
<path d="M1028.33 37.9349L1031.63 41.2244H996.782L1000.08 37.9349H1028.33ZM1006.36 31.6665H1022.05L1025.71 35.3125H1002.7L1006.36 31.6665ZM1014.21 23.8298L1019.43 29.0441H1008.98L1014.21 23.8298ZM1027.7 47.6965H1000.71L996.864 43.8468H1031.55L1027.7 47.6965ZM1021.82 53.5575H1006.59L1003.34 50.3189H1025.07L1021.82 53.5575ZM1014.21 61.1651L1009.22 56.185H1019.19L1014.21 61.1651ZM1011.75 63.6195L990.595 84.7415H995.509L1000.41 79.8429H1024.82L1022.19 77.2154H1003.04L1007.55 72.714H1017.69L1015.05 70.0864H1010.18L1012.75 67.5251L1014.21 66.0688L1032.9 84.7415H1037.81L1016.66 63.6195L1037.81 42.4974L1016.66 21.3754L1037.81 0.258423H1032.9L1028.24 4.9126H1003.28L1005.91 7.54013H1025.61L1021.1 12.0415H1010.42L1013.05 14.6691H1018.47L1015.76 17.373L1014.21 18.921L995.509 0.258423H990.595L1011.75 21.3754L990.595 42.4974L1011.75 63.6195Z" fill="#418533"/>
<path d="M1085.03 39.5795L1067.33 21.8998L1085.03 4.21997V39.5795Z" fill="#2B652E"/>
<path d="M1073.23 16.0031V27.7913L1067.32 21.8998L1073.23 16.0031ZM1085.03 16.0031V27.7913L1079.13 21.8998L1085.03 16.0031ZM1079.13 21.8998V33.688L1073.23 27.7913L1079.13 21.8998ZM1085.03 27.7913V39.5795L1079.13 33.688L1085.03 27.7913ZM1079.13 10.1115V21.8998L1073.23 16.0031L1079.13 10.1115ZM1085.03 4.21997V16.0031L1079.13 10.1115L1085.03 4.21997Z" fill="#418533"/>
<path d="M1037.81 4.21997L1055.52 21.8998L1037.81 39.5795V4.21997Z" fill="#2B652E"/>
<path d="M1049.62 27.7915V16.0033L1055.52 21.9L1049.62 27.7915ZM1037.81 27.7915V16.0033L1043.72 21.9L1037.81 27.7915Z" fill="#418533"/>
<path d="M1043.72 21.8999V10.1117L1049.62 16.0033L1043.72 21.8999Z" fill="#418533"/>
<path d="M1037.81 16.0031V4.21997L1043.72 10.1115L1037.81 16.0031ZM1043.72 33.688V21.8998L1049.62 27.7913L1043.72 33.688Z" fill="#418533"/>
<path d="M1037.81 39.5796V27.7914L1043.72 33.688L1037.81 39.5796Z" fill="#418533"/>
<path d="M1075.55 37.9349L1078.85 41.2244H1044L1047.3 37.9349H1075.55ZM1053.57 31.6665H1069.27L1072.92 35.3125H1049.92L1053.57 31.6665ZM1061.42 23.8298L1066.65 29.0441H1056.2L1061.42 23.8298ZM1074.92 47.6965H1047.93L1044.08 43.8468H1078.77L1074.92 47.6965ZM1069.04 53.5575H1053.8L1050.56 50.3189H1072.29L1069.04 53.5575ZM1061.42 61.1651L1056.43 56.185H1066.41L1061.42 61.1651ZM1058.97 63.6195L1037.81 84.7415H1042.73L1047.63 79.8429H1072.04L1069.41 77.2154H1050.26L1054.77 72.714H1064.9L1062.27 70.0864H1057.4L1059.97 67.5251L1061.42 66.0688L1080.12 84.7415H1085.03L1063.88 63.6195L1085.03 42.4974L1063.88 21.3754L1085.03 0.258423H1080.12L1075.46 4.9126H1050.5L1053.13 7.54013H1072.82L1068.32 12.0415H1057.64L1060.27 14.6691H1065.69L1062.97 17.373L1061.42 18.921L1042.73 0.258423H1037.81L1058.97 21.3754L1037.81 42.4974L1058.97 63.6195Z" fill="#418533"/>
<path d="M1132.25 39.5795L1114.54 21.8998L1132.25 4.21997V39.5795Z" fill="#2B652E"/>
<path d="M1120.45 16.0033V27.7915L1114.54 21.9L1120.45 16.0033ZM1132.25 16.0033V27.7915L1126.35 21.9L1132.25 16.0033Z" fill="#418533"/>
<path d="M1126.35 21.8998V33.688L1120.44 27.7913L1126.35 21.8998ZM1132.25 27.7913V39.5795L1126.35 33.688L1132.25 27.7913ZM1126.35 10.1115V21.8998L1120.44 16.0031L1126.35 10.1115ZM1132.25 4.21997V16.0031L1126.35 10.1115L1132.25 4.21997Z" fill="#418533"/>
<path d="M1085.03 4.21997L1102.74 21.8998L1085.03 39.5795V4.21997Z" fill="#2B652E"/>
<path d="M1096.84 27.7915V16.0033L1102.74 21.9L1096.84 27.7915ZM1085.03 27.7915V16.0033L1090.94 21.9L1085.03 27.7915Z" fill="#418533"/>
<path d="M1090.94 21.8998V10.1115L1096.84 16.0031L1090.94 21.8998ZM1085.03 16.0031V4.21997L1090.94 10.1115L1085.03 16.0031ZM1090.94 33.688V21.8998L1096.84 27.7913L1090.94 33.688ZM1085.03 39.5795V27.7913L1090.94 33.688L1085.03 39.5795Z" fill="#418533"/>
<path d="M1122.77 37.9349L1126.07 41.2244H1091.22L1094.52 37.9349H1122.77ZM1100.79 31.6665H1116.49L1120.14 35.3125H1097.14L1100.79 31.6665ZM1108.64 23.8298L1113.87 29.0441H1103.42L1108.64 23.8298ZM1122.13 47.6965H1095.15L1091.3 43.8468H1125.98L1122.13 47.6965ZM1116.26 53.5575H1101.02L1097.78 50.3189H1119.51L1116.26 53.5575ZM1108.64 61.1651L1103.65 56.185H1113.63L1108.64 61.1651ZM1106.19 63.6195L1085.03 84.7415H1089.95L1094.85 79.8429H1119.26L1116.63 77.2154H1097.48L1101.99 72.714H1112.12L1109.49 70.0864H1104.62L1107.19 67.5251L1108.64 66.0688L1127.34 84.7415H1132.25L1111.1 63.6195L1132.25 42.4974L1111.1 21.3754L1132.25 0.258423H1127.34L1122.67 4.9126H1097.72L1100.35 7.54013H1120.04L1115.54 12.0415H1104.86L1107.48 14.6691H1112.91L1110.19 17.373L1108.64 18.921L1089.95 0.258423H1085.03L1106.19 21.3754L1085.03 42.4974L1106.19 63.6195Z" fill="#418533"/>
<path d="M1179.47 39.5795L1161.76 21.8998L1179.47 4.21997V39.5795Z" fill="#2B652E"/>
<path d="M1167.66 16.0033V27.7915L1161.76 21.9L1167.66 16.0033ZM1179.47 16.0033V27.7915L1173.56 21.9L1179.47 16.0033Z" fill="#418533"/>
<path d="M1173.57 21.9V33.6882L1167.66 27.7916L1173.57 21.9Z" fill="#418533"/>
<path d="M1179.47 27.7915V39.5797L1173.56 33.6881L1179.47 27.7915ZM1173.57 10.1117V21.8999L1167.66 16.0033L1173.57 10.1117Z" fill="#418533"/>
<path d="M1179.47 4.21997V16.0031L1173.56 10.1115L1179.47 4.21997Z" fill="#418533"/>
<path d="M1132.25 4.21997L1149.96 21.8998L1132.25 39.5795V4.21997Z" fill="#2B652E"/>
<path d="M1144.06 27.7913V16.0031L1149.96 21.8998L1144.06 27.7913ZM1132.25 27.7913V16.0031L1138.15 21.8998L1132.25 27.7913ZM1138.15 21.8998V10.1115L1144.06 16.0031L1138.15 21.8998ZM1132.25 16.0031V4.21997L1138.15 10.1115L1132.25 16.0031ZM1138.15 33.688V21.8998L1144.06 27.7913L1138.15 33.688ZM1132.25 39.5795V27.7913L1138.15 33.688L1132.25 39.5795Z" fill="#418533"/>
<path d="M1169.99 37.9349L1173.28 41.2244H1138.44L1141.73 37.9349H1169.99ZM1148.01 31.6665H1163.71L1167.36 35.3125H1144.36L1148.01 31.6665ZM1155.86 23.8298L1161.08 29.0441H1150.64L1155.86 23.8298ZM1169.35 47.6965H1142.37L1138.52 43.8468H1173.2L1169.35 47.6965ZM1163.48 53.5575H1148.24L1145 50.3189H1166.72L1163.48 53.5575ZM1155.86 61.1651L1150.87 56.185H1160.85L1155.86 61.1651ZM1153.41 63.6195L1132.25 84.7415H1137.17L1142.07 79.8429H1166.48L1163.85 77.2154H1144.7L1149.21 72.714H1159.34L1156.71 70.0864H1151.84L1154.41 67.5251L1155.86 66.0688L1174.56 84.7415H1179.47L1158.32 63.6195L1179.47 42.4974L1158.32 21.3754L1179.47 0.258423H1174.56L1169.89 4.9126H1144.94L1147.56 7.54013H1167.26L1162.75 12.0415H1152.08L1154.7 14.6691H1160.12L1157.41 17.373L1155.86 18.921L1137.17 0.258423H1132.25L1153.41 21.3754L1132.25 42.4974L1153.41 63.6195Z" fill="#418533"/>
<path d="M1226.69 39.5795L1208.98 21.8998L1226.69 4.21997V39.5795Z" fill="#2B652E"/>
<path d="M1214.88 16.0031V27.7913L1208.98 21.8998L1214.88 16.0031ZM1226.69 16.0031V27.7913L1220.78 21.8998L1226.69 16.0031ZM1220.78 21.8998V33.688L1214.88 27.7913L1220.78 21.8998ZM1226.69 27.7913V39.5795L1220.78 33.688L1226.69 27.7913ZM1220.78 10.1115V21.8998L1214.88 16.0031L1220.78 10.1115ZM1226.69 4.21997V16.0031L1220.78 10.1115L1226.69 4.21997Z" fill="#418533"/>
<path d="M1179.47 4.21997L1197.18 21.8998L1179.47 39.5795V4.21997Z" fill="#2B652E"/>
<path d="M1191.28 27.7913V16.0031L1197.18 21.8998L1191.28 27.7913ZM1179.47 27.7913V16.0031L1185.37 21.8998L1179.47 27.7913ZM1185.37 21.8998V10.1115L1191.28 16.0031L1185.37 21.8998ZM1179.47 16.0031V4.21997L1185.37 10.1115L1179.47 16.0031ZM1185.37 33.688V21.8998L1191.28 27.7913L1185.37 33.688ZM1179.47 39.5795V27.7913L1185.37 33.688L1179.47 39.5795Z" fill="#418533"/>
<path d="M1217.2 37.9349L1220.5 41.2244H1185.66L1188.95 37.9349H1217.2ZM1195.23 31.6665H1210.93L1214.58 35.3125H1191.58L1195.23 31.6665ZM1203.08 23.8298L1208.3 29.0441H1197.86L1203.08 23.8298ZM1216.57 47.6965H1189.59L1185.73 43.8468H1220.42L1216.57 47.6965ZM1210.7 53.5575H1195.46L1192.22 50.3189H1213.94L1210.7 53.5575ZM1203.08 61.1651L1198.09 56.185H1208.07L1203.08 61.1651ZM1200.62 63.6195L1179.47 84.7415H1184.39L1189.29 79.8429H1213.7L1211.07 77.2154H1191.92L1196.43 72.714H1206.56L1203.93 70.0864H1199.06L1201.63 67.5251L1203.08 66.0688L1221.78 84.7415H1226.69L1205.54 63.6195L1226.69 42.4974L1205.54 21.3754L1226.69 0.258423H1221.78L1217.11 4.9126H1192.16L1194.78 7.54013H1214.48L1209.97 12.0415H1199.3L1201.92 14.6691H1207.34L1204.63 17.373L1203.08 18.921L1184.39 0.258423H1179.47L1200.62 21.3754L1179.47 42.4974L1200.62 63.6195Z" fill="#418533"/>
<path d="M1273.9 39.5795L1256.2 21.8998L1273.9 4.21997V39.5795Z" fill="#2B652E"/>
<path d="M1262.1 16.0031V27.7913L1256.2 21.8998L1262.1 16.0031ZM1273.9 16.0031V27.7913L1268 21.8998L1273.9 16.0031ZM1268 21.8998V33.688L1262.1 27.7913L1268 21.8998ZM1273.9 27.7913V39.5795L1268 33.688L1273.9 27.7913ZM1268 10.1115V21.8998L1262.1 16.0031L1268 10.1115ZM1273.9 4.21997V16.0031L1268 10.1115L1273.9 4.21997Z" fill="#418533"/>
<path d="M1226.69 4.21997L1244.4 21.8998L1226.69 39.5795V4.21997Z" fill="#2B652E"/>
<path d="M1238.49 27.7913V16.0031L1244.4 21.8998L1238.49 27.7913ZM1226.69 27.7913V16.0031L1232.59 21.8998L1226.69 27.7913ZM1232.59 21.8998V10.1115L1238.49 16.0031L1232.59 21.8998ZM1226.69 16.0031V4.21997L1232.59 10.1115L1226.69 16.0031ZM1232.59 33.688V21.8998L1238.49 27.7913L1232.59 33.688ZM1226.69 39.5795V27.7913L1232.59 33.688L1226.69 39.5795Z" fill="#418533"/>
<path d="M1264.42 37.9349L1267.72 41.2244H1232.88L1236.17 37.9349H1264.42ZM1242.45 31.6665H1258.15L1261.8 35.3125H1238.8L1242.45 31.6665ZM1250.3 23.8298L1255.52 29.0441H1245.08L1250.3 23.8298ZM1263.79 47.6965H1236.81L1232.95 43.8468H1267.64L1263.79 47.6965ZM1257.92 53.5575H1242.68L1239.44 50.3189H1261.16L1257.92 53.5575ZM1250.3 61.1651L1245.31 56.185H1255.29L1250.3 61.1651ZM1247.84 63.6195L1226.69 84.7415H1231.6L1236.51 79.8429H1260.91L1258.29 77.2154H1239.14L1243.65 72.714H1253.78L1251.15 70.0864H1246.27L1248.84 67.5251L1250.3 66.0688L1268.99 84.7415H1273.91L1252.75 63.6195L1273.91 42.4974L1252.75 21.3754L1273.91 0.258423H1268.99L1264.33 4.9126H1239.38L1242 7.54013H1261.7L1257.19 12.0415H1246.51L1249.14 14.6691H1254.56L1251.85 17.373L1250.3 18.921L1231.6 0.258423H1226.69L1247.84 21.3754L1226.69 42.4974L1247.84 63.6195Z" fill="#418533"/>
<path d="M1321.12 39.5795L1303.42 21.8998L1321.12 4.21997V39.5795Z" fill="#2B652E"/>
<path d="M1309.32 16.0031V27.7913L1303.42 21.8998L1309.32 16.0031ZM1321.12 16.0031V27.7913L1315.22 21.8998L1321.12 16.0031ZM1315.22 21.8998V33.688L1309.32 27.7913L1315.22 21.8998ZM1321.12 27.7913V39.5795L1315.22 33.688L1321.12 27.7913ZM1315.22 10.1115V21.8998L1309.32 16.0031L1315.22 10.1115ZM1321.12 4.21997V16.0031L1315.22 10.1115L1321.12 4.21997Z" fill="#418533"/>
<path d="M1273.9 4.21997L1291.62 21.8998L1273.9 39.5795V4.21997Z" fill="#2B652E"/>
<path d="M1285.71 27.7913V16.0031L1291.62 21.8998L1285.71 27.7913ZM1273.9 27.7913V16.0031L1279.81 21.8998L1273.9 27.7913ZM1279.81 21.8998V10.1115L1285.71 16.0031L1279.81 21.8998ZM1273.9 16.0031V4.21997L1279.81 10.1115L1273.9 16.0031ZM1279.81 33.688V21.8998L1285.71 27.7913L1279.81 33.688ZM1273.9 39.5795V27.7913L1279.81 33.688L1273.9 39.5795Z" fill="#418533"/>
<path d="M1311.64 37.9349L1314.94 41.2244H1280.1L1283.39 37.9349H1311.64ZM1289.66 31.6665H1305.36L1309.01 35.3125H1286.02L1289.66 31.6665ZM1297.52 23.8298L1302.74 29.0441H1292.3L1297.52 23.8298ZM1311.01 47.6965H1284.03L1280.17 43.8468H1314.86L1311.01 47.6965ZM1305.13 53.5575H1289.9L1286.66 50.3189H1308.38L1305.13 53.5575ZM1297.52 61.1651L1292.53 56.185H1302.51L1297.52 61.1651ZM1295.06 63.6195L1273.9 84.7415H1278.82L1283.73 79.8429H1308.13L1305.51 77.2154H1286.35L1290.87 72.714H1300.99L1298.37 70.0864H1293.49L1296.06 67.5251L1297.52 66.0688L1316.21 84.7415H1321.12L1299.97 63.6195L1321.12 42.4974L1299.97 21.3754L1321.12 0.258423H1316.21L1311.55 4.9126H1286.59L1289.22 7.54013H1308.92L1304.41 12.0415H1293.73L1296.36 14.6691H1301.78L1299.07 17.373L1297.52 18.921L1278.82 0.258423H1273.9L1295.06 21.3754L1273.9 42.4974L1295.06 63.6195Z" fill="#418533"/>
<path d="M1368.34 39.5795L1350.64 21.8998L1368.34 4.21997V39.5795Z" fill="#2B652E"/>
<path d="M1356.54 16.0031V27.7913L1350.64 21.8998L1356.54 16.0031ZM1368.34 16.0031V27.7913L1362.44 21.8998L1368.34 16.0031ZM1362.44 21.8998V33.688L1356.54 27.7913L1362.44 21.8998ZM1368.34 27.7913V39.5795L1362.44 33.688L1368.34 27.7913ZM1362.44 10.1115V21.8998L1356.54 16.0031L1362.44 10.1115ZM1368.34 4.21997V16.0031L1362.44 10.1115L1368.34 4.21997Z" fill="#418533"/>
<path d="M1321.12 4.21997L1338.83 21.8998L1321.12 39.5795V4.21997Z" fill="#2B652E"/>
<path d="M1332.93 27.7915V16.0033L1338.83 21.9L1332.93 27.7915ZM1321.12 27.7915V16.0033L1327.03 21.9L1321.12 27.7915Z" fill="#418533"/>
<path d="M1327.03 21.8999V10.1117L1332.93 16.0033L1327.03 21.8999Z" fill="#418533"/>
<path d="M1321.12 16.0031V4.21997L1327.03 10.1115L1321.12 16.0031ZM1327.03 33.688V21.8998L1332.93 27.7913L1327.03 33.688Z" fill="#418533"/>
<path d="M1321.12 39.5796V27.7914L1327.03 33.688L1321.12 39.5796Z" fill="#418533"/>
<path d="M1358.86 37.9349L1362.16 41.2244H1327.32L1330.61 37.9349H1358.86ZM1336.88 31.6665H1352.58L1356.23 35.3125H1333.24L1336.88 31.6665ZM1344.74 23.8298L1349.96 29.0441H1339.51L1344.74 23.8298ZM1358.22 47.6965H1331.25L1327.39 43.8468H1362.08L1358.22 47.6965ZM1352.35 53.5575H1337.12L1333.87 50.3189H1355.6L1352.35 53.5575ZM1344.74 61.1651L1339.75 56.185H1349.73L1344.74 61.1651ZM1342.28 63.6195L1321.12 84.7415H1326.04L1330.95 79.8429H1355.35L1352.72 77.2154H1333.57L1338.09 72.714H1348.21L1345.59 70.0864H1340.71L1343.28 67.5251L1344.74 66.0688L1363.43 84.7415H1368.34L1347.19 63.6195L1368.34 42.4974L1347.19 21.3754L1368.34 0.258423H1363.43L1358.76 4.9126H1333.81L1336.44 7.54013H1356.14L1351.63 12.0415H1340.95L1343.58 14.6691H1349L1346.29 17.373L1344.74 18.921L1326.04 0.258423H1321.12L1342.28 21.3754L1321.12 42.4974L1342.28 63.6195Z" fill="#418533"/>
<path d="M1415.56 39.5795L1397.86 21.8998L1415.56 4.21997V39.5795Z" fill="#2B652E"/>
<path d="M1403.76 16.0031V27.7913L1397.86 21.8998L1403.76 16.0031ZM1415.56 16.0031V27.7913L1409.66 21.8998L1415.56 16.0031ZM1409.66 21.8998V33.688L1403.76 27.7913L1409.66 21.8998ZM1415.56 27.7913V39.5795L1409.66 33.688L1415.56 27.7913ZM1409.66 10.1115V21.8998L1403.76 16.0031L1409.66 10.1115ZM1415.56 4.21997V16.0031L1409.66 10.1115L1415.56 4.21997Z" fill="#418533"/>
<path d="M1368.34 4.21997L1386.05 21.8998L1368.34 39.5795V4.21997Z" fill="#2B652E"/>
<path d="M1380.15 27.7913V16.0031L1386.05 21.8998L1380.15 27.7913ZM1368.34 27.7913V16.0031L1374.24 21.8998L1368.34 27.7913ZM1374.24 21.8998V10.1115L1380.15 16.0031L1374.24 21.8998ZM1368.34 16.0031V4.21997L1374.24 10.1115L1368.34 16.0031ZM1374.24 33.688V21.8998L1380.15 27.7913L1374.24 33.688ZM1368.34 39.5795V27.7913L1374.24 33.688L1368.34 39.5795Z" fill="#418533"/>
<path d="M1406.08 37.9349L1409.37 41.2244H1374.53L1377.83 37.9349H1406.08ZM1384.1 31.6665H1399.8L1403.45 35.3125H1380.46L1384.1 31.6665ZM1391.95 23.8298L1397.17 29.0441H1386.73L1391.95 23.8298ZM1405.44 47.6965H1378.47L1374.61 43.8468H1409.29L1405.44 47.6965ZM1399.57 53.5575H1384.34L1381.09 50.3189H1402.82L1399.57 53.5575ZM1391.95 61.1651L1386.96 56.185H1396.95L1391.95 61.1651ZM1389.5 63.6195L1368.34 84.7415H1373.26L1378.17 79.8429H1402.57L1399.94 77.2154H1380.79L1385.3 72.714H1395.43L1392.81 70.0864H1387.93L1390.5 67.5251L1391.95 66.0688L1410.65 84.7415H1415.56L1394.41 63.6195L1415.56 42.4974L1394.41 21.3754L1415.56 0.258423H1410.65L1405.98 4.9126H1381.03L1383.66 7.54013H1403.36L1398.84 12.0415H1388.17L1390.8 14.6691H1396.22L1393.51 17.373L1391.95 18.921L1373.26 0.258423H1368.34L1389.5 21.3754L1368.34 42.4974L1389.5 63.6195Z" fill="#418533"/>
<path d="M1462.78 39.5795L1445.08 21.8998L1462.78 4.21997V39.5795Z" fill="#2B652E"/>
<path d="M1450.98 16.0031V27.7913L1445.08 21.8998L1450.98 16.0031ZM1462.78 16.0031V27.7913L1456.88 21.8998L1462.78 16.0031ZM1456.88 21.8998V33.688L1450.98 27.7913L1456.88 21.8998ZM1462.78 27.7913V39.5795L1456.88 33.688L1462.78 27.7913ZM1456.88 10.1115V21.8998L1450.98 16.0031L1456.88 10.1115ZM1462.78 4.21997V16.0031L1456.88 10.1115L1462.78 4.21997Z" fill="#418533"/>
<path d="M1415.56 4.21997L1433.27 21.8998L1415.56 39.5795V4.21997Z" fill="#2B652E"/>
<path d="M1427.37 27.7915V16.0033L1433.27 21.9L1427.37 27.7915ZM1415.56 27.7915V16.0033L1421.46 21.9L1415.56 27.7915Z" fill="#418533"/>
<path d="M1421.46 21.8998V10.1115L1427.37 16.0031L1421.46 21.8998ZM1415.56 16.0031V4.21997L1421.46 10.1115L1415.56 16.0031ZM1421.46 33.688V21.8998L1427.37 27.7913L1421.46 33.688ZM1415.56 39.5795V27.7913L1421.46 33.688L1415.56 39.5795Z" fill="#418533"/>
<path d="M1453.3 37.9349L1456.59 41.2244H1421.75L1425.04 37.9349H1453.3ZM1431.32 31.6665H1447.02L1450.67 35.3125H1427.68L1431.32 31.6665ZM1439.17 23.8298L1444.39 29.0441H1433.95L1439.17 23.8298ZM1452.66 47.6965H1425.68L1421.83 43.8468H1456.51L1452.66 47.6965ZM1446.79 53.5575H1431.56L1428.31 50.3189H1450.04L1446.79 53.5575ZM1439.17 61.1651L1434.18 56.185H1444.16L1439.17 61.1651ZM1436.71 63.6195L1415.56 84.7415H1420.48L1425.38 79.8429H1449.79L1447.16 77.2154H1428.01L1432.52 72.714H1442.65L1440.02 70.0864H1435.15L1437.72 67.5251L1439.17 66.0688L1457.87 84.7415H1462.78L1441.63 63.6195L1462.78 42.4974L1441.63 21.3754L1462.78 0.258423H1457.87L1453.2 4.9126H1428.25L1430.88 7.54013H1450.57L1446.06 12.0415H1435.39L1438.01 14.6691H1443.44L1440.73 17.373L1439.17 18.921L1420.48 0.258423H1415.56L1436.71 21.3754L1415.56 42.4974L1436.71 63.6195Z" fill="#418533"/>
<path d="M1510 39.5795L1492.29 21.8998L1510 4.21997V39.5795Z" fill="#2B652E"/>
<path d="M1498.2 16.0031V27.7913L1492.29 21.8998L1498.2 16.0031ZM1510 16.0031V27.7913L1504.1 21.8998L1510 16.0031ZM1504.1 21.8998V33.688L1498.2 27.7913L1504.1 21.8998ZM1510 27.7913V39.5795L1504.1 33.688L1510 27.7913ZM1504.1 10.1115V21.8998L1498.2 16.0031L1504.1 10.1115ZM1510 4.21997V16.0031L1504.1 10.1115L1510 4.21997Z" fill="#418533"/>
<path d="M1462.78 4.21997L1480.49 21.8998L1462.78 39.5795V4.21997Z" fill="#2B652E"/>
<path d="M1474.58 27.7913V16.0031L1480.49 21.8998L1474.58 27.7913ZM1462.78 27.7913V16.0031L1468.68 21.8998L1462.78 27.7913ZM1468.68 21.8998V10.1115L1474.58 16.0031L1468.68 21.8998ZM1462.78 16.0031V4.21997L1468.68 10.1115L1462.78 16.0031ZM1468.68 33.688V21.8998L1474.58 27.7913L1468.68 33.688ZM1462.78 39.5795V27.7913L1468.68 33.688L1462.78 39.5795Z" fill="#418533"/>
<path d="M1500.52 37.9349L1503.81 41.2244H1468.97L1472.26 37.9349H1500.52ZM1478.54 31.6665H1494.24L1497.89 35.3125H1474.89L1478.54 31.6665ZM1486.39 23.8298L1491.61 29.0441H1481.17L1486.39 23.8298ZM1499.88 47.6965H1472.9L1469.05 43.8468H1503.73L1499.88 47.6965ZM1494.01 53.5575H1478.77L1475.53 50.3189H1497.25L1494.01 53.5575ZM1486.39 61.1651L1481.4 56.185H1491.38L1486.39 61.1651ZM1483.93 63.6195L1462.78 84.7415H1467.69L1472.6 79.8429H1497L1494.38 77.2154H1475.23L1479.74 72.714H1489.87L1487.24 70.0864H1482.36L1484.94 67.5251L1486.39 66.0688L1505.09 84.7415H1510L1488.85 63.6195L1510 42.4974L1488.85 21.3754L1510 0.258423H1505.09L1500.42 4.9126H1475.46L1478.1 7.54013H1497.79L1493.28 12.0415H1482.6L1485.23 14.6691H1490.65L1487.95 17.373L1486.39 18.921L1467.69 0.258423H1462.78L1483.93 21.3754L1462.78 42.4974L1483.93 63.6195Z" fill="#418533"/>
</g>
</svg>
