<svg width="39" height="40" viewBox="0 0 39 40" fill="none" xmlns="http://www.w3.org/2000/svg">
<path fill-rule="evenodd" clip-rule="evenodd" d="M12.1598 31.3952L10.9456 33.4976C10.638 34.0312 9.95298 34.2145 9.42056 33.9069C8.88939 33.6006 8.70494 32.9122 9.01165 32.3812L10.2255 30.2785C10.5335 29.7449 11.2181 29.5616 11.7517 29.8695C12.2841 30.1779 12.4682 30.8617 12.1598 31.3953V31.3952ZM14.6774 31.5589C14.5082 31.4612 14.3163 31.4097 14.121 31.4098C13.7349 31.4098 13.3587 31.6102 13.1524 31.9679L11.1838 35.3771C10.8759 35.9099 11.0605 36.595 11.5927 36.9029C12.1256 37.2109 12.8101 37.0275 13.1177 36.494L15.0863 33.0848C15.3939 32.5512 15.2106 31.8674 14.6774 31.559L14.6774 31.5589ZM6.87939 17.65C6.92447 17.612 6.91829 17.5466 6.86642 17.5183L4.77947 16.3573C4.62845 16.2741 4.46517 16.2871 4.32947 16.3932C1.24322 18.8275 -0.478892 23.1284 0.234467 26.6187C0.262827 26.7601 0.341108 26.8556 0.473842 26.9117L2.11126 27.607C2.16611 27.6299 2.22244 27.594 2.22244 27.534C2.26267 23.5987 3.87283 20.1812 6.87939 17.6498V17.65ZM18.1224 33.9274C18.0448 33.6376 17.8606 33.397 17.6038 33.248C17.4346 33.1506 17.2427 33.0993 17.0474 33.0993C16.6613 33.0993 16.2852 33.2996 16.0781 33.6573L14.4372 36.5C14.1531 37.029 14.3393 37.6941 14.8631 37.996C15.1198 38.1443 15.4203 38.1834 15.7098 38.1056C15.9992 38.0279 16.2398 37.8437 16.3888 37.587L18.0128 34.7741C18.1611 34.517 18.2002 34.2169 18.1224 33.9274ZM30.0339 29.3552L24.7977 26.3313C23.7752 25.74 22.8212 25.1845 21.5999 25.1845C20.5083 25.1909 19.5208 25.6735 18.5653 26.1409C17.0581 26.8771 15.3498 27.7116 13.5057 26.185C12.982 25.7504 12.6827 25.1009 12.7234 24.4873C12.7612 23.9246 13.0727 23.4328 13.6016 23.1031L17.905 20.4209C16.6489 19.7962 15.4926 19.8962 14.1872 20.0098C12.4635 20.1585 10.5094 20.3289 7.98556 18.9092L7.49329 18.632C4.8547 20.9062 3.46892 23.8205 3.3729 27.2994L7.53634 29.4464C7.59526 29.4764 7.64839 29.5166 7.69329 29.5651L8.69345 30.6409L9.234 29.7055C9.85751 28.6257 11.2432 28.2542 12.3242 28.8777C12.9054 29.2133 13.2811 29.7697 13.4073 30.3805C13.9992 30.1845 14.6687 30.2317 15.2499 30.5672C15.8314 30.9027 16.2075 31.4591 16.3338 32.0698C16.9258 31.8739 17.5955 31.9212 18.1764 32.2566C18.6985 32.558 19.0716 33.0461 19.2285 33.6305C19.2401 33.6735 19.2502 33.7165 19.2592 33.7596C19.8513 33.5634 20.5213 33.6106 21.1029 33.946C21.5289 34.1911 21.8627 34.5694 22.0529 35.0226L24.5768 36.479C25.067 36.7631 25.7037 36.5929 25.9867 36.1019C26.2638 35.6205 26.1062 34.9959 25.632 34.7059L22.5419 32.9212C22.4104 32.8452 22.3144 32.7203 22.275 32.5736C22.2356 32.427 22.256 32.2708 22.3317 32.1391C22.4078 32.0075 22.533 31.9115 22.6798 31.8722C22.8267 31.8329 22.9831 31.8534 23.1149 31.9293L26.6984 33.9984C27.2406 34.312 27.937 34.1254 28.2502 33.5828C28.5591 33.0483 28.377 32.3532 27.8467 32.038L24.8134 30.2872C24.5401 30.1287 24.4458 29.7784 24.6039 29.5044C24.7624 29.2302 25.1127 29.1368 25.386 29.295L28.9245 31.3377C29.4645 31.6494 30.1642 31.4623 30.4759 30.9221C30.822 30.3235 30.5524 29.7338 30.0339 29.3553V29.3552ZM34.6699 16.3932C34.5926 16.3336 34.5078 16.3025 34.4203 16.3025C34.3529 16.3025 34.2851 16.3214 34.2196 16.3573L32.1319 17.5183C32.1031 17.5345 32.0941 17.5479 32.0909 17.5814C32.0877 17.6141 32.094 17.6287 32.1197 17.65C35.1263 20.1813 36.7364 23.5988 36.7767 27.5341C36.7767 27.5941 36.833 27.6301 36.8878 27.6071L38.5248 26.9119C38.6573 26.8559 38.7353 26.7597 38.7645 26.6189C39.478 23.1285 37.7558 18.8276 34.6699 16.3932ZM31.493 18.6214L30.4685 19.1916C28.7782 20.1317 26.894 20.3016 25.0197 19.6841C23.3602 19.1375 21.6203 19.4541 19.6974 20.6526L14.2076 24.0752C13.9907 24.2109 13.8795 24.3702 13.8665 24.5642C13.8492 24.813 13.995 25.1025 14.236 25.3024C15.4522 26.3096 16.4329 25.9077 18.062 25.1116C19.083 24.6123 20.2409 24.0472 21.5923 24.0389C23.0684 24.0389 24.1356 24.6253 25.3713 25.3399L30.6328 28.3784C30.899 28.5277 31.2499 28.893 31.4142 29.1547L35.6234 27.2075C35.5056 23.7638 34.1167 20.8773 31.493 18.6214ZM23.0679 36.931L22.176 36.416C22.1255 36.6337 22.0429 36.8427 21.931 37.0362L21.3249 38.0862L21.8033 38.3552C22.6413 38.8387 23.1879 38.5761 23.4217 38.1711C23.6344 37.8024 23.6114 37.2616 23.068 36.931H23.0679ZM20.5302 34.9378C19.9982 34.6336 19.3149 34.8101 19.0045 35.3468L17.7902 37.4503C17.4829 37.9826 17.6671 38.6683 18.1992 38.9757C18.7327 39.2833 19.4165 39.0999 19.7245 38.5671L20.9384 36.4636C21.2467 35.9325 21.0602 35.2455 20.5302 34.9378ZM11.3046 9.06992C11.3046 4.54406 14.9737 0.875 19.4995 0.875C24.0254 0.875 27.6945 4.54406 27.6945 9.06992C27.6945 13.5958 24.0255 17.2648 19.4995 17.2648C14.9736 17.2648 11.3046 13.5959 11.3046 9.06992ZM14.6965 9.1082L16.6115 12.4251C16.8031 12.757 17.1089 12.9613 17.489 13.0114C17.869 13.0614 18.2174 12.9432 18.4883 12.6722L24.1243 7.03617C24.5618 6.59875 24.5618 5.88281 24.1243 5.44539C23.6869 5.00797 22.971 5.00797 22.5335 5.44539L17.8713 10.1077L16.6449 7.98344C16.336 7.44836 15.6433 7.26281 15.1083 7.57172C14.5725 7.88102 14.3872 8.5725 14.6966 9.10828L14.6965 9.1082ZM31.3227 6.90055C31.4807 5.30937 32.7394 4.0507 34.3306 3.89273C32.7394 3.73477 31.4807 2.47609 31.3227 0.884922C31.1648 2.47609 29.9061 3.73477 28.3149 3.89273C29.9061 4.0507 31.1648 5.30937 31.3227 6.90055ZM7.2183 13.8288C7.34751 12.527 8.37736 11.4971 9.67923 11.3679C8.37736 11.2387 7.34751 10.2088 7.2183 8.90695C7.08908 10.2088 6.05923 11.2387 4.75736 11.3679C6.05923 11.4971 7.08908 12.527 7.2183 13.8288Z" fill="white"/>
</svg>
