<svg width="37" height="38" viewBox="0 0 37 38" fill="none" xmlns="http://www.w3.org/2000/svg">
<path d="M36.3523 10.479V15.2206H24.04V13.6401H34.7718V12.0595H21.2266V10.479H36.3523ZM15.1257 10.479V12.0595H1.58054V13.6401H12.3124V15.2206H0V10.479H15.1257Z" fill="#D27400"/>
<path d="M3.16113 13.64V18.3816H9.48328V13.64H3.16113ZM7.90274 16.8011H4.74167V15.2206H7.90274V16.8011ZM3.16113 31.0259V35.7676H9.48328V31.0259H3.16113ZM4.74167 34.187V32.6065H7.90274V34.187H4.74167ZM26.8692 31.0259V35.7676H33.1913V31.0259H26.8692ZM28.4497 34.187V32.6065H31.6108V34.187H28.4497ZM26.8692 13.64V18.3816H33.1913V13.64H26.8692ZM31.6108 16.8011H28.4497V15.2206H31.6108V16.8011ZM31.1311 11.8967L18.1762 1.99148L5.22136 11.8967L4.26198 10.6418L18.1762 0L32.0905 10.641L31.1311 11.8967Z" fill="#D27400"/>
<path d="M27.8967 10.645L26.9325 11.8936L25.0912 10.479L18.1764 5.15261L11.2615 10.479L9.42018 11.8936L8.45605 10.645L8.66943 10.479L18.1764 3.16113L27.6833 10.479L27.8967 10.645Z" fill="#D27400"/>
<path d="M24.5459 13.6401H24.0401V15.2206H25.1149C24.9872 14.6735 24.7962 14.1431 24.5459 13.6401ZM21.4244 10.479H21.2268V12.0595H23.4711C22.8943 11.4115 22.1988 10.8741 21.4244 10.479ZM12.8816 12.0595H15.1259V10.479H14.9283C14.1539 10.8741 13.4584 11.4115 12.8816 12.0595ZM11.2378 15.2206H12.3126V13.6401H11.8068C11.5618 14.1379 11.3642 14.6674 11.2378 15.2206Z" fill="#D27400"/>
<path d="M25.1149 15.2206H24.0402V13.6401H24.5459C24.2614 13.0632 23.8979 12.5337 23.4712 12.0595H21.2268V10.479H21.4244C20.4524 9.97322 19.346 9.68872 18.1764 9.68872C17.0068 9.68872 15.9004 9.97322 14.9284 10.479H15.1259V12.0595H12.8816C12.4548 12.5337 12.0913 13.0632 11.8068 13.6401H12.3126V15.2206H11.2378C11.1232 15.7397 11.065 16.2696 11.064 16.8011C11.064 20.7209 14.2566 23.9136 18.1764 23.9136C22.0961 23.9136 25.2888 20.7209 25.2888 16.8011C25.2888 16.2559 25.2256 15.7264 25.1149 15.2206ZM18.1764 22.333C15.1259 22.333 12.6445 19.8516 12.6445 16.8011C12.6445 13.7507 15.1259 11.2693 18.1764 11.2693C21.2268 11.2693 23.7083 13.7507 23.7083 16.8011C23.7083 19.8516 21.2268 22.333 18.1764 22.333Z" fill="#D27400"/>
<path d="M25.0909 10.4788H21.4241C20.4521 9.97298 19.3457 9.68848 18.1761 9.68848C17.0065 9.68848 15.9001 9.97298 14.9281 10.4788H11.2612L18.1761 5.15234L25.0909 10.4788ZM17.3858 12.5864H18.9663V14.694H17.3858V12.5864ZM17.3858 18.9085H18.9663V21.0162H17.3858V18.9085Z" fill="#D27400"/>
<path d="M19.227 19.7012H15.2757V18.1207H19.227C19.2623 18.1207 19.2972 18.1137 19.3298 18.1002C19.3624 18.0867 19.392 18.0669 19.417 18.042C19.4419 18.017 19.4617 17.9874 19.4752 17.9548C19.4887 17.9222 19.4957 17.8873 19.4957 17.852C19.4936 17.7821 19.4644 17.7158 19.4143 17.6671C19.3641 17.6184 19.2969 17.5912 19.227 17.5912H17.1249C16.6357 17.5916 16.1663 17.398 15.8196 17.0528C15.4729 16.7076 15.2773 16.2391 15.2757 15.7499C15.2757 14.7304 16.1054 13.9006 17.1249 13.9006H21.0762V15.4812H17.1249C17.0536 15.4812 16.9853 15.5095 16.9349 15.5599C16.8845 15.6103 16.8562 15.6786 16.8562 15.7499C16.8562 15.8913 16.9787 16.0107 17.1249 16.0107H19.227C20.2464 16.0107 21.0762 16.8365 21.0762 17.852C21.0762 18.8714 20.2464 19.7012 19.227 19.7012ZM3.95111 16.8009V32.6063H8.69272V16.8009H3.95111ZM7.11219 31.0257H5.53165V18.3815H7.11219V31.0257ZM27.6592 16.8009V32.6063H32.4008V16.8009H27.6592ZM30.8202 31.0257H29.2397V18.3815H30.8202V31.0257ZM22.9176 34.1868V35.7674H26.8689V34.1868H22.9176ZM0.790039 34.1868V38.1382H35.5618V34.1868H0.790039ZM33.9813 36.5576H2.37058V35.7674H33.9813V36.5576Z" fill="#D27400"/>
<path d="M27.6593 18.3818V15.2207H25.1146C25.2253 15.7265 25.2885 16.256 25.2885 16.8012C25.2885 20.721 22.0958 23.9137 18.1761 23.9137C14.2563 23.9137 11.0636 20.721 11.0636 16.8012C11.0636 16.256 11.1269 15.7265 11.2375 15.2207H8.69284V18.3818H7.1123V31.0261H8.69284V34.1871H13.4345V35.7677H22.9177V34.1871H27.6593V31.0261H29.2398V18.3818H27.6593ZM22.1274 34.1871H14.2247V25.4942H22.1274V34.1871Z" fill="#D27400"/>
</svg>
