<svg width="16" height="16" viewBox="0 0 16 16" fill="none" xmlns="http://www.w3.org/2000/svg">
<path d="M14.5067 10.612L10.24 2.93203C9.66665 1.8987 8.87332 1.33203 7.99998 1.33203C7.12665 1.33203 6.33332 1.8987 5.75998 2.93203L1.49332 10.612C0.953318 11.592 0.893318 12.532 1.32665 13.272C1.75999 14.012 2.61332 14.4187 3.73332 14.4187H12.2667C13.3867 14.4187 14.24 14.012 14.6733 13.272C15.1067 12.532 15.0467 11.5854 14.5067 10.612Z" fill="#D40808"/>
<path d="M8 9.83333C7.72667 9.83333 7.5 9.60667 7.5 9.33333V6C7.5 5.72667 7.72667 5.5 8 5.5C8.27333 5.5 8.5 5.72667 8.5 6V9.33333C8.5 9.60667 8.27333 9.83333 8 9.83333Z" fill="#FFCBCB"/>
<path d="M7.99967 11.9991C7.95967 11.9991 7.91301 11.9924 7.86634 11.9857C7.82634 11.9791 7.78634 11.9657 7.74634 11.9457C7.70634 11.9324 7.66634 11.9124 7.62634 11.8857C7.59301 11.8591 7.55967 11.8324 7.52634 11.8057C7.40634 11.6791 7.33301 11.5057 7.33301 11.3324C7.33301 11.1591 7.40634 10.9857 7.52634 10.8591C7.55967 10.8324 7.59301 10.8057 7.62634 10.7791C7.66634 10.7524 7.70634 10.7324 7.74634 10.7191C7.78634 10.6991 7.82634 10.6857 7.86634 10.6791C7.95301 10.6591 8.04634 10.6591 8.12634 10.6791C8.17301 10.6857 8.21301 10.6991 8.25301 10.7191C8.29301 10.7324 8.33301 10.7524 8.37301 10.7791C8.40634 10.8057 8.43967 10.8324 8.47301 10.8591C8.59301 10.9857 8.66634 11.1591 8.66634 11.3324C8.66634 11.5057 8.59301 11.6791 8.47301 11.8057C8.43967 11.8324 8.40634 11.8591 8.37301 11.8857C8.33301 11.9124 8.29301 11.9324 8.25301 11.9457C8.21301 11.9657 8.17301 11.9791 8.12634 11.9857C8.08634 11.9924 8.03967 11.9991 7.99967 11.9991Z" fill="#FFCBCB"/>
</svg>
