<svg width="90" height="373" viewBox="0 0 90 373" fill="none" xmlns="http://www.w3.org/2000/svg">
<path d="M82.1855 95.992L84.4882 94.7815L84.0484 97.3457L85.9121 99.1617L83.3374 99.5358L82.1855 101.869L81.0339 99.5358L78.4593 99.1617L80.3226 97.3457L79.8824 94.7815L82.1855 95.992Z" fill="#FACC15"/>
<g clip-path="url(#clip0_1410_15579)">
<path d="M85.7048 246.462L87.5141 245.511L87.1685 247.526L88.6328 248.953L86.6098 249.247L85.7048 251.08L84.8 249.247L82.777 248.953L84.241 247.526L83.8952 245.511L85.7048 246.462Z" fill="#FACC15"/>
</g>
<g clip-path="url(#clip1_1410_15579)">
<path d="M67.1368 132.625C68.1669 132.625 69.002 133.46 69.002 134.49C69.002 135.52 68.1669 136.355 67.1368 136.355C66.1066 136.355 65.2716 135.52 65.2716 134.49C65.2716 133.46 66.1066 132.625 67.1368 132.625Z" fill="#FACC15"/>
</g>
<g clip-path="url(#clip2_1410_15579)">
<path d="M68.0871 60.4145C69.2644 60.4145 70.2188 61.3688 70.2188 62.5461C70.2188 63.7234 69.2644 64.6777 68.0871 64.6777C66.9098 64.6777 65.9555 63.7234 65.9555 62.5461C65.9555 61.3688 66.9098 60.4145 68.0871 60.4145Z" fill="#FACC15"/>
</g>
<g clip-path="url(#clip3_1410_15579)">
<path d="M26.5503 47.7276C28.0219 47.7276 29.2148 48.9205 29.2148 50.3921C29.2148 51.8637 28.0219 53.0566 26.5503 53.0566C25.0787 53.0566 23.8858 51.8637 23.8858 50.3921C23.8858 48.9205 25.0787 47.7276 26.5503 47.7276Z" fill="#FACC15"/>
</g>
<g clip-path="url(#clip4_1410_15579)">
<path d="M47.6226 107.839C49.0942 107.839 50.2871 109.032 50.2871 110.503C50.2871 111.975 49.0942 113.168 47.6226 113.168C46.151 113.168 44.958 111.975 44.958 110.503C44.958 109.032 46.151 107.839 47.6226 107.839Z" fill="#FACC15"/>
</g>
<g clip-path="url(#clip5_1410_15579)">
<path d="M79.3092 329.794C80.928 329.794 82.2402 331.106 82.2402 332.725C82.2402 334.344 80.928 335.656 79.3092 335.656C77.6905 335.656 76.3783 334.344 76.3783 332.725C76.3783 331.106 77.6905 329.794 79.3092 329.794Z" fill="#FACC15"/>
</g>
<g clip-path="url(#clip6_1410_15579)">
<path d="M78.9889 185.548C79.5775 185.548 80.0547 186.025 80.0547 186.614C80.0547 187.203 79.5775 187.68 78.9889 187.68C78.4002 187.68 77.9231 187.203 77.9231 186.614C77.9231 186.025 78.4002 185.548 78.9889 185.548Z" fill="#FACC15"/>
</g>
<g clip-path="url(#clip7_1410_15579)">
<path d="M2.55475 162.041C3.58488 162.041 4.41992 162.876 4.41992 163.906C4.41992 164.936 3.58488 165.771 2.55475 165.771C1.52461 165.771 0.689575 164.936 0.689575 163.906C0.689575 162.876 1.52461 162.041 2.55475 162.041Z" fill="#FACC15"/>
</g>
<g clip-path="url(#clip8_1410_15579)">
<path d="M6.05558 310.992C6.93855 310.992 7.6543 311.708 7.6543 312.591C7.6543 313.474 6.93855 314.189 6.05558 314.189C5.1726 314.189 4.45686 313.474 4.45686 312.591C4.45686 311.708 5.1726 310.992 6.05558 310.992Z" fill="#FACC15"/>
</g>
<path d="M57.0057 269.036V271.034C57.0057 271.14 57.0478 271.242 57.1227 271.317C57.1977 271.391 57.2994 271.434 57.4054 271.434C57.5114 271.434 57.613 271.391 57.688 271.317C57.7629 271.242 57.805 271.14 57.805 271.034V269.036H59.8034C59.9094 269.036 60.0111 268.993 60.0861 268.918C60.161 268.843 60.2031 268.742 60.2031 268.636C60.2031 268.53 60.161 268.428 60.0861 268.353C60.0111 268.278 59.9094 268.236 59.8034 268.236H57.805V266.238C57.805 266.132 57.7629 266.03 57.688 265.955C57.613 265.88 57.5114 265.838 57.4054 265.838C57.2994 265.838 57.1977 265.88 57.1227 265.955C57.0478 266.03 57.0057 266.132 57.0057 266.238V268.236H55.0073C54.9013 268.236 54.7996 268.278 54.7247 268.353C54.6497 268.428 54.6076 268.53 54.6076 268.636C54.6076 268.742 54.6497 268.843 54.7247 268.918C54.7996 268.993 54.9013 269.036 55.0073 269.036H57.0057Z" fill="#FACC15"/>
<path d="M67.8201 223.2V224.265C67.8201 224.322 67.8425 224.376 67.8825 224.416C67.9225 224.456 67.9767 224.479 68.0333 224.479C68.0898 224.479 68.144 224.456 68.184 224.416C68.224 224.376 68.2464 224.322 68.2464 224.265V223.2H69.3122C69.3688 223.2 69.423 223.177 69.463 223.137C69.5029 223.097 69.5254 223.043 69.5254 222.986C69.5254 222.93 69.5029 222.876 69.463 222.836C69.423 222.796 69.3688 222.773 69.3122 222.773H68.2464V221.707C68.2464 221.651 68.224 221.597 68.184 221.557C68.144 221.517 68.0898 221.494 68.0333 221.494C67.9767 221.494 67.9225 221.517 67.8825 221.557C67.8425 221.597 67.8201 221.651 67.8201 221.707V222.773H66.7543C66.6977 222.773 66.6435 222.796 66.6035 222.836C66.5636 222.876 66.5411 222.93 66.5411 222.986C66.5411 223.043 66.5636 223.097 66.6035 223.137C66.6435 223.177 66.6977 223.2 66.7543 223.2H67.8201Z" fill="#FACC15"/>
<g clip-path="url(#clip9_1410_15579)">
<path d="M31.6669 200.359C32.5499 200.359 33.2656 201.075 33.2656 201.958C33.2656 202.841 32.5499 203.557 31.6669 203.557C30.7839 203.557 30.0682 202.841 30.0682 201.958C30.0682 201.075 30.7839 200.359 31.6669 200.359Z" fill="#FACC15"/>
</g>
<path d="M57.4401 26.939V28.5377C57.4401 28.6225 57.4738 28.7038 57.5337 28.7638C57.5937 28.8237 57.675 28.8574 57.7598 28.8574C57.8446 28.8574 57.926 28.8237 57.9859 28.7638C58.0459 28.7038 58.0796 28.6225 58.0796 28.5377V26.939H59.6783C59.7631 26.939 59.8444 26.9053 59.9044 26.8453C59.9644 26.7853 59.998 26.704 59.998 26.6192C59.998 26.5344 59.9644 26.4531 59.9044 26.3931C59.8444 26.3332 59.7631 26.2995 59.6783 26.2995H58.0796V24.7007C58.0796 24.6159 58.0459 24.5346 57.9859 24.4747C57.926 24.4147 57.8446 24.381 57.7598 24.381C57.675 24.381 57.5937 24.4147 57.5337 24.4747C57.4738 24.5346 57.4401 24.6159 57.4401 24.7007V26.2995H55.8414C55.7566 26.2995 55.6752 26.3332 55.6153 26.3931C55.5553 26.4531 55.5216 26.5344 55.5216 26.6192C55.5216 26.704 55.5553 26.7853 55.6153 26.8453C55.6752 26.9053 55.7566 26.939 55.8414 26.939H57.4401Z" fill="#FACC15"/>
<path d="M2.39663 105.739L1.92567 106.21C1.91295 106.223 1.9028 106.237 1.89582 106.254C1.88883 106.27 1.88516 106.287 1.88501 106.305C1.88485 106.323 1.88822 106.34 1.89492 106.357C1.90162 106.373 1.91151 106.388 1.92402 106.4C1.93653 106.413 1.95141 106.423 1.96778 106.43C1.98415 106.436 2.0017 106.44 2.01938 106.439C2.03707 106.439 2.05456 106.436 2.07081 106.429C2.08706 106.422 2.10177 106.412 2.11406 106.399L2.58514 105.928L3.0561 106.399C3.06839 106.412 3.08309 106.422 3.09935 106.429C3.1156 106.436 3.13308 106.439 3.15077 106.439C3.16846 106.44 3.186 106.436 3.20238 106.43C3.21875 106.423 3.23363 106.413 3.24614 106.4C3.25864 106.388 3.26854 106.373 3.27524 106.357C3.28193 106.34 3.2853 106.323 3.28515 106.305C3.285 106.287 3.28132 106.27 3.27434 106.254C3.26736 106.237 3.25721 106.223 3.24448 106.21L2.77353 105.739L3.24448 105.268C3.25721 105.256 3.26736 105.241 3.27434 105.225C3.28132 105.209 3.285 105.191 3.28515 105.174C3.2853 105.156 3.28193 105.138 3.27524 105.122C3.26854 105.106 3.25864 105.091 3.24614 105.078C3.23363 105.066 3.21875 105.056 3.20238 105.049C3.186 105.043 3.16846 105.039 3.15077 105.039C3.13308 105.039 3.1156 105.043 3.09935 105.05C3.08309 105.057 3.06839 105.067 3.0561 105.08L2.58514 105.551L2.11406 105.08C2.10177 105.067 2.08706 105.057 2.07081 105.05C2.05456 105.043 2.03707 105.039 2.01938 105.039C2.0017 105.039 1.98415 105.043 1.96778 105.049C1.95141 105.056 1.93653 105.066 1.92402 105.078C1.91151 105.091 1.90162 105.106 1.89492 105.122C1.88822 105.138 1.88485 105.156 1.88501 105.174C1.88516 105.191 1.88883 105.209 1.89582 105.225C1.9028 105.241 1.91295 105.256 1.92567 105.268L2.39663 105.739V105.739Z" fill="#FACC15"/>
<path d="M65.354 367.954L63.9411 369.368C63.9029 369.404 63.8725 369.448 63.8515 369.497C63.8306 369.546 63.8195 369.598 63.8191 369.652C63.8186 369.705 63.8287 369.757 63.8488 369.806C63.8689 369.855 63.8986 369.9 63.9361 369.938C63.9737 369.975 64.0183 370.005 64.0674 370.025C64.1165 370.045 64.1691 370.055 64.2222 370.055C64.2753 370.054 64.3277 370.043 64.3765 370.022C64.4253 370.001 64.4694 369.971 64.5062 369.933L65.9195 368.52L67.3324 369.933C67.3692 369.971 67.4133 370.001 67.4621 370.022C67.5109 370.043 67.5633 370.054 67.6164 370.055C67.6694 370.055 67.7221 370.045 67.7712 370.025C67.8203 370.005 67.8649 369.975 67.9025 369.938C67.94 369.9 67.9697 369.855 67.9898 369.806C68.0099 369.757 68.02 369.705 68.0195 369.652C68.0191 369.598 68.008 369.546 67.9871 369.497C67.9661 369.448 67.9357 369.404 67.8975 369.368L66.4846 367.955L67.8975 366.541C67.9357 366.505 67.9661 366.46 67.9871 366.412C68.008 366.363 68.0191 366.31 68.0195 366.257C68.02 366.204 68.0099 366.152 67.9898 366.103C67.9697 366.053 67.94 366.009 67.9025 365.971C67.8649 365.934 67.8203 365.904 67.7712 365.884C67.7221 365.864 67.6694 365.854 67.6164 365.854C67.5633 365.855 67.5109 365.866 67.4621 365.887C67.4133 365.908 67.3692 365.938 67.3324 365.976L65.9195 367.389L64.5062 365.976C64.4694 365.938 64.4253 365.908 64.3765 365.887C64.3277 365.866 64.2753 365.855 64.2222 365.854C64.1691 365.854 64.1165 365.864 64.0674 365.884C64.0183 365.904 63.9737 365.934 63.9361 365.971C63.8986 366.009 63.8689 366.053 63.8488 366.103C63.8287 366.152 63.8186 366.204 63.8191 366.257C63.8195 366.31 63.8306 366.363 63.8515 366.412C63.8725 366.46 63.9029 366.505 63.9411 366.541L65.354 367.955V367.954Z" fill="#FACC15"/>
<path d="M6.25845 4.55615V6.15487C6.25845 6.23967 6.29214 6.32099 6.3521 6.38096C6.41207 6.44092 6.4934 6.47461 6.5782 6.47461C6.663 6.47461 6.74433 6.44092 6.80429 6.38096C6.86425 6.32099 6.89794 6.23967 6.89794 6.15487V4.55615H8.49666C8.58146 4.55615 8.66279 4.52246 8.72276 4.46249C8.78272 4.40253 8.81641 4.3212 8.81641 4.2364C8.81641 4.1516 8.78272 4.07027 8.72276 4.01031C8.66279 3.95034 8.58146 3.91666 8.49666 3.91666H6.89794V2.31794C6.89794 2.23314 6.86425 2.15181 6.80429 2.09184C6.74433 2.03188 6.663 1.99819 6.5782 1.99819C6.4934 1.99819 6.41207 2.03188 6.3521 2.09184C6.29214 2.15181 6.25845 2.23314 6.25845 2.31794V3.91666H4.65973C4.57493 3.91666 4.4936 3.95034 4.43364 4.01031C4.37368 4.07027 4.33999 4.1516 4.33999 4.2364C4.33999 4.3212 4.37368 4.40253 4.43364 4.46249C4.4936 4.52246 4.57493 4.55615 4.65973 4.55615H6.25845Z" fill="#FACC15"/>
<path d="M49.2004 333.224V334.556C49.2004 334.626 49.2285 334.694 49.2784 334.744C49.3284 334.794 49.3962 334.822 49.4669 334.822C49.5375 334.822 49.6053 334.794 49.6553 334.744C49.7052 334.694 49.7333 334.626 49.7333 334.556V333.224H51.0656C51.1362 333.224 51.204 333.195 51.254 333.146C51.304 333.096 51.332 333.028 51.332 332.957C51.332 332.886 51.304 332.819 51.254 332.769C51.204 332.719 51.1362 332.691 51.0656 332.691H49.7333V331.358C49.7333 331.288 49.7052 331.22 49.6553 331.17C49.6053 331.12 49.5375 331.092 49.4669 331.092C49.3962 331.092 49.3284 331.12 49.2784 331.17C49.2285 331.22 49.2004 331.288 49.2004 331.358V332.691H47.8681C47.7975 332.691 47.7297 332.719 47.6797 332.769C47.6298 332.819 47.6017 332.886 47.6017 332.957C47.6017 333.028 47.6298 333.096 47.6797 333.146C47.7297 333.195 47.7975 333.224 47.8681 333.224H49.2004Z" fill="#FACC15"/>
<path d="M17.3186 122.694L16.5651 123.448C16.5447 123.468 16.5285 123.491 16.5173 123.517C16.5061 123.543 16.5002 123.571 16.5 123.599C16.4997 123.628 16.5051 123.656 16.5159 123.682C16.5266 123.708 16.5424 123.732 16.5624 123.752C16.5824 123.772 16.6062 123.788 16.6324 123.799C16.6586 123.809 16.6867 123.815 16.715 123.814C16.7433 123.814 16.7713 123.808 16.7973 123.797C16.8233 123.786 16.8468 123.77 16.8665 123.749L17.6202 122.996L18.3737 123.749C18.3934 123.77 18.4169 123.786 18.4429 123.797C18.4689 123.808 18.4969 123.814 18.5252 123.814C18.5535 123.815 18.5816 123.809 18.6078 123.799C18.634 123.788 18.6578 123.772 18.6778 123.752C18.6978 123.732 18.7136 123.708 18.7244 123.682C18.7351 123.656 18.7405 123.628 18.7402 123.599C18.74 123.571 18.7341 123.543 18.7229 123.517C18.7118 123.491 18.6955 123.468 18.6752 123.448L17.9216 122.694L18.6752 121.941C18.6955 121.921 18.7118 121.898 18.7229 121.872C18.7341 121.845 18.74 121.818 18.7402 121.789C18.7405 121.761 18.7351 121.733 18.7244 121.707C18.7136 121.68 18.6978 121.657 18.6778 121.637C18.6578 121.617 18.634 121.601 18.6078 121.59C18.5816 121.579 18.5535 121.574 18.5252 121.574C18.4969 121.574 18.4689 121.58 18.4429 121.592C18.4169 121.603 18.3934 121.619 18.3737 121.639L17.6202 122.393L16.8665 121.639C16.8468 121.619 16.8233 121.603 16.7973 121.592C16.7713 121.58 16.7433 121.574 16.715 121.574C16.6867 121.574 16.6586 121.579 16.6324 121.59C16.6062 121.601 16.5824 121.617 16.5624 121.637C16.5424 121.657 16.5266 121.68 16.5159 121.707C16.5051 121.733 16.4997 121.761 16.5 121.789C16.5002 121.818 16.5061 121.845 16.5173 121.872C16.5285 121.898 16.5447 121.921 16.5651 121.941L17.3186 122.694V122.694Z" fill="#FACC15"/>
<defs>
<clipPath id="clip0_1410_15579">
<rect width="7.03437" height="7.03437" fill="white" transform="matrix(-1 0 0 -1 89.2207 251.85)"/>
</clipPath>
<clipPath id="clip1_1410_15579">
<rect width="4.47642" height="4.47642" fill="white" transform="matrix(-1 0 0 -1 69.375 136.74)"/>
</clipPath>
<clipPath id="clip2_1410_15579">
<rect width="5.1159" height="5.1159" fill="white" transform="matrix(-1 0 0 -1 70.6445 65.1172)"/>
</clipPath>
<clipPath id="clip3_1410_15579">
<rect width="6.39488" height="6.39488" fill="white" transform="matrix(-1 0 0 -1 29.748 53.6074)"/>
</clipPath>
<clipPath id="clip4_1410_15579">
<rect width="6.39488" height="6.39488" fill="white" transform="matrix(-1 0 0 -1 50.8203 113.719)"/>
</clipPath>
<clipPath id="clip5_1410_15579">
<rect width="7.03437" height="7.03437" fill="white" transform="matrix(-1 0 0 -1 82.8262 336.262)"/>
</clipPath>
<clipPath id="clip6_1410_15579">
<rect width="2.55795" height="2.55795" fill="white" transform="matrix(-1 0 0 -1 80.2676 187.9)"/>
</clipPath>
<clipPath id="clip7_1410_15579">
<rect width="4.47642" height="4.47642" fill="white" transform="matrix(-1 0 0 -1 4.79297 166.156)"/>
</clipPath>
<clipPath id="clip8_1410_15579">
<rect width="3.83693" height="3.83693" fill="white" transform="matrix(-1 0 0 -1 7.97461 314.52)"/>
</clipPath>
<clipPath id="clip9_1410_15579">
<rect width="3.83693" height="3.83693" fill="white" transform="matrix(-1 0 0 -1 33.5859 203.887)"/>
</clipPath>
</defs>
</svg>
