<svg width="42" height="42" viewBox="0 0 42 42" fill="none" xmlns="http://www.w3.org/2000/svg">
<path d="M39.0418 8.76448H25.8273C24.9934 6.07026 23.5821 3.4402 21.5936 1.06673C21.337 0.745987 20.8238 0.745987 20.5672 1.06673C18.5786 3.50435 17.1673 6.07026 16.3334 8.76448H3.11896C1.7077 8.76448 0.617188 9.91914 0.617188 11.3304V32.2426C0.617188 33.6539 1.77185 34.8085 3.11896 34.8085H17.1032V37.182H16.7183C14.4731 37.182 12.677 38.9781 12.677 41.2233C12.677 41.5441 12.9336 41.8648 13.3185 41.8648H28.7781C29.163 41.8648 29.4196 41.5441 29.4196 41.2233C29.4196 38.9781 27.6235 37.182 25.3783 37.182H24.9934V34.8085H39.0418C40.453 34.8085 41.5436 33.6539 41.5436 32.2426V11.3304C41.6077 9.91914 40.453 8.76448 39.0418 8.76448ZM18.6427 6.32686H23.3897C25.4424 10.6248 25.9556 15.3076 24.7368 20.1187H23.0048V19.4772C23.0048 18.7715 22.4275 18.1942 21.7218 18.1942H20.3106C19.605 18.1942 19.0276 18.7715 19.0276 19.4772V20.1187H17.2956C16.141 15.3076 16.59 10.6248 18.6427 6.32686ZM21.7218 19.4772V23.7109H20.3747V19.4772H21.7218ZM21.0804 32.4992H20.5672C20.1823 32.4992 19.9257 32.1785 19.9257 31.8577C19.9257 31.4728 20.1823 31.2162 20.5672 31.2162H21.0804C21.4653 31.2162 21.7218 31.4728 21.7218 31.8577C21.7218 32.2426 21.4011 32.4992 21.0804 32.4992ZM40.3247 28.9711H1.836V11.3304C1.836 10.6248 2.41333 10.0474 3.05481 10.0474H15.8844C15.6278 11.0738 15.4995 12.1643 15.3712 13.2548L13.3185 14.0246C12.228 14.4095 11.5223 15.4359 11.5223 16.5905V19.9904C11.5223 20.6318 11.8431 21.2092 12.3563 21.5941C12.677 21.8506 13.0619 21.9789 13.5109 21.9789C13.7034 21.9789 13.96 21.9148 14.1524 21.8506L16.141 21.145L16.7183 23.0695C16.7825 23.326 17.0391 23.5185 17.2956 23.5185H18.8993V23.7751C18.8993 24.4807 19.4767 25.058 20.1823 25.058H21.7218C22.4275 25.058 23.0048 24.4807 23.0048 23.7751V23.5185H24.6085C24.8651 23.5185 25.1217 23.326 25.1858 23.0695C25.4424 22.428 25.5707 21.7865 25.7632 21.145L27.7518 21.8506C27.9442 21.9148 28.2008 21.9789 28.3932 21.9789C28.7781 21.9789 29.163 21.8506 29.5479 21.5941C30.0611 21.2092 30.3818 20.6318 30.3818 19.9904V16.5905C30.3818 15.4359 29.6762 14.4095 28.5857 14.0246L26.5329 13.2548C26.4688 12.1643 26.2764 11.1379 26.0198 10.0474H39.0418C39.7474 10.0474 40.2606 10.6248 40.2606 11.3304L40.3247 28.9711Z" fill="white"/>
<path d="M21.0808 14.3452C22.3562 14.3452 23.3901 13.3113 23.3901 12.0359C23.3901 10.7605 22.3562 9.72656 21.0808 9.72656C19.8054 9.72656 18.7715 10.7605 18.7715 12.0359C18.7715 13.3113 19.8054 14.3452 21.0808 14.3452Z" fill="white"/>
<path d="M23.3876 28.2011C23.7725 28.2011 24.0291 27.9445 24.0291 27.5596V26.405C24.0291 26.0201 23.7725 25.7635 23.3876 25.7635C23.0027 25.7635 22.7461 26.0201 22.7461 26.405V27.5596C22.7461 27.9445 23.0669 28.2011 23.3876 28.2011ZM21.0783 28.2011C21.4632 28.2011 21.7198 27.9445 21.7198 27.5596V26.405C21.7198 26.0201 21.4632 25.7635 21.0783 25.7635C20.6934 25.7635 20.4368 26.0201 20.4368 26.405V27.5596C20.4368 27.9445 20.6934 28.2011 21.0783 28.2011ZM18.7048 28.2011C19.0897 28.2011 19.3463 27.9445 19.3463 27.5596V26.405C19.3463 26.0201 19.0897 25.7635 18.7048 25.7635C18.3199 25.7635 18.0633 26.0201 18.0633 26.405V27.5596C18.0633 27.9445 18.3199 28.2011 18.7048 28.2011ZM32.24 20.2468H38.2058C38.5907 20.2468 38.8473 19.9902 38.8473 19.6053C38.8473 19.2204 38.5907 18.9638 38.2058 18.9638H32.24C31.8551 18.9638 31.5986 19.2204 31.5986 19.6053C31.5986 19.9902 31.9193 20.2468 32.24 20.2468ZM32.24 17.0394H38.2058C38.5907 17.0394 38.8473 16.7828 38.8473 16.3979C38.8473 16.013 38.5907 15.7564 38.2058 15.7564H32.24C31.8551 15.7564 31.5986 16.013 31.5986 16.3979C31.5986 16.7828 31.9193 17.0394 32.24 17.0394ZM32.24 13.8961H38.2058C38.5907 13.8961 38.8473 13.6395 38.8473 13.2546C38.8473 12.8697 38.5907 12.6132 38.2058 12.6132H32.24C31.8551 12.6132 31.5986 12.8697 31.5986 13.2546C31.5986 13.6395 31.9193 13.8961 32.24 13.8961ZM3.95081 20.2468H9.59582C9.98071 20.2468 10.2373 19.9902 10.2373 19.6053C10.2373 19.2204 9.98071 18.9638 9.59582 18.9638H3.95081C3.56592 18.9638 3.30933 19.2204 3.30933 19.6053C3.30933 19.9902 3.63007 20.2468 3.95081 20.2468ZM31.0854 23.4542H38.2058C38.5907 23.4542 38.8473 23.1976 38.8473 22.8127C38.8473 22.4278 38.5907 22.1712 38.2058 22.1712H31.0854C30.7005 22.1712 30.4439 22.4278 30.4439 22.8127C30.4439 23.1976 30.7646 23.4542 31.0854 23.4542ZM11.0071 22.1712H3.95081C3.56592 22.1712 3.30933 22.4278 3.30933 22.8127C3.30933 23.1976 3.56592 23.4542 3.95081 23.4542H11.0071C11.392 23.4542 11.6486 23.1976 11.6486 22.8127C11.6486 22.4278 11.392 22.1712 11.0071 22.1712ZM27.6214 26.6615H38.2058C38.5907 26.6615 38.8473 26.405 38.8473 26.0201C38.8473 25.6352 38.5907 25.3786 38.2058 25.3786H27.6214C27.2365 25.3786 26.9799 25.6352 26.9799 26.0201C26.9799 26.405 27.3006 26.6615 27.6214 26.6615ZM3.30933 26.0201C3.30933 26.405 3.56592 26.6615 3.95081 26.6615H14.2786C14.6635 26.6615 14.9201 26.405 14.9201 26.0201C14.9201 25.6352 14.6635 25.3786 14.2786 25.3786H3.95081C3.63007 25.3786 3.30933 25.6352 3.30933 26.0201ZM5.6828 16.9111C5.81109 17.0394 6.00354 17.1035 6.13183 17.1035C6.26013 17.1035 6.45257 17.0394 6.58087 16.9111C6.83746 16.6545 6.83746 16.2696 6.58087 16.013L4.59228 14.0244L6.58087 12.0358C6.83746 11.7792 6.83746 11.3943 6.58087 11.1378C6.32428 10.8812 5.93939 10.8812 5.6828 11.1378L3.24518 13.5754C3.11688 13.7037 3.05273 13.832 3.05273 14.0244C3.05273 14.2169 3.11688 14.3452 3.24518 14.4734L5.6828 16.9111ZM9.98071 14.0244L7.99212 16.013C7.73553 16.2696 7.73553 16.6545 7.99212 16.9111C8.12042 17.0394 8.31286 17.1035 8.44116 17.1035C8.56945 17.1035 8.7619 17.0394 8.89019 16.9111L11.3278 14.4734C11.4561 14.3452 11.5203 14.2169 11.5203 14.0244C11.5203 13.832 11.4561 13.7037 11.3278 13.5754L8.89019 11.1378C8.6336 10.8812 8.24871 10.8812 7.99212 11.1378C7.73553 11.3943 7.73553 11.7792 7.99212 12.0358L9.98071 14.0244Z" fill="white"/>
</svg>
