<svg width="36" height="35" viewBox="0 0 36 35" fill="none" xmlns="http://www.w3.org/2000/svg">
<path d="M8.10275 26.9827H9.21764C8.68842 25.4091 8.41322 23.7227 8.41322 21.9939V20.5333C8.41322 19.4325 9.26703 18.5011 10.3678 18.4234C13.0351 18.1906 14.8274 17.2098 16.1751 15.2481C16.5562 14.6836 17.2124 14.3449 17.9251 14.3449C18.6307 14.3449 19.2799 14.6766 19.668 15.2411C21.0157 17.2098 22.808 18.1906 25.4965 18.4234C26.5761 18.5081 27.4299 19.4325 27.4299 20.5333V21.9939C27.4299 23.7227 27.1547 25.4091 26.6255 26.9827H27.7403C32.0517 26.9827 35.5587 23.4757 35.5587 19.1573C35.5587 14.8459 32.0517 11.3389 27.7403 11.3389C27.6063 11.3389 27.4652 11.346 27.324 11.353C27.3875 10.9226 27.4158 10.4992 27.4158 10.0688C27.4158 4.84011 23.1608 0.578125 17.918 0.578125C12.6893 0.578125 8.42733 4.84011 8.42733 10.0688C8.42733 10.4922 8.46262 10.9156 8.51907 11.353C8.37794 11.346 8.24387 11.3389 8.10275 11.3389C3.79137 11.3389 0.277344 14.8459 0.277344 19.1573C0.277344 23.4757 3.79137 26.9827 8.10275 26.9827Z" fill="white"/>
<path d="M25.3762 19.83C22.2785 19.5618 20.0911 18.3623 18.5034 16.0408C18.2423 15.6597 17.6002 15.6597 17.3391 16.0478C15.7515 18.3623 13.5711 19.5618 10.4734 19.83C10.1065 19.8582 9.82422 20.1687 9.82422 20.5356V21.9963C9.82422 25.4538 11.0238 28.6927 13.2042 31.12C14.566 32.6371 16.0972 33.632 17.7414 34.0766C17.8621 34.1045 17.9876 34.1045 18.1083 34.0766C19.7524 33.632 21.2765 32.6371 22.6384 31.12C24.8188 28.6927 26.0184 25.4538 26.0184 21.9963V20.5356C26.0184 20.1687 25.7361 19.8582 25.3762 19.83ZM21.3662 23.2699L17.0724 27.5637C17.007 27.6294 16.9293 27.6816 16.8437 27.7172C16.7581 27.7528 16.6663 27.7711 16.5735 27.7711C16.4808 27.7711 16.389 27.7528 16.3034 27.7172C16.2178 27.6816 16.14 27.6294 16.0747 27.5637L14.4799 25.9689C14.4144 25.9034 14.3625 25.8256 14.327 25.74C14.2916 25.6544 14.2733 25.5627 14.2733 25.4701C14.2733 25.3774 14.2916 25.2857 14.327 25.2001C14.3625 25.1145 14.4144 25.0367 14.4799 24.9712C14.5455 24.9057 14.6232 24.8537 14.7088 24.8182C14.7944 24.7828 14.8862 24.7645 14.9788 24.7645C15.0715 24.7645 15.1632 24.7828 15.2488 24.8182C15.3344 24.8537 15.4122 24.9057 15.4777 24.9712L16.5735 26.067L20.3684 22.2722C20.5007 22.1398 20.6802 22.0655 20.8673 22.0655C21.0544 22.0655 21.2338 22.1398 21.3662 22.2722C21.4985 22.4045 21.5728 22.5839 21.5728 22.771C21.5728 22.9581 21.4985 23.1376 21.3662 23.2699Z" fill="white"/>
</svg>
