<svg width="44" height="43" viewBox="0 0 44 43" fill="none" xmlns="http://www.w3.org/2000/svg">
<path d="M31.4564 35.5759C31.8897 34.6339 32.6614 33.9434 33.5943 33.618V30.102C33.5943 28.0502 35.2636 26.3809 37.3154 26.3809H39.4465C39.8691 26.3807 40.2886 26.4529 40.6869 26.5942V3.88905C40.6869 1.83725 39.0176 0.167969 36.9658 0.167969H12.1586C10.1068 0.167969 8.4375 1.83725 8.4375 3.88905V5.70824H29.7717C32.5074 5.70824 34.7331 7.93395 34.7331 10.6697V22.2464C34.7331 24.9821 32.5074 27.2078 29.7717 27.2078H8.4375V38.7845C8.4375 40.8363 10.1068 42.5056 12.1586 42.5056H34.5431L32.0118 39.5524C31.0547 38.4357 30.8419 36.912 31.4564 35.5759Z" fill="white"/>
<path d="M41.9242 35.8903H40.6863V30.102C40.6863 29.417 40.1309 28.8616 39.4459 28.8616H37.3148C36.6298 28.8616 36.0745 29.417 36.0745 30.102V35.8903H34.8365C33.7768 35.8903 33.2051 37.1333 33.8947 37.9379L37.4386 42.0724C37.9336 42.65 38.8271 42.65 39.3221 42.0724L42.866 37.9379C43.5556 37.1333 42.9839 35.8903 41.9242 35.8903ZM16.707 13.1504H15.1934C15.1951 14.161 15.1979 15.8132 15.1979 16.4488C15.1979 17.2065 15.2027 18.7872 15.2058 19.7616C15.743 19.7585 16.4067 19.7537 16.7611 19.7475C18.4501 19.718 19.2194 18.0216 19.2194 16.458C19.2194 14.859 18.5594 13.1504 16.707 13.1504ZM8.67813 13.1504H7.20508C7.20665 13.6978 7.20839 14.3659 7.20839 14.657C7.20839 15.0003 7.21136 15.6439 7.21401 16.1693C7.7238 16.1665 8.34216 16.1637 8.67813 16.1637C9.51959 16.1637 10.2305 15.4737 10.2305 14.6571C10.2305 13.8404 9.51959 13.1504 8.67813 13.1504Z" fill="white"/>
<path d="M32.2525 22.2469V10.6702C32.2525 9.30007 31.1419 8.18945 29.7718 8.18945H3.3108C1.9407 8.18945 0.830078 9.30007 0.830078 10.6702V22.2469C0.830078 23.617 1.9407 24.7276 3.3108 24.7276H29.7718C31.1419 24.7276 32.2525 23.617 32.2525 22.2469ZM8.67883 17.818C8.34137 17.818 7.71465 17.8208 7.2033 17.8236V20.5931C7.2033 21.0498 6.83309 21.42 6.37639 21.42C5.91969 21.42 5.54948 21.0498 5.54948 20.5931V12.3266C5.54916 12.2178 5.5703 12.11 5.61171 12.0094C5.65312 11.9088 5.71398 11.8173 5.79079 11.7403C5.86761 11.6632 5.95888 11.6021 6.05937 11.5604C6.15985 11.5187 6.26758 11.4972 6.37639 11.4972H8.67883C10.4467 11.4972 11.885 12.915 11.885 14.6576C11.885 16.4002 10.4468 17.818 8.67883 17.818ZM19.8204 19.8608C19.0753 20.8333 17.9994 21.3804 16.7907 21.4016C16.1249 21.4133 14.4563 21.4197 14.3856 21.42H14.3825C14.1637 21.42 13.9538 21.3333 13.7988 21.1788C13.6438 21.0244 13.5564 20.8148 13.5556 20.596C13.5555 20.566 13.5448 17.5862 13.5448 16.4493C13.5448 15.5065 13.5389 12.3256 13.5389 12.3255C13.5387 12.2168 13.5599 12.1091 13.6014 12.0086C13.6428 11.9081 13.7037 11.8168 13.7805 11.7398C13.8573 11.6629 13.9485 11.6018 14.0489 11.5602C14.1494 11.5185 14.257 11.4971 14.3657 11.4971H16.7077C19.1996 11.4971 20.8739 13.4909 20.8739 16.4585C20.8739 17.7659 20.4998 18.9741 19.8204 19.8608ZM26.7061 13.1509H24.1815V15.5533H26.4399C26.8966 15.5533 27.2668 15.9235 27.2668 16.3802C27.2668 16.8369 26.8966 17.2071 26.4399 17.2071H24.1815V20.5931C24.1815 21.0498 23.8113 21.42 23.3546 21.42C22.8979 21.42 22.5277 21.0498 22.5277 20.5931V12.324C22.5277 12.1047 22.6148 11.8944 22.7699 11.7393C22.925 11.5842 23.1353 11.4971 23.3546 11.4971H26.7061C27.1628 11.4971 27.533 11.8673 27.533 12.324C27.533 12.7807 27.1628 13.1509 26.7061 13.1509Z" fill="white"/>
</svg>
