<svg width="139" height="66" viewBox="0 0 139 66" fill="none" xmlns="http://www.w3.org/2000/svg">
<path d="M94.2917 8.42865L95.2917 9.15864C93.6817 9.33864 92.7517 8.81865 93.6717 9.67865C93.9517 9.05865 95.1017 9.35865 96.2317 9.67865C97.3617 9.99865 98.4717 10.4686 98.8017 9.86864L99.4517 10.4286C99.2317 10.3386 99.1717 10.4286 98.9617 10.2986C100.182 11.4686 100.442 9.77864 102.232 10.8386C102.832 11.2386 103.232 11.6186 102.692 11.5686L104.272 11.9286C104.682 12.1486 104.472 12.3186 104.072 12.0986C104.832 12.3786 105.532 12.7786 106.252 13.0986C106.808 13.101 107.363 13.1478 107.912 13.2386C108.352 13.7086 107.562 13.2386 107.622 13.4386L108.972 13.8086C109.272 14.3686 108.112 14.1286 107.332 13.6386C107.732 15.4186 108.512 13.8286 110.332 15.9886L109.192 15.4486C109.462 16.5486 110.422 16.8386 111.322 17.9986C111.202 17.6186 109.632 15.4486 111.022 15.9986C111.432 16.4307 111.967 16.7243 112.552 16.8386C112.282 17.2286 112.952 17.5986 113.732 18.1486L113.302 18.6286C114.222 19.0986 114.302 18.7886 115.012 18.9286C115.303 19.1098 115.528 19.3796 115.654 19.6982C115.78 20.0169 115.8 20.3675 115.712 20.6986C117.002 21.9786 115.262 19.2486 116.972 20.5886C117.415 21.1365 117.937 21.6151 118.522 22.0086C118.812 22.2086 119.122 22.3886 119.462 22.5886L120.462 23.2986C121.062 24.2286 120.062 23.4386 120.202 23.8486L121.202 24.1686C121.362 24.3486 121.202 24.3986 121.112 24.4286C121.812 24.8686 121.612 24.0286 122.632 24.8286C123.452 24.5686 123.552 27.4786 125.172 28.1586C125.272 28.5686 124.742 28.2586 124.622 28.4986C125.166 28.8841 125.687 29.3015 126.182 29.7486C126.512 30.0086 126.832 30.2286 127.632 30.7486L128.142 32.2186C127.902 31.0586 129.242 31.8586 130.242 32.7586C130.242 32.2886 130.242 31.8786 130.242 31.6186L131.632 33.2686C131.632 33.5386 131.372 33.4686 130.972 33.2686C131.092 33.3686 131.202 33.4586 131.292 33.5186C131.452 34.2686 130.942 34.1186 130.372 33.8486V33.0186C129.782 32.7886 129.192 32.6186 128.922 32.8986C129.107 33.0274 129.267 33.1903 129.392 33.3786C129.242 33.3186 129.122 33.2986 129.092 33.3786C129.062 33.4586 129.292 33.5786 129.592 33.7786L129.202 34.5286H129.502C129.792 35.3486 130.132 36.1386 130.362 36.9786C131.062 37.6386 131.822 38.2386 132.602 38.9786C133.024 39.3763 133.406 39.8151 133.742 40.2886C134.122 40.8613 134.457 41.4632 134.742 42.0886C134.012 41.5486 133.892 42.2186 133.292 42.3786C133.642 41.3786 132.292 40.3186 131.762 38.9286C132.032 39.6686 131.692 39.6286 131.512 39.4886C131.782 39.8586 132.072 40.2186 132.342 40.5986L133.052 41.7586C132.562 41.8786 132.882 42.4286 132.922 43.1586C133.682 42.3386 134.272 44.8286 134.742 45.8486C134.422 46.0086 134.042 45.8486 133.792 44.5186C133.422 46.1286 135.382 46.0786 135.102 47.6586C135.022 47.3386 135.032 47.1586 134.832 47.0686C135.093 47.526 135.254 48.0341 135.302 48.5586C135.372 49.0686 135.302 49.4186 135.092 49.2386V48.9386C135.222 49.9386 135.372 51.5187 135.442 52.8886C135.512 54.2586 135.562 55.4086 135.962 55.6486C135.563 55.4976 135.184 55.2996 134.832 55.0586C135.659 56.4513 136.224 57.983 136.502 59.5786C136.232 59.2486 135.582 59.2486 135.022 59.0486C134.731 58.9815 134.477 58.8047 134.313 58.5551C134.149 58.3055 134.088 58.0023 134.142 57.7086C133.989 57.9232 133.855 58.1508 133.742 58.3886C133.574 58.7084 133.437 59.0432 133.332 59.3886C133.592 59.2486 134.622 59.2386 134.482 59.6786C134.109 59.8317 133.748 60.0122 133.402 60.2186C133.042 60.4241 132.655 60.5757 132.252 60.6686C132.452 60.5986 132.682 60.8386 132.762 61.1586C132.825 61.3383 132.827 61.5341 132.768 61.7151C132.708 61.8961 132.59 62.0521 132.432 62.1586C132.432 61.9586 131.762 61.2386 131.892 61.0286C131.778 61.3337 131.644 61.631 131.492 61.9186C131.3 62.2116 131.089 62.4921 130.862 62.7586C131.242 62.4086 130.632 61.8586 130.242 61.5886C130.342 61.6686 130.032 61.7786 129.632 61.7886C129.232 61.7986 128.772 61.7886 128.562 61.7886C128.762 61.8986 128.982 61.9786 129.202 62.0886C128.515 62.0288 127.825 62.1531 127.202 62.4486C126.819 62.6069 126.401 62.6616 125.99 62.6072C125.579 62.5528 125.19 62.3912 124.862 62.1386C125.252 62.1386 126.152 61.2886 125.392 60.5786C124.647 60.7831 123.873 60.8641 123.102 60.8186C121.955 60.7775 120.85 60.3789 119.942 59.6786V59.1386C119.502 58.7686 119.062 58.3986 118.632 58.0086C119.292 58.1886 120.422 58.5986 121.582 58.9586C122.742 59.3186 123.922 59.6186 124.672 59.8086C124.262 59.0586 124.762 59.3886 123.902 58.5486C123.832 58.0386 124.682 58.7086 124.902 58.9086C124.282 58.2256 123.711 57.5005 123.192 56.7386C122.742 57.2886 121.302 55.3586 120.922 55.7386C121.714 56.499 122.553 57.2104 123.432 57.8686C123.222 58.1386 122.562 58.1086 121.792 57.7486C120.879 57.3076 120.111 56.6134 119.582 55.7486C119.492 55.1286 120.812 55.4386 120.962 55.2586C120.32 54.8067 119.801 54.2018 119.452 53.4986L120.272 54.0786C119.802 52.9186 118.412 52.8886 118.162 51.2886C117.912 50.8286 118.082 49.5386 117.702 49.6686C117.482 50.7786 115.562 52.1886 114.772 51.9986C114.415 50.8772 114.161 49.7258 114.012 48.5586C114.112 47.5586 115.882 48.9486 116.012 48.0586C115.842 48.1186 115.412 47.8286 115.252 47.6986C115.122 47.1486 115.852 47.6087 115.252 46.6386C114.552 46.7986 114.132 44.5386 114.472 46.4386C113.732 45.5286 114.022 45.2986 113.362 44.1286C113.172 44.7186 111.462 43.7486 110.792 42.7586C110.972 42.7586 111.062 42.4186 111.102 42.2586C110.709 41.344 110.375 40.4055 110.102 39.4486C109.812 38.6086 109.592 37.7686 109.202 36.7386C109.282 36.4886 109.092 35.4386 109.532 35.7386C109.194 35.444 108.936 35.0691 108.782 34.6486C108.942 33.2286 109.332 36.0386 109.702 34.8686C109.312 34.9186 108.622 33.4086 108.142 32.5486C107.592 33.0186 108.702 34.7086 109.212 35.5486C108.822 35.6886 108.282 35.4386 107.702 34.8686C106.983 34.1383 106.413 33.2758 106.022 32.3286C105.332 30.5486 106.342 31.3986 106.142 31.1186C105.996 30.028 105.568 28.9941 104.902 28.1186C104.346 27.321 104.123 26.3379 104.282 25.3786C104.722 24.1486 105.282 25.2286 105.702 24.9286C106.082 26.3986 105.622 27.2786 105.832 28.2986C105.832 27.8686 105.832 27.4286 105.892 27.0086C106.192 27.6341 106.359 28.3152 106.382 29.0086C106.456 28.555 106.456 28.0923 106.382 27.6386C106.382 27.0086 106.252 26.2286 106.152 25.3986C105.968 23.7811 106.005 22.1462 106.262 20.5386C106.092 20.0686 105.932 19.2386 105.702 19.6086L105.762 20.4586C105.302 21.2386 105.202 18.8186 104.972 19.8986C104.815 19.2689 104.714 18.6263 104.672 17.9786C104.585 17.2186 104.674 16.4489 104.932 15.7286L105.592 15.5286C105.414 15.7276 105.282 15.9635 105.206 16.2194C105.13 16.4752 105.111 16.7448 105.152 17.0086C104.952 16.2686 106.442 14.7086 105.792 13.7986L105.152 14.8486C104.909 13.4277 105.032 11.9682 105.512 10.6086C104.732 11.0786 105.512 10.9586 104.512 11.7886C105.072 11.4686 104.782 12.3986 104.512 13.2586C104.242 14.1186 104.152 14.9486 104.752 14.2586C103.752 15.1786 103.962 16.0386 103.142 17.4086C103.352 17.4086 103.592 16.9386 103.342 18.2086C103.409 18.2952 103.46 18.3936 103.492 18.4986V18.5886V18.5186C103.492 18.5786 103.492 18.5786 103.492 18.5186C103.567 18.2874 103.697 18.0779 103.872 17.9086C104.062 18.4407 104.15 19.0039 104.132 19.5686C104.158 20.1272 104.232 20.6825 104.352 21.2286C104.232 21.9686 104.122 20.9186 103.902 21.3186L104.232 22.3186C103.792 22.4186 103.592 24.3186 103.232 22.5586L103.302 24.1586C103.083 25.1535 103.132 26.1884 103.442 27.1586C103.442 27.9386 104.222 28.9586 103.762 28.3686L104.512 30.7486H104.412C104.922 33.1486 106.412 35.3386 106.612 38.1686C107.041 39.0495 107.383 39.9707 107.632 40.9186L107.382 41.3086C107.892 42.2186 108.382 44.3086 108.892 44.5286C108.652 45.2687 109.202 46.4086 109.892 47.5786C110.582 48.7486 111.422 49.8786 111.792 50.7186L112.262 50.5186C112.943 51.654 113.726 52.7251 114.602 53.7186L114.932 53.3986C115.932 54.3186 116.472 56.3986 117.712 58.1086C117.492 58.1086 117.202 57.6086 117.092 57.2486C117.484 58.5592 118.287 59.7091 119.382 60.5286C120.459 61.3325 121.433 62.2662 122.282 63.3086C122.764 63.5281 123.194 63.8487 123.542 64.2486L123.392 64.1786L123.622 64.3386C123.831 64.5825 124.058 64.8098 124.302 65.0186C124.092 64.7886 123.912 64.5786 123.742 64.4086C124.342 64.7786 124.997 65.0519 125.682 65.2186L125.832 65.7986H126.022C126.772 66.2186 126.702 65.7986 126.412 65.3086C126.77 65.365 127.134 65.365 127.492 65.3086C127.722 65.7586 128.282 65.7786 128.852 65.7286C129.403 65.6064 129.98 65.6806 130.482 65.9386C130.732 65.6786 131.742 65.4486 132.612 64.9386C133.482 64.4286 134.152 63.6586 134.002 63.1986C134.092 63.2686 134.292 63.1986 134.002 63.4286C134.719 63.0498 135.284 62.4353 135.602 61.6886L136.302 61.7486C136.413 61.1114 136.466 60.4655 136.462 59.8186C137.202 59.0486 137.572 58.6686 137.602 59.8186C137.782 58.4786 137.792 57.9886 137.872 57.5286C137.944 56.8808 137.91 56.2256 137.772 55.5886L138.142 55.7486C138.262 55.0086 137.822 53.8086 138.142 53.3986C138.552 52.6186 138.632 50.5486 138.202 48.2186C137.772 45.8886 137.202 43.4886 136.752 41.4786C135.912 42.6087 136.622 39.4786 135.752 39.6686C135.932 39.3486 135.892 38.7486 136.332 39.2886C135.282 37.4686 135.432 36.2286 134.162 35.2886C134.312 34.9486 134.712 35.5186 134.762 35.2886C134.642 35.1686 134.282 34.7886 134.322 34.5286C134.362 34.2687 134.672 34.6886 134.912 34.9486C133.912 33.0386 132.972 33.3086 132.222 33.5586C132.208 33.1408 132.074 32.7358 131.837 32.3919C131.599 32.0479 131.268 31.7795 130.882 31.6186C130.882 31.1686 130.882 30.4786 131.572 31.6186C131.292 30.9286 129.342 27.6786 128.802 27.9886C128.802 27.6986 128.262 27.1186 128.062 26.9886C127.062 25.6986 127.002 25.5486 125.922 24.3486L126.132 24.7586C125.132 24.7586 125.132 23.8286 124.132 22.9886H124.212C122.532 20.4886 123.212 22.2286 121.502 19.7486L121.292 20.2086C120.392 20.7886 119.772 18.0486 118.222 17.2086C118.322 17.3986 118.412 17.6086 118.512 17.8186C117.632 17.3686 117.332 14.9886 116.632 14.3286C116.522 14.1286 116.982 14.4086 117.252 14.5286C115.622 12.5286 116.612 14.8386 115.062 13.8486C114.982 13.3886 115.942 13.3786 114.932 12.6386C114.293 12.2148 113.586 11.9036 112.842 11.7186C111.859 11.4108 110.957 10.8882 110.202 10.1886C110.402 10.5986 110.582 10.9986 109.742 10.7586C109.054 10.3305 108.411 9.83475 107.822 9.27865C107.512 9.00982 107.178 8.77201 106.822 8.56865C106.486 8.40682 106.111 8.34768 105.742 8.39865C105.622 8.25865 105.592 8.17864 105.622 8.11864C104.622 7.88864 102.542 7.04865 101.822 7.23865C101.722 6.30865 100.182 5.92865 98.8217 5.62864C97.4617 5.32864 96.0917 5.19864 96.3417 4.44864L93.3417 3.61864L93.4617 3.49865C92.3829 3.06286 91.1888 3.00297 90.0717 3.32864C89.6517 3.12864 90.0017 3.05865 90.0717 2.99865C89.3917 2.75865 88.8617 2.56864 88.4117 2.44864C88.0171 2.35899 87.6157 2.30214 87.2117 2.27865C86.3189 2.25942 85.4267 2.33991 84.5517 2.51864L84.3717 1.98865C83.7217 2.14865 80.3717 0.728649 77.4917 1.21865C77.4917 1.21865 77.5817 1.06864 77.8017 1.00864C76.957 1.08907 76.1065 1.08907 75.2617 1.00864C74.3917 0.938642 73.5017 0.788648 72.6717 0.748648C71.0217 0.628648 69.6117 0.658647 69.1117 1.63865L67.1117 2.27865C69.7717 2.15865 66.8017 3.08865 67.9217 3.27865C66.9217 3.44865 65.1917 3.06865 66.4417 2.78865L66.6517 2.84865C67.0117 1.84865 63.3417 2.97864 63.3117 2.33864C58.2204 3.072 53.2018 4.243 48.3117 5.83864L49.0917 6.32864L47.4717 6.88865C46.9917 6.88865 46.6917 6.56864 47.8617 6.15864C47.0917 5.98864 46.0617 7.23864 46.0917 7.40864C43.7617 8.06864 46.6417 6.24864 45.9517 6.51864L45.0417 6.95865H45.2817C44.7965 7.63153 44.1208 8.14356 43.3417 8.42865C42.4417 8.69865 42.7217 8.22865 42.3417 8.35865C42.3417 8.35865 42.2017 8.35864 41.8217 8.57864C41.1617 8.87864 40.4817 9.14864 39.8217 9.47864L40.8217 9.59865C40.0817 10.2886 39.0017 10.5086 40.1717 10.5986C39.3017 10.4886 37.4517 11.3186 35.7717 12.3186C34.0917 13.3186 32.5617 14.3986 32.0817 14.4886C31.1142 15.5693 29.988 16.4965 28.7417 17.2386C29.1417 17.0886 29.7417 17.4786 28.5417 18.2386C28.1617 16.8586 26.1217 19.3086 24.6417 19.3186C25.2517 19.2386 24.4817 19.9086 23.8117 20.5586C23.1417 21.2086 22.6317 21.9886 23.5317 21.7486C22.5317 22.4486 23.1417 21.4086 22.2617 21.7486C20.4817 23.9786 17.4717 25.7486 15.2617 28.4986C15.3617 28.6586 15.9417 28.3986 15.6517 29.1386L13.7617 29.9486C13.3817 30.5286 14.1417 31.0886 12.8717 31.6786C13.1017 31.6286 13.4417 31.5686 13.1917 31.9586C11.9574 33.1861 10.8393 34.5252 9.85174 35.9586C8.85174 37.3986 7.93174 38.8786 7.08174 40.4086C5.41696 43.511 3.59803 46.5281 1.63174 49.4486C2.32174 48.7086 2.10174 49.3086 1.83174 49.9686C2.09174 49.5686 2.22175 50.1486 2.48175 50.1586C1.87175 50.9486 1.36174 51.7886 0.801737 52.6286C1.02174 52.9886 0.741739 53.7186 0.521739 54.4386C0.301739 55.1586 0.0817362 55.8486 0.331736 56.0886L0.501734 55.1786C0.851734 56.5586 2.58173 54.0886 3.50173 54.5986C3.33173 53.8386 3.93173 53.1186 4.50173 52.3186C4.87801 51.9318 5.1721 51.4727 5.3663 50.9692C5.5605 50.4656 5.65079 49.928 5.63174 49.3886C5.99174 49.0286 5.75174 49.8886 6.05174 49.7386C5.88174 49.0686 6.05173 48.4386 6.81173 47.4186V47.5886C8.24173 44.4686 9.34174 43.3786 11.6017 40.2886H11.0417C11.3358 39.9011 11.6903 39.5634 12.0917 39.2886C12.0317 38.0986 10.7717 41.1987 10.5817 40.0486C11.3017 39.8486 12.0917 38.6286 12.9317 37.4886C13.7717 36.3486 14.6217 35.2686 15.2917 35.3286C16.0917 34.3286 14.6317 35.2786 15.4317 34.3286L15.8717 34.2486L15.7817 33.7586C16.3517 33.1486 16.9017 33.0586 17.1117 33.1986C16.9499 33.4076 16.8093 33.632 16.6917 33.8686C17.6117 33.2386 18.5817 31.5086 18.9017 31.2886L17.9617 32.0786C20.0217 29.2786 23.2717 26.5586 25.4417 23.9486H25.1017C25.5678 23.3093 26.1686 22.7801 26.8617 22.3986C27.6023 21.9771 28.2932 21.474 28.9217 20.8986L28.8717 21.0086C29.2618 20.4102 29.7686 19.8966 30.3617 19.4986C29.9417 20.1386 31.7317 19.1186 31.1517 19.9086C33.1517 17.9086 32.0717 18.8386 33.1517 17.0986L33.7117 17.1786C34.0062 16.4872 34.519 15.9111 35.1717 15.5386C34.3517 16.4386 36.2317 15.5386 35.3517 16.5386C36.4669 16.185 37.491 15.591 38.3517 14.7986C39.0417 14.2086 39.6117 13.7986 40.4917 13.9986C41.2117 12.4486 37.9617 14.6986 38.4917 14.1586C37.7717 14.1586 39.1017 12.9186 39.9917 12.5986C40.8817 12.2786 41.9917 12.9886 44.1517 11.9786C43.9417 12.0786 43.9617 12.1486 43.7417 12.2486C44.6517 12.1086 45.1617 11.1686 46.3417 11.1586C46.6617 10.3486 47.6517 10.6386 47.5217 9.83864L45.5217 10.8386C46.5817 10.1786 47.3017 8.83865 49.4017 8.53865C49.1417 8.88137 48.8235 9.17582 48.4617 9.40864C49.1017 9.40864 49.4617 8.86864 50.1517 8.86864C50.2617 9.67864 47.7117 9.93864 46.7417 11.0486C47.4517 11.0486 48.8317 9.55865 48.5317 10.6086C49.0417 9.26865 50.7417 9.88865 51.9817 8.60865L52.0317 9.08864C52.3605 8.8109 52.732 8.58804 53.1317 8.42865L52.5217 9.27865C53.5817 8.36865 55.0117 8.93865 56.1217 8.35865C53.6417 9.06865 55.4017 7.95865 54.2417 7.92865C57.1817 6.47865 56.3417 8.55865 59.7417 7.53865C59.2917 7.71865 57.9117 7.67865 58.6017 7.28865C59.2844 7.20231 59.9765 7.22594 60.6517 7.35865C62.9417 6.80865 60.2017 6.93865 61.1217 6.46865C62.0317 6.87865 62.2217 6.01865 63.2217 5.64865L63.3117 6.11864C66.0317 5.99864 63.8717 5.00865 66.3117 5.02865L65.3817 5.83864L66.6117 5.48865L66.4217 6.06865C67.3911 5.61425 68.4714 5.45098 69.5317 5.59865C69.1917 5.29865 69.6317 4.67865 70.8417 4.59865C71.6817 4.84865 70.4117 5.07865 72.1117 4.92865C71.941 5.16144 71.6896 5.3222 71.4067 5.37952C71.1237 5.43685 70.8296 5.38662 70.5817 5.23865C70.5217 5.39865 70.2217 5.54865 70.1617 5.71865C71.0919 5.86015 72.0398 5.83646 72.9617 5.64865C72.7387 5.66162 72.5152 5.63452 72.3017 5.56865C73.1017 5.29865 73.9217 5.05865 74.7417 4.84865C75.1317 5.02865 74.8217 5.17865 74.5217 5.31865C75.0388 5.18344 75.563 5.07661 76.0917 4.99865C75.8917 5.38865 75.9317 5.79865 74.9117 5.99865C75.6817 5.85865 76.4617 5.66864 77.2317 5.58864C77.3817 5.75864 78.4017 6.10865 78.1017 6.23865C79.3517 6.49865 81.2817 5.68865 82.9517 6.16865C83.1541 6.07253 83.3791 6.03444 83.6017 6.05865C84.3917 6.22865 85.1117 6.48865 85.8817 6.67865C86.7201 6.87561 87.5811 6.95968 88.4417 6.92865L89.3317 7.85865C90.8117 8.03865 88.1117 6.66865 90.5917 6.96865C92.3717 7.15865 91.0817 7.69865 91.5917 8.02865C92.9639 7.72428 94.4008 7.97214 95.5917 8.71865C95.1515 8.65593 94.7169 8.55897 94.2917 8.42865ZM111.032 15.9886C110.672 15.8786 109.912 15.7586 109.842 15.3686C110.482 15.1386 110.632 15.5386 111.032 15.9886ZM130.922 35.6486C130.769 35.5196 130.646 35.3589 130.561 35.1776C130.477 34.9963 130.432 34.7987 130.432 34.5986C130.661 34.9177 130.827 35.2775 130.922 35.6586V35.6486ZM103.422 25.3086C103.372 26.2386 103.402 25.9286 103.422 25.3186V25.3086ZM103.522 23.4786C103.442 23.2986 103.382 23.3086 103.312 23.3886C103.46 23.6996 103.512 24.0478 103.462 24.3886C103.632 24.2586 103.632 23.9886 103.522 23.4886V23.4786ZM42.2517 8.60865H42.6117C41.9817 9.04865 42.1217 8.83864 42.2517 8.61864V8.60865Z" fill="#B78944"/>
</svg>
