<svg width="39" height="40" viewBox="0 0 39 40" fill="none" xmlns="http://www.w3.org/2000/svg">
<path d="M36.5715 20.5177C36.4921 20.3566 36.4508 20.1793 36.4508 19.9997C36.4508 19.82 36.4921 19.6427 36.5715 19.4816L38.0634 16.4296C38.894 14.7304 38.2359 12.705 36.5651 11.8185L33.5643 10.2263C33.4054 10.1426 33.2678 10.0235 33.1622 9.87816C33.0565 9.73283 32.9858 9.56516 32.9553 9.38812L32.3684 6.04212C32.0416 4.17917 30.3183 2.9273 28.4459 3.19222L25.0824 3.668C24.9046 3.6937 24.7233 3.67819 24.5524 3.62266C24.3816 3.56714 24.2258 3.47308 24.097 3.34776L21.6556 0.985902C20.2961 -0.329246 18.1664 -0.329324 16.8071 0.985902L14.3655 3.348C14.2368 3.47329 14.081 3.56732 13.9101 3.62285C13.7393 3.67837 13.5579 3.6939 13.3801 3.66823L10.0166 3.19245C8.14361 2.92738 6.42096 4.1794 6.09416 6.04236L5.50729 9.3882C5.47679 9.56524 5.40601 9.73291 5.30042 9.87825C5.19483 10.0236 5.05726 10.1427 4.89831 10.2265L1.89755 11.8187C0.226777 12.7051 -0.431344 14.7306 0.399276 16.4299L1.89106 19.4817C1.97047 19.6429 2.01177 19.8202 2.01177 19.9998C2.01177 20.1795 1.97047 20.3567 1.89106 20.5179L0.399198 23.5698C-0.431423 25.269 0.226699 27.2944 1.89747 28.1809L4.89823 29.7731C5.05719 29.8568 5.19479 29.9759 5.3004 30.1212C5.406 30.2666 5.47679 30.4342 5.50729 30.6113L6.09416 33.9573C6.39166 35.6532 7.84587 36.8426 9.51719 36.8424C9.6818 36.8424 9.84883 36.8308 10.0167 36.8071L13.3802 36.3313C13.558 36.3056 13.7394 36.3211 13.9102 36.3766C14.0811 36.4321 14.2369 36.5262 14.3656 36.6516L16.8071 39.0134C17.4869 39.6711 18.3589 39.9998 19.2313 39.9997C20.1034 39.9997 20.976 39.6709 21.6555 39.0134L24.097 36.6516C24.3605 36.3968 24.7195 36.2804 25.0824 36.3313L28.4459 36.8071C30.3192 37.0721 32.0416 35.8202 32.3684 33.9572L32.9553 30.6114C32.9858 30.4343 33.0566 30.2666 33.1622 30.1213C33.2678 29.976 33.4054 29.8568 33.5643 29.7731L36.5651 28.1809C38.2359 27.2945 38.894 25.269 38.0634 23.5697L36.5715 20.5177ZM14.6172 9.61804C16.9493 9.61804 18.8467 11.5155 18.8467 13.8476C18.8467 16.1798 16.9493 18.0772 14.6172 18.0772C12.285 18.0772 10.3876 16.1798 10.3876 13.8476C10.3876 11.5155 12.285 9.61804 14.6172 9.61804ZM12.434 28.4281C12.2088 28.6533 11.9136 28.766 11.6184 28.766C11.3233 28.766 11.028 28.6534 10.8028 28.4281C10.3523 27.9776 10.3523 27.2472 10.8028 26.7968L26.0284 11.5712C26.4788 11.1207 27.2093 11.1207 27.6597 11.5712C28.1102 12.0216 28.1102 12.752 27.6597 13.2025L12.434 28.4281ZM23.8452 30.3814C21.5131 30.3814 19.6156 28.4839 19.6156 26.1518C19.6156 23.8196 21.5131 21.9222 23.8452 21.9222C26.1774 21.9222 28.0748 23.8196 28.0748 26.1518C28.0748 28.4839 26.1774 30.3814 23.8452 30.3814Z" fill="#E39D19"/>
<path d="M23.8454 24.2293C22.7853 24.2293 21.9228 25.0917 21.9228 26.1518C21.9228 27.2118 22.7852 28.0743 23.8454 28.0743C24.9055 28.0743 25.7679 27.2118 25.7679 26.1518C25.7679 25.0917 24.9055 24.2293 23.8454 24.2293ZM14.6173 11.925C13.5572 11.925 12.6948 12.7875 12.6948 13.8475C12.6948 14.9076 13.5572 15.7701 14.6173 15.7701C15.6774 15.7701 16.5399 14.9077 16.5399 13.8475C16.5398 12.7875 15.6774 11.925 14.6173 11.925Z" fill="#E39D19"/>
</svg>
