<svg width="37" height="38" viewBox="0 0 37 38" fill="none" xmlns="http://www.w3.org/2000/svg">
<path d="M7.51416 10.0297V9.49966C7.51416 8.59841 8.70979 8.12966 10.0142 7.88591V7.02466C8.55666 7.58153 6.26604 7.62466 5.63916 7.62466C5.01229 7.62466 2.72166 7.58153 1.26416 7.02466V9.38591C1.55791 9.65278 3.08604 10.1247 5.63916 10.1247C6.28604 10.1247 6.92416 10.0922 7.51416 10.0297ZM10.0142 5.63591V3.27466C8.55666 3.83153 6.26604 3.87466 5.63916 3.87466C5.01229 3.87466 2.72166 3.83153 1.26416 3.27466V5.63591C1.55791 5.90278 3.08604 6.37466 5.63916 6.37466C8.19229 6.37466 9.72041 5.90278 10.0142 5.63591ZM7.51416 13.7797V11.2847C6.91728 11.3434 6.28229 11.3747 5.63916 11.3747C5.01229 11.3747 2.72166 11.3315 1.26416 10.7747V13.1359C1.55791 13.4028 3.08604 13.8747 5.63916 13.8747C6.28604 13.8747 6.92416 13.8422 7.51416 13.7797ZM7.51416 17.5297V15.0347C6.91728 15.0934 6.28229 15.1247 5.63916 15.1247C5.01229 15.1247 2.72166 15.0815 1.26416 14.5247V16.8859C1.55791 17.1528 3.08604 17.6247 5.63916 17.6247C6.28604 17.6247 6.92416 17.5922 7.51416 17.5297ZM17.5142 10.7747C16.0567 11.3315 13.766 11.3747 13.1392 11.3747C12.5123 11.3747 10.2217 11.3315 8.76416 10.7747V13.1359C9.05791 13.4028 10.586 13.8747 13.1392 13.8747C15.6923 13.8747 17.2204 13.4028 17.5142 13.1359V10.7747ZM17.5142 14.5247C16.0567 15.0815 13.766 15.1247 13.1392 15.1247C12.5123 15.1247 10.2217 15.0815 8.76416 14.5247V16.8859C9.05791 17.1528 10.586 17.6247 13.1392 17.6247C15.6923 17.6247 17.2204 17.1528 17.5142 16.8859V14.5247ZM8.76416 18.2747V20.1247H17.5142V18.2747C16.0567 18.8315 13.766 18.8747 13.1392 18.8747C12.5123 18.8747 10.2217 18.8315 8.76416 18.2747ZM7.51416 18.7853C6.91728 18.8434 6.28229 18.8747 5.63916 18.8747C5.01229 18.8747 2.72166 18.8315 1.26416 18.2747V20.1247H7.51416V18.7853Z" fill="#C0483C"/>
<path d="M5.63908 2.62476C7.96144 2.62476 9.84408 2.34493 9.84408 1.99976C9.84408 1.65458 7.96144 1.37476 5.63908 1.37476C3.31672 1.37476 1.43408 1.65458 1.43408 1.99976C1.43408 2.34493 3.31672 2.62476 5.63908 2.62476Z" fill="#C0483C"/>
<path d="M13.1391 10.1248C15.4614 10.1248 17.3441 9.84493 17.3441 9.49976C17.3441 9.15458 15.4614 8.87476 13.1391 8.87476C10.8167 8.87476 8.93408 9.15458 8.93408 9.49976C8.93408 9.84493 10.8167 10.1248 13.1391 10.1248Z" fill="#C0483C"/>
<path d="M36.2642 21.3748H0.0141602V37.6248H36.2654L36.2642 21.3748ZM35.0142 36.3748H1.26416V22.6248H35.0142V36.3748Z" fill="#C0483C"/>
<path d="M6.21416 35.1248H14.1985C12.4273 33.8798 11.2642 31.8248 11.2642 29.4998C11.2642 27.1748 12.4273 25.1198 14.1985 23.8748H6.21416C6.07802 24.8077 5.64437 25.6717 4.97773 26.3383C4.31108 27.005 3.44706 27.4386 2.51416 27.5748V31.4248C3.44706 31.5609 4.31108 31.9945 4.97773 32.6612C5.64437 33.3278 6.07802 34.1919 6.21416 35.1248ZM4.95104 23.8748H2.51416V26.3116C3.11398 26.1879 3.66441 25.8911 4.09748 25.4581C4.53055 25.025 4.82728 24.4746 4.95104 23.8748ZM31.3273 35.1248H33.7642V32.6879C33.1643 32.8116 32.6139 33.1084 32.1808 33.5414C31.7478 33.9745 31.451 34.5249 31.3273 35.1248ZM2.51416 32.6879V35.1248H4.95104C4.82728 34.5249 4.53055 33.9745 4.09748 33.5414C3.66441 33.1084 3.11398 32.8116 2.51416 32.6879ZM25.0142 29.4998C25.0142 31.8248 23.851 33.8798 22.0798 35.1248H30.0642C30.2003 34.1919 30.6339 33.3278 31.3006 32.6612C31.9672 31.9945 32.8313 31.5609 33.7642 31.4248V27.5748C32.8313 27.4386 31.9672 27.005 31.3006 26.3383C30.6339 25.6717 30.2003 24.8077 30.0642 23.8748H22.0798C23.851 25.1198 25.0142 27.1748 25.0142 29.4998Z" fill="#C0483C"/>
<path d="M12.5142 29.4998C12.5142 32.6016 15.0373 35.1248 18.1392 35.1248C21.241 35.1248 23.7642 32.6016 23.7642 29.4998C23.7642 26.3979 21.241 23.8748 18.1392 23.8748C15.0373 23.8748 12.5142 26.3979 12.5142 29.4998ZM16.2642 30.1248H17.5142V30.7498C17.5142 30.9155 17.58 31.0745 17.6972 31.1917C17.8144 31.3089 17.9734 31.3748 18.1392 31.3748H18.7642V30.7498C18.7642 30.584 18.6983 30.425 18.5811 30.3078C18.4639 30.1906 18.3049 30.1248 18.1392 30.1248C17.1054 30.1248 16.2642 29.2835 16.2642 28.2498V26.3748H17.5142V25.1248H18.7642V26.4898C19.4898 26.7485 20.0142 27.436 20.0142 28.2498V28.8748H18.7642V28.2498C18.7642 28.084 18.6983 27.925 18.5811 27.8078C18.4639 27.6906 18.3049 27.6248 18.1392 27.6248H17.5142V28.2498C17.5142 28.4155 17.58 28.5745 17.6972 28.6917C17.8144 28.8089 17.9734 28.8748 18.1392 28.8748C19.1729 28.8748 20.0142 29.716 20.0142 30.7498V32.6248H18.7642V33.8748H17.5142V32.5098C17.1496 32.3813 16.8338 32.1431 16.61 31.828C16.3862 31.5129 16.2654 31.1363 16.2642 30.7498V30.1248ZM33.7642 26.3116V23.8748H31.3273C31.451 24.4746 31.7478 25.025 32.1808 25.4581C32.6139 25.8911 33.1643 26.1879 33.7642 26.3116ZM30.6392 11.9998H34.3892V5.74976H36.2642L32.5142 0.749756L28.7642 5.74976H30.6392V11.9998ZM28.1392 14.4998H26.2642V8.24976H22.5142V14.4998H20.6392L24.3892 19.4998L28.1392 14.4998Z" fill="#C0483C"/>
</svg>
