<svg width="41" height="41" viewBox="0 0 41 41" fill="none" xmlns="http://www.w3.org/2000/svg">
<path d="M32.2485 0.733398V7.85973H39.3744L32.2485 0.733398Z" fill="#2476B3"/>
<path d="M31.0767 10.2034C30.4295 10.2034 29.9048 9.67868 29.9048 9.03149V0.0471191H13.1079C11.1694 0.0471191 9.59229 1.62423 9.59229 3.56274V16.6634C9.97838 16.6284 10.3691 16.6096 10.7642 16.6096C14.7585 16.6096 18.3342 18.4359 20.7006 21.2971H33.4204C34.0676 21.2971 34.5923 21.8218 34.5923 22.469C34.5923 23.1162 34.0676 23.6409 33.4204 23.6409H22.2445C22.9932 25.1019 23.4538 26.6933 23.601 28.3284H33.4204C34.0676 28.3284 34.5923 28.8531 34.5923 29.5002C34.5923 30.1474 34.0676 30.6721 33.4204 30.6721H23.601C23.2505 34.5424 21.1827 37.9241 18.1671 40.0471H36.5454C38.4839 40.0471 40.061 38.47 40.061 36.5315V10.2034H31.0767ZM33.4204 16.6096H16.2329C15.5857 16.6096 15.061 16.0849 15.061 15.4377C15.061 14.7906 15.5857 14.2659 16.2329 14.2659H33.4204C34.0676 14.2659 34.5923 14.7906 34.5923 15.4377C34.5923 16.0849 34.0676 16.6096 33.4204 16.6096Z" fill="#2476B3"/>
<path d="M10.7642 18.9534C4.94861 18.9534 0.217285 23.6847 0.217285 29.5002C0.217285 35.3158 4.94861 40.0471 10.7642 40.0471C16.5797 40.0471 21.311 35.3158 21.311 29.5002C21.311 23.6847 16.5797 18.9534 10.7642 18.9534ZM10.1131 28.3284H11.4153C12.7793 28.3284 13.8892 29.4382 13.8892 30.8024V32.1044C13.8892 33.2899 13.0509 34.2828 11.936 34.5227V34.969C11.936 35.6162 11.4113 36.1409 10.7642 36.1409C10.117 36.1409 9.59229 35.6162 9.59229 34.969V34.5227C8.47744 34.2828 7.63916 33.2899 7.63916 32.1044C7.63916 31.4572 8.16385 30.9325 8.81104 30.9325C9.45822 30.9325 9.98291 31.4572 9.98291 32.1044C9.98297 32.1389 9.99671 32.172 10.0211 32.1964C10.0455 32.2208 10.0786 32.2346 10.1131 32.2346H11.4153C11.4498 32.2346 11.4829 32.2208 11.5073 32.1964C11.5317 32.172 11.5454 32.1389 11.5455 32.1044V30.8024C11.5454 30.7678 11.5317 30.7347 11.5073 30.7103C11.4829 30.6859 11.4498 30.6722 11.4153 30.6721H10.1131C8.749 30.6721 7.63916 29.5623 7.63916 28.1981V26.8961C7.63916 25.7106 8.47744 24.7177 9.59229 24.4777V24.0315C9.59229 23.3843 10.117 22.8596 10.7642 22.8596C11.4113 22.8596 11.936 23.3843 11.936 24.0315V24.4777C13.0509 24.7177 13.8892 25.7106 13.8892 26.8961C13.8892 27.5433 13.3645 28.068 12.7173 28.068C12.0701 28.068 11.5454 27.5433 11.5454 26.8961C11.5453 26.8616 11.5316 26.8285 11.5072 26.8041C11.4828 26.7797 11.4497 26.7659 11.4152 26.7659H10.1131C10.0785 26.7659 10.0455 26.7797 10.021 26.8041C9.99663 26.8285 9.98289 26.8616 9.98283 26.8961V28.1981C9.98289 28.2327 9.99665 28.2658 10.0211 28.2902C10.0455 28.3146 10.0786 28.3283 10.1131 28.3284Z" fill="#2476B3"/>
</svg>
