<svg width="18" height="17" viewBox="0 0 18 17" fill="none" xmlns="http://www.w3.org/2000/svg">
<path d="M16.6628 7.06563L9.93262 7.06531C9.63542 7.06531 9.39453 7.30617 9.39453 7.60336V9.75336C9.39453 10.0505 9.63542 10.2914 9.93259 10.2914H13.7226C13.3076 11.3685 12.533 12.2704 11.5448 12.8436L13.1608 15.6411C15.7532 14.1418 17.2858 11.5112 17.2858 8.56642C17.2858 8.14712 17.2549 7.84738 17.1931 7.50987C17.1461 7.25345 16.9235 7.06563 16.6628 7.06563Z" fill="#167EE6"/>
<path d="M9.03558 13.5218C7.18081 13.5218 5.56162 12.5084 4.69199 11.0088L1.89453 12.6212C3.31814 15.0885 5.98501 16.75 9.03558 16.75C10.5321 16.75 11.9442 16.3471 13.1606 15.6449V15.6411L11.5445 12.8435C10.8053 13.2723 9.94988 13.5218 9.03558 13.5218Z" fill="#12B347"/>
<path d="M13.1602 15.6444V15.6406L11.5441 12.843C10.8049 13.2717 9.94952 13.5213 9.03516 13.5213V16.7496C10.5317 16.7496 11.9438 16.3466 13.1602 15.6444Z" fill="#0F993E"/>
<path d="M4.01342 8.4997C4.01342 7.58547 4.26292 6.73014 4.69156 5.99096L1.8941 4.37854C1.18805 5.59113 0.785156 6.99936 0.785156 8.4997C0.785156 10 1.18805 11.4083 1.8941 12.6209L4.69156 11.0084C4.26292 10.2693 4.01342 9.41394 4.01342 8.4997Z" fill="#FFD500"/>
<path d="M9.03558 3.47814C10.2451 3.47814 11.3561 3.90791 12.2238 4.62279C12.4379 4.79914 12.749 4.78641 12.9451 4.59031L14.4685 3.06696C14.691 2.84447 14.6751 2.48028 14.4375 2.27409C12.9836 1.01278 11.0919 0.249878 9.03558 0.249878C5.98501 0.249878 3.31814 1.91138 1.89453 4.37871L4.69199 5.99113C5.56162 4.49154 7.18081 3.47814 9.03558 3.47814Z" fill="#FF4B26"/>
<path d="M12.2234 4.6228C12.4375 4.79914 12.7487 4.78641 12.9447 4.59031L14.4681 3.06696C14.6905 2.84447 14.6747 2.48028 14.437 2.27409C12.9831 1.01274 11.0914 0.249878 9.03516 0.249878V3.47814C10.2446 3.47814 11.3556 3.90791 12.2234 4.6228Z" fill="#D93F21"/>
</svg>
