<svg width="76" height="64" viewBox="0 0 76 64" fill="none" xmlns="http://www.w3.org/2000/svg">
<path opacity="0.4" fill-rule="evenodd" clip-rule="evenodd" d="M0.848034 36.7083C-0.0639859 26.0243 14.3115 21.4837 22.5716 14.6245C29.5997 8.78831 35.5756 0.807274 44.7045 0.289516C54.1914 -0.248539 63.3224 4.76316 69.5053 11.9626C75.2848 18.6923 76.1701 27.8479 75.9812 36.7083C75.7975 45.3244 75.1399 54.9449 68.472 60.4229C62.0919 65.6646 52.9099 63.3897 44.7045 62.4038C37.837 61.5787 32.0108 58.8202 26.0459 55.3254C16.6769 49.8361 1.7701 47.5099 0.848034 36.7083Z" fill="#B0B0B0"/>
<g clip-path="url(#clip0_1410_15656)">
<path d="M41.1401 19.5362C40.5987 19.7122 40.2154 20.1924 40.1642 20.7583L39.4635 28.4764L32.3223 31.5267C31.7976 31.7519 31.459 32.2643 31.459 32.8347C31.459 33.405 31.7976 33.9176 32.3223 34.1414L39.4635 37.1917L40.1642 44.911C40.2165 45.4769 40.5997 45.9561 41.1401 46.1331C41.6815 46.3092 42.2753 46.1466 42.6507 45.7186L47.7665 39.8843L55.3431 41.6046C55.9002 41.7304 56.4762 41.5142 56.8104 41.052C56.9909 40.8035 57.0811 40.5116 57.0811 40.2187C57.0811 39.967 57.0142 39.715 56.8795 39.49L52.9001 32.8347L56.8795 26.1805C57.1712 25.6924 57.1445 25.0786 56.8104 24.6174C56.4762 24.1551 55.9002 23.9389 55.3431 24.0648L47.7665 25.785L42.6507 19.9507C42.2753 19.5229 41.6827 19.3602 41.1401 19.5362Z" fill="#3A4F39"/>
</g>
<defs>
<clipPath id="clip0_1410_15656">
<rect width="26.7368" height="26.7368" fill="white" transform="matrix(0 -1 1 0 30.8848 46.2031)"/>
</clipPath>
</defs>
</svg>
