<svg width="18" height="18" viewBox="0 0 18 18" fill="none" xmlns="http://www.w3.org/2000/svg">
<path d="M18 9.00023C18 4.02924 13.9706 0.00012207 9.00014 0.00012207C4.02948 0.00012207 0 4.02924 0 9.00023C0 13.9705 4.02948 17.9999 9.00014 17.9999C13.9706 17.9999 18 13.9705 18 9.00023Z" fill="#25B7D3"/>
<path d="M11.4377 13.0442C11.4134 13.0085 11.3771 12.9827 11.3354 12.9714C11.2937 12.9601 11.2493 12.964 11.2103 12.9825C10.3185 13.4047 9.30628 13.851 9.10761 13.89C9.09894 13.8819 9.09111 13.8729 9.08425 13.8633C9.05733 13.8268 9.04424 13.7792 9.04424 13.7176C9.04424 13.2132 9.42498 11.6786 10.1758 9.15668C10.8089 7.03778 10.8822 6.59906 10.8822 6.4534C10.8822 6.22855 10.7961 6.03855 10.6331 5.90392C10.4783 5.77626 10.262 5.71157 9.99028 5.71157C9.53828 5.71157 9.01441 5.88317 8.38871 6.2362C7.78239 6.57842 7.10619 7.15804 6.37902 7.95897C6.35141 7.98944 6.33497 8.02838 6.33239 8.06941C6.32981 8.11045 6.34124 8.15114 6.3648 8.18483C6.38837 8.21852 6.42268 8.24321 6.46212 8.25485C6.50155 8.26649 6.54376 8.2644 6.58185 8.24891C6.83714 8.14472 8.12014 7.61915 8.30716 7.50168C8.46029 7.40568 8.59285 7.35696 8.70118 7.35696C8.70507 7.35696 8.7084 7.35711 8.7112 7.35732C8.7125 7.36451 8.71374 7.37546 8.71374 7.39117C8.71374 7.50171 8.69099 7.63257 8.6464 7.77946C7.55311 11.3218 7.02166 13.4933 7.02166 14.4183C7.02166 14.7447 7.11239 15.0075 7.29128 15.1993C7.47358 15.3949 7.71948 15.4941 8.02215 15.4941C8.34471 15.4941 8.73728 15.3594 9.22226 15.0822C9.69156 14.814 10.4078 14.2241 11.4122 13.2785C11.4436 13.2489 11.4635 13.2091 11.4682 13.1661C11.4729 13.1231 11.4621 13.0799 11.4377 13.0442ZM11.4026 2.78159C11.224 2.59871 10.9953 2.50598 10.7232 2.50598C10.3843 2.50598 10.0892 2.63989 9.84611 2.904C9.60688 3.16375 9.48557 3.4825 9.48557 3.85134C9.48557 4.14277 9.57492 4.38428 9.75113 4.56912C9.92969 4.75675 10.1552 4.85188 10.4214 4.85188C10.7464 4.85188 11.0399 4.71046 11.2938 4.43155C11.5433 4.15754 11.6698 3.83538 11.6698 3.47404C11.6698 3.19637 11.5799 2.96342 11.4026 2.78159Z" fill="white"/>
</svg>
