<svg width="35" height="40" viewBox="0 0 35 40" fill="none" xmlns="http://www.w3.org/2000/svg">
<path d="M23.5071 11.2269L28.672 13.3968V17.1967L23.5071 15.0271V11.2269ZM29.0614 12.7136L33.9986 10.6392L29.0614 8.56471L24.1279 10.6392L29.0614 12.7136ZM11.6452 15.1789H8.26559V15.7417H11.6452V15.1789ZM9.45582 7.39432H6.59043V10.9021H9.45582V7.39432ZM9.20231 5.11604C13.6105 0.708146 20.6527 0.499162 25.3071 4.48893L22.6879 4.59916C22.1689 4.62104 22.211 5.40596 22.7209 5.37979L26.3467 5.22073C26.5171 5.19869 26.6575 5.01018 26.6516 4.82362L26.501 1.26541C26.4936 1.04979 26.31 0.882991 26.0969 0.891506C25.8802 0.900647 25.7149 1.08291 25.7222 1.29815L25.8325 3.90893C20.8694 -0.357557 13.3534 -0.139353 8.64762 4.56346C8.49699 4.71627 8.49699 4.96354 8.64762 5.11596C8.72126 5.18934 8.82098 5.23056 8.92495 5.23057C9.02891 5.23059 9.12864 5.1894 9.20231 5.11604ZM11.6452 19.4935H8.26559V20.0563H11.6452V19.4935ZM23.5071 28.5399L28.672 30.7095V26.9096L23.5071 24.7399V28.5399ZM29.0614 22.0778L24.1279 24.1515L29.0614 26.2267L33.9986 24.1515L29.0614 22.0778ZM29.4545 30.7095L34.6157 28.5399V24.7399L29.4545 26.9096V30.7095ZM29.4545 13.3968V17.1967L34.6157 15.0271V11.2269L29.4545 13.3968ZM15.473 30.0174V9.53229C15.473 9.04151 15.0763 8.6426 14.584 8.6426H10.2382V9.78174H13.9448C13.996 9.78168 14.0468 9.79174 14.0941 9.81136C14.1415 9.83097 14.1845 9.85975 14.2207 9.89604C14.2568 9.93232 14.2855 9.9754 14.305 10.0228C14.3245 10.0702 14.3344 10.121 14.3342 10.1722V29.3774C14.3342 29.593 14.1615 29.7679 13.9448 29.7679H2.10137C2.05012 29.768 1.99936 29.7579 1.95202 29.7383C1.90467 29.7187 1.86167 29.6899 1.82548 29.6536C1.7893 29.6173 1.76065 29.5742 1.74117 29.5268C1.72169 29.4794 1.71178 29.4286 1.71199 29.3774V10.1722C1.71199 9.95658 1.88465 9.78174 2.10137 9.78174H5.80793V8.6426H1.46223C0.969961 8.6426 0.573242 9.04151 0.573242 9.53229V30.0173C0.573242 30.5077 0.969961 30.9071 1.46223 30.9071H14.584C15.0763 30.9071 15.473 30.5078 15.473 30.0174ZM5.80801 11.0367C5.80801 11.3933 6.09816 11.6832 6.45457 11.6832H9.59176C9.94809 11.6832 10.2383 11.3934 10.2383 11.0367V10.5631H13.5555V28.9866H2.49082V10.5631H5.80801V11.0367ZM6.9027 22.922C6.7484 22.7699 6.50231 22.7714 6.35168 22.9249L4.86762 24.4252L4.28348 23.8422C3.92215 23.4795 3.36621 24.0306 3.73246 24.3947L4.59207 25.2547C4.62846 25.2913 4.67173 25.3203 4.71939 25.34C4.76705 25.3597 4.81814 25.3698 4.86972 25.3697C4.92131 25.3695 4.97235 25.3592 5.0199 25.3392C5.06745 25.3192 5.11057 25.29 5.14676 25.2532L6.90637 23.4745C7.05699 23.3209 7.05699 23.0736 6.9027 22.922ZM6.9027 18.6074C6.7484 18.4556 6.50231 18.4571 6.35168 18.6103L4.86762 20.1106L4.28348 19.5279C3.92215 19.1648 3.36637 19.716 3.73246 20.0804L4.59207 20.9404C4.6285 20.9769 4.67179 21.0058 4.71944 21.0255C4.76709 21.0452 4.81817 21.0552 4.86972 21.0551C4.92128 21.0549 4.9723 21.0446 5.01984 21.0247C5.06739 21.0047 5.11052 20.9756 5.14676 20.9389L6.90637 19.1599C7.05699 19.0067 7.05699 18.7591 6.9027 18.6074ZM7.48676 15.7803C7.48676 16.1899 7.82105 16.5231 8.22887 16.5231H11.6857C12.0971 16.5231 12.4277 16.1899 12.4277 15.7803V15.1403C12.4277 14.7307 12.0971 14.3975 11.6857 14.3975H8.22887C7.82113 14.3975 7.48676 14.7307 7.48676 15.1403V15.7803ZM7.48676 20.0948C7.48676 20.5044 7.82105 20.8376 8.22887 20.8376H11.6857C12.0971 20.8376 12.4277 20.5044 12.4277 20.0948V19.4545C12.4277 19.0453 12.0971 18.7121 11.6857 18.7121H8.22887C7.82113 18.7121 7.48676 19.0453 7.48676 19.4545V20.0948ZM7.48676 24.4093C7.48676 24.8189 7.82105 25.1517 8.22887 25.1517H11.6857C12.0971 25.1517 12.4277 24.8189 12.4277 24.4093V23.7687C12.4277 23.3595 12.0971 23.0263 11.6857 23.0263H8.22887C7.82113 23.0263 7.48676 23.3595 7.48676 23.7687V24.4093ZM4.86762 15.796L4.28348 15.2134C3.92199 14.8502 3.36637 15.4018 3.73246 15.7659L4.59207 16.6263C4.62858 16.6626 4.67189 16.6914 4.71953 16.711C4.76717 16.7306 4.81821 16.7406 4.86972 16.7405C4.92124 16.7404 4.97222 16.7301 5.01975 16.7102C5.06729 16.6904 5.11045 16.6613 5.14676 16.6248L6.90637 14.8453C7.26707 14.4796 6.71199 13.9304 6.35168 14.2961L4.86762 15.796ZM11.6452 23.808H8.26559V24.3704H11.6452V23.808ZM25.9867 34.8822C21.5785 39.2908 14.5363 39.4995 9.87824 35.5092L12.5011 35.3994C12.7142 35.3898 12.8832 35.208 12.8721 34.9924C12.8648 34.7774 12.6811 34.611 12.4681 34.6188L8.84231 34.7782L8.64762 34.8822C8.64762 34.8844 8.64395 34.8866 8.64395 34.8885C8.59113 34.9199 8.53168 35.0767 8.53371 35.1749L8.68434 38.7328C8.6927 38.9496 8.87223 39.112 9.09215 39.1071C9.30887 39.0976 9.47418 38.9157 9.46684 38.7001L9.3566 36.0897C14.3293 40.3685 21.8243 40.1267 26.5377 35.4351C26.5744 35.399 26.6035 35.356 26.6233 35.3085C26.6432 35.261 26.6534 35.2101 26.6534 35.1587C26.6534 35.1072 26.6432 35.0563 26.6233 35.0088C26.6035 34.9614 26.5744 34.9183 26.5377 34.8822C26.3871 34.7297 26.1373 34.7297 25.9867 34.8822Z" fill="#9F5F4F"/>
</svg>
