<svg width="36" height="39" viewBox="0 0 36 39" fill="none" xmlns="http://www.w3.org/2000/svg">
<path fill-rule="evenodd" clip-rule="evenodd" d="M13.0789 2.07334H5.20547L4.82031 0.89209H13.4625L13.0789 2.07334ZM13.4195 3.01084C13.6227 3.01084 13.8023 2.88037 13.8656 2.6874L14.4484 0.892871H16.2672C17.1727 0.892871 17.9094 1.62959 17.9094 2.53506V7.16006C17.6101 8.08552 17.458 9.05225 17.4586 10.0249C17.4586 11.2718 17.7 12.4796 18.1766 13.6187L15.907 18.5858C15.8367 18.7405 15.8547 18.921 15.9555 19.0577C16.0563 19.1944 16.2234 19.2671 16.3914 19.2452L17.9094 19.0554V22.9358C17.8852 22.9593 17.8625 22.9835 17.8398 23.0085C17.4648 22.6671 16.9289 22.5171 16.4031 22.6577C16.1977 22.7132 16.0125 22.8085 15.8539 22.9343L15.2414 20.6468C15.1352 20.2507 14.8805 19.9194 14.5234 19.7132C14.1664 19.5069 13.7516 19.4522 13.3555 19.5585C12.5352 19.7788 12.0469 20.6241 12.2664 21.4444L13.4328 25.7968C13.2328 25.7687 13.0242 25.7788 12.8195 25.8343C11.9992 26.0546 11.5109 26.8999 11.7305 27.7202L13.0211 32.5358C13.1625 33.0624 13.3828 33.4187 13.6281 33.6804H11.6742L11.4359 31.9663C11.4203 31.8543 11.3647 31.7518 11.2794 31.6776C11.1942 31.6033 11.0849 31.5624 10.9719 31.5624H7.3125C7.19933 31.5625 7.09 31.6035 7.00471 31.6779C6.91941 31.7522 6.8639 31.855 6.84844 31.9671L6.61016 33.6812H2.01719C1.11172 33.6812 0.375 32.9444 0.375 32.039V2.53506C0.375 1.62959 1.11172 0.892871 2.01719 0.892871H3.83359L4.41953 2.68818C4.45027 2.78204 4.50988 2.86379 4.58986 2.92173C4.66984 2.97968 4.76608 3.01087 4.86484 3.01084H13.4195ZM12.2766 9.11787L12.1375 6.71475C12.1306 6.59534 12.0783 6.4831 11.9912 6.40103C11.9042 6.31896 11.7891 6.27328 11.6695 6.27334H10.0852V6.246C10.0852 5.09365 9.14766 4.15537 7.99453 4.15537C6.84219 4.15537 5.90391 5.09287 5.90391 6.246V6.27256H4.32031C4.07188 6.27256 3.86641 6.46631 3.85234 6.71397L3.4625 13.4405C3.43672 13.8835 3.59531 14.3108 3.90938 14.6437C4.24141 14.9952 4.70859 15.1968 5.19063 15.1968H5.82031L5.75703 16.2851C5.73125 16.728 5.88984 17.1554 6.20469 17.4882C6.53672 17.8397 7.00391 18.0413 7.48594 18.0413H13.0945C13.5766 18.0413 14.0438 17.8397 14.3758 17.4882C14.6898 17.1554 14.8484 16.728 14.8227 16.2851L14.4328 9.55928C14.426 9.43983 14.3737 9.32751 14.2867 9.24541C14.1997 9.16332 14.0845 9.11768 13.9648 9.11787H12.2766ZM6.18984 23.5507C5.93125 23.5507 5.72109 23.7608 5.72109 24.0194C5.72109 24.278 5.93125 24.4882 6.18984 24.4882H11.8641C12.1227 24.4882 12.3328 24.278 12.3328 24.0194C12.3328 23.7608 12.1227 23.5507 11.8641 23.5507H6.18984ZM11.0508 28.6554H6.18984C5.93125 28.6554 5.72109 28.8655 5.72109 29.1241C5.72109 29.3827 5.93125 29.5929 6.18984 29.5929H11.0508C11.3094 29.5929 11.5195 29.3835 11.5195 29.1241C11.5195 28.8655 11.3094 28.6554 11.0508 28.6554ZM6.18984 20.9983C5.93125 20.9983 5.72109 21.2085 5.72109 21.4671C5.72109 21.7257 5.93125 21.9358 6.18984 21.9358H11.1945C11.4531 21.9358 11.6633 21.7257 11.6633 21.4671C11.6633 21.2085 11.4531 20.9983 11.1945 20.9983H6.18984ZM5.72109 26.5718C5.72109 26.8304 5.93125 27.0405 6.18984 27.0405H10.7234C10.982 27.0405 11.1922 26.8312 11.1922 26.5718C11.1922 26.3132 10.982 26.103 10.7234 26.103H6.18984C5.93047 26.103 5.72109 26.3124 5.72109 26.5718ZM4.34453 26.103H2.22578C1.96719 26.103 1.75703 26.3124 1.75703 26.5718C1.75703 26.8304 1.96719 27.0405 2.22578 27.0405H4.34531C4.46963 27.0404 4.58882 26.9909 4.67666 26.903C4.76449 26.815 4.81378 26.6957 4.81367 26.5714C4.81357 26.4471 4.76408 26.3279 4.6761 26.24C4.58812 26.1522 4.46885 26.1029 4.34453 26.103ZM2.22578 28.6554C1.96719 28.6554 1.75703 28.8655 1.75703 29.1241C1.75703 29.3827 1.96719 29.5929 2.22578 29.5929H4.34531C4.60391 29.5929 4.81406 29.3835 4.81406 29.1241C4.81406 28.8655 4.60391 28.6554 4.34531 28.6554H2.22578ZM4.81406 24.0194C4.81406 23.7608 4.60391 23.5507 4.34531 23.5507H2.22578C1.96719 23.5507 1.75703 23.7608 1.75703 24.0194C1.75703 24.278 1.96719 24.4882 2.22578 24.4882H4.34531C4.60391 24.4882 4.81406 24.278 4.81406 24.0194ZM4.34453 20.9983H2.22578C1.96719 20.9983 1.75703 21.2085 1.75703 21.4671C1.75703 21.7257 1.96719 21.9358 2.22578 21.9358H4.34531C4.60391 21.9358 4.81406 21.7257 4.81406 21.4671C4.81406 21.2085 4.60391 20.9983 4.34453 20.9983ZM6.37344 7.87256C6.11484 7.87256 5.90469 7.6624 5.90469 7.40381V7.21006H4.7625L4.39844 13.4944C4.38828 13.6772 4.45625 13.8562 4.59141 13.9999C4.74688 14.1647 4.96563 14.2593 5.19063 14.2593H5.87422L6.14688 9.55928C6.15367 9.43983 6.20595 9.32751 6.29299 9.24541C6.38002 9.16332 6.4952 9.11768 6.61484 9.11787H11.3375L11.2266 7.21006H10.0844V7.40381C10.0844 7.6624 9.87422 7.87256 9.61563 7.87256C9.35703 7.87256 9.14688 7.6624 9.14688 7.40381V7.21006H6.84141V7.40381C6.84219 7.6624 6.63203 7.87256 6.37344 7.87256ZM6.84219 6.27256H9.14766V6.246C9.14766 5.61006 8.63047 5.09365 7.99453 5.09365C7.35859 5.09365 6.84141 5.61084 6.84141 6.246V6.27256H6.84219ZM13.5219 10.0554L13.8859 16.3397C13.8969 16.5226 13.8281 16.7015 13.693 16.8452C13.6159 16.9268 13.523 16.9919 13.42 17.0365C13.317 17.0811 13.206 17.1042 13.0938 17.1046H7.48516C7.25938 17.1046 7.04141 17.0101 6.88594 16.8452C6.75078 16.7022 6.68203 16.5226 6.69297 16.3397L7.05703 10.0554H13.5219ZM10.2898 13.3655C9.65391 13.3655 9.13672 12.8483 9.13672 12.2132V11.0554C9.13672 10.7968 8.92656 10.5866 8.66797 10.5866C8.40938 10.5866 8.19922 10.7968 8.19922 11.0554V12.2132C8.19922 13.3655 9.13672 14.303 10.2898 14.303C11.4422 14.303 12.3797 13.3655 12.3797 12.2132V11.0554C12.3797 10.7968 12.1695 10.5866 11.9109 10.5866C11.6523 10.5866 11.4422 10.7968 11.4422 11.0554V12.2132C11.4422 12.8483 10.925 13.3655 10.2898 13.3655ZM11.9594 15.3694C11.7008 15.3694 11.4938 15.5788 11.4938 15.8382C11.4938 16.0968 11.707 16.3069 11.9656 16.3069C12.2242 16.3069 12.4344 16.0976 12.4344 15.8382C12.4344 15.5788 12.2242 15.3694 11.9656 15.3694H11.9594ZM8.61953 15.3694H8.61328C8.35469 15.3694 8.14766 15.5788 8.14766 15.8382C8.14766 16.0968 8.36094 16.3069 8.61953 16.3069C8.87813 16.3069 9.08828 16.0976 9.08828 15.8382C9.08828 15.5788 8.87813 15.3694 8.61953 15.3694ZM10.2867 15.3694C10.0281 15.3694 9.82109 15.5788 9.82109 15.8382C9.82109 16.0968 10.0344 16.3069 10.293 16.3069C10.5516 16.3069 10.7617 16.0976 10.7617 15.8382C10.7617 15.5788 10.5516 15.3694 10.293 15.3694H10.2867ZM23.4102 6.43896C23.3817 6.34168 23.3225 6.25626 23.2413 6.19554C23.1602 6.13482 23.0615 6.10208 22.9602 6.10225H21.3844C21.1258 6.10225 20.9156 6.3124 20.9156 6.571C20.9156 6.82959 21.1258 7.03975 21.3844 7.03975H22.6086L22.8469 7.85381L24.1086 12.1663C23.6766 12.3687 23.375 12.8062 23.375 13.314C23.375 14.0124 23.943 14.5812 24.6422 14.5812H24.9922C24.8439 14.7877 24.7641 15.0355 24.7641 15.2897C24.7641 15.9632 25.3125 16.5116 25.9859 16.5116C26.6594 16.5116 27.2078 15.964 27.2078 15.2897C27.2078 15.0257 27.1227 14.7812 26.9797 14.5812H28.0477C27.8994 14.7877 27.8196 15.0355 27.8195 15.2897C27.8195 15.9632 28.368 16.5116 29.0414 16.5116C29.7156 16.5116 30.2633 15.964 30.2633 15.2897C30.2633 15.0257 30.1781 14.7812 30.0352 14.5812H30.3281C30.5867 14.5812 30.7969 14.3718 30.7969 14.1124C30.7969 13.853 30.5867 13.6437 30.3281 13.6437H24.6414C24.4625 13.6437 24.3117 13.4929 24.3117 13.314C24.3117 13.1351 24.4625 12.9843 24.6414 12.9843C24.6531 12.9843 24.6648 12.9835 24.6766 12.9827C24.6836 12.9827 24.6906 12.9843 24.6984 12.9843H30.3289C30.5367 12.9843 30.7203 12.8468 30.7789 12.6468L32.1813 7.85303C32.2227 7.71162 32.1953 7.5585 32.107 7.44053C32.0633 7.38236 32.0067 7.33514 31.9416 7.3026C31.8765 7.27006 31.8048 7.25309 31.732 7.25303H23.6484L23.4102 6.43896ZM35.175 10.0241C35.175 14.6499 31.4117 18.414 26.7859 18.414C25.4789 18.414 24.2258 18.121 23.0625 17.5437C22.9977 17.5116 22.9258 17.4952 22.8539 17.4952C22.8344 17.4952 22.8148 17.4968 22.7961 17.4983L17.1102 18.2101L19.1172 13.8179C19.1734 13.6952 19.1734 13.5554 19.1188 13.4327C18.6398 12.3577 18.3969 11.2108 18.3969 10.0241C18.3969 5.39834 22.1602 1.63506 26.7859 1.63506C31.4109 1.63506 35.175 5.39834 35.175 10.0241ZM31.1078 8.19053H23.9234L25.0516 12.0468H29.9789L31.1078 8.19053ZM26.2719 15.289C26.2719 15.2135 26.2419 15.1412 26.1886 15.0879C26.1353 15.0346 26.0629 15.0046 25.9875 15.0046C25.9121 15.0046 25.8398 15.0346 25.7864 15.0879C25.7331 15.1412 25.7031 15.2135 25.7031 15.289C25.7031 15.3644 25.7331 15.4367 25.7864 15.49C25.8398 15.5434 25.9121 15.5733 25.9875 15.5733C26.0629 15.5733 26.1353 15.5434 26.1886 15.49C26.2419 15.4367 26.2719 15.3644 26.2719 15.289ZM29.043 15.0046C28.9867 15.0046 28.9317 15.0213 28.885 15.0525C28.8382 15.0838 28.8018 15.1282 28.7802 15.1801C28.7587 15.2321 28.7531 15.2893 28.7641 15.3444C28.775 15.3996 28.8021 15.4503 28.8419 15.49C28.8817 15.5298 28.9323 15.5569 28.9875 15.5679C29.0427 15.5788 29.0998 15.5732 29.1518 15.5517C29.2038 15.5302 29.2482 15.4937 29.2794 15.447C29.3107 15.4002 29.3273 15.3452 29.3273 15.289C29.3273 15.1327 29.2 15.0046 29.043 15.0046ZM23.1906 29.1093L21.8828 24.2288C21.7969 23.9085 21.4656 23.7171 21.1453 23.803C20.8336 23.8866 20.6406 24.2101 20.7156 24.5233C20.7164 24.5257 20.7164 24.528 20.7172 24.5304L21.0164 25.6476C21.0486 25.7676 21.0318 25.8956 20.9697 26.0033C20.9076 26.111 20.8052 26.1896 20.6852 26.2218C20.5651 26.254 20.4371 26.2372 20.3294 26.1751C20.2218 26.113 20.1432 26.0106 20.1109 25.8905L19.5703 23.8726C19.4844 23.5515 19.1539 23.3608 18.8328 23.4468C18.5211 23.5304 18.3281 23.8538 18.4023 24.1671C18.4031 24.1694 18.4031 24.1718 18.4039 24.1741L18.9469 26.2015C18.9791 26.3215 18.9623 26.4495 18.9002 26.5572C18.8381 26.6649 18.7357 26.7435 18.6156 26.7757C18.4956 26.8079 18.3676 26.7911 18.2599 26.729C18.1522 26.6669 18.0736 26.5645 18.0414 26.4444L17.3828 23.9882C17.2969 23.6679 16.9664 23.4765 16.6453 23.5624C16.332 23.6468 16.1391 23.971 16.2156 24.2858C16.2164 24.2874 16.2164 24.2897 16.2172 24.2913L16.8773 26.7554C16.9096 26.8754 16.8928 27.0034 16.8306 27.1111C16.7685 27.2188 16.6662 27.2974 16.5461 27.3296C16.426 27.3618 16.2981 27.345 16.1904 27.2829C16.0827 27.2208 16.0041 27.1184 15.9719 26.9983L14.3344 20.8874C14.2484 20.5663 13.918 20.3757 13.5969 20.4616C13.2766 20.5476 13.0852 20.8788 13.1711 21.1991L15.4109 29.5585C15.4269 29.6179 15.431 29.68 15.423 29.741C15.415 29.802 15.395 29.8609 15.3642 29.9142C15.3335 29.9675 15.2925 30.0143 15.2437 30.0518C15.1949 30.0893 15.1391 30.1168 15.0797 30.1327C15.0202 30.1487 14.9582 30.1528 14.8972 30.1447C14.8362 30.1367 14.7773 30.1168 14.724 30.086C14.6707 30.0553 14.6239 30.0143 14.5864 29.9655C14.5489 29.9166 14.5214 29.8609 14.5055 29.8015L13.7945 27.1491C13.793 27.1459 13.792 27.1425 13.7914 27.139C13.7828 27.1116 13.7719 27.0851 13.7602 27.0593C13.6344 26.7983 13.3406 26.6624 13.0609 26.7374C12.7406 26.8233 12.5492 27.1546 12.6352 27.4749L13.9258 32.2897C14.1148 32.9976 14.4445 33.1936 14.9008 33.4655C15.3484 33.7319 15.8938 34.0601 16.2047 34.9124L22.7031 33.171C22.5688 32.396 22.8148 31.9444 23.0359 31.5429C23.3031 31.0608 23.5797 30.5593 23.1906 29.1093ZM24.325 33.7101L15.0695 36.1897L15.5898 38.1304L24.8453 35.6507L24.325 33.7101ZM10.7281 33.6788L10.5641 32.4983H7.72109L7.55703 33.6788H10.7281Z" fill="#2B92BB"/>
</svg>
