<svg width="26" height="33" viewBox="0 0 26 33" fill="none" xmlns="http://www.w3.org/2000/svg">
<path d="M18.625 17.5V9.875C18.625 6.77319 16.1018 4.25 13 4.25C9.89819 4.25 7.375 6.77319 7.375 9.875V17.5H3.625V9.875C3.625 4.70594 7.83094 0.5 13 0.5C18.1691 0.5 22.375 4.70594 22.375 9.875V17.5H18.625Z" fill="#C4CAD9"/>
<path d="M18.625 9.875V17.5H22.375V9.875C22.375 4.70594 18.1691 0.5 13 0.5V4.25C16.1018 4.25 18.625 6.77319 18.625 9.875Z" fill="#BBC2CD"/>
<path d="M22.375 32.5H3.625C2.07413 32.5 0.8125 31.2384 0.8125 29.6875V18.4375C0.8125 16.8866 2.07413 15.625 3.625 15.625H22.375C23.9259 15.625 25.1875 16.8866 25.1875 18.4375V29.6875C25.1875 31.2384 23.9259 32.5 22.375 32.5Z" fill="#FCB33B"/>
<path d="M22.375 15.625H13V32.5H22.375C23.9259 32.5 25.1875 31.2384 25.1875 29.6875V18.4375C25.1875 16.8866 23.9259 15.625 22.375 15.625Z" fill="#F69838"/>
<path d="M15.8125 22.1875C15.8125 20.6366 14.5509 19.375 13 19.375C11.4491 19.375 10.1875 20.6366 10.1875 22.1875C10.1875 23.4088 10.9735 24.4397 12.0625 24.8279V27.8125C12.0625 28.3307 12.4818 28.75 13 28.75C13.5182 28.75 13.9375 28.3307 13.9375 27.8125V24.8279C15.0265 24.4397 15.8125 23.4088 15.8125 22.1875Z" fill="#5C5F66"/>
<path d="M13.9375 27.8125V24.8279C15.0265 24.4397 15.8125 23.4088 15.8125 22.1875C15.8125 20.6366 14.5509 19.375 13 19.375V28.75C13.5182 28.75 13.9375 28.3307 13.9375 27.8125Z" fill="#53565C"/>
</svg>
