<svg width="56" height="52" viewBox="0 0 56 52" fill="none" xmlns="http://www.w3.org/2000/svg">
<path d="M40.1756 8.29706C40.1753 8.16564 40.214 8.03708 40.2867 7.92763C40.3594 7.81819 40.463 7.73277 40.5843 7.68218C40.7056 7.63159 40.8391 7.6181 40.9681 7.64342C41.097 7.66874 41.2156 7.73173 41.3088 7.82442C41.4019 7.91712 41.4655 8.03536 41.4914 8.16418C41.5174 8.29301 41.5046 8.42664 41.4546 8.54818C41.4046 8.66972 41.3197 8.7737 41.2106 8.84698C41.1015 8.92026 40.9731 8.95955 40.8417 8.95987C40.6655 8.96013 40.4965 8.89049 40.3716 8.76623C40.2467 8.64196 40.1762 8.47323 40.1756 8.29706ZM45.4767 13.595C45.4767 13.7261 45.5155 13.8543 45.5883 13.9633C45.6611 14.0724 45.7647 14.1574 45.8858 14.2076C46.0069 14.2578 46.1402 14.2709 46.2688 14.2454C46.3974 14.2198 46.5156 14.1567 46.6083 14.064C46.701 13.9713 46.7642 13.8532 46.7898 13.7246C46.8154 13.596 46.8023 13.4627 46.7521 13.3415C46.7019 13.2204 46.617 13.1169 46.5079 13.044C46.3989 12.9711 46.2707 12.9323 46.1396 12.9323C45.964 12.9329 45.7958 13.0029 45.6716 13.1271C45.5475 13.2512 45.4774 13.4194 45.4767 13.595ZM50.6462 37.8186C50.5657 37.5764 50.4375 37.3527 50.2691 37.1608C50.1008 36.9689 49.8958 36.8126 49.6662 36.7012C49.4487 36.5939 49.2118 36.5311 48.9697 36.5167C48.7275 36.5023 48.4849 36.5365 48.2561 36.6172L47.1136 37.0219C47.0356 37.3582 46.9451 37.6854 46.8385 38C46.606 38.6949 46.2858 39.3573 45.8857 39.9712L50.7444 38.2949C50.7319 38.1326 50.6989 37.9726 50.6462 37.8186ZM0.875 51.8723H6.39341V33.0226H0.875V51.8723ZM30.4969 11.6054C30.3984 11.2309 30.3849 10.8392 30.4574 10.4588C30.5299 10.0784 30.6865 9.71902 30.9158 9.407L32.2464 7.57453C32.3577 7.42918 32.4157 7.24994 32.4104 7.06692V4.79826C32.4111 4.69903 32.417 4.5999 32.4283 4.50131C32.0541 4.55528 31.6752 4.56994 31.298 4.54506C29.9154 4.64251 28.7231 4.15612 27.6683 3.72606C25.8162 2.97083 24.5581 2.45731 22.6261 4.69162L25.8865 11.6057L30.4969 11.6054ZM25.099 34.16C22.7485 32.253 20.1374 31.3143 17.1221 31.2882C17.6865 27.9741 18.9692 24.8236 20.8803 22.0579C23.0194 19.0179 25.5725 17.2745 27.8847 17.2745H32.4172C32.4512 17.7954 32.6412 18.2941 32.9624 18.7057C33.2836 19.1173 33.7212 19.4227 34.2183 19.5823L36.373 20.2828C36.5489 20.3357 36.7018 20.4464 36.807 20.597L38.1404 22.4344C38.3782 22.7685 38.6922 23.041 39.0565 23.2293C39.4207 23.4177 39.8246 23.5164 40.2347 23.5172C40.5167 23.5167 40.7969 23.4716 41.0648 23.3837L42.321 22.9772C45.2592 27.6699 46.4627 33.6555 45.181 37.4397C44.6148 39.1113 43.6028 40.3039 42.1695 40.997C41.8033 40.3868 41.2854 39.8818 40.6662 39.5311C40.047 39.1803 39.3476 38.9958 38.636 38.9954H34.6674C32.2363 38.9954 30.1363 38.2503 28.2477 36.7175L25.099 34.16ZM33.2467 32.6106C33.2467 33.5048 32.3724 34.2324 31.2975 34.2324C30.2227 34.2324 29.3483 33.5048 29.3483 32.6106C29.3483 32.3785 29.2561 32.1559 29.092 31.9919C28.9279 31.8278 28.7053 31.7356 28.4733 31.7356C28.2412 31.7356 28.0186 31.8278 27.8545 31.9919C27.6905 32.1559 27.5983 32.3785 27.5983 32.6106C27.5983 34.195 28.8038 35.527 30.4225 35.8862V36.6422C30.4225 36.8743 30.5147 37.0969 30.6788 37.261C30.8429 37.4251 31.0655 37.5172 31.2975 37.5172C31.5296 37.5172 31.7522 37.4251 31.9163 37.261C32.0804 37.0969 32.1725 36.8743 32.1725 36.6422V35.8866C33.7913 35.5273 34.9967 34.1953 34.9967 32.6109C34.9967 30.0014 32.8797 29.5558 31.4787 29.261C29.9005 28.9288 29.3483 28.715 29.3483 27.6203C29.3483 26.7278 30.2233 26.0016 31.2975 26.0016C32.3718 26.0016 33.2467 26.7276 33.2467 27.6203C33.2467 27.8524 33.3389 28.075 33.503 28.2391C33.6671 28.4032 33.8897 28.4953 34.1217 28.4953C34.3538 28.4953 34.5763 28.4032 34.7404 28.2391C34.9045 28.075 34.9967 27.8524 34.9967 27.6203C34.9967 26.0375 33.7913 24.7068 32.1725 24.3478V23.5923C32.1725 23.3602 32.0804 23.1377 31.9163 22.9736C31.7522 22.8095 31.5296 22.7173 31.2975 22.7173C31.0655 22.7173 30.8429 22.8095 30.6788 22.9736C30.5147 23.1377 30.4225 23.3602 30.4225 23.5923V24.3478C28.8038 24.7068 27.5983 26.0375 27.5983 27.6203C27.5983 30.2323 29.7165 30.6781 31.1182 30.9732C32.6949 31.3047 33.2467 31.5185 33.2467 32.6106ZM52.3516 39.5921L42.7529 42.9037C42.7565 42.9744 42.7583 43.0455 42.7584 43.117C42.7572 44.21 42.3225 45.2579 41.5496 46.0307C40.7768 46.8036 39.7289 47.2383 38.636 47.2396H24.8587C24.6267 47.2396 24.4041 47.1474 24.24 46.9833C24.0759 46.8192 23.9837 46.5967 23.9837 46.3646C23.9837 46.1325 24.0759 45.91 24.24 45.7459C24.4041 45.5818 24.6267 45.4896 24.8587 45.4896H38.636C39.2624 45.4853 39.8617 45.2335 40.3032 44.789C40.7446 44.3446 40.9924 43.7435 40.9924 43.1171C40.9924 42.4906 40.7446 41.8896 40.3032 41.4451C39.8617 41.0007 39.2624 40.7488 38.636 40.7446H34.6674C31.8185 40.7446 29.3578 39.8714 27.1448 38.0753L23.9962 35.5187C21.9369 33.848 19.6465 33.0359 16.9945 33.0359C14.9 33.0359 13.9195 33.5349 12.9712 34.0175C12.1174 34.4519 11.2347 34.9011 9.78841 34.9011H8.14341V49.9969H8.59447C9.70328 49.9867 10.8017 50.2111 11.8176 50.6555L13.0141 51.1695C13.8118 51.5237 14.6766 51.7014 15.5493 51.6905C16.1164 51.6905 16.9643 51.7044 17.946 51.7204C21.9779 51.786 29.482 51.9085 31.3861 51.2521L53.715 43.5468C53.9747 43.4572 54.2142 43.3174 54.4198 43.1354C54.6255 42.9533 54.7932 42.7325 54.9135 42.4856C55.0338 42.2387 55.1043 41.9705 55.121 41.6963C55.1376 41.4222 55.1001 41.1474 55.0106 40.8877C54.9211 40.6281 54.7813 40.3886 54.5992 40.183C54.4171 39.9773 54.1963 39.8096 53.9494 39.6893C53.7025 39.569 53.4343 39.4985 53.1601 39.4818C52.886 39.4652 52.6112 39.5027 52.3516 39.5922V39.5921ZM32.3296 10.4383L33.6634 8.60156C33.9916 8.15783 34.166 7.61912 34.1601 7.06725V4.79826C34.1565 4.61428 34.2131 4.43415 34.3213 4.28528C34.4295 4.1364 34.5833 4.02692 34.7594 3.97347L36.9173 3.27193C37.4442 3.10666 37.9026 2.7735 38.2224 2.32333L39.5546 0.491841C39.6595 0.340313 39.8111 0.227226 39.9863 0.16979C40.1614 0.112355 40.3506 0.113717 40.5249 0.173669L42.6796 0.873669C43.2043 1.04954 43.7719 1.04993 44.2969 0.874763L46.4535 0.173559C46.6276 0.113084 46.8167 0.111419 46.9918 0.168819C47.1668 0.22622 47.3182 0.339512 47.4227 0.491294L48.7542 2.32158C49.0752 2.77362 49.5359 3.10757 50.0653 3.27193L52.218 3.97292C52.3942 4.02627 52.5482 4.13573 52.6565 4.28463C52.7648 4.43354 52.8215 4.61374 52.818 4.79783V7.06725C52.8131 7.62013 52.989 8.15946 53.3189 8.6032L54.6521 10.4393C54.7627 10.5858 54.8225 10.7643 54.8225 10.9479C54.8225 11.1314 54.7627 11.31 54.6521 11.4565L53.3177 13.2906C52.9902 13.7362 52.8149 14.2755 52.8177 14.8285V17.0939C52.822 17.2781 52.7656 17.4586 52.6572 17.6076C52.5488 17.7566 52.3945 17.8659 52.2179 17.9187L50.0661 18.6194C49.5383 18.787 49.0786 19.1201 48.7549 19.5694L47.4214 21.4063C47.3162 21.5572 47.1644 21.6695 46.9893 21.7258C46.8141 21.7822 46.6254 21.7795 46.4519 21.7182L44.2985 21.0213C43.7737 20.8459 43.206 20.8459 42.6812 21.0213L40.5244 21.7193C40.3508 21.7796 40.1622 21.7816 39.9874 21.725C39.8125 21.6683 39.6609 21.5562 39.5556 21.4055L38.2212 19.568C37.8984 19.1209 37.4408 18.7889 36.9156 18.6207L34.7564 17.9172C34.5806 17.8641 34.4271 17.7547 34.3193 17.606C34.2116 17.4572 34.1557 17.2772 34.1601 17.0935V14.8285C34.1663 14.2746 33.9914 13.7339 33.662 13.2886L32.3287 11.4559C32.2171 11.3097 32.1567 11.1309 32.1569 10.947C32.157 10.763 32.2177 10.5843 32.3296 10.4383ZM46.1396 11.182C45.6619 11.1817 45.1949 11.3231 44.7976 11.5883C44.4003 11.8535 44.0906 12.2305 43.9076 12.6718C43.7247 13.113 43.6767 13.5987 43.7699 14.0672C43.863 14.5357 44.093 14.966 44.4307 15.3038C44.7685 15.6416 45.1989 15.8716 45.6674 15.9646C46.1359 16.0577 46.6215 16.0098 47.0628 15.8268C47.504 15.6438 47.8811 15.3341 48.1463 14.9368C48.4114 14.5395 48.5528 14.0724 48.5524 13.5947C48.5516 12.9551 48.2971 12.3419 47.8448 11.8897C47.3925 11.4374 46.7793 11.183 46.1396 11.1823V11.182ZM39.7653 14.5529C39.6965 14.6455 39.6468 14.7509 39.6189 14.8628C39.591 14.9748 39.5855 15.0912 39.6028 15.2052C39.6201 15.3193 39.6598 15.4289 39.7195 15.5275C39.7793 15.6262 39.858 15.7121 39.9511 15.7803C40.0442 15.8484 40.1498 15.8975 40.262 15.9247C40.3741 15.9518 40.4905 15.9565 40.6045 15.9385C40.7184 15.9205 40.8277 15.8802 40.926 15.8198C41.0243 15.7594 41.1097 15.6801 41.1773 15.5866L47.2127 7.34211C47.3498 7.15485 47.4069 6.9208 47.3714 6.69146C47.3359 6.46211 47.2107 6.25626 47.0235 6.11918C46.8362 5.98211 46.6022 5.92503 46.3728 5.96052C46.1435 5.996 45.9376 6.12114 45.8006 6.3084L39.7653 14.5529ZM38.4256 8.29662C38.4253 8.77416 38.5665 9.24108 38.8316 9.63833C39.0966 10.0356 39.4735 10.3453 39.9145 10.5284C40.3556 10.7114 40.841 10.7596 41.3094 10.6668C41.7779 10.5739 42.2082 10.3443 42.5462 10.0068C42.8841 9.66941 43.1143 9.23935 43.2078 8.77106C43.3013 8.30276 43.2538 7.81726 43.0714 7.37594C42.8889 6.93463 42.5797 6.55733 42.1828 6.29175C41.786 6.02617 41.3193 5.88424 40.8417 5.88392C40.2015 5.88421 39.5876 6.13845 39.1346 6.59085C38.6817 7.04326 38.4267 7.65687 38.4256 8.29706V8.29662ZM31.5465 13.355H25.3313C25.1879 13.3536 25.0457 13.3805 24.9129 13.4344C24.78 13.4883 24.6592 13.5679 24.5573 13.6688C24.4555 13.7696 24.3746 13.8897 24.3194 14.0219C24.2642 14.1542 24.2358 14.2962 24.2358 14.4395C24.2358 14.5828 24.2642 14.7248 24.3194 14.8571C24.3746 14.9894 24.4555 15.1094 24.5573 15.2102C24.6592 15.3111 24.78 15.3908 24.9129 15.4446C25.0457 15.4985 25.1879 15.5255 25.3313 15.524H32.4098V14.8285C32.4146 14.644 32.3565 14.4633 32.2451 14.3161L31.5465 13.355Z" fill="white"/>
</svg>
