<svg width="82" height="33" viewBox="0 0 82 33" fill="none" xmlns="http://www.w3.org/2000/svg">
<path d="M10.1938 17.5295H8.10899V19.4769H10.1938V17.5295ZM6.02466 15.5817V13.6342H3.93982V15.5817H6.02466V17.5295H8.10899V15.5817H6.02466ZM6.02466 17.5295H3.93982V19.4774H6.02466V17.5295ZM1.85549 13.6342H3.93982V11.6864H1.85549V13.6342ZM3.93982 15.5817H1.85549V17.5295H3.93982V15.5817ZM1.85549 9.73895H3.93982V7.79106H1.85549V9.73895ZM6.02466 5.84317H8.10899V3.89576H6.02415V5.84317H3.93982V7.79106H6.02466V5.84317ZM1.85498 5.84317H3.93931V3.89576H1.85498V5.84317ZM8.10899 3.89576H10.1938V1.94788H8.10899V3.89576Z" fill="white"/>
<path d="M3.93994 3.89576H6.02427V1.94788H3.93994V3.89576ZM70.6304 3.89576H72.7147V1.94835H70.6304V3.89576ZM74.7995 7.79106H76.8839V5.84365H74.7995V3.89576H72.7147V5.84365H74.7995V7.79106ZM74.7995 3.89576H76.8839V1.94788H74.7995V3.89576ZM76.8839 9.73895H78.9687V7.79106H76.8839V9.73895ZM78.9687 3.89576H76.8839V5.84317H78.9687V3.89576ZM78.9856 11.6864H76.9012V13.6342H78.9856V11.6864ZM74.8164 15.5821H72.7315V17.5295H74.8164V15.5821H76.9007V13.6342H74.8164V15.5821ZM78.9856 15.5821H76.9012V17.5295H78.9856V15.5821ZM72.7315 17.5295H70.6472V19.4774H72.7315V17.5295ZM76.9012 17.5295H74.8164V19.4774H76.9012V17.5295ZM78.2908 20.7757V20.1266H77.596V20.7757H78.2908ZM76.2059 20.7757V20.1266H75.5112V20.7757H76.2059ZM74.1216 20.7757V20.1266H73.4263V20.7757H74.1216ZM70.6467 20.7757H57.0968V21.4248H71.6891V20.7757H70.6467ZM72.0368 20.7757V20.1266H71.342V20.7757H72.0368ZM69.9519 20.7757V20.1266H69.2571V20.7757H69.9519ZM67.8676 20.7757V20.1266H67.1723V20.7757H67.8676ZM65.7828 20.7757V20.1266H65.088V20.7757H65.7828ZM63.6979 20.7757V20.1266H63.0031V20.7757H63.6979ZM60.9183 20.7757H61.6136V20.1266H60.9183V20.7757Z" fill="white"/>
<path d="M59.5287 20.1266H58.834V20.7757H59.5287V20.1266ZM56.0544 20.7757H42.5039V21.4249H57.0968V20.7757H56.0544ZM57.4439 20.7757V20.1266H56.7491V20.7757H57.4439ZM55.3596 20.7757V20.1266H54.6648V20.7757H55.3596ZM53.2747 20.7757V20.1266H52.58V20.7757H53.2747Z" fill="white"/>
<path d="M51.1899 20.1266H50.4951V20.7757H51.1899V20.1266ZM49.1056 20.1266H48.4108V20.7757H49.1056V20.1266ZM47.0207 20.7757V20.1266H46.326V20.7757H47.0207ZM44.2411 20.7757H44.9359V20.1266H44.2411V20.7757ZM41.4615 20.7757H27.9116V21.4249H42.5039V20.7757H41.4615ZM42.8516 20.7757V20.1266H42.1568V20.7757H42.8516ZM40.7667 20.7757V20.1266H40.0719V20.7757H40.7667ZM38.6824 20.7757V20.1266H37.9871V20.7757H38.6824ZM36.5975 20.7757V20.1266H35.9028V20.7757H36.5975ZM34.5127 20.7757V20.1266H33.8179V20.7757H34.5127ZM31.7331 20.7757H32.4279V20.1266H31.7331V20.7757ZM30.3435 20.7757V20.1266H29.6488V20.7757H30.3435ZM26.8691 20.7757H13.3187V21.4249H27.9116V20.7757H26.8691ZM28.2587 20.7757V20.1266H27.5639V20.7757H28.2587ZM26.1744 20.7757V20.1266H25.4791V20.7757H26.1744ZM23.3947 20.7757H24.0895V20.1266H23.3947V20.7757ZM22.0047 20.7757V20.1266H21.3099V20.7757H22.0047ZM19.9203 20.7757V20.1266H19.2251V20.7757H19.9203ZM17.8355 20.7757V20.1266H17.1407V20.7757H17.8355ZM15.0559 20.7757H15.7507V20.1266H15.0559V20.7757ZM12.2763 20.7757H2.8955V21.4249H13.3187V20.7757H12.2763ZM13.6663 20.7757V20.1266H12.9715V20.7757H13.6663ZM11.5815 20.7757V20.1266H10.8867V20.7757H11.5815ZM9.49664 20.7757V20.1266H8.80187V20.7757H9.49664ZM7.41231 20.7757V20.1266H6.71754V20.7757H7.41231ZM5.32747 20.7757V20.1266H4.63269V20.7757H5.32747ZM3.24263 20.7757V20.1266H2.54785V20.7757H3.24263ZM4.97983 0.649625H11.2338V0.000488281H2.8955V0.649625H4.97983ZM4.63269 1.29876H5.32747V0.649625H4.63269V1.29876ZM6.71702 0.649625V1.29876H7.4118V0.649625H6.71702ZM8.80187 1.29876H9.49664V0.649625H8.80187V1.29876Z" fill="white"/>
<path d="M12.2763 0.649625H25.8267V0.000488281H11.2339V0.649625H12.2763ZM11.5815 0.649625H10.8867V1.29876H11.5815V0.649625ZM12.971 1.29876H13.6658V0.649625H12.971V1.29876ZM15.0559 1.29876H15.7507V0.649625H15.0559V1.29876ZM17.1407 1.29876H17.8355V0.649625H17.1407V1.29876ZM19.9198 0.649625H19.2251V1.29876H19.9198V0.649625ZM21.3099 0.649625V1.29876H22.0047V0.649625H21.3099ZM23.3942 1.29876H24.0895V0.649625H23.3942V1.29876ZM26.8691 0.649625H33.8179V1.29876H34.5127V0.649625H40.4191L40.4196 0.000488281H25.8267V0.649625H26.8691Z" fill="white"/>
<path d="M25.479 1.29875H26.1738V0.649614H25.479V1.29875ZM27.5638 1.29875H28.2586V0.649614H27.5638V1.29875ZM29.6487 1.29875H30.3435V0.649614H29.6487V1.29875ZM31.733 1.29875H32.4278V0.649614H31.733V1.29875ZM36.5975 1.29875V0.649614H35.9022V1.29875H36.5975ZM37.987 1.29875H38.6818V0.649614H37.987V1.29875ZM41.4614 0.649614H55.0119V0.000476956H40.419V0.649614H41.4614ZM40.0719 1.29875H40.7667V0.649614H40.0719V1.29875ZM42.1562 1.29875H42.851V0.649614H42.1562V1.29875ZM44.9358 0.649614H44.241V1.29875H44.9358V0.649614ZM46.3259 1.29875H47.0207V0.649614H46.3259V1.29875ZM49.1055 0.649614H48.4102V1.29875H49.1055V0.649614ZM51.1898 0.649614H50.4951V1.29875H51.1898V0.649614ZM52.5799 1.29875H53.2747V0.649614H52.5799V1.29875ZM56.0543 0.649614H67.5199H67.1723V1.29875H67.867V0.649614H69.2571V1.29875H69.9519V0.649614H77.9431H77.596V1.29875H78.2907V0.650091H80.3587V3.05967H81.0535V0L81.053 0.000476956H69.6047V0.649614H69.6042L69.6047 0.000476956H55.0119V0.649614H56.0543Z" fill="white"/>
<path d="M54.6643 0.649658V1.29879H55.3591V0.649658H54.6643ZM56.7491 1.29879H57.4439V0.649658H56.7491V1.29879ZM59.5288 0.649658H58.834V1.29879H59.5288V0.649658ZM61.6131 0.649658H60.9183V1.29879H61.6131V0.649658ZM63.0031 0.649658V1.29879H63.6979V0.649658H63.0031ZM65.7828 0.649658H65.088V1.29879H65.7828V0.649658ZM72.0368 1.29879V0.649658H71.342V1.29879H72.0368ZM73.4263 1.29879H74.1211V0.649658H73.4263V1.29879ZM75.5112 1.29879H76.206V0.649658H75.5112V1.29879ZM0.00051049 20.7758V21.4249H2.89499V20.7758H0.694777H0.695287V18.8279H1.39006V18.1787H0.694777V18.5026V14.6078H0V18.5035H0.00051049V20.7758Z" fill="white"/>
<path d="M0.694777 16.8803H1.38955V16.2312H0.694777V16.8803ZM1.39006 14.2833H0.695288V14.9324H1.39006V14.2833ZM0.694777 12.6602V11.6863H0V14.6076H0.694777V12.6602ZM1.39006 12.3354H0.695288V12.9846H1.39006V12.3354Z" fill="white"/>
<path d="M0.694777 10.7125V2.92139H0V11.6864H0.694777V10.7125ZM1.39006 10.3876H0.695288V11.0373H1.39006V10.3876ZM1.39006 8.44024H0.695288V9.08938H1.39006V8.44024ZM1.39006 6.49235H0.695288V7.14149H1.39006V6.49235ZM1.39006 4.54494H0.695288V5.19408H1.39006V4.54494Z" fill="white"/>
<path d="M0 2.92088H0.694777V3.24616H1.39006V2.59702H0.695288V0.65009H2.54786V1.29875H3.24263V0.649613H2.8955V0.000476956H0.00102098L0 0V2.92088ZM80.3583 2.73534H79.6635V3.38448H80.3583V2.73534ZM80.3583 4.68275H79.6635V5.33189H80.3583V4.68275ZM80.3583 6.63064H79.6635V7.27977H80.3583V6.63064ZM80.3583 8.57805H79.6635V9.22766H80.3583V8.57805ZM80.3583 10.5259H79.6635V11.1751H80.3583V10.5259ZM80.3583 12.4738H79.6635V13.123H80.3583V12.4738ZM80.3583 14.4217H79.6635V15.0708H80.3583V14.4217ZM80.3583 16.3691H79.6635V17.0183H80.3583V16.3691Z" fill="white"/>
<path d="M81.0534 18.6414V3.05969H80.3581V18.6418H80.3586V20.7757H71.689V21.4249H81.0529V21.4244H81.0534V18.6414Z" fill="white"/>
<path d="M79.6635 18.9662H80.3583V18.317H79.6635V18.9662ZM33.1247 9.73849H41.462V11.714H33.1247V9.73849ZM47.7171 7.72192H47.2086C46.593 8.29713 46.2479 8.61955 45.6322 9.19476V11.714H43.5464V9.73897C42.7326 8.9787 42.2763 8.55183 41.4625 7.79251V7.79108H33.1247V3.92297H32.6163C32.0006 4.49771 31.6555 4.8206 31.0399 5.39534V11.714H28.955V7.72192H28.4466C27.8314 8.29666 27.4858 8.61955 26.8707 9.19429V11.714H24.7996V11.7136H20.4819V9.76616H24.7996V7.81875H20.4819C19.6677 8.57901 19.2118 9.00589 18.3976 9.76663V11.7136H16.4603V7.81827H15.9513C15.3362 8.39348 14.9911 8.7159 14.3754 9.29063V11.6878H12.3309V3.92297H11.8225C11.2068 4.49818 10.8617 4.8206 10.2466 5.39534V12.1214C10.8796 12.7123 11.2344 13.0438 11.8669 13.6352H15.1432V13.6615H31.0399V15.6089H31.5851C32.1859 15.0475 32.5233 14.7327 33.1247 14.1708V13.6615H47.7171V7.72192ZM58.1316 7.72192H57.6231L56.0472 9.19429V11.6878H53.9706V3.92297H53.4621C52.847 4.49818 52.5019 4.8206 51.8862 5.39534V13.6352H58.1316V7.72192ZM60.2164 7.81875H60.7249C61.34 7.24402 61.6851 6.92207 62.3007 6.34638V5.87086H60.2164V7.81875ZM47.7171 16.0849V15.6093H45.6322V17.5572H46.1412C46.7563 16.9825 47.1014 16.6601 47.7171 16.0849ZM28.9571 16.0849V15.6093H26.8727V17.5572H27.3812C27.9963 16.9825 28.3419 16.6601 28.9571 16.0849Z" fill="white"/>
<path d="M58.1311 5.87085H56.0468V7.81874H56.5553C57.1704 7.244 57.516 6.92206 58.1311 6.34637V5.87085ZM70.6473 11.7136H66.4695V9.76615H70.6473V7.81826H66.4695V7.81874C65.6553 8.579 65.1989 9.00588 64.3852 9.76662V11.7136H62.3003V7.81826H61.7919C61.1767 8.39347 60.8311 8.71589 60.216 9.29062V17.5567H60.7607C61.3615 16.9949 61.699 16.6801 62.3003 16.1182V13.6614H70.6473V11.7136ZM14.375 7.81826H14.8834C15.4991 7.24353 15.8442 6.92111 16.4593 6.3459V5.87085H14.375V7.81826Z" fill="white"/>
<path d="M70.6391 14.9598H66.4689V15.5813H70.6391V14.9598ZM60.224 3.91064V4.88793H62.3089V3.91064H61.7739V4.39905H61.534V3.91064H60.999V4.39905H60.759V3.91064H60.224ZM1.63714 24.5476C1.59988 24.5643 1.50901 24.5728 1.36454 24.5728C1.1823 24.5728 1.03068 24.5485 0.909693 24.4999C0.788197 24.4517 0.727959 24.3658 0.727959 24.2433C0.727959 24.1379 0.77084 24.0515 0.857113 23.9838C0.943386 23.9165 1.04957 23.8827 1.17566 23.8827C1.27827 23.8827 1.37628 23.9185 1.46919 23.99C1.54372 24.0448 1.5963 24.1221 1.62693 24.2213C1.65705 24.3205 1.67237 24.4102 1.67237 24.4903C1.67237 24.5161 1.66062 24.5347 1.63714 24.5476ZM2.09914 23.6008C1.96386 23.4467 1.75609 23.3695 1.47634 23.3695C1.22467 23.3695 0.987798 23.4277 0.766246 23.5436C0.544693 23.6599 0.367553 23.8035 0.234315 23.9743C0.101588 24.1455 0.0352238 24.3048 0.0352238 24.4526C0.0352238 24.5452 0.0561538 24.632 0.0980141 24.7121C0.139874 24.7922 0.19807 24.86 0.273112 24.9148C0.352238 24.974 0.451273 25.0193 0.570217 25.0507C0.689162 25.0827 0.811679 25.0984 0.93777 25.0984C1.03068 25.0984 1.12869 25.0879 1.2313 25.067C1.28746 25.0541 1.35841 25.0255 1.44469 24.9811C1.53096 24.9368 1.61366 24.8852 1.6933 24.8261C1.70248 24.9315 1.70248 25.0455 1.6933 25.1681C1.679 25.3961 1.64888 25.5353 1.60243 25.5859C1.56976 25.624 1.47378 25.6431 1.31553 25.6431C1.06335 25.6431 0.832609 25.5544 0.622798 25.377C0.60391 25.3603 0.58298 25.3517 0.560008 25.3517C0.503854 25.3517 0.431364 25.3794 0.343049 25.4342C0.254224 25.4891 0.175098 25.5501 0.105161 25.6178C0.0352238 25.6856 0 25.7361 0 25.7695C0 25.7948 0.0326714 25.833 0.0980141 25.8835C0.205217 25.9684 0.335903 26.0347 0.49007 26.0834C0.643728 26.1315 0.797896 26.1559 0.951554 26.1559C1.19404 26.1559 1.42529 26.1053 1.64429 26.0042C1.86329 25.9026 2.04298 25.7495 2.18286 25.5449C2.32273 25.3403 2.39267 25.0899 2.39267 24.7946C2.39267 24.5371 2.37786 24.3124 2.34723 24.1202C2.31711 23.928 2.23442 23.7549 2.09914 23.6008ZM4.84863 25.7094C4.97013 25.5725 5.03037 25.4237 5.03037 25.263C5.03037 24.9592 4.91194 24.7374 4.67405 24.5981C4.43565 24.4588 4.11149 24.3763 3.70105 24.3511L3.72913 24.0029H4.83485C4.8859 24.0029 4.93848 23.9704 4.99208 23.9046C5.04568 23.8393 5.1049 23.7515 5.17075 23.6418C5.2218 23.5493 5.24733 23.4792 5.24733 23.4329C5.24733 23.3948 5.22895 23.3757 5.19168 23.3757C5.14931 23.38 5.07938 23.3852 4.98136 23.3919C4.88386 23.3981 4.76236 23.4014 4.61789 23.4014H3.36566C3.3141 23.4014 3.28602 23.4224 3.28143 23.4644L3.16963 24.8323C3.16963 24.8662 3.18801 24.8829 3.22528 24.8829C3.58466 24.8829 3.85726 24.9263 4.0441 25.0131C4.23043 25.0994 4.32385 25.2291 4.32385 25.4023C4.32385 25.5039 4.30547 25.5673 4.26821 25.5926C4.22124 25.6221 4.15131 25.6369 4.05789 25.6369C3.92771 25.6369 3.79907 25.604 3.67349 25.5387C3.5474 25.4733 3.44938 25.3942 3.37944 25.3011C3.36056 25.2759 3.33758 25.263 3.30951 25.263C3.27224 25.263 3.21149 25.2854 3.12777 25.3298C3.04354 25.3741 2.96799 25.4266 2.90009 25.4881C2.83271 25.5492 2.79851 25.605 2.79851 25.6555C2.79851 25.7109 2.84649 25.7781 2.94195 25.8582C3.03742 25.9388 3.16249 26.008 3.31665 26.0671C3.47031 26.1263 3.63112 26.1559 3.79907 26.1559C3.99969 26.1559 4.1947 26.1158 4.38358 26.0357C4.57246 25.9555 4.72714 25.8468 4.84863 25.7094ZM8.82995 28.2745C8.86721 28.3146 8.89733 28.347 8.92081 28.3723C8.94379 28.3975 8.96267 28.4104 8.97646 28.4104C9.01423 28.4104 9.07141 28.3913 9.14798 28.3537C9.22507 28.3155 9.29398 28.2711 9.35473 28.2206C9.41497 28.1696 9.4456 28.1257 9.4456 28.0875C9.4456 28.037 9.39761 27.9735 9.30215 27.8977C9.20669 27.8214 9.13318 27.7837 9.08162 27.7837C9.04895 27.7837 8.98973 27.8075 8.90346 27.8562C8.81667 27.9048 8.75031 27.9545 8.70386 28.005C8.66659 27.9545 8.61299 27.9048 8.54305 27.8562C8.47311 27.8075 8.41951 27.7837 8.38225 27.7837C8.35417 27.7837 8.30261 27.8023 8.22808 27.8405C8.15355 27.8786 8.08718 27.923 8.02848 27.9735C7.97028 28.0241 7.94118 28.0684 7.94118 28.1066C7.94118 28.119 7.95548 28.1362 7.98304 28.1572C8.0392 28.191 8.08565 28.2287 8.12343 28.2711C8.16018 28.3131 8.19081 28.347 8.2143 28.3723C8.23727 28.3975 8.2582 28.4104 8.27709 28.4104C8.31895 28.4104 8.38888 28.3842 8.4869 28.3312C8.58491 28.2783 8.6574 28.2244 8.70386 28.1696C8.75031 28.1991 8.79217 28.2339 8.82995 28.2745ZM10.852 24.4083C10.7259 24.3239 10.5498 24.249 10.3236 24.1832C10.0975 24.1178 9.87696 24.0854 9.66256 24.0854C9.40119 24.0854 9.149 24.135 8.90703 24.2342C8.66404 24.3334 8.46801 24.4717 8.31895 24.6487C8.16988 24.8261 8.09535 25.0245 8.09535 25.2439C8.09535 25.531 8.21991 25.7495 8.46954 25.8997C8.71866 26.0495 9.03976 26.1244 9.4313 26.1244H9.99131V26.1749C9.99131 26.3609 9.89534 26.5012 9.70442 26.5961C9.51298 26.691 9.26795 26.7387 8.96982 26.7387C8.50783 26.7387 8.15355 26.6361 7.90647 26.4315C7.65888 26.2264 7.53534 25.9341 7.53534 25.5544L7.54249 25.2759C7.54249 25.242 7.52871 25.2253 7.50063 25.2253C7.43988 25.2253 7.35208 25.2453 7.23824 25.2854C7.12389 25.3255 7.01975 25.3727 6.92684 25.4275C6.83342 25.4829 6.77982 25.5353 6.76604 25.5859C6.76093 25.6112 6.75889 25.6832 6.75889 25.8015C6.75889 26.2741 6.93603 26.6342 7.29031 26.8808C7.6451 27.1279 8.12088 27.2514 8.71764 27.2514C9.11429 27.2514 9.46755 27.1894 9.77793 27.0649C10.0878 26.94 10.3303 26.7683 10.5054 26.5484C10.6805 26.329 10.7678 26.0843 10.7678 25.8139C10.7678 25.7466 10.756 25.6961 10.7331 25.6622C10.7096 25.6283 10.6606 25.6112 10.586 25.6112H9.98417C9.63448 25.6112 9.36137 25.5597 9.16534 25.4562C8.96982 25.3527 8.87181 25.1934 8.87181 24.9782C8.87181 24.8175 8.91367 24.7121 8.9979 24.6616C9.04435 24.632 9.09438 24.6129 9.14798 24.6043C9.20158 24.5962 9.26591 24.5919 9.34044 24.5919C9.47572 24.5919 9.62478 24.6181 9.78814 24.6711C9.95149 24.7236 10.1103 24.8008 10.2639 24.9024C10.2874 24.9148 10.3063 24.921 10.3201 24.921C10.3762 24.921 10.4508 24.8914 10.5442 24.8323C10.6371 24.7732 10.7213 24.7078 10.7958 24.6363C10.8704 24.5643 10.9076 24.5094 10.9076 24.4717C10.9076 24.4546 10.8893 24.4336 10.852 24.4083ZM15.1549 24.5762C14.917 24.3883 14.5576 24.2943 14.0773 24.2943H12.7061C12.603 24.2943 12.5346 24.2709 12.4993 24.2247C12.4646 24.1779 12.4473 24.0873 12.4473 23.9523C12.4473 23.927 12.433 23.9142 12.4049 23.9142C12.3442 23.9142 12.2548 23.9394 12.1359 23.99C12.0169 24.041 11.9108 24.0987 11.8173 24.1646C11.7239 24.2299 11.6775 24.2857 11.6775 24.332C11.6775 24.4674 11.703 24.5685 11.7545 24.6363C11.8056 24.7035 11.8863 24.7493 11.996 24.7722C12.1053 24.7956 12.2604 24.807 12.4611 24.807H13.6434C14.0027 24.807 14.2697 24.8671 14.4443 24.9878C14.6194 25.108 14.7164 25.3159 14.7348 25.6112H11.6775C11.6259 25.6112 11.5606 25.6422 11.4814 25.7032C11.4023 25.7643 11.3324 25.8339 11.2716 25.9121C11.2109 25.9903 11.1808 26.0504 11.1808 26.0929C11.1808 26.1139 11.1991 26.1244 11.2364 26.1244H14.7348C14.9354 26.1244 15.1059 26.0791 15.2458 25.988C15.3857 25.8973 15.4694 25.7972 15.4975 25.6875C15.5072 25.6493 15.5112 25.6112 15.5112 25.5735C15.5112 25.0965 15.3928 24.7641 15.1549 24.5762ZM27.1223 25.3264C27.0243 25.2716 26.9309 25.2081 26.8426 25.1366C26.7538 25.0646 26.6384 24.9802 26.496 24.8829C26.3541 24.786 26.2106 24.6992 26.0661 24.6234C26.2989 24.6067 26.5067 24.5981 26.6889 24.5981C26.9544 24.5981 27.1576 24.6181 27.2974 24.6582C27.4373 24.6983 27.5093 24.7775 27.5144 24.8957C27.5093 25.0436 27.3786 25.1872 27.1223 25.3264ZM17.9953 25.6112C17.7339 25.6112 17.5256 25.5606 17.3689 25.4595C17.2127 25.3579 17.1346 25.2081 17.1346 25.0097C17.1346 24.8747 17.1581 24.7775 17.2045 24.7183C17.2699 24.6382 17.3817 24.5981 17.5404 24.5981C17.7737 24.5981 17.9616 24.6921 18.104 24.88C18.2459 25.0679 18.322 25.3116 18.3312 25.6112H17.9953ZM34.4479 22.7709C34.3871 22.7709 34.2973 22.7962 34.1783 22.8467C34.0594 22.8973 33.9532 22.9555 33.8603 23.0208C33.7669 23.0866 33.7204 23.1424 33.7204 23.1887V25.6112H33.2375C33.0833 25.6112 32.9588 25.5988 32.8633 25.5735C32.7673 25.5482 32.7199 25.491 32.7199 25.4023V24.8008C32.7199 24.6191 32.7102 24.4736 32.6918 24.3639C32.6729 24.2542 32.6402 24.1698 32.5938 24.1107C32.58 24.0935 32.5631 24.0854 32.5448 24.0854C32.461 24.0854 32.3406 24.1212 32.1844 24.1927C32.0281 24.2647 31.9128 24.3387 31.8382 24.4145C31.8194 24.4312 31.8102 24.4503 31.8102 24.4712C31.8102 24.4841 31.8127 24.4927 31.8173 24.497C31.8684 24.5518 31.9021 24.6201 31.9184 24.7026C31.9347 24.7851 31.9434 24.8809 31.9434 24.9906V25.6112C31.7377 25.6112 31.584 25.5988 31.4814 25.5735C31.3788 25.5482 31.3272 25.491 31.3272 25.4023V24.3258C31.3272 24.3005 31.3135 24.2876 31.2854 24.2876C31.2246 24.2876 31.1348 24.3124 31.0158 24.3606C30.8969 24.4092 30.7897 24.466 30.6942 24.5318C30.5988 24.5972 30.5508 24.6549 30.5508 24.7059V25.6112C30.3456 25.6112 30.1914 25.5988 30.0888 25.5735C29.9862 25.5482 29.9351 25.491 29.9351 25.4023V24.3258C29.9351 24.3005 29.9208 24.2876 29.8933 24.2876C29.8325 24.2876 29.7427 24.3124 29.6237 24.3606C29.5048 24.4092 29.3976 24.466 29.3016 24.5318C29.2062 24.5972 29.1582 24.6549 29.1582 24.7059V25.6112H28.5359C28.1484 25.6112 27.8222 25.5754 27.5563 25.5039C27.7707 25.3603 27.9422 25.2158 28.0703 25.0698C28.199 24.9244 28.2628 24.7903 28.2628 24.6677C28.2628 24.2795 27.7635 24.0854 26.7655 24.0854C26.5603 24.0854 26.3515 24.0959 26.1396 24.1169C25.9273 24.1379 25.7675 24.1593 25.6603 24.1803C25.6133 24.2352 25.5516 24.311 25.475 24.4083C25.3979 24.5051 25.329 24.5981 25.2682 24.6868C25.2545 24.7035 25.2473 24.7207 25.2473 24.7374C25.2473 24.7503 25.2636 24.765 25.2963 24.7817C25.4597 24.8538 25.6159 24.9453 25.7649 25.0574C25.914 25.169 26.082 25.3054 26.2688 25.4657L26.3877 25.5673C26.2617 25.5883 26.1325 25.6007 25.9993 25.605C25.8665 25.6093 25.6833 25.6112 25.45 25.6112H19.1076V25.2568C19.1076 25.0331 19.0556 24.8323 18.9504 24.6549C18.8453 24.4779 18.6972 24.3387 18.5063 24.2371C18.3149 24.1359 18.0979 24.0854 17.8554 24.0854C17.594 24.0854 17.348 24.1388 17.1172 24.2466C16.8865 24.3544 16.7022 24.4999 16.5644 24.6835C16.4271 24.8671 16.3581 25.0689 16.3581 25.2883C16.3581 25.5754 16.4745 25.7867 16.7078 25.9217C16.9411 26.0566 17.2372 26.1244 17.5966 26.1244H18.3031C18.2893 26.1749 18.2541 26.2236 18.198 26.2698C18.1326 26.3209 18.0305 26.3586 17.8906 26.3838C17.7503 26.4091 17.6058 26.422 17.4567 26.422C17.1953 26.422 16.9064 26.3924 16.5889 26.3333C16.5052 26.3209 16.4327 26.307 16.3719 26.2923C16.3117 26.2775 16.2719 26.2698 16.253 26.2698C16.2019 26.2698 16.132 26.2975 16.0432 26.3524C15.9543 26.4072 15.8762 26.4683 15.8089 26.536C15.7415 26.6032 15.7073 26.6519 15.7073 26.6815C15.7073 26.7153 15.7726 26.7535 15.9033 26.7954C16.1647 26.8756 16.5261 26.9161 16.9881 26.9161C17.3 26.9161 17.5767 26.8908 17.8171 26.8398C18.0571 26.7892 18.2796 26.6962 18.4854 26.5613C18.6809 26.4344 18.8396 26.2889 18.9606 26.1244H25.0722C25.427 26.1244 25.6894 26.121 25.8594 26.1148C26.0299 26.1086 26.1978 26.0886 26.3632 26.0547C26.5286 26.0209 26.6981 25.966 26.8707 25.8902C27.0851 25.987 27.3219 26.0504 27.5808 26.08C27.8396 26.1096 28.1576 26.1244 28.5359 26.1244H29.3052C29.4359 26.1244 29.5548 26.0886 29.662 26.0166C29.7835 26.0886 29.9254 26.1244 30.0888 26.1244H30.6978C30.8285 26.1244 30.9474 26.0886 31.0546 26.0166C31.1756 26.0886 31.3181 26.1244 31.4814 26.1244H32.0899C32.1879 26.1244 32.2931 26.0948 32.4049 26.0357C32.5631 26.0948 32.7898 26.1244 33.0833 26.1244H33.8669C34.0114 26.1244 34.1436 26.0781 34.2626 25.9851C34.3815 25.8921 34.455 25.7929 34.4831 25.6875C34.4923 25.6493 34.4969 25.5606 34.4969 25.4213V22.8086C34.4969 22.7833 34.4805 22.7709 34.4479 22.7709ZM35.9941 22.7709C35.9334 22.7709 35.8436 22.7962 35.7246 22.8467C35.6057 22.8973 35.4995 22.9555 35.4066 23.0208C35.3132 23.0866 35.2667 23.1424 35.2667 23.1887V26.1053C35.2667 26.1349 35.283 26.1497 35.3157 26.1497C35.3713 26.1497 35.4586 26.1253 35.5781 26.0767C35.697 26.0285 35.8037 25.9703 35.8997 25.9026C35.9952 25.8353 36.0432 25.7762 36.0432 25.7252V22.8086C36.0432 22.7833 36.0268 22.7709 35.9941 22.7709ZM39.905 28.17C39.952 28.1991 39.9938 28.2339 40.0311 28.2745C40.0684 28.3146 40.099 28.347 40.122 28.3727C40.1455 28.398 40.1643 28.4104 40.1781 28.4104C40.2154 28.4104 40.2726 28.3913 40.3496 28.3537C40.4267 28.3155 40.4951 28.2711 40.5559 28.2206C40.6166 28.17 40.6468 28.1257 40.6468 28.0875C40.6468 28.037 40.5993 27.9735 40.5033 27.8977C40.4078 27.8214 40.3343 27.7837 40.2833 27.7837C40.2506 27.7837 40.1909 27.808 40.1046 27.8562C40.0183 27.9048 39.952 27.9545 39.905 28.005C39.8677 27.9545 39.8141 27.9048 39.7442 27.8562C39.6743 27.808 39.6207 27.7837 39.5834 27.7837C39.5553 27.7837 39.5038 27.8028 39.4292 27.8405C39.3547 27.8786 39.2883 27.923 39.2301 27.9735C39.1714 28.0241 39.1423 28.0684 39.1423 28.1066C39.1423 28.119 39.1566 28.1362 39.1847 28.1572C39.2404 28.191 39.2873 28.2287 39.3246 28.2711C39.3619 28.3131 39.392 28.347 39.4155 28.3727C39.4389 28.398 39.4599 28.4104 39.4782 28.4104C39.5206 28.4104 39.5905 28.3842 39.6881 28.3312C39.7861 28.2783 39.8586 28.2244 39.905 28.17ZM41.9133 23.9142C41.9317 23.9437 41.9551 23.9585 41.9832 23.9585C42.0205 23.9585 42.0812 23.9375 42.165 23.8951C42.2492 23.8531 42.3247 23.8035 42.3926 23.7463C42.46 23.6895 42.4942 23.6399 42.4942 23.5975C42.4942 23.5426 42.4416 23.4739 42.3365 23.3919C42.2318 23.3094 42.1512 23.2684 42.095 23.2684C42.0623 23.2684 42.0067 23.2893 41.9271 23.3313C41.8479 23.3738 41.7754 23.4224 41.7101 23.4773C41.6453 23.5321 41.6126 23.5808 41.6126 23.6227C41.6126 23.6399 41.6264 23.659 41.6545 23.68C41.7152 23.7177 41.7678 23.7591 41.8117 23.8035C41.8561 23.8479 41.8898 23.8846 41.9133 23.9142ZM49.1199 25.6112V24.807H50.8974C51.3073 24.807 51.6039 24.8671 51.7856 24.9878C51.9679 25.108 52.0588 25.3159 52.0588 25.6112H49.1199ZM52.8209 25.6875C52.8306 25.6536 52.8352 25.5988 52.8352 25.5229C52.8352 25.0627 52.7137 24.7426 52.4712 24.5633C52.2288 24.384 51.8602 24.2943 51.366 24.2943H49.3021C49.2322 24.2943 49.1852 24.2805 49.1617 24.2528C49.1388 24.2256 49.1245 24.1674 49.1199 24.0787L49.1127 22.8024C49.1127 22.7771 49.0964 22.7647 49.0642 22.7647C49.0035 22.7647 48.9136 22.79 48.7947 22.8405C48.6757 22.8911 48.5696 22.9493 48.4761 23.0146C48.3827 23.08 48.3363 23.1362 48.3363 23.1825V25.6112H43.2845C43.0746 25.6112 42.9322 25.5153 42.8577 25.3231C42.7832 25.1314 42.7459 24.9105 42.7459 24.6616C42.7459 24.5309 42.753 24.4207 42.7668 24.332C42.7668 24.3153 42.7576 24.3048 42.7387 24.3005C42.4769 24.2504 42.1777 24.2256 41.8433 24.2247H41.829C41.2205 24.2266 40.7514 24.332 40.4232 24.5414C40.0919 24.7522 39.9259 25.0331 39.9259 25.3837C39.9259 25.6198 40.0347 25.7981 40.2516 25.9188C40.4686 26.039 40.7591 26.1077 41.1225 26.1244V26.1749C41.1225 26.3609 41.0271 26.5012 40.8356 26.5961C40.6442 26.691 40.3997 26.7387 40.101 26.7387C39.6396 26.7387 39.2848 26.6361 39.0377 26.4315C38.7906 26.2264 38.6671 25.9345 38.6671 25.5544L38.6737 25.2759C38.6737 25.242 38.6599 25.2248 38.6318 25.2248C38.5711 25.2248 38.4838 25.2453 38.3695 25.2854C38.2551 25.3255 38.1515 25.3727 38.0581 25.4275C37.9646 25.4829 37.911 25.5353 37.8973 25.5859C37.8927 25.6112 37.8901 25.6832 37.8901 25.8015C37.8901 26.2741 38.0672 26.6342 38.422 26.8813C38.7763 27.1279 39.2521 27.2514 39.8494 27.2514C40.2363 27.2514 40.5865 27.1861 40.8989 27.0554C41.2114 26.9242 41.4559 26.7501 41.6335 26.5326C41.8107 26.3152 41.8995 26.0843 41.8995 25.8392C41.8995 25.7805 41.8923 25.7066 41.8786 25.6178C41.8454 25.6136 41.7545 25.6112 41.6055 25.6112C41.2976 25.6112 41.0536 25.5702 40.8744 25.4881C40.6947 25.4056 40.6049 25.2778 40.6049 25.1046C40.6049 25.0374 40.6233 24.9573 40.661 24.8643C40.7448 24.8347 40.8744 24.8104 41.049 24.7913C41.2195 24.7727 41.3722 24.7636 41.5095 24.7631C41.6289 24.7641 41.7275 24.767 41.8015 24.7722C41.8898 24.7789 42.0343 24.7965 42.2349 24.8261L42.2211 25.0412C42.2349 25.7633 42.5708 26.1244 43.2288 26.1244H52.2053C52.364 26.1244 52.4993 26.0781 52.6111 25.9851C52.7234 25.8921 52.7934 25.7929 52.8209 25.6875ZM55.3193 25.6112C55.0579 25.6112 54.8491 25.5606 54.6929 25.4595C54.5367 25.3579 54.4586 25.2081 54.4586 25.0097C54.4586 24.8747 54.4815 24.7775 54.5285 24.7183C54.5939 24.6382 54.7057 24.5981 54.8644 24.5981C55.0972 24.5981 55.2851 24.6921 55.4275 24.88C55.5699 25.0679 55.6455 25.3116 55.6547 25.6112H55.3193ZM57.9845 22.7709C57.9243 22.7709 57.8344 22.7962 57.7155 22.8467C57.5966 22.8973 57.4904 22.9555 57.397 23.0208C57.3035 23.0866 57.2571 23.1424 57.2571 23.1887V25.6112H56.4316V25.2568C56.4316 25.0331 56.379 24.8323 56.2739 24.6549C56.1692 24.4779 56.0207 24.3387 55.8298 24.2371C55.6383 24.1359 55.4214 24.0854 55.1789 24.0854C54.918 24.0854 54.672 24.1388 54.4407 24.2466C54.21 24.3544 54.0257 24.4999 53.8884 24.6835C53.7505 24.8671 53.6816 25.0689 53.6816 25.2883C53.6816 25.5754 53.7985 25.7867 54.0318 25.9217C54.2646 26.0566 54.5612 26.1244 54.9201 26.1244H55.6271C55.6128 26.1749 55.5781 26.2236 55.5219 26.2698C55.4566 26.3209 55.354 26.3586 55.2141 26.3838C55.0742 26.4091 54.9298 26.422 54.7802 26.422C54.5188 26.422 54.2299 26.3924 53.9129 26.3333C53.8286 26.3209 53.7566 26.307 53.6959 26.2923C53.6352 26.2775 53.5953 26.2698 53.577 26.2698C53.5254 26.2698 53.4555 26.2975 53.3671 26.3524C53.2783 26.4072 53.2002 26.4683 53.1323 26.536C53.0649 26.6032 53.0312 26.6519 53.0312 26.6815C53.0312 26.7153 53.0966 26.7535 53.2268 26.7954C53.4881 26.8756 53.8496 26.9161 54.3116 26.9161C54.624 26.9161 54.9001 26.8908 55.1406 26.8398C55.381 26.7892 55.6036 26.6962 55.8088 26.5613C56.0048 26.4344 56.1631 26.2889 56.2846 26.1244H57.4041C57.5486 26.1244 57.6803 26.0781 57.7992 25.9851C57.9182 25.8921 57.9917 25.7929 58.0198 25.6875C58.0289 25.6493 58.0335 25.5606 58.0335 25.4213V22.8086C58.0335 22.7833 58.0172 22.7709 57.9845 22.7709ZM59.5798 22.8086C59.5798 22.7833 59.5635 22.7709 59.5308 22.7709C59.4706 22.7709 59.3807 22.7962 59.2618 22.8467C59.1428 22.8973 59.0366 22.9555 58.9432 23.0208C58.8498 23.0866 58.8034 23.1424 58.8034 23.1887V26.1053C58.8034 26.1349 58.8197 26.1497 58.8524 26.1497C58.908 26.1497 58.9958 26.1253 59.1148 26.0767C59.2337 26.0285 59.3409 25.9703 59.4364 25.9026C59.5318 25.8353 59.5798 25.7762 59.5798 25.7256V22.8086ZM64.53 25.6717C64.5137 25.7328 64.4892 25.7781 64.4565 25.8077C64.4284 25.833 64.3794 25.8458 64.3095 25.8458C64.1788 25.8458 64.0425 25.8206 63.9006 25.7695C63.7582 25.719 63.6382 25.6388 63.5402 25.5291C63.4422 25.4194 63.3932 25.2778 63.3932 25.1046C63.3932 24.9611 63.4233 24.8685 63.484 24.8261C63.5259 24.7965 63.5938 24.7817 63.6872 24.7817C63.9573 24.7817 64.1696 24.8514 64.3238 24.9906C64.4774 25.1299 64.5545 25.2926 64.5545 25.4786C64.5545 25.5458 64.5464 25.6102 64.53 25.6717ZM64.6663 24.3825C64.4657 24.3067 64.2442 24.269 64.0017 24.269C63.4794 24.269 63.0374 24.3048 62.6759 24.3763C62.3145 24.4484 62.0194 24.5728 61.7907 24.7503C61.6228 24.8767 61.5049 25.0183 61.4375 25.1743C61.3696 25.3307 61.3359 25.5015 61.3359 25.6875L61.3293 26.6185C61.3293 26.7745 61.3369 26.9023 61.3538 27.0015C61.3696 27.1007 61.4058 27.1775 61.462 27.2328C61.4993 27.2662 61.5345 27.2834 61.5671 27.2834C61.6228 27.2834 61.7091 27.2557 61.826 27.2009C61.9424 27.146 62.0475 27.085 62.1409 27.0172C62.2338 26.9495 62.2808 26.8989 62.2808 26.8651C62.2808 26.857 62.2726 26.8451 62.2563 26.8303C62.24 26.8155 62.2221 26.7997 62.2037 26.783C62.1568 26.7406 62.1292 26.6934 62.1195 26.6404C62.1103 26.5875 62.1057 26.4897 62.1057 26.3462L62.1129 25.5415C62.1129 25.3684 62.121 25.2401 62.1374 25.1552C62.1537 25.0713 62.1966 25.0035 62.2665 24.9525C62.3553 24.8852 62.4881 24.8347 62.6652 24.8008L62.8332 24.7755C62.6887 24.9654 62.6167 25.1662 62.6167 25.377C62.6167 25.5754 62.6795 25.7495 62.8056 25.8997C62.9312 26.0495 63.0966 26.1635 63.3023 26.2417C63.5075 26.3194 63.7245 26.3586 63.9527 26.3586C64.2003 26.3586 64.4295 26.3099 64.6418 26.2131C64.8542 26.1158 65.0221 25.9827 65.1457 25.8139C65.2692 25.645 65.331 25.4576 65.331 25.2506C65.331 25.0436 65.2708 24.8662 65.1493 24.7183C65.0278 24.5705 64.867 24.4588 64.6663 24.3825ZM77.693 26.7702C77.597 26.6943 77.524 26.6562 77.4725 26.6562C77.4398 26.6562 77.3801 26.6805 77.2938 26.7292C77.2075 26.7778 77.1412 26.8274 77.0947 26.878C77.0575 26.8274 77.0039 26.7778 76.9339 26.7292C76.864 26.6805 76.8104 26.6562 76.7731 26.6562C76.745 26.6562 76.6935 26.6753 76.6189 26.7134C76.5444 26.7511 76.4775 26.7954 76.4193 26.846C76.3612 26.897 76.3321 26.9414 76.3321 26.9791C76.3321 26.992 76.3458 27.0086 76.3739 27.0301C76.4301 27.0635 76.4765 27.1017 76.5138 27.1441C76.5511 27.1861 76.5817 27.2199 76.6052 27.2452C76.6281 27.2705 76.6491 27.2834 76.668 27.2834C76.7098 27.2834 76.7798 27.2567 76.8778 27.2042C76.9758 27.1513 77.0478 27.0974 77.0947 27.0425C77.1412 27.0721 77.183 27.1069 77.2208 27.147C77.2581 27.187 77.2882 27.2199 77.3117 27.2452C77.3347 27.2705 77.3535 27.2834 77.3673 27.2834C77.4051 27.2834 77.4618 27.2643 77.5388 27.2261C77.6159 27.188 77.6849 27.1441 77.7451 27.0931C77.8058 27.0425 77.8365 26.9982 77.8365 26.9605C77.8365 26.9094 77.7885 26.846 77.693 26.7702ZM67.6818 25.6112C67.4209 25.6112 67.2121 25.5606 67.0559 25.4595C66.8997 25.3579 66.8216 25.2081 66.8216 25.0097C66.8216 24.8747 66.8446 24.7775 66.8916 24.7183C66.9569 24.6382 67.0687 24.5981 67.2275 24.5981C67.4602 24.5981 67.6481 24.6921 67.7905 24.88C67.9324 25.0679 68.0085 25.3116 68.0177 25.6112H67.6818ZM79.2567 22.7709C79.1959 22.7709 79.1061 22.7962 78.9871 22.8467C78.8682 22.8973 78.762 22.9555 78.6691 23.0208C78.5757 23.0866 78.5287 23.1424 78.5287 23.1887V25.6112H78.0463C77.9294 25.6112 77.8329 25.6093 77.7558 25.605C77.6787 25.6007 77.6277 25.5902 77.6021 25.5735C77.5761 25.5568 77.5634 25.5248 77.5634 25.4786V25.1046C77.5634 24.8938 77.5542 24.7278 77.5353 24.6077C77.5169 24.4875 77.4842 24.3892 77.4378 24.3134C77.4235 24.2962 77.4071 24.2876 77.3888 24.2876C77.2999 24.2876 77.1764 24.3282 77.0176 24.4083C76.8594 24.4884 76.7471 24.5685 76.6817 24.6487C76.6634 24.6658 76.6542 24.6849 76.6542 24.7059C76.6542 24.7183 76.6562 24.7269 76.6608 24.7312C76.745 24.8366 76.7869 25.0226 76.7869 25.2883V25.6112H68.7947V25.2568C68.7947 25.0331 68.7421 24.8323 68.6369 24.6549C68.5323 24.4779 68.3837 24.3387 68.1928 24.2371C68.0014 24.1359 67.7844 24.0854 67.5419 24.0854C67.2811 24.0854 67.035 24.1388 66.8038 24.2466C66.573 24.3544 66.3887 24.4999 66.2514 24.6835C66.1136 24.8671 66.0447 25.0689 66.0447 25.2883C66.0447 25.5754 66.1616 25.7867 66.3949 25.9217C66.6276 26.0566 66.9242 26.1244 67.2831 26.1244H67.9901C67.9758 26.1749 67.9411 26.2236 67.885 26.2698C67.8196 26.3209 67.717 26.3586 67.5771 26.3838C67.4373 26.4091 67.2923 26.422 67.1432 26.422C66.8819 26.422 66.5929 26.3924 66.2759 26.3333C66.1917 26.3209 66.1192 26.307 66.059 26.2923C65.9982 26.2775 65.9584 26.2698 65.94 26.2698C65.8884 26.2698 65.8185 26.2975 65.7302 26.3524C65.6414 26.4072 65.5633 26.4683 65.4954 26.536C65.428 26.6032 65.3943 26.6519 65.3943 26.6815C65.3943 26.7153 65.4596 26.7535 65.5898 26.7954C65.8512 26.8756 66.2126 26.9161 66.6746 26.9161C66.987 26.9161 67.2632 26.8908 67.5036 26.8398C67.7441 26.7892 67.9667 26.6962 68.1719 26.5613C68.3679 26.4344 68.5261 26.2889 68.6476 26.1244H76.9339C77.0085 26.1244 77.0876 26.1077 77.1718 26.0738L77.2484 26.0929C77.4071 26.1139 77.6731 26.1244 78.0463 26.1244H78.6757C78.8207 26.1244 78.9524 26.0781 79.0713 25.9851C79.1903 25.8921 79.2638 25.7929 79.2914 25.6875C79.3011 25.6493 79.3057 25.5606 79.3057 25.4213V22.8086C79.3057 22.7833 79.2893 22.7709 79.2567 22.7709ZM80.8029 22.7709C80.7422 22.7709 80.6523 22.7962 80.5334 22.8467C80.4144 22.8973 80.3083 22.9555 80.2153 23.0208C80.1219 23.0866 80.0755 23.1424 80.0755 23.1887V26.1053C80.0755 26.1349 80.0918 26.1497 80.1245 26.1497C80.1801 26.1497 80.2674 26.1253 80.3869 26.0767C80.5058 26.0285 80.6125 25.9703 80.7085 25.9026C80.8039 25.8353 80.8519 25.7762 80.8519 25.7252V22.8086C80.8519 22.7833 80.8356 22.7709 80.8029 22.7709ZM1.26244 31.2311C1.17464 31.1739 1.04344 31.1291 0.869875 31.0976C0.774924 31.0795 0.703966 31.0599 0.657511 31.0389C0.611567 31.0179 0.579406 30.9884 0.561029 30.9507C0.542651 30.9125 0.533973 30.8572 0.533973 30.7838C0.533973 30.7442 0.539588 30.7079 0.550819 30.6741C0.56205 30.6397 0.574301 30.6163 0.588595 30.6035C0.611057 30.5825 0.658532 30.572 0.731532 30.572C0.807085 30.572 0.879574 30.5882 0.949512 30.6206C1.01996 30.6535 1.07713 30.6922 1.12206 30.7365C1.1389 30.7523 1.15422 30.7599 1.168 30.7599C1.19353 30.7599 1.23028 30.7365 1.27929 30.6893C1.3283 30.6426 1.3528 30.6006 1.3528 30.5639C1.3528 30.5429 1.33034 30.5171 1.28592 30.4852C1.241 30.4542 1.18127 30.4265 1.10725 30.4031C1.03323 30.3793 0.955127 30.3678 0.873959 30.3678C0.77033 30.3678 0.670784 30.3926 0.575833 30.4423C0.480882 30.4919 0.404308 30.5601 0.347133 30.6464C0.289448 30.7327 0.26086 30.8267 0.26086 30.9292C0.26086 31.0547 0.304252 31.1453 0.391035 31.2016C0.477819 31.2578 0.609525 31.3032 0.785644 31.337C0.881106 31.3551 0.951554 31.3752 0.998008 31.3962C1.04395 31.4171 1.07611 31.4467 1.09449 31.4863C1.11287 31.5254 1.12206 31.5817 1.12206 31.6551C1.12206 31.7024 1.11695 31.7429 1.10725 31.7768C1.09755 31.8106 1.08428 31.8354 1.06743 31.8512C1.03936 31.8774 0.97912 31.8908 0.886721 31.8908C0.794323 31.8908 0.711113 31.875 0.637092 31.8435C0.56256 31.8121 0.50028 31.773 0.449742 31.7257C0.432896 31.71 0.417581 31.7024 0.403798 31.7024C0.378273 31.7024 0.341007 31.7257 0.292 31.773C0.242993 31.8197 0.219 31.8617 0.219 31.8984C0.219 31.9194 0.242483 31.9456 0.290469 31.9771C0.337944 32.0081 0.399203 32.0358 0.475266 32.0591C0.550819 32.083 0.628924 32.0944 0.710092 32.0944C0.841798 32.0944 0.959721 32.0691 1.06335 32.0181C1.16698 31.9671 1.24815 31.8965 1.30685 31.8063C1.36556 31.7157 1.39517 31.616 1.39517 31.5059C1.39517 31.3804 1.35076 31.2888 1.26244 31.2311ZM4.62963 31.3294C4.70774 31.0914 4.79759 30.862 4.89815 30.6426C4.988 30.8753 5.0707 31.1043 5.14625 31.3294H4.62963ZM5.37291 31.1152C5.26928 30.8419 5.17586 30.6058 5.09163 30.407C5.0804 30.3807 5.06355 30.3678 5.04109 30.3678C5.00178 30.3678 4.95737 30.3731 4.90683 30.3836C4.85629 30.3941 4.82719 30.4084 4.81852 30.4265C4.7011 30.6464 4.57859 30.9035 4.45096 31.1977C4.32385 31.492 4.2192 31.7648 4.13803 32.0162C4.13242 32.0291 4.12986 32.0448 4.12986 32.0634C4.12986 32.0839 4.14212 32.0944 4.16764 32.0944C4.22635 32.0944 4.28863 32.0877 4.35448 32.0749C4.42033 32.062 4.45607 32.0381 4.46168 32.0043C4.47853 31.8736 4.51171 31.7205 4.56225 31.545H5.21772L5.3775 32.0553C5.38567 32.0815 5.39843 32.0944 5.41528 32.0944C5.44591 32.0944 5.4944 32.0706 5.56026 32.0219C5.6256 31.9738 5.65878 31.9389 5.65878 31.918C5.65878 31.9103 5.65164 31.8841 5.63785 31.8393C5.56485 31.6299 5.47654 31.389 5.37291 31.1152ZM9.74628 30.3678C9.70952 30.3678 9.65643 30.3898 9.58649 30.4341C9.51656 30.479 9.48133 30.5167 9.48133 30.5481V31.192C9.48133 31.3804 9.47214 31.5354 9.45428 31.6571C9.4359 31.7787 9.41701 31.8488 9.39761 31.8669C9.37209 31.8903 9.32461 31.9022 9.25467 31.9022C9.12297 31.9022 9.02495 31.8669 8.96063 31.7963C8.8958 31.7257 8.85496 31.6346 8.83658 31.5235C8.81821 31.4124 8.80953 31.2693 8.80953 31.0938V30.3912C8.80953 30.3755 8.79932 30.3678 8.77992 30.3678C8.74367 30.3678 8.69007 30.3898 8.62065 30.4341C8.5502 30.479 8.51548 30.5167 8.51548 30.5481V31.2898C8.51548 31.5307 8.55326 31.7253 8.62881 31.8731C8.70437 32.0205 8.84986 32.0944 9.06579 32.0944C9.22813 32.0944 9.36086 32.0606 9.46449 31.9924C9.56812 31.9246 9.64622 31.8106 9.69778 31.6513C9.74934 31.4916 9.77537 31.2731 9.77537 30.9955V30.3912C9.77537 30.3755 9.76568 30.3678 9.74628 30.3678ZM13.7934 31.6394C13.7694 31.7544 13.7465 31.8226 13.724 31.8435C13.699 31.8669 13.6372 31.8788 13.5392 31.8788C13.478 31.8788 13.4085 31.8736 13.3314 31.8631C13.2544 31.8526 13.1936 31.8407 13.1487 31.8278V30.5954C13.2329 30.5877 13.3166 30.5834 13.4009 30.5834C13.6862 30.5834 13.8292 30.7876 13.8292 31.1958C13.8292 31.3766 13.8174 31.5245 13.7934 31.6394ZM13.5479 30.3678C13.3488 30.3678 13.1334 30.3807 12.9006 30.407C12.8756 30.4098 12.8628 30.4198 12.8628 30.4384V32.0281C12.8628 32.0381 12.8659 32.0458 12.8715 32.0496C12.8771 32.0534 12.8843 32.0553 12.8924 32.0553C13.0604 32.0815 13.2186 32.0944 13.3672 32.0944C13.6163 32.0944 13.8047 32.011 13.9323 31.8435C14.0594 31.6761 14.1232 31.3947 14.1232 30.9998C14.1232 30.8033 14.0711 30.6488 13.968 30.5367C13.8644 30.4241 13.724 30.3678 13.5479 30.3678ZM17.4332 30.3678C17.397 30.3678 17.3439 30.3898 17.274 30.4341C17.2035 30.479 17.1688 30.5167 17.1688 30.5481V32.0672C17.1688 32.0854 17.1785 32.0944 17.1979 32.0944C17.2178 32.0944 17.2495 32.0839 17.2929 32.0634C17.3362 32.0424 17.3756 32.0176 17.4103 31.9885C17.4455 31.9599 17.4628 31.9337 17.4628 31.9103V30.3912C17.4628 30.3755 17.4531 30.3678 17.4332 30.3678ZM25.0242 30.3678C24.9987 30.3678 24.9553 30.3893 24.894 30.4322C24.8323 30.4756 24.8017 30.5105 24.8017 30.5367V31.6079L24.0119 30.3793C24.0089 30.3717 24.0017 30.3678 23.991 30.3678C23.9655 30.3678 23.9216 30.3907 23.8583 30.4365C23.7955 30.4823 23.7638 30.5181 23.7638 30.5443V32.0634C23.7638 32.0839 23.771 32.0944 23.7848 32.0944C23.8103 32.0944 23.8537 32.073 23.9149 32.03C23.9767 31.9866 24.0073 31.9518 24.0073 31.9261V30.8543L24.7971 32.083C24.8027 32.0906 24.8098 32.0944 24.8185 32.0944C24.8435 32.0944 24.8874 32.072 24.9507 32.0262C25.0135 31.9804 25.0452 31.9442 25.0452 31.918V30.3993C25.0452 30.3783 25.038 30.3678 25.0242 30.3678ZM28.4266 31.3294C28.5053 31.0914 28.5946 30.862 28.6957 30.6426C28.785 30.8753 28.8677 31.1043 28.9433 31.3294H28.4266ZM29.1704 31.1152C29.0668 30.8419 28.9729 30.6058 28.8886 30.407C28.8774 30.3807 28.8611 30.3678 28.8386 30.3678C28.7993 30.3678 28.7544 30.3731 28.7038 30.3836C28.6538 30.3941 28.6242 30.4084 28.616 30.4265C28.4981 30.6464 28.3756 30.9035 28.248 31.1977C28.1209 31.492 28.0167 31.7648 27.9355 32.0162C27.9294 32.0291 27.9269 32.0448 27.9269 32.0634C27.9269 32.0839 27.9396 32.0944 27.9646 32.0944C28.0234 32.0944 28.0856 32.0877 28.1515 32.0749C28.2173 32.062 28.2531 32.0381 28.2587 32.0043C28.2755 31.8736 28.3092 31.7205 28.3598 31.545H29.0147L29.1745 32.0553C29.1827 32.0815 29.1954 32.0944 29.2123 32.0944C29.2429 32.0944 29.2914 32.0706 29.3573 32.0219C29.4231 31.9738 29.4558 31.9389 29.4558 31.918C29.4558 31.9103 29.4492 31.8841 29.4349 31.8393C29.3619 31.6299 29.2741 31.389 29.1704 31.1152ZM33.3835 30.3874H32.3125C32.265 30.3874 32.2048 30.4332 32.1318 30.5248C32.1011 30.5667 32.0858 30.5954 32.0858 30.6111C32.0858 30.6268 32.0966 30.6345 32.119 30.6345C32.1445 30.6321 32.1849 30.6283 32.241 30.623C32.2972 30.6178 32.3686 30.6149 32.4554 30.6149H32.6065V32.0672C32.6065 32.0854 32.6162 32.0944 32.6356 32.0944C32.6555 32.0944 32.6867 32.0839 32.7306 32.0634C32.774 32.0424 32.8128 32.0176 32.848 31.9885C32.8832 31.9599 32.9006 31.9337 32.9006 31.9103V30.6149H33.018L33.2702 30.623C33.2926 30.623 33.3136 30.6125 33.333 30.5915C33.3529 30.5706 33.3738 30.5391 33.3963 30.4971C33.4157 30.4656 33.4259 30.4399 33.4259 30.4189C33.4259 30.3979 33.4116 30.3874 33.3835 30.3874ZM36.547 30.3678C36.5103 30.3678 36.4572 30.3898 36.3872 30.4341C36.3173 30.479 36.2821 30.5167 36.2821 30.5481V32.0672C36.2821 32.0854 36.2918 32.0944 36.3117 32.0944C36.3311 32.0944 36.3627 32.0839 36.4061 32.0634C36.4495 32.0424 36.4888 32.0176 36.5235 31.9885C36.5587 31.9599 36.5761 31.9337 36.5761 31.9103V30.3912C36.5761 30.3755 36.5664 30.3678 36.547 30.3678ZM40.5942 31.6513C40.5702 31.7739 40.5472 31.8459 40.5247 31.8669C40.4997 31.8908 40.4523 31.9022 40.3823 31.9022C40.2476 31.9022 40.147 31.8655 40.0796 31.7925C40.0122 31.7191 39.9683 31.6237 39.9474 31.5059C39.9265 31.3881 39.9157 31.2431 39.9157 31.0704C39.9157 30.9392 39.9265 30.8334 39.9474 30.7523C39.9683 30.6712 39.9887 30.6216 40.0081 30.603C40.0194 30.593 40.0444 30.583 40.0837 30.5739C40.123 30.5644 40.1623 30.5601 40.2016 30.5601C40.3359 30.5601 40.441 30.6149 40.5166 30.7246C40.5921 30.8348 40.6299 30.9917 40.6299 31.1958C40.6299 31.3766 40.6182 31.5283 40.5942 31.6513ZM40.3486 30.3678C40.1215 30.3678 39.9438 30.4408 39.8152 30.5872C39.686 30.7341 39.6217 30.9693 39.6217 31.2941C39.6217 31.8278 39.8121 32.0944 40.1929 32.0944C40.4395 32.0944 40.6228 32.0114 40.7432 31.8455C40.8637 31.6795 40.924 31.3971 40.924 30.9993C40.924 30.8033 40.8724 30.6488 40.7688 30.5367C40.6651 30.4241 40.5247 30.3678 40.3486 30.3678ZM45.2299 30.3678C45.2044 30.3678 45.161 30.3893 45.0992 30.4322C45.038 30.4756 45.0074 30.5105 45.0074 30.5367V31.6079L44.2171 30.3793C44.2146 30.3717 44.2074 30.3678 44.1962 30.3678C44.1712 30.3678 44.1268 30.3907 44.064 30.4365C44.0012 30.4823 43.9695 30.5181 43.9695 30.5443V32.0634C43.9695 32.0839 43.9767 32.0944 43.9905 32.0944C44.016 32.0944 44.0589 32.073 44.1206 32.03C44.1824 31.9866 44.213 31.9518 44.213 31.9261V30.8543L45.0028 32.083C45.0084 32.0906 45.0155 32.0944 45.0237 32.0944C45.0492 32.0944 45.0931 32.072 45.1564 32.0262C45.2192 31.9804 45.2509 31.9442 45.2509 31.918V30.3993C45.2509 30.3783 45.2437 30.3678 45.2299 30.3678ZM48.6324 31.3294C48.7105 31.0914 48.8003 30.862 48.9009 30.6426C48.9907 30.8753 49.0734 31.1043 49.149 31.3294H48.6324ZM49.3756 31.1152C49.272 30.8419 49.1786 30.6058 49.0943 30.407C49.0831 30.3807 49.0663 30.3678 49.0438 30.3678C49.0045 30.3678 48.9601 30.3731 48.9095 30.3836C48.859 30.3941 48.8299 30.4084 48.8212 30.4265C48.7038 30.6464 48.5813 30.9035 48.4537 31.1977C48.3266 31.492 48.2219 31.7648 48.1407 32.0162C48.1351 32.0291 48.1326 32.0448 48.1326 32.0634C48.1326 32.0839 48.1448 32.0944 48.1704 32.0944C48.2291 32.0944 48.2913 32.0877 48.3572 32.0749C48.423 32.062 48.4588 32.0381 48.4644 32.0043C48.4812 31.8736 48.5144 31.7205 48.565 31.545H49.2204L49.3802 32.0553C49.3884 32.0815 49.4011 32.0944 49.418 32.0944C49.4486 32.0944 49.4971 32.0706 49.563 32.0219C49.6283 31.9738 49.6615 31.9389 49.6615 31.918C49.6615 31.9103 49.6544 31.8841 49.6406 31.8393C49.5676 31.6299 49.4793 31.389 49.3756 31.1152ZM53.4672 31.8278C53.4422 31.8278 53.4019 31.8302 53.3457 31.8354C53.2896 31.8407 53.2181 31.8435 53.1313 31.8435H52.8332V30.3912C52.8332 30.3755 52.823 30.3678 52.8036 30.3678C52.7673 30.3678 52.7142 30.3898 52.6438 30.4341C52.5738 30.479 52.5391 30.5171 52.5391 30.5481V32.0477C52.5391 32.0658 52.5488 32.0749 52.5682 32.0749H53.2742C53.3217 32.0749 53.382 32.0291 53.4549 31.9375C53.4856 31.8932 53.5009 31.8645 53.5009 31.8512C53.5009 31.8354 53.4897 31.8278 53.4672 31.8278ZM60.5058 31.6394C60.4818 31.7544 60.4589 31.8226 60.4364 31.8435C60.4109 31.8669 60.3496 31.8788 60.2516 31.8788C60.1898 31.8788 60.1204 31.8736 60.0433 31.8631C59.9663 31.8526 59.9055 31.8407 59.8611 31.8278V30.5954C59.9448 30.5877 60.029 30.5834 60.1128 30.5834C60.3986 30.5834 60.5416 30.7876 60.5416 31.1958C60.5416 31.3766 60.5293 31.5245 60.5058 31.6394ZM60.2598 30.3678C60.0607 30.3678 59.8453 30.3807 59.613 30.407C59.588 30.4098 59.5752 30.4198 59.5752 30.4384V32.0281C59.5752 32.0381 59.5778 32.0458 59.5834 32.0496C59.589 32.0534 59.5961 32.0553 59.6048 32.0553C59.7728 32.0815 59.931 32.0944 60.0791 32.0944C60.3287 32.0944 60.5166 32.011 60.6442 31.8435C60.7718 31.6761 60.8356 31.3947 60.8356 30.9998C60.8356 30.8033 60.7835 30.6488 60.6799 30.5367C60.5763 30.4241 60.4364 30.3678 60.2598 30.3678ZM64.1538 31.3294C64.2324 31.0914 64.3223 30.862 64.4228 30.6426C64.5127 30.8753 64.5949 31.1043 64.6709 31.3294H64.1538ZM64.8976 31.1152C64.794 30.8419 64.7 30.6058 64.6163 30.407C64.6051 30.3807 64.5882 30.3678 64.5658 30.3678C64.5265 30.3678 64.4815 30.3731 64.4315 30.3836C64.381 30.3941 64.3514 30.4084 64.3432 30.4265C64.2253 30.6464 64.1028 30.9035 63.9756 31.1977C63.848 31.492 63.7439 31.7648 63.6627 32.0162C63.6571 32.0291 63.654 32.0448 63.654 32.0634C63.654 32.0839 63.6668 32.0944 63.6918 32.0944C63.7505 32.0944 63.8133 32.0877 63.8792 32.0749C63.9445 32.062 63.9802 32.0381 63.9858 32.0043C64.0027 31.8736 64.0364 31.7205 64.0869 31.545H64.7419L64.9017 32.0553C64.9103 32.0815 64.9226 32.0944 64.9394 32.0944C64.9706 32.0944 65.0186 32.0706 65.0844 32.0219C65.1503 31.9738 65.1835 31.9389 65.1835 31.918C65.1835 31.9103 65.1763 31.8841 65.162 31.8393C65.0895 31.6299 65.0012 31.389 64.8976 31.1152ZM69.2158 30.3836C69.174 30.3731 69.125 30.3678 69.0688 30.3678C69.0356 30.3678 69.0101 30.3721 68.9932 30.3817C68.9764 30.3907 68.9667 30.4055 68.9636 30.4265C68.9529 30.5052 68.9182 30.6097 68.861 30.7403C68.8033 30.8715 68.7217 31.0232 68.615 31.1958C68.5425 31.0962 68.4511 30.965 68.3424 30.8014C68.2331 30.6378 68.1474 30.5009 68.0861 30.3912C68.083 30.386 68.0795 30.3807 68.0754 30.3755C68.0713 30.3702 68.0647 30.3678 68.0565 30.3678C68.0172 30.3678 67.9661 30.3922 67.9034 30.4403C67.84 30.489 67.8089 30.5262 67.8089 30.552C67.8089 30.5624 67.8186 30.5796 67.838 30.603C67.9896 30.8257 68.1754 31.0742 68.397 31.3489V32.0711C68.397 32.0868 68.4067 32.0944 68.4261 32.0944C68.4679 32.0944 68.5226 32.0839 68.59 32.0634C68.6573 32.0424 68.691 32.0186 68.691 31.9924V31.3489C68.7748 31.244 68.8774 31.0995 68.9973 30.9154C69.1178 30.7308 69.1974 30.6006 69.2373 30.5248C69.248 30.5038 69.2577 30.4847 69.2664 30.468C69.275 30.4508 69.2791 30.437 69.2791 30.4265C69.2791 30.4084 69.2577 30.3941 69.2158 30.3836ZM76.1641 31.141C76.1136 31.1644 76.0462 31.1763 75.9625 31.1763C75.8277 31.1763 75.7144 31.1539 75.622 31.1095C75.5296 31.0652 75.4836 30.9903 75.4836 30.8858C75.4836 30.7914 75.5158 30.7151 75.5801 30.6564C75.6444 30.5973 75.723 30.5677 75.8154 30.5677C75.8992 30.5677 75.9747 30.5992 76.0421 30.6621C76.0896 30.7065 76.1253 30.7814 76.1493 30.8858C76.1728 30.9903 76.185 31.0675 76.185 31.1171C76.185 31.1253 76.1779 31.1329 76.1641 31.141ZM76.328 30.5109C76.2575 30.4155 76.1483 30.3678 76.0002 30.3678C75.8711 30.3678 75.7445 30.4031 75.6199 30.4737C75.4954 30.5443 75.3943 30.6311 75.3172 30.7346C75.2406 30.8381 75.2018 30.9354 75.2018 31.027C75.2018 31.0847 75.2115 31.1338 75.2314 31.1739C75.2508 31.2149 75.2845 31.2507 75.332 31.2822C75.4275 31.3504 75.5592 31.3842 75.7271 31.3842C75.7945 31.3842 75.8588 31.3776 75.9201 31.3647C75.9568 31.3566 76.0013 31.3385 76.0549 31.3098C76.1079 31.2807 76.1539 31.2483 76.1932 31.2116L76.2019 31.4353C76.2019 31.6604 76.1707 31.8016 76.1095 31.8593C76.084 31.8827 76.0171 31.8946 75.9078 31.8946C75.8267 31.8946 75.747 31.8793 75.6705 31.8493C75.5934 31.8192 75.527 31.7753 75.4709 31.7176C75.4622 31.71 75.4525 31.7062 75.4412 31.7062C75.4019 31.7062 75.3488 31.73 75.282 31.7787C75.2146 31.8273 75.1809 31.8631 75.1809 31.8865C75.1809 31.8998 75.2003 31.9218 75.2396 31.9532C75.2983 31.9976 75.3693 32.0324 75.452 32.0572C75.5347 32.082 75.6179 32.0944 75.7016 32.0944C75.8333 32.0944 75.9589 32.0634 76.0778 32.0005C76.1968 31.9375 76.2943 31.8431 76.3698 31.7157C76.4454 31.5889 76.4832 31.4338 76.4832 31.2507C76.4832 31.0914 76.475 30.9516 76.4581 30.8329C76.4413 30.7136 76.3979 30.6068 76.328 30.5109ZM80.6462 30.3717C80.6207 30.374 80.5788 30.3774 80.5201 30.3817C80.4614 30.3855 80.3884 30.3874 80.3016 30.3874H79.6798C79.6492 30.3874 79.6324 30.4003 79.6298 30.4265L79.5624 31.2273C79.5568 31.2483 79.568 31.2588 79.5961 31.2588C79.8034 31.2588 79.9652 31.296 80.0811 31.3704C80.1975 31.4453 80.2557 31.5531 80.2557 31.6943C80.2557 31.7782 80.2429 31.8331 80.2179 31.8593C80.1924 31.8803 80.1434 31.8903 80.0709 31.8903C79.9586 31.8903 79.86 31.8674 79.7743 31.8216C79.689 31.7763 79.6298 31.7243 79.5961 31.6666C79.5849 31.6513 79.5721 31.6432 79.5583 31.6432C79.5415 31.6432 79.515 31.6532 79.4782 31.6728C79.442 31.6924 79.4098 31.7167 79.3817 31.7453C79.3536 31.7739 79.3399 31.8001 79.3399 31.824C79.3399 31.855 79.3649 31.8927 79.4154 31.9356C79.466 31.9785 79.5313 32.0162 79.613 32.0477C79.6941 32.0787 79.7809 32.0944 79.8733 32.0944C79.9826 32.0944 80.0887 32.0706 80.1924 32.0219C80.296 31.9738 80.3808 31.907 80.4466 31.8216C80.5125 31.7367 80.5451 31.6432 80.5451 31.5412C80.5451 31.3661 80.4747 31.2378 80.3333 31.1567C80.1919 31.0756 80.0076 31.0308 79.7809 31.0232L79.8146 30.6426H80.4318C80.4629 30.6426 80.4941 30.6283 80.5262 30.5992C80.5584 30.5706 80.5941 30.5324 80.6334 30.4857C80.6641 30.4408 80.6799 30.4108 80.6799 30.395C80.6799 30.3793 80.6687 30.3717 80.6462 30.3717Z" fill="white"/>
</svg>
