<svg width="81" height="80" viewBox="0 0 81 80" fill="none" xmlns="http://www.w3.org/2000/svg">
<path d="M2.77046 77.7295C1.30308 76.2621 1.30308 73.8828 2.77046 72.4153L25.6649 49.5208C26.6432 48.5425 28.2293 48.5425 29.2076 49.5208L30.9791 51.2921C31.9574 52.2705 31.9574 53.8566 30.9791 54.8349L8.08468 77.7293C6.61714 79.197 4.238 79.197 2.77046 77.7295Z" fill="#DBD8DB"/>
<path d="M29.2079 49.5208C28.2295 48.5425 26.6435 48.5425 25.665 49.5208L2.77058 72.4153C1.30304 73.8827 1.30304 76.2619 2.77058 77.7293L2.77089 77.7296L30.0934 50.4065L29.2079 49.5208Z" fill="#C9C5C9"/>
<path d="M54.2776 51.274C68.1129 51.274 79.3287 40.0582 79.3287 26.2229C79.3287 12.3876 68.1129 1.17188 54.2776 1.17188C40.4423 1.17188 29.2266 12.3876 29.2266 26.2229C29.2266 40.0582 40.4423 51.274 54.2776 51.274Z" fill="#DBD8DB"/>
<path d="M54.2772 46.2644C65.3455 46.2644 74.3181 37.2918 74.3181 26.2235C74.3181 15.1552 65.3455 6.18262 54.2772 6.18262C43.2089 6.18262 34.2363 15.1552 34.2363 26.2235C34.2363 37.2918 43.2089 46.2644 54.2772 46.2644Z" fill="#F1F5F9"/>
<path d="M54.2774 42.506C63.2704 42.506 70.5607 35.2158 70.5607 26.2227C70.5607 17.2297 63.2704 9.93945 54.2774 9.93945C45.2844 9.93945 37.9941 17.2297 37.9941 26.2227C37.9941 35.2158 45.2844 42.506 54.2774 42.506Z" fill="white"/>
<path d="M8.08468 77.7298L28.144 57.6705L22.8298 52.3564L2.77046 72.4158C1.30308 73.8832 1.30308 76.2625 2.77046 77.7298C4.238 79.1974 6.61714 79.1974 8.08468 77.7298Z" fill="#736572"/>
<path d="M22.8298 52.3564L2.77058 72.4158C1.30304 73.8832 1.30304 76.2625 2.77058 77.7298L2.77089 77.7302L25.4869 55.0136L22.8298 52.3564Z" fill="#4F4F4F"/>
<path d="M54.2769 0C39.8176 0 28.0539 11.7636 28.0539 26.223C28.0539 33.0321 30.6632 39.2426 34.9335 43.9091L30.0931 48.7496L30.036 48.6925C29.3416 47.9981 28.4182 47.6155 27.4359 47.6155C26.4537 47.6155 25.5304 47.998 24.8359 48.6925L1.94145 71.5871C0.0195172 73.5092 0.0195172 76.6365 1.94145 78.5585C2.90241 79.5195 4.16479 80.0002 5.42718 80.0002C6.68956 80.0002 7.95194 79.5197 8.9129 78.5585L31.8073 55.6641C32.5019 54.9696 32.8844 54.0463 32.8844 53.0641C32.8844 52.0818 32.5019 51.1585 31.8073 50.464L31.7503 50.4069L36.5907 45.5665C41.2573 49.8368 47.4679 52.4461 54.2769 52.4461C68.7364 52.4461 80.5 40.6824 80.5 26.223C80.5 11.7636 68.7364 0 54.2769 0ZM7.25567 76.9012C6.24751 77.9093 4.607 77.9093 3.59884 76.9012C2.59069 75.893 2.59069 74.2525 3.59884 73.2443L22.8296 54.0136L26.4864 57.6704L7.25567 76.9012ZM30.1501 54.0067L28.1436 56.0132L24.4868 52.3564L26.4933 50.3499C26.745 50.0982 27.0798 49.9594 27.4359 49.9594C27.792 49.9594 28.1269 50.0982 28.3786 50.3499L30.1499 52.1214C30.2741 52.2449 30.3726 52.3918 30.4396 52.5536C30.5066 52.7154 30.5409 52.8889 30.5404 53.0641C30.541 53.2392 30.5067 53.4127 30.4397 53.5745C30.3727 53.7363 30.2743 53.8833 30.1501 54.0067ZM54.2769 50.1024C41.1098 50.1024 30.3977 39.3902 30.3977 26.2231C30.3977 13.056 41.1099 2.34382 54.2769 2.34382C67.4438 2.34382 78.1562 13.056 78.1562 26.223C78.1562 39.3901 67.444 50.1024 54.2769 50.1024Z" fill="#4F4F4F"/>
<path d="M69.2772 11.2232C61.7347 3.68063 49.6985 2.93045 41.2808 9.47783C41.1593 9.5723 41.0576 9.68977 40.9815 9.82354C40.9054 9.95732 40.8565 10.1048 40.8374 10.2575C40.8183 10.4102 40.8295 10.5652 40.8703 10.7135C40.9111 10.8619 40.9808 11.0008 41.0753 11.1223C41.1698 11.2437 41.2872 11.3454 41.421 11.4215C41.5548 11.4976 41.7022 11.5466 41.8549 11.5657C42.0077 11.5847 42.1626 11.5735 42.311 11.5327C42.4594 11.4919 42.5983 11.4222 42.7197 11.3277C50.2068 5.50428 60.9115 6.17195 67.62 12.8804C74.3285 19.5891 74.996 30.2938 69.1727 37.7805C69.038 37.9536 68.9546 38.1611 68.932 38.3792C68.9094 38.5974 68.9484 38.8175 69.0447 39.0145C69.141 39.2116 69.2906 39.3777 69.4766 39.4939C69.6626 39.6101 69.8775 39.6718 70.0968 39.672C70.2754 39.6723 70.4517 39.6316 70.6122 39.5532C70.7727 39.4747 70.9131 39.3606 71.0226 39.2195C77.5701 30.8017 76.8199 18.7659 69.2772 11.2232ZM65.8354 41.1178C62.4228 43.7723 58.3424 45.0781 54.2758 45.0779C49.4209 45.0778 44.5859 43.216 40.9353 39.5653C34.2268 32.8568 33.5593 22.152 39.3826 14.6652C39.5705 14.4196 39.6538 14.1098 39.6143 13.8031C39.5747 13.4964 39.4156 13.2178 39.1716 13.0279C38.9275 12.8381 38.6183 12.7524 38.3113 12.7895C38.0043 12.8266 37.7245 12.9835 37.5327 13.2261C30.985 21.6441 31.7353 33.6799 39.2781 41.2225C43.383 45.3276 48.8179 47.4207 54.2773 47.4205C58.8488 47.4203 63.438 45.952 67.2745 42.9679C67.396 42.8734 67.4977 42.7559 67.5737 42.6221C67.6498 42.4883 67.6988 42.3409 67.7178 42.1881C67.7369 42.0354 67.7257 41.8805 67.6849 41.7321C67.6441 41.5837 67.5745 41.4448 67.48 41.3233C67.3855 41.2018 67.268 41.1001 67.1342 41.0241C67.0004 40.948 66.853 40.899 66.7002 40.88C66.5475 40.8609 66.3926 40.8721 66.2442 40.9129C66.0958 40.9537 65.9569 41.0233 65.8354 41.1178Z" fill="#333333"/>
<path d="M44.6811 25.7987C44.9098 26.0276 45.2099 26.142 45.5097 26.142C45.8096 26.142 46.1096 26.0276 46.3383 25.7987L48.0148 24.1223L49.6912 25.7987C49.92 26.0276 50.22 26.142 50.5199 26.142C50.8197 26.142 51.1197 26.0276 51.3485 25.7987C51.5682 25.5789 51.6917 25.2809 51.6917 24.9701C51.6917 24.6593 51.5682 24.3613 51.3485 24.1415L49.672 22.465L51.3485 20.7886C51.8061 20.3309 51.8061 19.589 51.3485 19.1313C50.8908 18.6737 50.1487 18.6737 49.6912 19.1313L48.0148 20.8078L46.3383 19.1313C46.1186 18.9116 45.8205 18.7881 45.5097 18.7881C45.1989 18.7881 44.9009 18.9116 44.6811 19.1313C44.4613 19.3511 44.3379 19.6492 44.3379 19.96C44.3379 20.2707 44.4613 20.5688 44.6811 20.7886L46.3575 22.465L44.6811 24.1415C44.4613 24.3613 44.3379 24.6593 44.3379 24.9701C44.3379 25.2809 44.4613 25.5789 44.6811 25.7987ZM57.2068 25.7987C57.4355 26.0276 57.7355 26.142 58.0354 26.142C58.3352 26.142 58.6352 26.0276 58.864 25.7987L60.5405 24.1223L62.2169 25.7987C62.4457 26.0276 62.7457 26.142 63.0455 26.142C63.3454 26.142 63.6454 26.0276 63.8742 25.7987C64.0939 25.5789 64.2173 25.2809 64.2173 24.9701C64.2173 24.6593 64.0939 24.3613 63.8742 24.1415L62.1977 22.465L63.8742 20.7886C64.3318 20.3309 64.3318 19.589 63.8742 19.1313C63.4165 18.6737 62.6744 18.6737 62.2169 19.1313L60.5405 20.8078L58.864 19.1313C58.6442 18.9116 58.3462 18.7881 58.0354 18.7881C57.7246 18.7881 57.4265 18.9116 57.2068 19.1313C56.987 19.3511 56.8636 19.6492 56.8636 19.96C56.8636 20.2707 56.987 20.5688 57.2068 20.7886L58.8832 22.465L57.2068 24.1415C57.0979 24.2503 57.0115 24.3794 56.9526 24.5216C56.8937 24.6638 56.8634 24.8162 56.8634 24.9701C56.8634 25.124 56.8937 25.2764 56.9526 25.4186C57.0115 25.5608 57.0979 25.6899 57.2068 25.7987ZM47.1855 34.1627C46.9709 34.3837 46.852 34.6803 46.8543 34.9883C46.8567 35.2964 46.9803 35.5911 47.1983 35.8087C47.4163 36.0264 47.7112 36.1494 48.0193 36.1513C48.3273 36.1532 48.6237 36.0337 48.8443 35.8187C50.2153 34.4452 52.1957 33.6575 54.2776 33.6575C56.3596 33.6575 58.3401 34.4452 59.7111 35.8187C59.8198 35.9276 59.9489 36.0141 60.091 36.0731C60.2331 36.1322 60.3855 36.1626 60.5394 36.1627C60.6933 36.1629 60.8457 36.1327 60.9879 36.0739C61.1302 36.0151 61.2594 35.9289 61.3683 35.8201C61.5882 35.6005 61.7119 35.3026 61.7122 34.9918C61.7125 34.681 61.5893 34.3828 61.3697 34.1629C59.5623 32.3522 56.9772 31.3139 54.2775 31.3139C51.578 31.3136 48.9929 32.352 47.1855 34.1627Z" fill="#333333"/>
</svg>
