<svg width="32" height="36" viewBox="0 0 32 36" fill="none" xmlns="http://www.w3.org/2000/svg">
<path d="M6.56934 0.499756H15.3193V3.62476H6.56934V0.499756ZM31.2568 12.6873H9.38184C9.21623 12.6878 9.05754 12.7538 8.94044 12.8709C8.82334 12.988 8.75733 13.1466 8.75684 13.3123V25.8123C8.75733 25.9779 8.82334 26.1365 8.94044 26.2537C9.05754 26.3708 9.21623 26.4368 9.38184 26.4373H31.2568C31.4224 26.4368 31.5811 26.3708 31.6982 26.2537C31.8153 26.1365 31.8813 25.9779 31.8818 25.8123V13.3123C31.8813 13.1466 31.8153 12.988 31.6982 12.8709C31.5811 12.7538 31.4224 12.6878 31.2568 12.6873ZM29.3818 22.0623C29.3813 22.2279 29.3153 22.3865 29.1982 22.5037C29.0811 22.6208 28.9224 22.6868 28.7568 22.6873C28.5912 22.6877 28.4325 22.7538 28.3154 22.8709C28.1983 22.988 28.1323 23.1466 28.1318 23.3123C28.1313 23.4779 28.0653 23.6365 27.9482 23.7537C27.8311 23.8708 27.6724 23.9368 27.5068 23.9373H13.1318C12.9662 23.9368 12.8075 23.8708 12.6904 23.7537C12.5733 23.6365 12.5073 23.4779 12.5068 23.3123C12.5063 23.1466 12.4403 22.988 12.3232 22.8709C12.2061 22.7538 12.0474 22.6877 11.8818 22.6873C11.7162 22.6868 11.5575 22.6208 11.4404 22.5037C11.3233 22.3865 11.2573 22.2279 11.2568 22.0623V17.0623C11.2573 16.8966 11.3233 16.738 11.4404 16.6209C11.5575 16.5038 11.7162 16.4378 11.8818 16.4373C12.0474 16.4368 12.2061 16.3708 12.3232 16.2537C12.4403 16.1365 12.5063 15.9779 12.5068 15.8123C12.5073 15.6466 12.5733 15.488 12.6904 15.3709C12.8075 15.2538 12.9662 15.1878 13.1318 15.1873H27.5068C27.6724 15.1878 27.8311 15.2538 27.9482 15.3709C28.0653 15.488 28.1313 15.6466 28.1318 15.8123C28.1323 15.9779 28.1983 16.1365 28.3154 16.2537C28.4325 16.3708 28.5912 16.4368 28.7568 16.4373C28.9224 16.4378 29.0811 16.5038 29.1982 16.6209C29.3153 16.738 29.3813 16.8966 29.3818 17.0623V22.0623Z" fill="#44A03C"/>
<path d="M7.50684 25.8123V13.3123C7.50832 12.8154 7.70634 12.3394 8.05765 11.9881C8.40896 11.6368 8.88501 11.4387 9.38184 11.4373H20.9443V3.62476C20.944 2.79606 20.6147 2.00139 20.0287 1.41541C19.4427 0.829434 18.648 0.500087 17.8193 0.499756H16.5693V3.62476C16.5683 3.95597 16.4363 4.27334 16.2021 4.50755C15.9679 4.74175 15.6506 4.87377 15.3193 4.87476H6.56934C6.23812 4.87377 5.92075 4.74175 5.68655 4.50755C5.45234 4.27334 5.32033 3.95597 5.31934 3.62476V0.499756H4.06934C3.24064 0.500087 2.44597 0.829434 1.85999 1.41541C1.27401 2.00139 0.944667 2.79606 0.944336 3.62476V32.3748C0.944667 33.2035 1.27401 33.9981 1.85999 34.5841C2.44597 35.1701 3.24064 35.4994 4.06934 35.4998H17.8193C18.648 35.4994 19.4427 35.1701 20.0287 34.5841C20.6147 33.9981 20.944 33.2035 20.9443 32.3748V27.6873H9.38184C8.88501 27.6858 8.40896 27.4878 8.05765 27.1364C7.70634 26.7851 7.50832 26.3091 7.50684 25.8123Z" fill="#44A03C"/>
<path d="M26.9881 16.4373H13.6506C13.5568 16.7008 13.4055 16.9402 13.2076 17.138C13.0098 17.3359 12.7704 17.4872 12.5068 17.581V21.5435C12.7704 21.6373 13.0098 21.7886 13.2076 21.9865C13.4055 22.1843 13.5568 22.4237 13.6506 22.6873H26.9881C27.0819 22.4237 27.2332 22.1843 27.431 21.9865C27.6289 21.7886 27.8683 21.6373 28.1318 21.5435V17.581C27.8683 17.4872 27.6289 17.3359 27.431 17.138C27.2332 16.9402 27.0819 16.7008 26.9881 16.4373Z" fill="#44A03C"/>
</svg>
