<svg width="37" height="36" viewBox="0 0 37 36" fill="none" xmlns="http://www.w3.org/2000/svg">
<path fill-rule="evenodd" clip-rule="evenodd" d="M15.9888 1.31634L14.0971 3.80467C14.0121 3.91047 13.8967 3.98764 13.7664 4.02579C13.6362 4.06394 13.4974 4.06122 13.3688 4.01801L10.3088 3.06801C9.84603 2.92438 9.35672 2.88771 8.87775 2.96075C8.39878 3.0338 7.94265 3.21465 7.54376 3.48967C7.14127 3.76565 6.81178 4.13521 6.5836 4.5666C6.35542 4.99799 6.23537 5.47832 6.23376 5.96634V9.04301C6.23376 9.28134 6.05543 9.47968 5.81876 9.55468L2.75876 10.5047C2.29308 10.6464 1.86757 10.8964 1.51706 11.2342C1.16654 11.5719 0.900976 11.9879 0.742093 12.448C0.584833 12.9108 0.54408 13.4052 0.623443 13.8875C0.702805 14.3697 0.899835 14.825 1.19709 15.213L3.08709 17.703C3.15278 17.788 3.18841 17.8923 3.18841 17.9997C3.18841 18.1071 3.15278 18.2114 3.08709 18.2963L1.19709 20.7863C0.899835 21.1743 0.702805 21.6296 0.623443 22.1119C0.54408 22.5942 0.584833 23.0886 0.742093 23.5513C0.900976 24.0115 1.16654 24.4274 1.51706 24.7652C1.86757 25.103 2.29308 25.3529 2.75876 25.4947L5.81876 26.4447C6.05543 26.5197 6.23376 26.718 6.23376 26.9563V30.033C6.23376 31.0113 6.71543 31.9347 7.54376 32.5097C7.94265 32.7847 8.39878 32.9656 8.87775 33.0386C9.35672 33.1116 9.84603 33.075 10.3088 32.9313L13.3688 31.9813C13.4974 31.9381 13.6362 31.9354 13.7664 31.9736C13.8967 32.0117 14.0121 32.0889 14.0971 32.1947L15.9888 34.683C16.5738 35.453 17.5054 35.9163 18.5004 35.9163C19.4954 35.9163 20.4271 35.453 21.0121 34.683L22.9038 32.1947C22.9888 32.0889 23.1042 32.0117 23.2344 31.9736C23.3646 31.9354 23.5035 31.9381 23.6321 31.9813L26.6921 32.9313C27.1548 33.075 27.6441 33.1116 28.1231 33.0386C28.6021 32.9656 29.0582 32.7847 29.4571 32.5097C30.2854 31.9347 30.7671 31.0113 30.7671 30.033V26.9563C30.7671 26.718 30.9454 26.5197 31.1821 26.4447L34.2421 25.4947C34.7078 25.3529 35.1333 25.103 35.4838 24.7652C35.8343 24.4274 36.0999 24.0115 36.2588 23.5513C36.416 23.0886 36.4568 22.5942 36.3774 22.1119C36.298 21.6296 36.101 21.1743 35.8038 20.7863L33.9138 18.2963C33.8481 18.2114 33.8124 18.1071 33.8124 17.9997C33.8124 17.8923 33.8481 17.788 33.9138 17.703L35.8038 15.213C36.101 14.825 36.298 14.3697 36.3774 13.8875C36.4568 13.4052 36.416 12.9108 36.2588 12.448C36.0999 11.9879 35.8343 11.5719 35.4838 11.2342C35.1333 10.8964 34.7078 10.6464 34.2421 10.5047L31.1821 9.55468C30.9454 9.47968 30.7671 9.28134 30.7671 9.04301V5.96634C30.7671 4.98801 30.2854 4.06467 29.4571 3.48967C29.0582 3.21465 28.6021 3.0338 28.1231 2.96075C27.6441 2.88771 27.1548 2.92438 26.6921 3.06801L23.6321 4.01801C23.5035 4.06122 23.3646 4.06394 23.2344 4.02579C23.1042 3.98764 22.9888 3.91047 22.9038 3.80467L21.0121 1.31634C20.4271 0.546341 19.4954 0.0830078 18.5004 0.0830078C17.5054 0.0830078 16.5738 0.546341 15.9888 1.31634ZM24.7804 21.148C24.4307 20.7977 23.985 20.5591 23.4996 20.4622C23.0142 20.3654 22.511 20.4147 22.0536 20.6039C21.5963 20.7931 21.2053 21.1137 20.9303 21.5252C20.6552 21.9367 20.5084 22.4206 20.5084 22.9155C20.5084 23.4105 20.6552 23.8943 20.9303 24.3058C21.2053 24.7173 21.5963 25.0379 22.0536 25.2271C22.511 25.4164 23.0142 25.4657 23.4996 25.3688C23.985 25.2719 24.4307 25.0333 24.7804 24.683C25.2487 24.214 25.5117 23.5783 25.5117 22.9155C25.5117 22.2527 25.2487 21.617 24.7804 21.148ZM23.5088 11.223L11.7238 23.008C11.6077 23.1241 11.5155 23.262 11.4527 23.4137C11.3899 23.5654 11.3575 23.728 11.3575 23.8922C11.3575 24.0564 11.3899 24.219 11.4527 24.3707C11.5155 24.5224 11.6077 24.6602 11.7238 24.7763C11.8399 24.8925 11.9777 24.9846 12.1294 25.0474C12.2811 25.1102 12.4437 25.1426 12.6079 25.1426C12.7721 25.1426 12.9347 25.1102 13.0864 25.0474C13.2381 24.9846 13.376 24.8925 13.4921 24.7763L25.2771 12.9913C25.5116 12.7568 25.6433 12.4388 25.6433 12.1072C25.6433 11.7755 25.5116 11.4575 25.2771 11.223C25.0426 10.9885 24.7246 10.8568 24.3929 10.8568C24.0613 10.8568 23.7433 10.9885 23.5088 11.223ZM15.7571 11.3163C15.5249 11.0841 15.2492 10.8999 14.9458 10.7742C14.6424 10.6486 14.3172 10.5839 13.9888 10.5839C13.6604 10.5839 13.3352 10.6486 13.0317 10.7742C12.7283 10.8999 12.4526 11.0841 12.2204 11.3163C11.9882 11.5486 11.804 11.8242 11.6783 12.1277C11.5526 12.4311 11.488 12.7563 11.488 13.0847C11.488 13.4131 11.5526 13.7383 11.6783 14.0417C11.804 14.3451 11.9882 14.6208 12.2204 14.853C12.6894 15.322 13.3255 15.5855 13.9888 15.5855C14.652 15.5855 15.2881 15.322 15.7571 14.853C16.2261 14.384 16.4896 13.7479 16.4896 13.0847C16.4896 12.4214 16.2261 11.7853 15.7571 11.3163Z" fill="white"/>
</svg>
