<svg width="117" height="112" viewBox="0 0 117 112" fill="none" xmlns="http://www.w3.org/2000/svg">
<path d="M111.672 65.8557L111.637 65.8729C107.558 69.001 105.83 74.3242 107.282 79.2501L107.299 79.2848C109.615 87.1141 103.877 95.0123 95.7192 95.2198H95.6848C90.5344 95.3581 86.0061 98.6418 84.295 103.498V103.516C81.564 111.224 72.266 114.248 65.5427 109.599C61.368 106.748 55.8491 106.6 51.4568 109.599H51.4396C44.7166 114.231 35.4181 111.224 32.7045 103.498C31.867 101.128 30.3298 99.0673 28.2961 97.5891C26.2625 96.1109 23.8282 95.2847 21.3149 95.2196H21.2803C13.1227 95.0121 7.38449 87.1139 9.70057 79.2845L9.71777 79.2499C11.1692 74.324 9.44095 69.0008 5.36242 65.8726L5.32778 65.8554C-1.15353 60.8777 -1.15353 51.1301 5.32778 46.1526L5.36242 46.1354C9.44095 43.0072 11.1692 37.6838 9.70057 32.7581V32.7235C7.36705 24.8943 13.1225 16.9957 21.2803 16.7884H21.3149C26.448 16.6501 30.9934 13.3662 32.7045 8.50975V8.49255C35.4178 0.784283 44.7166 -2.24022 51.4396 2.40914H51.4568C55.6911 5.32999 61.2908 5.32999 65.5427 2.40914C72.3336 -2.28043 81.5801 0.830535 84.295 8.49255V8.50975C86.0061 13.349 90.5341 16.6503 95.6848 16.7884H95.7192C103.877 16.9957 109.615 24.8943 107.299 32.7235L107.282 32.7581C105.83 37.6838 107.558 43.0072 111.637 46.1354L111.672 46.1526C118.153 51.1301 118.153 60.8779 111.672 65.8557Z" fill="#419000"/>
<path d="M58.501 88.1944C76.2815 88.1944 90.6954 73.7805 90.6954 56C90.6954 38.2196 76.2815 23.8057 58.501 23.8057C40.7206 23.8057 26.3066 38.2196 26.3066 56C26.3066 73.7805 40.7206 88.1944 58.501 88.1944Z" fill="#8BD399"/>
<path d="M83.2197 35.3919C77.6511 30.8108 70.5267 28.0573 62.7601 28.0573C44.9798 28.0573 30.5581 42.4791 30.5581 60.2594C30.5581 68.026 33.3116 75.1504 37.8924 80.719C30.8172 74.8171 26.3105 65.9393 26.3105 55.9995C26.3105 38.219 40.72 23.8098 58.5003 23.8098C68.44 23.8098 77.3179 28.3165 83.2197 35.3919Z" fill="black" fill-opacity="0.063"/>
<path d="M50.8399 68.6033L43.7206 61.0291C41.8561 59.0452 41.9523 55.9259 43.9356 54.0614C45.9188 52.1946 49.0396 52.2947 50.9024 54.2773L54.3009 57.8914L68.7466 41.3807C70.5372 39.3316 73.6516 39.1238 75.7023 40.917C77.7513 42.7101 77.9582 45.8236 76.166 47.8727L58.1405 68.4734C56.2202 70.6658 52.8313 70.7232 50.8399 68.6033Z" fill="white"/>
</svg>
