<svg width="76" height="64" viewBox="0 0 76 64" fill="none" xmlns="http://www.w3.org/2000/svg">
<path opacity="0.4" fill-rule="evenodd" clip-rule="evenodd" d="M0.848034 36.4583C-0.0639859 25.7743 14.3115 21.2337 22.5716 14.3745C29.5997 8.53831 35.5756 0.557274 44.7045 0.0395164C54.1914 -0.498539 63.3224 4.51316 69.5053 11.7126C75.2848 18.4423 76.1701 27.5979 75.9812 36.4583C75.7975 45.0744 75.1399 54.6949 68.472 60.1729C62.0919 65.4146 52.9099 63.1397 44.7045 62.1538C37.837 61.3287 32.0108 58.5702 26.0459 55.0754C16.6769 49.5861 1.7701 47.2599 0.848034 36.4583Z" fill="#EB8D8D"/>
<g clip-path="url(#clip0_1410_15650)">
<path d="M41.1401 19.2862C40.5987 19.4622 40.2154 19.9424 40.1642 20.5083L39.4635 28.2264L32.3223 31.2767C31.7976 31.5019 31.459 32.0143 31.459 32.5847C31.459 33.155 31.7976 33.6676 32.3223 33.8914L39.4635 36.9417L40.1642 44.661C40.2165 45.2269 40.5997 45.7061 41.1401 45.8831C41.6815 46.0592 42.2753 45.8966 42.6507 45.4686L47.7665 39.6343L55.3431 41.3546C55.9002 41.4804 56.4762 41.2642 56.8104 40.802C56.9909 40.5535 57.0811 40.2616 57.0811 39.9687C57.0811 39.717 57.0142 39.465 56.8795 39.24L52.9001 32.5847L56.8795 25.9305C57.1712 25.4424 57.1445 24.8286 56.8104 24.3674C56.4762 23.9051 55.9002 23.6889 55.3431 23.8148L47.7665 25.535L42.6507 19.7007C42.2753 19.2729 41.6827 19.1102 41.1401 19.2862Z" fill="#3A4F39"/>
</g>
<defs>
<clipPath id="clip0_1410_15650">
<rect width="26.7368" height="26.7368" fill="white" transform="matrix(0 -1 1 0 30.8848 45.9531)"/>
</clipPath>
</defs>
</svg>
