<svg width="52" height="58" viewBox="0 0 52 58" fill="none" xmlns="http://www.w3.org/2000/svg">
<path fill-rule="evenodd" clip-rule="evenodd" d="M40.876 36.8304H11.1238C8.71961 36.8304 6.74948 34.9605 6.74948 32.6564V7.71265H45.2504V32.6564C45.2504 34.9605 43.2802 36.8304 40.876 36.8304ZM22.9446 52.6248V46.3471H1.64052C0.805722 46.3471 0.104492 45.6459 0.104492 44.8111V41.6388H51.8954V44.8111C51.8954 45.6459 51.1941 46.3471 50.3259 46.3471H29.0219V52.6248H37.7372C38.1379 52.6248 38.4718 52.9587 38.4718 53.3928V56.732C38.4718 57.1327 38.1379 57.4666 37.7372 57.4666H14.2627C13.8286 57.4666 13.4946 57.1327 13.4946 56.732V53.3928C13.4946 52.9587 13.8286 52.6248 14.2627 52.6248H22.9446ZM48.1889 43.8427C48.7231 43.8427 48.7231 42.9745 48.1889 42.9745H46.0852C45.5509 42.9745 45.5509 43.8427 46.0852 43.8427H48.1889ZM43.7477 43.8427C44.282 43.8427 44.282 42.9745 43.7477 42.9745H41.644C41.1098 42.9745 41.1098 43.8427 41.644 43.8427H43.7477ZM0.104492 40.804V14.4912C0.104492 13.623 0.805722 12.9218 1.64052 12.9218H5.8479V32.6564C5.8479 35.5281 8.3189 37.732 11.1238 37.732H40.876C43.6809 37.732 46.1186 35.5281 46.1186 32.6564V12.9218H50.3259C51.1941 12.9218 51.8954 13.623 51.8954 14.4912V40.804H0.104492ZM19.8057 23.507C20.8075 23.507 21.7758 23.2399 22.644 22.739L23.0781 24.3752L19.8057 26.913L16.6335 24.3752L17.0676 22.7056C17.869 23.2399 18.8374 23.507 19.8057 23.507ZM23.3787 22.2047C23.579 22.0378 23.746 21.8708 23.9129 21.7039C24.9815 20.5351 25.3822 19.0993 25.2486 17.5299C25.9498 15.3928 25.8831 12.7214 24.1801 11.0185C21.7758 8.64763 18.6036 10.1837 18.2029 10.0835C17.101 9.71617 16.0992 10.1837 15.3646 11.0518C14.0623 12.5879 13.5614 15.5264 14.63 17.3295C14.7635 17.8638 14.4296 20.2346 16.3664 22.138L15.8321 24.1081H14.3294C11.6915 24.1081 9.52101 26.2452 9.52101 28.9165V33.2575C9.52101 33.4912 9.72136 33.6916 9.95511 33.6916H29.7565C29.9903 33.6916 30.1906 33.4912 30.1906 33.2575V28.9165C30.1906 26.2452 28.0535 24.1081 25.4156 24.1081H23.9129L23.3787 22.2047ZM24.8145 15.493C24.0465 13.4227 23.1783 14.4244 21.9762 14.4244C19.8725 14.4244 19.5052 11.3524 17.6686 12.3875C16.3664 13.1555 15.4314 14.2575 14.9305 15.6599C14.6634 13.8568 15.8321 9.9833 18.1361 10.9517C18.2363 10.9851 18.3365 10.9851 18.4367 10.9517C22.0764 9.64938 25.1484 11.4859 24.8145 15.493ZM17.8356 13.2891L17.3013 12.7548C18.3031 12.9886 18.5034 12.8884 19.2047 13.7232C20.507 15.2258 21.6423 15.5931 23.5122 14.9921C24.0799 15.5931 24.2802 16.7619 24.3804 17.5633C25.0816 23.4402 15.6651 25.2434 15.4648 17.4965C15.4314 15.7935 16.4665 14.1573 17.8356 13.2891ZM10.3892 32.8568V28.9165C10.3892 26.7127 12.159 24.9763 14.3294 24.9763H15.999L19.5386 27.8146C19.7055 27.9148 19.9059 27.9148 20.0729 27.8146L23.7126 24.9763H25.4156C27.586 24.9763 29.3558 26.7127 29.3558 28.9165V32.8568H26.5175V30.2856C26.5175 29.7513 25.6493 29.7513 25.6493 30.2856V32.8568H14.0623V30.2856C14.0623 29.7513 13.2275 29.7513 13.2275 30.2856V32.8568H10.3892ZM42.0113 32.3893C42.579 32.3893 42.579 31.5211 42.0113 31.5211H32.8286C32.2943 31.5211 32.2943 32.3893 32.8286 32.3893H42.0113ZM42.0113 28.5158C42.579 28.5158 42.579 27.681 42.0113 27.681H32.8286C32.2943 27.681 32.2943 28.5158 32.8286 28.5158H42.0113ZM42.0113 24.6757C42.579 24.6757 42.579 23.8409 42.0113 23.8409H32.8286C32.2943 23.8409 32.2943 24.6757 32.8286 24.6757H42.0113ZM42.0113 20.8357C42.579 20.8357 42.579 20.0009 42.0113 20.0009H32.8286C32.2943 20.0009 32.2943 20.8357 32.8286 20.8357H42.0113ZM41.3101 16.3278C41.5439 16.3278 41.7442 16.1274 41.7442 15.8937V11.4192C41.7442 11.1854 41.5439 10.9851 41.3101 10.9851H33.5632C33.3294 10.9851 33.1291 11.1854 33.1291 11.4192V15.8937C33.1291 16.1274 33.3294 16.3278 33.5632 16.3278H41.3101ZM33.9639 15.4596V11.8533H40.876V15.4596H33.9639ZM24.7811 4.70738C25.3488 4.70738 25.3488 3.87258 24.7811 3.87258H22.2433C21.6757 3.87258 21.6757 4.70738 22.2433 4.70738H24.7811ZM19.6388 4.70738C20.173 4.70738 20.173 3.87258 19.6388 3.87258H17.0676C16.5333 3.87258 16.5333 4.70738 17.0676 4.70738H19.6388ZM14.463 4.70738C14.9973 4.70738 14.9973 3.87258 14.463 3.87258H11.9252C11.3576 3.87258 11.3576 4.70738 11.9252 4.70738H14.463ZM6.74948 6.87786V4.67399C6.74948 2.36995 8.71961 0.5 11.1238 0.5H40.876C43.2802 0.5 45.2504 2.36995 45.2504 4.67399V6.87786H6.74948Z" fill="white"/>
</svg>
