<svg width="41" height="43" viewBox="0 0 41 43" fill="none" xmlns="http://www.w3.org/2000/svg">
<path fill-rule="evenodd" clip-rule="evenodd" d="M40.5683 13.9998V37.9998C40.5683 39.1932 40.0942 40.3378 39.2503 41.1817C38.4063 42.0257 37.2617 42.4998 36.0683 42.4998H12.0593C11.4682 42.5 10.8829 42.3837 10.3367 42.1576C9.7906 41.9316 9.29435 41.6002 8.87632 41.1823C8.4583 40.7644 8.1267 40.2682 7.90046 39.7222C7.67422 39.1761 7.55778 38.5908 7.55778 37.9998V27.3018C8.28827 27.4323 9.04128 27.4998 9.80778 27.4998C16.8473 27.4998 22.5623 21.7863 22.5623 14.7498C22.5623 7.71326 16.8473 1.99976 9.80927 1.99976C9.42227 1.99976 9.03827 2.01776 8.66028 2.05076C9.08277 1.56319 9.60529 1.1723 10.1923 0.904671C10.7793 0.63704 11.4171 0.49894 12.0623 0.499759H27.0668V9.49976C27.0668 10.6932 27.5409 11.8378 28.3848 12.6817C29.2287 13.5257 30.3733 13.9998 31.5668 13.9998H40.5683ZM16.5623 34.9998V33.4998C16.5623 33.1019 16.4042 32.7204 16.1229 32.4391C15.8416 32.1578 15.4601 31.9998 15.0623 31.9998C14.6645 31.9998 14.2829 32.1578 14.0016 32.4391C13.7203 32.7204 13.5623 33.1019 13.5623 33.4998V34.9998C13.5623 35.3976 13.7203 35.7791 14.0016 36.0604C14.2829 36.3417 14.6645 36.4998 15.0623 36.4998C15.4601 36.4998 15.8416 36.3417 16.1229 36.0604C16.4042 35.7791 16.5623 35.3976 16.5623 34.9998ZM22.5653 34.9998V28.9998C22.5653 28.6019 22.4072 28.2204 22.1259 27.9391C21.8446 27.6578 21.4631 27.4998 21.0653 27.4998C20.6675 27.4998 20.2859 27.6578 20.0046 27.9391C19.7233 28.2204 19.5653 28.6019 19.5653 28.9998V34.9998C19.5653 35.3976 19.7233 35.7791 20.0046 36.0604C20.2859 36.3417 20.6675 36.4998 21.0653 36.4998C21.4631 36.4998 21.8446 36.3417 22.1259 36.0604C22.4072 35.7791 22.5653 35.3976 22.5653 34.9998ZM28.5653 34.9998V30.4998C28.5653 30.1019 28.4072 29.7204 28.1259 29.4391C27.8446 29.1578 27.4631 28.9998 27.0653 28.9998C26.6675 28.9998 26.2859 29.1578 26.0046 29.4391C25.7233 29.7204 25.5653 30.1019 25.5653 30.4998V34.9998C25.5653 35.3976 25.7233 35.7791 26.0046 36.0604C26.2859 36.3417 26.6675 36.4998 27.0653 36.4998C27.4631 36.4998 27.8446 36.3417 28.1259 36.0604C28.4072 35.7791 28.5653 35.3976 28.5653 34.9998ZM34.5683 34.9998V24.4998C34.5683 24.1019 34.4102 23.7204 34.1289 23.4391C33.8476 23.1578 33.4661 22.9998 33.0683 22.9998C32.6705 22.9998 32.2889 23.1578 32.0076 23.4391C31.7263 23.7204 31.5683 24.1019 31.5683 24.4998V34.9998C31.5683 35.3976 31.7263 35.7791 32.0076 36.0604C32.2889 36.3417 32.6705 36.4998 33.0683 36.4998C33.4661 36.4998 33.8476 36.3417 34.1289 36.0604C34.4102 35.7791 34.5683 35.3976 34.5683 34.9998ZM30.0683 0.52826C31.1522 0.652235 32.1543 1.16553 32.8883 1.97276L39.3998 9.13226C39.8858 9.66926 40.2338 10.3098 40.4183 10.9998H31.5683C31.3711 11.0004 31.1758 10.962 30.9936 10.8868C30.8113 10.8116 30.6457 10.7011 30.5063 10.5617C30.3669 10.4223 30.2564 10.2567 30.1812 10.0745C30.1061 9.89223 30.0677 9.69691 30.0683 9.49976V0.52826ZM19.4453 16.2498C19.0857 18.5475 17.9172 20.6413 16.1505 22.1539C14.3838 23.6665 12.135 24.4984 9.80927 24.4998C7.2235 24.4986 4.74394 23.4711 2.91524 21.6429C1.08654 19.8148 0.0582617 17.3355 0.0562744 14.7498C0.0580853 12.4238 0.890576 10.175 2.40373 8.40857C3.91689 6.64212 6.0112 5.4742 8.30927 5.11526V13.2498C8.30927 14.0454 8.62535 14.8085 9.18795 15.3711C9.75056 15.9337 10.5136 16.2498 11.3093 16.2498H19.4453ZM11.3093 5.11526C13.3523 5.4347 15.2411 6.39454 16.7036 7.85645C18.166 9.31837 19.1266 11.2069 19.4468 13.2498H11.3093V5.11526Z" fill="#1E6A83"/>
</svg>
