<svg width="105" height="32" viewBox="0 0 105 32" fill="none" xmlns="http://www.w3.org/2000/svg">
<path d="M28.2312 9.13789C27.5344 8.71535 26.711 8.49987 25.8743 8.52109H25.2719L26.9298 6.38367H25.2968L22.8762 9.69679H25.714C26.1163 9.67918 26.5176 9.74686 26.8863 9.89452C27.255 10.0422 27.5811 10.2658 27.8389 10.5477C28.2849 11.0504 28.52 11.6814 28.502 12.3277H19.9583C20.1736 11.8921 20.2784 11.418 20.2651 10.9405V8.52109H18.8835V11.0966C18.8835 11.9123 18.5381 12.3277 17.839 12.3277H16.4961C16.6785 12.1489 16.7724 11.6882 16.7724 10.9631V8.52109H15.3908V11.0815C15.3908 11.9097 15.0482 12.3251 14.3491 12.3251H13.2273C13.2673 12.0953 13.2876 11.863 13.2881 11.6303V8.52109H11.9065V11.4868C11.9278 12.1558 11.717 12.8138 11.3041 13.3674C11.0923 13.6442 10.8102 13.8703 10.4819 14.0264C10.1535 14.1826 9.78865 14.2641 9.41828 14.2641C9.04791 14.2641 8.68303 14.1826 8.35468 14.0264C8.02633 13.8703 7.74424 13.6442 7.53242 13.3674C7.11329 12.8156 6.89487 12.1578 6.90795 11.4868V8.52109H5.52637V11.6328C5.51445 12.134 5.61132 12.6325 5.81143 13.0995C6.01154 13.5666 6.31093 13.993 6.69242 14.3543C7.03482 14.7039 7.45532 14.9827 7.9257 15.172C8.39608 15.3613 8.90546 15.4568 9.41966 15.452C9.93939 15.4579 10.4542 15.3595 10.9274 15.1637C11.4007 14.9679 11.8208 14.6795 12.1579 14.3191C12.3837 14.1027 12.5778 13.8607 12.7354 13.599H29.9776V12.8186C29.9776 11.0613 29.4001 9.84281 28.2312 9.13789Z" fill="white"/>
<path d="M39.9085 11.1521C39.9253 11.4237 39.8927 11.6959 39.8118 11.9577C39.6764 12.2095 39.3946 12.3278 38.9387 12.3278H36.4518V11.0287C36.4518 9.5635 35.3935 8.51116 33.8959 8.51116C33.5317 8.49606 33.168 8.54974 32.8276 8.66884C32.4873 8.78794 32.1776 8.96988 31.9181 9.20323C31.6586 9.43658 31.4549 9.7163 31.3198 10.0248C31.1846 10.3333 31.1209 10.664 31.1327 10.996C31.13 12.4738 32.3292 13.5992 33.8213 13.5992H35.1338C34.9376 14.1908 34.4844 14.4602 33.7716 14.4602V15.4446C35.3659 15.4446 36.2584 14.8303 36.4491 13.5992H39.2122C40.5744 13.5992 41.2625 12.927 41.2625 11.5725V8.52123H39.8975L39.9085 11.1521ZM35.0592 12.3404H33.8462C33.1084 12.3404 32.5309 11.7135 32.5309 10.9406C32.5309 10.1677 33.0476 9.68183 33.8572 9.68183C34.5701 9.68183 34.9873 10.1526 35.0592 10.8122V12.3404Z" fill="white"/>
<path d="M41.2625 14.7999H39.9224V16.0537H41.2625V14.7999Z" fill="white"/>
<path d="M73.0053 8.52109V11.0966C73.0053 11.9123 72.6627 12.3277 71.9636 12.3277H70.6235C70.8086 12.1489 70.8998 11.6882 70.8998 10.9631V8.52109H69.5182V11.0815C69.5182 11.9097 69.1756 12.3251 68.4737 12.3251H67.1971V12.2572C67.3436 12.0457 67.4182 11.6202 67.4182 10.9606V8.51857H66.0366V11.0059C66.0366 11.8896 65.6912 12.3277 64.9921 12.3277H63.1878C63.1878 9.50797 61.6156 7.40328 58.9519 6.90984L58.7778 8.1082C60.56 8.44304 61.8173 10.0996 61.8173 11.9802C61.824 12.096 61.824 12.2119 61.8173 12.3277H60.1953C60.3812 11.9618 60.489 11.5671 60.5131 11.1645C60.5131 9.82015 59.5294 8.99187 58.0925 8.99187C56.6557 8.99187 55.661 9.82015 55.661 11.1645C55.6803 11.5712 55.7863 11.9705 55.9732 12.3402H52.7182C52.7691 12.1116 52.7941 11.8787 52.7928 11.6454V6.38367H51.4112V11.4868C51.4112 13.0653 50.3778 14.2561 48.9244 14.2561C47.4268 14.2561 46.4182 13.025 46.4182 11.4868V10.5351H45.0366V11.6328C45.0366 13.7375 46.7912 15.462 48.9299 15.462C49.6151 15.4533 50.2849 15.276 50.8686 14.949C51.4522 14.6219 51.9281 14.1572 52.2457 13.6041H72.0161C73.417 13.6041 74.4007 12.5517 74.4007 10.9405V8.52109H73.0053ZM58.0843 12.3604C57.4211 12.3604 56.9569 11.8569 56.9569 11.1645C56.9569 10.4722 57.3603 9.98883 58.0843 9.98883C58.7612 9.98883 59.2144 10.4571 59.2144 11.1645C59.2144 11.872 58.7364 12.3604 58.0843 12.3604Z" fill="white"/>
<path d="M7.63171 25.6079C7.2475 25.6111 6.86456 25.5671 6.49329 25.477L6.57894 24.8602C6.93114 24.9856 7.30606 25.0496 7.68421 25.049C8.28381 25.049 8.80605 24.8249 8.80605 24.2434C8.80605 23.1784 6.46289 23.5989 6.46289 22.0933C6.46289 21.3154 7.10671 20.7565 8.27552 20.7565C8.59139 20.7551 8.90646 20.7855 9.215 20.8471L9.11829 21.4035C8.82885 21.3232 8.52833 21.2808 8.22579 21.2777C7.51842 21.2777 7.18131 21.5722 7.18131 22.0128C7.18131 23.0198 9.55486 22.6648 9.55486 24.1502C9.5521 25.0062 8.79223 25.6079 7.63171 25.6079Z" fill="white"/>
<path d="M16.01 25.5449L15.5789 24.4397H13.3684L12.9373 25.5449H12.2217L14.0923 20.8195H14.8909L16.7892 25.5449H16.01ZM14.703 22.1588C14.6118 21.9272 14.5427 21.7182 14.4792 21.5143C14.4184 21.7182 14.3465 21.9272 14.2637 22.1462L13.5397 23.9211H15.3827L14.703 22.1588Z" fill="white"/>
<path d="M23.1803 25.5449V23.3672H20.536V25.5449H19.8286V20.8195H20.536V22.8209H23.1803V20.8195H23.8877V25.5449H23.1803Z" fill="white"/>
<path d="M27.6455 25.5449V20.8195H30.312V21.3507H28.3529V22.8486H30.2208V23.3672H28.3529V25.0062H30.312V25.5449H27.6455Z" fill="white"/>
<path d="M33.8018 25.5449V20.8195H34.5091V24.9936H36.3687V25.5449H33.8018Z" fill="white"/>
<path d="M43.0361 25.5677C42.6603 25.5677 42.221 25.5526 41.7153 25.545V20.8195C42.0911 20.8195 42.6051 20.7969 43.2295 20.7969C44.3348 20.7969 44.8874 21.2249 44.8874 21.9323C44.8903 22.1788 44.8051 22.4195 44.6446 22.618C44.4841 22.8165 44.257 22.962 43.9977 23.0325C44.2922 23.061 44.5638 23.1906 44.7573 23.395C44.9507 23.5993 45.0516 23.863 45.0394 24.1327C45.0394 24.7746 44.5724 25.5677 43.0361 25.5677ZM43.1052 21.3105C42.8593 21.3105 42.6134 21.3105 42.4144 21.323V22.8562C42.5581 22.8562 42.6907 22.8562 42.8814 22.8562C43.7352 22.8562 44.1414 22.5491 44.1414 22.0305C44.1497 21.6176 43.9038 21.3105 43.1052 21.3105ZM42.898 23.3472C42.8123 23.3472 42.536 23.3472 42.4144 23.3472V25.0063C42.5526 25.0214 42.851 25.0415 43.0748 25.0415C43.9203 25.0415 44.2961 24.6563 44.2961 24.1578C44.3044 23.5712 43.7518 23.3472 42.9063 23.3472H42.898Z" fill="white"/>
<path d="M50.4386 25.6155C48.8774 25.6155 48.123 24.6714 48.123 23.2414C48.123 21.6604 49.2283 20.749 50.5823 20.749C52.1434 20.749 52.8978 21.6956 52.8978 23.1231C52.8978 24.7066 51.7815 25.6155 50.4386 25.6155ZM50.5132 21.3155C49.6152 21.3155 48.8774 21.9751 48.8774 23.1432C48.8774 24.3114 49.4079 25.0415 50.5076 25.0415C51.4057 25.0415 52.1434 24.3894 52.1434 23.2213C52.1434 22.0531 51.6046 21.3155 50.5132 21.3155Z" fill="white"/>
<path d="M58.2141 25.6155C56.6557 25.6155 55.9014 24.6714 55.9014 23.2414C55.9014 21.6604 57.0066 20.749 58.3606 20.749C59.9218 20.749 60.6733 21.6956 60.6733 23.1231C60.6733 24.7066 59.5598 25.6155 58.2141 25.6155ZM58.3026 21.3155C57.4045 21.3155 56.6668 21.9751 56.6668 23.1432C56.6668 24.3114 57.1973 25.0415 58.2943 25.0415C59.1951 25.0415 59.9328 24.3894 59.9328 23.2213C59.9328 22.0531 59.3829 21.3155 58.3026 21.3155Z" fill="white"/>
<path d="M66.7161 25.5449L64.6576 23.2061V25.5449H63.9502V20.8195H64.6576V23.045L66.7161 20.8195H67.592L65.3953 23.1029L67.6694 25.5449H66.7161Z" fill="white"/>
<path d="M71.5493 25.6079C71.1651 25.6111 70.7822 25.5671 70.4109 25.477L70.4966 24.8602C70.8444 24.9841 71.2145 25.0481 71.588 25.049C72.1876 25.049 72.7099 24.8249 72.7099 24.2434C72.7099 23.1784 70.3667 23.5989 70.3667 22.0934C70.3667 21.3154 71.0105 20.7565 72.1793 20.7565C72.4943 20.755 72.8085 20.7854 73.116 20.8472L73.0331 21.4136C72.7437 21.3333 72.4432 21.2909 72.1406 21.2877C71.4333 21.2877 71.0962 21.5823 71.0962 22.0229C71.0962 23.0299 73.4697 22.6749 73.4697 24.1603C73.4697 25.0062 72.7099 25.6079 71.5493 25.6079Z" fill="white"/>
<path d="M99.363 0.00417375C99.363 0.00417375 103.121 10.8801 93.7676 19.2082C93.7676 19.2082 94.2097 19.2988 95.6631 18.3069C95.6631 18.3069 93.7289 21.4816 89.3383 23.9564C89.3383 23.9564 89.8909 24.0923 91.8251 23.2011C91.8251 23.2011 90.496 25.2957 86.1164 26.1718L85.4395 28.3671H99.9875C101.317 28.3625 102.591 27.8785 103.53 27.0208C104.469 26.1632 104.998 25.0017 105 23.7902V7.89928C105 7.21015 104.701 6.54902 104.167 6.06032C103.634 5.57162 102.91 5.29507 102.154 5.29108C102.154 5.29108 99.8549 -0.172056 99.363 0.00417375Z" fill="white"/>
<path d="M96.6083 2.6803L94.7183 3.9844C94.0285 4.46171 93.186 4.71992 92.3198 4.71953H82.4609C81.5634 4.72153 80.7034 5.04795 80.0698 5.62712C79.4363 6.20628 79.0808 6.99086 79.0815 7.80859V25.1144C79.0815 25.9802 79.4581 26.8108 80.1288 27.4242C80.7994 28.0376 81.7095 28.3839 82.6598 28.3872L84.3979 31.9999C84.3423 29.1059 84.9113 26.2301 86.0723 23.5359C86.0723 23.5359 86.8433 21.4941 91.1427 17.0405C92.6648 15.4758 93.9773 13.7518 95.0526 11.9047C96.0031 10.2632 96.9426 8.26427 97.3709 6.25022C97.3709 6.25022 96.4342 10.4823 91.314 15.6584C86.1939 20.8345 85.4368 22.768 85.4368 22.768C85.4368 22.768 84.6272 24.4044 84.5471 25.3208C84.5471 25.3208 82.3642 22.194 84.3647 16.4137C84.3647 16.4137 85.318 13.6317 86.1221 12.4762C86.1221 12.4762 85.481 14.8477 85.9729 16.5723C85.9729 16.5723 85.3843 13.0023 91.4218 8.28945C91.4218 8.28945 95.5886 5.29102 96.6083 2.6803Z" fill="white"/>
<path d="M2.45645 4.26893C1.97158 4.26793 1.49729 4.39799 1.09357 4.64265C0.689856 4.8873 0.374854 5.23557 0.188421 5.64337C0.0019886 6.05118 -0.0474979 6.50021 0.0462227 6.93365C0.139943 7.36708 0.37266 7.76546 0.714929 8.07836C1.0572 8.39127 1.49364 8.60465 1.96904 8.69151C2.44444 8.77836 2.93744 8.7348 3.38565 8.56631C3.83387 8.39783 4.21717 8.11201 4.48706 7.745C4.75695 7.378 4.90129 6.9463 4.90184 6.50453C4.90185 5.91292 4.64447 5.34543 4.18611 4.92638C3.72774 4.50734 3.10577 4.27093 2.45645 4.26893ZM2.45645 8.52362C2.01925 8.52362 1.59186 8.4055 1.22834 8.18419C0.864825 7.96289 0.581496 7.64833 0.414187 7.28031C0.246877 6.91229 0.203102 6.50733 0.288395 6.11664C0.373689 5.72595 0.584221 5.36708 0.893369 5.08541C1.20252 4.80374 1.59639 4.61192 2.02519 4.53421C2.45399 4.45649 2.89846 4.49638 3.30238 4.64882C3.7063 4.80126 4.05154 5.0594 4.29443 5.39061C4.53733 5.72183 4.66697 6.11122 4.66697 6.50957C4.66697 6.77448 4.60961 7.03679 4.49818 7.28148C4.38675 7.52616 4.22342 7.74841 4.01757 7.9355C3.81172 8.12259 3.56738 8.27084 3.29855 8.37176C3.02972 8.47268 2.74168 8.52429 2.45092 8.52362H2.45645ZM3.47882 7.30512C3.45281 7.17957 3.41395 7.05651 3.36276 6.93755C3.30628 6.80381 3.22288 6.68086 3.11684 6.57502L3.14447 6.5574C3.28654 6.46844 3.39088 6.33783 3.44013 6.18732C3.48014 6.05957 3.48676 5.92507 3.45947 5.79458C3.42876 5.62495 3.33036 5.47163 3.18316 5.36407C3.09116 5.29931 2.98733 5.24988 2.87645 5.21805C2.75054 5.17863 2.6196 5.15409 2.48684 5.14504C2.36817 5.13749 2.24907 5.13749 2.13039 5.14504C2.03921 5.14504 1.95079 5.16015 1.85408 5.17274C1.75737 5.18532 1.68553 5.19539 1.59987 5.2105C1.5893 5.2119 1.57926 5.21561 1.5706 5.22131C1.56194 5.22701 1.55492 5.23453 1.55013 5.24323C1.53672 5.26189 1.52997 5.28387 1.53079 5.30617C1.53079 6.12689 1.53079 6.94678 1.53079 7.76583C1.53079 7.76583 1.53079 7.76583 1.53079 7.78094C1.53078 7.79207 1.53323 7.80308 1.53798 7.81333C1.54274 7.82357 1.5497 7.83285 1.55847 7.84059C1.56723 7.84834 1.57761 7.85441 1.58899 7.85843C1.60038 7.86246 1.61253 7.86436 1.62474 7.86402H1.96737C1.98683 7.86534 2.0062 7.86058 2.02228 7.8505C2.03836 7.84043 2.05018 7.82566 2.05579 7.80863C2.05716 7.79524 2.05716 7.78175 2.05579 7.76835V6.8016C2.05579 6.77895 2.05579 6.78146 2.07789 6.78146H2.32658C2.37075 6.77895 2.41504 6.77895 2.45921 6.78146C2.53103 6.78592 2.59957 6.81054 2.65539 6.85196C2.71347 6.89544 2.76219 6.94837 2.79908 7.00805C2.86293 7.10986 2.91127 7.21912 2.94276 7.33281C2.98693 7.48155 3.01925 7.633 3.03947 7.78597C3.04018 7.79689 3.04324 7.80757 3.04849 7.81741C3.05373 7.82725 3.06106 7.83604 3.07004 7.84329C3.07903 7.85055 3.0895 7.85611 3.10085 7.85966C3.1122 7.86322 3.1242 7.8647 3.13618 7.86402H3.48158C3.49553 7.86457 3.50933 7.86125 3.52117 7.85451C3.533 7.84777 3.54232 7.83792 3.54789 7.82626C3.54908 7.81622 3.54908 7.80609 3.54789 7.79605C3.55209 7.77017 3.55209 7.74387 3.54789 7.718C3.53408 7.58205 3.51197 7.4461 3.47882 7.30512ZM2.92618 6.09417C2.89911 6.1527 2.85149 6.2014 2.79079 6.23263C2.73117 6.26389 2.6655 6.28441 2.59737 6.29305C2.52513 6.30309 2.45216 6.30814 2.37908 6.30816H2.08895C2.05855 6.30816 2.05855 6.30816 2.05855 6.28047V5.63093C2.05855 5.61835 2.05855 5.61583 2.07513 5.61583H2.1746C2.26658 5.60954 2.35894 5.60954 2.45092 5.61583C2.5448 5.61986 2.6377 5.6351 2.72724 5.66114C2.78316 5.67991 2.83472 5.70809 2.87921 5.74422C2.93006 5.7905 2.96303 5.85058 2.97316 5.91542C2.97877 5.97983 2.96441 6.04438 2.93171 6.10172L2.92618 6.09417Z" fill="white"/>
<path d="M3.55622 7.71803C3.53412 7.58208 3.51201 7.44613 3.47886 7.3127C3.45285 7.18714 3.41399 7.06408 3.3628 6.94513C3.30632 6.81139 3.22292 6.68844 3.11688 6.5826L3.14451 6.56498C3.28658 6.47602 3.39092 6.34541 3.44017 6.19489C3.4815 6.06477 3.48813 5.92753 3.45951 5.7946C3.4288 5.62497 3.3304 5.47166 3.1832 5.3641C3.0912 5.29934 2.98737 5.2499 2.87649 5.21808C2.75058 5.17865 2.61964 5.15411 2.48688 5.14507C2.36821 5.13752 2.24911 5.13752 2.13043 5.14507C2.03925 5.14507 1.95083 5.16017 1.85412 5.17276C1.75741 5.18535 1.68557 5.19542 1.59991 5.21052C1.58934 5.21193 1.5793 5.21563 1.57064 5.22133C1.56198 5.22703 1.55496 5.23455 1.55017 5.24325C1.53676 5.26191 1.53001 5.2839 1.53083 5.30619C1.53083 6.12692 1.53083 6.94681 1.53083 7.76586C1.53083 7.76586 1.53083 7.76586 1.53083 7.78096C1.53082 7.79209 1.53327 7.8031 1.53802 7.81335C1.54278 7.8236 1.54974 7.83287 1.55851 7.84062C1.56727 7.84837 1.57765 7.85443 1.58903 7.85846C1.60042 7.86248 1.61257 7.86438 1.62478 7.86404H1.96741C1.98687 7.86537 2.00624 7.8606 2.02232 7.85053C2.0384 7.84046 2.05022 7.82569 2.05583 7.80866C2.0572 7.79526 2.0572 7.78177 2.05583 7.76838V6.80163C2.05583 6.77897 2.05583 6.78149 2.07793 6.78149H2.32662C2.37079 6.77898 2.41508 6.77898 2.45925 6.78149C2.53107 6.78594 2.59961 6.81057 2.65543 6.85198C2.71351 6.89547 2.76223 6.94839 2.79912 7.00807C2.86297 7.10988 2.91131 7.21914 2.9428 7.33284C2.98697 7.48157 3.01929 7.63302 3.03951 7.786C3.04022 7.79692 3.04328 7.8076 3.04853 7.81744C3.05377 7.82727 3.0611 7.83607 3.07008 7.84332C3.07907 7.85057 3.08953 7.85613 3.10089 7.85969C3.11224 7.86325 3.12424 7.86473 3.13622 7.86404H3.48162C3.49557 7.86459 3.50937 7.86128 3.52121 7.85454C3.53304 7.8478 3.54236 7.83794 3.54793 7.82628C3.54912 7.81624 3.54912 7.80611 3.54793 7.79607C3.5549 7.77057 3.55769 7.74427 3.55622 7.71803ZM2.93175 6.10174C2.90468 6.16028 2.85706 6.20898 2.79636 6.24021C2.73673 6.27147 2.67107 6.29199 2.60293 6.30063C2.53069 6.31067 2.45772 6.31572 2.38464 6.31574H2.08899C2.05859 6.31574 2.05859 6.31574 2.05859 6.28804V5.63096C2.05859 5.61837 2.05859 5.61585 2.07517 5.61585H2.17464C2.26662 5.60956 2.35898 5.60956 2.45096 5.61585C2.54484 5.61989 2.63774 5.63512 2.72728 5.66117C2.7832 5.67994 2.83476 5.70812 2.87925 5.74425C2.9301 5.79053 2.96307 5.85061 2.9732 5.91544C2.97881 5.97986 2.96445 6.04441 2.93175 6.10174Z" fill="white"/>
<path d="M3.55622 7.71803C3.53412 7.58208 3.51201 7.44613 3.47886 7.3127C3.45285 7.18714 3.41399 7.06408 3.3628 6.94513C3.30632 6.81139 3.22292 6.68844 3.11688 6.5826L3.14451 6.56498C3.28658 6.47602 3.39092 6.34541 3.44017 6.19489C3.4815 6.06477 3.48813 5.92753 3.45951 5.7946C3.4288 5.62497 3.3304 5.47166 3.1832 5.3641C3.0912 5.29934 2.98737 5.2499 2.87649 5.21808C2.75058 5.17865 2.61964 5.15411 2.48688 5.14507C2.36821 5.13752 2.24911 5.13752 2.13043 5.14507C2.03925 5.14507 1.95083 5.16017 1.85412 5.17276C1.75741 5.18535 1.68557 5.19542 1.59991 5.21052C1.58934 5.21193 1.5793 5.21563 1.57064 5.22133C1.56198 5.22703 1.55496 5.23455 1.55017 5.24325C1.53676 5.26191 1.53001 5.2839 1.53083 5.30619C1.53083 6.12692 1.53083 6.94681 1.53083 7.76586C1.53083 7.76586 1.53083 7.76586 1.53083 7.78096C1.53082 7.79209 1.53327 7.8031 1.53802 7.81335C1.54278 7.8236 1.54974 7.83287 1.55851 7.84062C1.56727 7.84837 1.57765 7.85443 1.58903 7.85846C1.60042 7.86248 1.61257 7.86438 1.62478 7.86404H1.96741C1.98687 7.86537 2.00624 7.8606 2.02232 7.85053C2.0384 7.84046 2.05022 7.82569 2.05583 7.80866C2.0572 7.79526 2.0572 7.78177 2.05583 7.76838V6.80163C2.05583 6.77897 2.05583 6.78149 2.07793 6.78149H2.32662C2.37079 6.77898 2.41508 6.77898 2.45925 6.78149C2.53107 6.78594 2.59961 6.81057 2.65543 6.85198C2.71351 6.89547 2.76223 6.94839 2.79912 7.00807C2.86297 7.10988 2.91131 7.21914 2.9428 7.33284C2.98697 7.48157 3.01929 7.63302 3.03951 7.786C3.04022 7.79692 3.04328 7.8076 3.04853 7.81744C3.05377 7.82727 3.0611 7.83607 3.07008 7.84332C3.07907 7.85057 3.08953 7.85613 3.10089 7.85969C3.11224 7.86325 3.12424 7.86473 3.13622 7.86404H3.48162C3.49557 7.86459 3.50937 7.86128 3.52121 7.85454C3.53304 7.8478 3.54236 7.83794 3.54793 7.82628C3.54912 7.81624 3.54912 7.80611 3.54793 7.79607C3.5549 7.77057 3.55769 7.74427 3.55622 7.71803ZM2.93175 6.10174C2.90468 6.16028 2.85706 6.20898 2.79636 6.24021C2.73673 6.27147 2.67107 6.29199 2.60293 6.30063C2.53069 6.31067 2.45772 6.31572 2.38464 6.31574H2.08899C2.05859 6.31574 2.05859 6.31574 2.05859 6.28804V5.63096C2.05859 5.61837 2.05859 5.61585 2.07517 5.61585H2.17464C2.26662 5.60956 2.35898 5.60956 2.45096 5.61585C2.54484 5.61989 2.63774 5.63512 2.72728 5.66117C2.7832 5.67994 2.83476 5.70812 2.87925 5.74425C2.9301 5.79053 2.96307 5.85061 2.9732 5.91544C2.97881 5.97986 2.96445 6.04441 2.93175 6.10174Z" fill="white"/>
</svg>
