<svg width="41" height="41" viewBox="0 0 41 41" fill="none" xmlns="http://www.w3.org/2000/svg">
<path d="M7.99651 8.35686H9.4258V9.78543H7.99651V8.35686ZM2.28223 2.64258H15.1394V4.78544H2.28223V2.64258ZM12.9965 18.3569H14.4258V19.7854H12.9965V18.3569ZM12.9965 13.3569H14.4258V14.7854H12.9965V13.3569ZM12.9965 8.35686H14.4258V9.78543H12.9965V8.35686ZM7.99651 13.3569H9.4258V14.7854H7.99651V13.3569Z" fill="#054F8B"/>
<path d="M0.853446 21.9283H16.5677C16.7572 21.9283 16.9389 21.8531 17.0728 21.7191C17.2068 21.5852 17.282 21.4035 17.282 21.214V1.21404C17.282 1.0246 17.2068 0.84292 17.0728 0.708965C16.9389 0.575011 16.7572 0.499756 16.5677 0.499756H0.853446C0.664005 0.499756 0.482324 0.575011 0.34837 0.708965C0.214415 0.84292 0.13916 1.0246 0.13916 1.21404L0.13916 21.214C0.13916 21.4035 0.214415 21.5852 0.34837 21.7191C0.482324 21.8531 0.664005 21.9283 0.853446 21.9283ZM5.85345 19.7855C5.85345 20.5744 5.2138 21.214 4.42487 21.214H2.9963C2.20737 21.214 1.56773 20.5744 1.56773 19.7855V18.3569C1.56773 17.568 2.20737 16.9283 2.9963 16.9283H4.42487C5.2138 16.9283 5.85345 17.568 5.85345 18.3569V19.7855ZM5.85345 14.7855C5.85345 15.5744 5.2138 16.214 4.42487 16.214H2.9963C2.20737 16.214 1.56773 15.5744 1.56773 14.7855V13.3569C1.56773 12.568 2.20737 11.9283 2.9963 11.9283H4.42487C5.2138 11.9283 5.85345 12.568 5.85345 13.3569V14.7855ZM5.85345 9.78547C5.85345 10.5744 5.2138 11.214 4.42487 11.214H2.9963C2.20737 11.214 1.56773 10.5744 1.56773 9.78547V8.3569C1.56773 7.56797 2.20737 6.92833 2.9963 6.92833H4.42487C5.2138 6.92833 5.85345 7.56797 5.85345 8.3569V9.78547ZM10.8534 19.7855C10.8534 20.5744 10.2138 21.214 9.42487 21.214H7.9963C7.20737 21.214 6.56773 20.5744 6.56773 19.7855V18.3569C6.56773 17.568 7.20737 16.9283 7.9963 16.9283H9.42487C10.2138 16.9283 10.8534 17.568 10.8534 18.3569V19.7855ZM10.8534 14.7855C10.8534 15.5744 10.2138 16.214 9.42487 16.214H7.9963C7.20737 16.214 6.56773 15.5744 6.56773 14.7855V13.3569C6.56773 12.568 7.20737 11.9283 7.9963 11.9283H9.42487C10.2138 11.9283 10.8534 12.568 10.8534 13.3569V14.7855ZM10.8534 9.78547C10.8534 10.5744 10.2138 11.214 9.42487 11.214H7.9963C7.20737 11.214 6.56773 10.5744 6.56773 9.78547V8.3569C6.56773 7.56797 7.20737 6.92833 7.9963 6.92833H9.42487C10.2138 6.92833 10.8534 7.56797 10.8534 8.3569V9.78547ZM15.8534 19.7855C15.8534 20.5744 15.2138 21.214 14.4249 21.214H12.9963C12.2074 21.214 11.5677 20.5744 11.5677 19.7855V18.3569C11.5677 17.568 12.2074 16.9283 12.9963 16.9283H14.4249C15.2138 16.9283 15.8534 17.568 15.8534 18.3569V19.7855ZM15.8534 14.7855C15.8534 15.5744 15.2138 16.214 14.4249 16.214H12.9963C12.2074 16.214 11.5677 15.5744 11.5677 14.7855V13.3569C11.5677 12.568 12.2074 11.9283 12.9963 11.9283H14.4249C15.2138 11.9283 15.8534 12.568 15.8534 13.3569V14.7855ZM15.8534 9.78547C15.8534 10.5744 15.2138 11.214 14.4249 11.214H12.9963C12.2074 11.214 11.5677 10.5744 11.5677 9.78547V8.3569C11.5677 7.56797 12.2074 6.92833 12.9963 6.92833H14.4249C15.2138 6.92833 15.8534 7.56797 15.8534 8.3569V9.78547ZM0.853446 1.21404H16.5677V6.21404H0.853446V1.21404Z" fill="#054F8B"/>
<path d="M2.99609 13.3569H4.42538V14.7855H2.99609V13.3569ZM2.99609 18.3569H4.42538V19.7855H2.99609V18.3569ZM7.99609 18.3569H9.42538V19.7855H7.99609V18.3569ZM2.99609 8.35693H4.42538V9.78551H2.99609V8.35693Z" fill="#054F8B"/>
<path d="M28.6743 37.1376C28.6144 37.197 28.5445 37.2454 28.4678 37.2806L24.7234 39.005C24.5909 39.0658 24.4429 39.0845 24.2994 39.0587C24.1558 39.0329 24.0237 38.9638 23.9206 38.8606C23.8174 38.7575 23.7482 38.6253 23.7224 38.4818C23.6966 38.3382 23.7153 38.1902 23.7761 38.0577L25.5005 34.3133C25.5357 34.2365 25.5838 34.1668 25.6434 34.1068L35.1392 24.6125V11.9284H26.5677V3.35693H18.7106V21.2141C18.7106 22.3975 17.7511 23.3569 16.5677 23.3569H5.13916V40.4998H35.1392V30.6735L28.6743 37.1376ZM24.4249 14.0712H32.9963V15.4998H24.4249V14.0712ZM24.4249 16.9284H32.9963V18.3569H24.4249V16.9284ZM24.4249 19.7855H32.9963V21.2141H24.4249V19.7855ZM24.4249 22.6427H32.9963V24.0712H24.4249V22.6427ZM15.1392 39.0712C11.1942 39.0712 7.9963 35.8734 7.9963 31.9284C7.9963 27.9834 11.1942 24.7855 15.1392 24.7855C19.0842 24.7855 22.282 27.9834 22.282 31.9284C22.2778 35.8716 19.0824 39.067 15.1392 39.0712ZM22.9963 24.0712H21.5677V22.6427H22.9963V24.0712ZM22.9963 21.2141H21.5677V19.7855H22.9963V21.2141ZM22.9963 18.3569H21.5677V16.9284H22.9963V18.3569ZM22.9963 15.4998H21.5677V14.0712H22.9963V15.4998Z" fill="#054F8B"/>
<path d="M27.9962 10.4998H34.1291L27.9962 4.36694V10.4998ZM39.9093 23.8826C40.1878 23.6039 40.1878 23.1515 39.9093 22.8725C39.7734 22.7425 39.5926 22.67 39.4046 22.67C39.2166 22.67 39.0358 22.7425 38.8999 22.8725L38.3942 23.3775L39.4043 24.3876L39.9093 23.8826ZM36.8846 24.887L37.3837 24.3883L38.3938 25.3983L37.8947 25.8974L36.8846 24.887ZM25.8827 36.8991L27.7542 36.0369L36.8847 26.9071L35.8746 25.897L26.7448 35.0276L25.8827 36.8991ZM15.1391 26.2141C11.983 26.2141 9.4248 28.7723 9.4248 31.9284C9.4248 35.0844 11.983 37.6427 15.1391 37.6427C18.2952 37.6427 20.8534 35.0844 20.8534 31.9284C20.8498 28.7741 18.2934 26.2177 15.1391 26.2141ZM15.1391 31.2141C16.7413 31.2141 17.9962 32.1547 17.9962 33.3569C17.9962 34.3719 17.0971 35.1939 15.8534 35.4284V36.2141H14.4248V35.4284C13.1811 35.1957 12.2819 34.3733 12.2819 33.3569H13.7105C13.7105 33.6485 14.2668 34.0712 15.1391 34.0712C16.0114 34.0712 16.5677 33.6485 16.5677 33.3569C16.5677 33.0653 16.0114 32.6427 15.1391 32.6427C13.5369 32.6427 12.2819 31.702 12.2819 30.4998C12.2819 29.4849 13.1811 28.6628 14.4248 28.4284V27.6427H15.8534V28.4284C17.0971 28.661 17.9962 29.4835 17.9962 30.4998H16.5677C16.5677 30.2082 16.0114 29.7855 15.1391 29.7855C14.2668 29.7855 13.7105 30.2082 13.7105 30.4998C13.7105 30.7914 14.2668 31.2141 15.1391 31.2141Z" fill="#054F8B"/>
</svg>
