<svg width="29" height="36" viewBox="0 0 29 36" fill="none" xmlns="http://www.w3.org/2000/svg">
<path d="M28.1932 29.4327C27.3876 27.0351 24.1768 25.5343 21.8876 24.5283C20.9908 24.1355 18.508 23.4691 18.2096 22.3399C18.1028 21.9331 18.1172 21.5495 18.2048 21.1819C18.0655 21.2093 17.924 21.2233 17.782 21.2239H16.2904C15.7181 21.2233 15.1694 20.9956 14.7647 20.5909C14.3601 20.1862 14.1325 19.6374 14.132 19.0651C14.132 17.8759 15.1 16.9091 16.2904 16.9091H17.782C18.2748 16.9091 18.742 17.0759 19.1188 17.3735C19.655 17.3028 20.1842 17.1869 20.7008 17.0271C21.3532 15.6603 21.862 14.0259 21.976 12.6191C22.4628 6.59991 18.7728 3.07831 13.482 3.68711C9.63521 4.12991 7.33721 6.99831 7.08881 10.6911C6.83761 14.4551 8.23321 17.2351 9.71561 19.2743C10.3648 20.1659 11.0468 20.7391 10.942 21.8135C10.8204 23.0839 9.46201 23.4379 8.49041 23.8283C7.33921 24.2907 6.09921 24.9923 5.51361 25.3167C3.49641 26.4307 1.28241 27.7723 0.784808 29.6075C-0.317192 33.6747 3.40441 34.9067 6.47681 35.4755C9.11361 35.9619 12.0868 36.0003 14.5324 36.0003C18.956 36.0003 26.9104 35.8231 28.1932 32.4979C28.558 31.5543 28.4016 30.0507 28.1932 29.4327Z" fill="white"/>
<path d="M18.7257 18.4572C18.6235 18.3 18.4838 18.1707 18.3191 18.0811C18.1544 17.9915 17.97 17.9443 17.7825 17.944H16.2909C16.1408 17.94 15.9914 17.9661 15.8516 18.0208C15.7118 18.0754 15.5843 18.1575 15.4768 18.2623C15.3692 18.367 15.2837 18.4922 15.2253 18.6305C15.167 18.7689 15.1369 18.9175 15.1369 19.0676C15.1369 19.2177 15.167 19.3663 15.2253 19.5047C15.2837 19.643 15.3692 19.7682 15.4768 19.8729C15.5843 19.9777 15.7118 20.0598 15.8516 20.1144C15.9914 20.1691 16.1408 20.1952 16.2909 20.1912H17.7825C17.9877 20.191 18.1888 20.1342 18.3638 20.027C18.5388 19.9198 18.6807 19.7664 18.7741 19.5836C20.8537 19.42 22.6625 18.7848 23.9321 17.8468C24.2237 18.0348 24.5685 18.1448 24.9405 18.1448H25.0341C25.2805 18.1449 25.5245 18.0963 25.7522 18.002C25.9799 17.9076 26.1867 17.7693 26.3609 17.595C26.535 17.4206 26.6731 17.2136 26.7672 16.9859C26.8613 16.7581 26.9096 16.514 26.9093 16.2676V12.5204C26.9094 12.1665 26.809 11.8198 26.6197 11.5207C26.4305 11.2216 26.1603 10.9824 25.8405 10.8308C25.5653 4.8136 20.5841 0 14.4993 0C8.41447 0 3.43247 4.8136 3.15847 10.8308C2.83839 10.9821 2.56791 11.2213 2.37854 11.5204C2.18917 11.8196 2.08871 12.1664 2.08887 12.5204V16.2676C2.08855 16.5139 2.13677 16.7579 2.23077 16.9855C2.32478 17.2132 2.46272 17.4201 2.63671 17.5944C2.81071 17.7687 3.01735 17.9071 3.24483 18.0015C3.47231 18.096 3.71617 18.1446 3.96247 18.1448H4.05727C4.30366 18.1447 4.54762 18.0961 4.77522 18.0018C5.00281 17.9074 5.20957 17.7691 5.38368 17.5947C5.5578 17.4204 5.69584 17.2134 5.78994 16.9857C5.88403 16.758 5.93233 16.514 5.93207 16.2676V12.5204C5.93188 12.1714 5.83409 11.8295 5.64974 11.5331C5.4654 11.2368 5.20184 10.998 4.88887 10.8436C5.15647 5.7736 9.36367 1.7324 14.4993 1.7324C19.6329 1.7324 23.8421 5.7736 24.1085 10.8436C23.7958 10.9983 23.5326 11.2372 23.3485 11.5335C23.1644 11.8298 23.0667 12.1716 23.0665 12.5204V16.2676C23.0665 16.5164 23.1149 16.748 23.2001 16.9644C22.1073 17.7464 20.5165 18.3036 18.7257 18.4572Z" fill="white"/>
</svg>
