<svg width="28" height="35" viewBox="0 0 28 35" fill="none" xmlns="http://www.w3.org/2000/svg">
<path d="M23.014 23.0463C23.2407 23.0463 23.4607 23.0597 23.6807 23.0863V1.49967C23.6807 1.13301 23.3873 0.833008 23.014 0.833008H0.673991C0.300658 0.833008 0.00732422 1.13301 0.00732422 1.49967V29.273C0.00732422 29.6397 0.300658 29.9397 0.673991 29.9397H16.8273C16.8007 29.7197 16.7873 29.4997 16.7873 29.273C16.7873 25.8397 19.5807 23.0463 23.014 23.0463ZM15.394 5.48634C15.3452 5.41331 15.3113 5.33136 15.2942 5.24518C15.2772 5.15901 15.2773 5.07032 15.2947 4.9842C15.312 4.89809 15.3462 4.81626 15.3953 4.7434C15.4444 4.67055 15.5074 4.60811 15.5807 4.55967C15.6531 4.51085 15.7345 4.47692 15.8202 4.45987C15.9059 4.44282 15.9941 4.44299 16.0797 4.46036C16.1654 4.47773 16.2467 4.51196 16.3189 4.56106C16.3912 4.61016 16.453 4.67314 16.5007 4.74634L17.7607 6.64634L19.0207 4.74634C19.2207 4.43967 19.634 4.35301 19.9407 4.55967C20.0139 4.60811 20.0769 4.67055 20.126 4.7434C20.1751 4.81626 20.2093 4.89809 20.2266 4.9842C20.244 5.07032 20.2441 5.15901 20.2271 5.24518C20.21 5.33136 20.1761 5.41331 20.1273 5.48634L18.5607 7.85301L20.1273 10.2263C20.334 10.533 20.2473 10.9463 19.9407 11.1463C19.8273 11.2197 19.7007 11.2597 19.574 11.2597C19.3607 11.2597 19.1473 11.153 19.0207 10.9597L17.7607 9.05968L16.5007 10.9597C16.374 11.153 16.1607 11.2597 15.9473 11.2597C15.8207 11.2597 15.694 11.2197 15.5807 11.1463C15.5075 11.0987 15.4445 11.0369 15.3954 10.9646C15.3463 10.8924 15.312 10.811 15.2947 10.7254C15.2773 10.6398 15.2771 10.5516 15.2942 10.4659C15.3112 10.3802 15.3452 10.2988 15.394 10.2263L16.9607 7.85301L15.394 5.48634ZM9.66733 10.3863L11.4473 4.90634C11.4912 4.77296 11.576 4.65683 11.6897 4.5745C11.8034 4.49217 11.9403 4.44784 12.0807 4.44784C12.2211 4.44784 12.3579 4.49217 12.4716 4.5745C12.5853 4.65683 12.6702 4.77296 12.714 4.90634L14.494 10.3863C14.6073 10.733 14.414 11.113 14.0673 11.2263C13.994 11.2463 13.9273 11.2597 13.8607 11.2597C13.574 11.2597 13.314 11.0797 13.2273 10.7997L12.8873 9.75967H11.274L10.934 10.7997C10.8207 11.1463 10.4473 11.3397 10.094 11.2263C9.74732 11.113 9.55399 10.733 9.66733 10.3863ZM4.11399 4.44634H8.68066C9.05399 4.44634 9.34732 4.74634 9.34732 5.11301C9.34732 5.48634 9.05399 5.77967 8.68066 5.77967H7.06733V10.593C7.06733 10.9597 6.76733 11.2597 6.40066 11.2597C6.02733 11.2597 5.73399 10.9597 5.73399 10.593V5.77967H4.11399C3.74732 5.77967 3.44732 5.48634 3.44732 5.11301C3.44732 4.74634 3.74732 4.44634 4.11399 4.44634ZM3.91399 15.4397H12.0807C12.4473 15.4397 12.7473 15.7397 12.7473 16.1063C12.7473 16.4797 12.4473 16.773 12.0807 16.773H3.91399C3.54732 16.773 3.24732 16.4797 3.24732 16.1063C3.24732 15.7397 3.54732 15.4397 3.91399 15.4397ZM3.91399 20.0663H19.774C20.1407 20.0663 20.4407 20.3597 20.4407 20.733C20.4407 21.0997 20.1407 21.3997 19.774 21.3997H3.91399C3.54732 21.3997 3.24732 21.0997 3.24732 20.733C3.24732 20.3597 3.54732 20.0663 3.91399 20.0663ZM16.1807 26.0197H3.91399C3.54732 26.0197 3.24732 25.7197 3.24732 25.353C3.24732 24.9797 3.54732 24.6863 3.91399 24.6863H16.1807C16.5473 24.6863 16.8473 24.9797 16.8473 25.353C16.8473 25.7197 16.5473 26.0197 16.1807 26.0197Z" fill="#FFCB00"/>
<path d="M12.0809 7.27295L11.7075 8.42628H12.4542L12.0809 7.27295ZM23.0142 24.3796C20.3209 24.3796 18.1209 26.573 18.1209 29.2729C18.1209 31.9729 20.3209 34.1663 23.0142 34.1663C25.7142 34.1663 27.9075 31.9729 27.9075 29.2729C27.9075 26.573 25.7142 24.3796 23.0142 24.3796ZM24.8942 28.8596L23.1275 30.6263C23.0668 30.6897 22.9938 30.7402 22.9131 30.7747C22.8323 30.8092 22.7454 30.827 22.6575 30.827C22.5697 30.827 22.4828 30.8092 22.402 30.7747C22.3212 30.7402 22.2483 30.6897 22.1875 30.6263L21.1409 29.5796C21.0791 29.5179 21.0302 29.4446 20.9968 29.364C20.9634 29.2833 20.9462 29.1969 20.9462 29.1096C20.9462 29.0223 20.9634 28.9359 20.9968 28.8553C21.0302 28.7746 21.0791 28.7013 21.1409 28.6396C21.2026 28.5779 21.2758 28.5289 21.3565 28.4955C21.4371 28.4621 21.5236 28.4449 21.6109 28.4449C21.6981 28.4449 21.7846 28.4621 21.8652 28.4955C21.9459 28.5289 22.0191 28.5779 22.0809 28.6396L22.6542 29.2129L23.9475 27.9196C24.2142 27.6596 24.6342 27.6596 24.8942 27.9196C25.1542 28.1796 25.1542 28.5996 24.8942 28.8596Z" fill="#FFCB00"/>
</svg>
