<svg width="41" height="33" viewBox="0 0 41 33" fill="none" xmlns="http://www.w3.org/2000/svg">
<path fill-rule="evenodd" clip-rule="evenodd" d="M20.8511 0.130329C17.6014 0.0212803 14.3994 0.93412 11.6957 2.74035C8.65577 4.77272 6.42945 7.81154 5.40802 11.3227C5.13142 11.289 4.80021 11.3039 4.40691 11.4151C2.93853 11.8322 1.83463 13.0349 1.33806 14.0946C0.693496 15.4756 0.421867 17.3025 0.708393 19.1875C0.992933 21.0671 1.78696 22.6164 2.78012 23.5783C3.77626 24.5407 4.90101 24.8535 6.01831 24.6186C7.68185 24.2636 8.50667 23.9979 8.27378 22.4486L7.14654 14.9353C7.26102 12.8905 7.84936 10.9003 8.86509 9.12182C9.88082 7.34339 11.2961 5.82547 12.9992 4.68793C15.2944 3.15243 18.0134 2.37525 20.7734 2.46576C23.5334 2.55626 26.1955 3.50989 28.3852 5.19246C29.897 6.35157 31.1402 7.82399 32.0295 9.5087C32.9188 11.1934 33.4331 13.0506 33.5372 14.9527L32.7487 20.208C31.8931 22.5534 30.3901 24.6082 28.414 26.1341C26.4379 27.6599 24.0697 28.5942 21.5841 28.8286H18.2242C18.0186 28.8282 17.815 28.8683 17.6249 28.9468C17.4349 29.0252 17.2622 29.1404 17.1168 29.2857C16.9714 29.431 16.8561 29.6036 16.7775 29.7936C16.699 29.9836 16.6587 30.1873 16.659 30.3929V31.2182C16.6586 31.4238 16.6988 31.6275 16.7774 31.8175C16.8559 32.0076 16.9712 32.1803 17.1166 32.3256C17.262 32.471 17.4347 32.5863 17.6248 32.6647C17.8149 32.7432 18.0186 32.7834 18.2242 32.7829H22.4605C22.6659 32.7832 22.8694 32.743 23.0592 32.6644C23.249 32.5859 23.4214 32.4707 23.5665 32.3253C23.7116 32.18 23.8266 32.0074 23.9048 31.8175C23.983 31.6276 24.0229 31.4241 24.0223 31.2187V30.7866C27.8284 29.8547 31.1443 27.5242 33.3103 24.2586L34.6675 24.6186C35.7719 24.9052 36.91 24.5402 37.9056 23.5783C38.8988 22.6159 39.6923 21.0671 39.9774 19.1875C40.2654 17.302 39.9853 15.4786 39.3487 14.0946C38.7096 12.7107 37.7577 11.8317 36.6587 11.5164C36.1984 11.3838 35.6989 11.3351 35.2703 11.3227C34.3479 8.14714 32.436 5.34886 29.8129 3.33525C27.2344 1.35582 24.1001 0.234907 20.8511 0.130329Z" fill="#0F52B1"/>
<path fill-rule="evenodd" clip-rule="evenodd" d="M25.8096 13.6465C26.3477 13.6471 26.8637 13.8612 27.2441 14.2418C27.6246 14.6224 27.8386 15.1383 27.8391 15.6765C27.8382 16.2146 27.624 16.7304 27.2435 17.1109C26.863 17.4914 26.3472 17.7056 25.8091 17.7065C25.2704 17.7066 24.7537 17.4929 24.3725 17.1123C23.9913 16.7316 23.7768 16.2152 23.7761 15.6765C23.7762 15.4097 23.8289 15.1455 23.9312 14.899C24.0334 14.6526 24.1832 14.4287 24.372 14.2401C24.5608 14.0516 24.7849 13.902 25.0315 13.8001C25.278 13.6982 25.5423 13.6458 25.8091 13.646L25.8096 13.6465ZM20.3423 13.6465C20.7437 13.6467 21.1361 13.7659 21.4698 13.989C21.8035 14.2122 22.0635 14.5293 22.217 14.9002C22.3705 15.2711 22.4106 15.6793 22.3322 16.073C22.2538 16.4667 22.0604 16.8283 21.7765 17.1121C21.4926 17.3959 21.131 17.5892 20.7372 17.6675C20.3435 17.7458 19.9354 17.7056 19.5645 17.552C19.1936 17.3984 18.8766 17.1383 18.6535 16.8046C18.4305 16.4708 18.3114 16.0784 18.3113 15.677C18.311 15.4102 18.3634 15.146 18.4653 14.8994C18.5673 14.6529 18.7169 14.4289 18.9055 14.2403C19.0942 14.0516 19.3182 13.902 19.5647 13.8001C19.8113 13.6981 20.0755 13.6462 20.3423 13.6465ZM14.8764 13.6465C15.1468 13.6405 15.4156 13.6886 15.6671 13.7879C15.9187 13.8872 16.1478 14.0358 16.3411 14.2249C16.5345 14.414 16.6881 14.6398 16.7929 14.8891C16.8978 15.1384 16.9518 15.4061 16.9518 15.6765C16.9518 15.9469 16.8978 16.2146 16.7929 16.4639C16.6881 16.7132 16.5345 16.939 16.3411 17.1281C16.1478 17.3172 15.9187 17.4657 15.6671 17.5651C15.4156 17.6644 15.1468 17.7125 14.8764 17.7065C14.3435 17.6982 13.8351 17.4806 13.4612 17.1008C13.0873 16.7209 12.8777 16.2093 12.8777 15.6762C12.8777 15.1432 13.0873 14.6316 13.4612 14.2517C13.8351 13.8719 14.3435 13.6548 14.8764 13.6465ZM20.3423 4.92456C14.3883 4.92456 9.59033 9.5646 9.59033 15.676C9.59033 18.6113 10.7002 21.2054 12.5082 23.1088L11.8667 25.985C11.6551 26.9315 12.3116 27.5681 13.1627 27.0943L15.9709 25.5276C17.3506 26.125 18.8387 26.4317 20.3423 26.4284C26.2982 26.4284 31.0932 21.7914 31.0932 15.6775C31.0932 9.56559 26.2982 4.92555 20.3423 4.92555V4.92456Z" fill="#0F52B1"/>
</svg>
