<svg width="35" height="39" viewBox="0 0 35 39" fill="none" xmlns="http://www.w3.org/2000/svg">
<path d="M17.7759 18.4998C22.7464 18.4998 26.7759 14.4703 26.7759 9.49976C26.7759 4.52919 22.7464 0.499756 17.7759 0.499756C12.8053 0.499756 8.77588 4.52919 8.77588 9.49976C8.77588 14.4703 12.8053 18.4998 17.7759 18.4998Z" fill="#3693D5"/>
<path fill-rule="evenodd" clip-rule="evenodd" d="M34.7759 35.4998V37.4998C34.7759 37.765 34.6705 38.0193 34.483 38.2069C34.2955 38.3944 34.0411 38.4998 33.7759 38.4998H1.77588C1.51066 38.4998 1.25631 38.3944 1.06877 38.2069C0.881236 38.0193 0.775879 37.765 0.775879 37.4998V35.4998C0.775879 31.5218 2.35588 27.7058 5.16908 24.893C7.98228 22.08 11.7976 20.4998 15.7759 20.4998H19.7759C23.7539 20.4998 27.5699 22.0798 30.3827 24.893C33.1956 27.7061 34.7759 31.5215 34.7759 35.4998Z" fill="#3693D5"/>
</svg>
