<svg width="140" height="93" viewBox="0 0 140 93" fill="none" xmlns="http://www.w3.org/2000/svg">
<g clip-path="url(#clip0_584_3811)">
<path d="M136.19 0.559998C136.51 0.259998 136.09 0.1 136.08 0C135.65 0.6 136.28 0.619998 136.19 0.559998Z" fill="#D44D00"/>
<path d="M131.74 6.52005L131.71 6.30005L131.22 7.37005L131.74 6.52005Z" fill="#D44D00"/>
<path d="M126.65 11.32C127.65 11.39 128.44 9.50002 129.51 8.83002H129.77V8.03003C128.83 9.21706 127.786 10.3181 126.65 11.32Z" fill="#D44D00"/>
<path d="M122.85 12.77C123.21 12.77 122.42 13.51 123.55 12.23C123.498 12.2539 123.444 12.2739 123.39 12.29C123.218 12.459 123.038 12.6192 122.85 12.77Z" fill="#D44D00"/>
<path d="M123.39 12.29C122.87 12.46 123.92 11.77 123.39 12.29V12.29Z" fill="#D44D00"/>
<path d="M121 14.7899L121.54 13.9299C121.28 13.9299 120.61 14.5399 120.77 14.2299C120.13 14.9899 120.39 14.9899 121 14.7899Z" fill="#D44D00"/>
<path d="M120.69 15.8199L120.98 15.3899C120.87 15.3999 120.75 15.4699 120.69 15.8199Z" fill="#D44D00"/>
<path d="M121.6 14.48L120.97 15.39C121.15 15.39 121.33 15.53 121.27 14.99C121.37 15.2 121.38 14.9 121.6 14.48Z" fill="#D44D00"/>
<path d="M122.13 14.1301C122.63 13.8601 123.22 13.4401 122.67 14.3001C123.97 12.9301 123.42 12.7501 122.13 14.1301Z" fill="#D44D00"/>
<path d="M126.9 12.1099L127.57 11.7599L127.87 11.1599C127.72 11.4599 126.71 11.9899 126.9 12.1099Z" fill="#D44D00"/>
<path d="M116.36 18.9899C116.43 19.1399 116.89 18.9899 117.08 19.0999L117.47 18.4399C117.13 18.6299 116.6 19.0899 116.36 18.9899Z" fill="#D44D00"/>
<path d="M117.08 19.0801L116.51 20.0801C117.21 19.3701 117.25 19.1501 117.08 19.0801Z" fill="#D44D00"/>
<path d="M121.12 16.5099L122.02 14.8799L120.88 16.7599L121.12 16.5099Z" fill="#D44D00"/>
<path d="M113.5 22.17C113.5 21.92 113.6 21.69 113.65 21.45C113.53 21.85 113.42 22.26 113.32 22.67L113.5 22.17Z" fill="#D44D00"/>
<path d="M111.75 24.4599C111.81 23.8999 110.96 24.6799 111.12 24.1699C110.762 24.7941 110.499 25.4682 110.34 26.1699C110.658 25.4901 111.143 24.9019 111.75 24.4599Z" fill="#D44D00"/>
<path d="M110.02 27.2C110.149 26.8743 110.256 26.5402 110.34 26.2C110.191 26.5185 110.084 26.8545 110.02 27.2Z" fill="#D44D00"/>
<path d="M115.2 21.43C115.031 21.4283 114.862 21.4611 114.706 21.5265C114.55 21.5918 114.408 21.6883 114.29 21.81H114.91L115.2 21.43Z" fill="#D44D00"/>
<path d="M115.28 21.3501L115.2 21.4301C115.26 21.4301 115.29 21.4201 115.28 21.3501Z" fill="#D44D00"/>
<path d="M118.82 18.26C118.54 18.9 117.82 20.05 118.97 19.36C119.07 18.82 118.41 19.22 118.82 18.26Z" fill="#D44D00"/>
<path d="M116.03 21.2899L116.89 20.4799C116.79 20.4199 116.52 20.4799 116.65 20.1499C116.44 20.5199 116.24 20.9199 116.03 21.2899Z" fill="#D44D00"/>
<path d="M115.76 21.82L116.04 21.3L115.72 21.6L115.76 21.82Z" fill="#D44D00"/>
<path d="M111.6 25.7299C111.406 26.2829 111.133 26.805 110.79 27.2799C111.252 26.7633 111.686 26.2225 112.09 25.6599C111.98 25.5099 111.96 25.1199 111.6 25.7299Z" fill="#D44D00"/>
<path d="M113.19 23.78L113.13 23.88C113.21 23.85 113.25 23.81 113.19 23.78Z" fill="#D44D00"/>
<path d="M107.57 32.7999L107.68 32.7399L107.63 32.6899L107.57 32.7999Z" fill="#D44D00"/>
<path d="M112.17 25.6201C112.447 25.3473 112.638 24.9998 112.72 24.6201L112.04 25.6201C112.06 25.7301 112.09 25.7601 112.17 25.6201Z" fill="#D44D00"/>
<path d="M109.24 28.8299C109.46 28.6399 109.69 28.4199 109.92 28.1799C109.67 28.3299 109.2 28.6899 109.24 28.8299Z" fill="#D44D00"/>
<path d="M112.93 23.9899V23.9099C112.79 23.9899 112.84 23.9899 112.93 23.9899Z" fill="#D44D00"/>
<path d="M112.93 23.9899C112.835 24.2117 112.765 24.4431 112.72 24.6799C112.873 24.436 113.01 24.1821 113.13 23.9199C113.066 23.952 112.999 23.9756 112.93 23.9899Z" fill="#D44D00"/>
<path d="M109.33 35.6199C109 35.4099 109.11 34.0199 110.05 33.2199C110.28 32.1099 108.81 32.1299 107.68 32.7399C107.84 32.8499 107.91 32.8899 107.68 34.0899C107.99 33.7599 109.28 31.9699 109.15 32.9999C108.62 34.4399 108.49 34.0799 107.99 34.6799C108.68 34.2999 107.92 36.7599 108.73 36.6799L108.99 35.3699C109.11 35.4199 109.1 35.9199 109.33 35.6199Z" fill="#D44D00"/>
<path d="M108.76 30.72C108.82 30.56 108.88 30.41 108.95 30.26C108.589 30.7418 108.162 31.1695 107.68 31.53C107.48 32.36 107.53 32.53 107.68 32.68L108.84 30.54L108.76 30.72Z" fill="#D44D00"/>
<path d="M110.1 28.38C110.26 28.94 109.82 30.02 110.59 29.66C111.3 28.45 110.78 28.66 111.1 27.81C109.96 29.81 111.24 27.1 110.1 28.39C110.256 27.9996 110.454 27.6274 110.69 27.28L109.87 28.18H109.92C110.02 28.13 110.06 28.11 109.98 28.18C110.019 28.234 110.046 28.2952 110.06 28.36C109.63 28.88 109.91 28.36 109.98 28.18C109.98 28.18 109.98 28.18 109.98 28.12L108.98 30.23C109.4 29.6428 109.775 29.0244 110.1 28.38Z" fill="#D44D00"/>
<path d="M118.82 20.8601C118.802 20.8717 118.781 20.8779 118.76 20.8779C118.739 20.8779 118.718 20.8717 118.7 20.8601C118.6 20.9901 118.6 21.0401 118.82 20.8601Z" fill="#D44D00"/>
<path d="M118.01 21.3401C118.056 21.0563 118.206 20.7997 118.43 20.6201C118.84 20.3801 118.58 20.7601 118.7 20.8401C118.83 20.5301 119.24 19.8401 118.4 20.4001L118.34 20.5601C117.6 21.0901 116.44 21.6101 116.5 21.4501C117.005 21.532 117.522 21.4943 118.01 21.3401Z" fill="#D44D00"/>
<path d="M113.99 24.76C113.65 25.3 113.31 25.76 112.99 26.38C113.271 26.1848 113.561 26.0046 113.86 25.84L113.65 25.74C114.4 24.99 114.04 24.99 113.99 24.76Z" fill="#D44D00"/>
<path d="M107.27 32.9L106.98 32.48C106.993 32.9183 107.03 33.3557 107.09 33.79C107.135 33.4904 107.195 33.1933 107.27 32.9Z" fill="#D44D00"/>
<path d="M106.33 35.3001L106 35.0701L105.97 35.7801L106.33 35.3001Z" fill="#D44D00"/>
<path d="M103.71 37.58L103.19 37.46C103.361 37.5109 103.535 37.5509 103.71 37.58Z" fill="#D44D00"/>
<path d="M107.07 39.2899L107.24 39.1699C107.04 39.1799 106.94 39.2099 107.07 39.2899Z" fill="#D44D00"/>
<path d="M125.24 90.99C125.89 91.81 126.93 92.75 126.94 92.28C126.88 92.11 126.82 91.94 126.77 91.77C126.205 91.6357 125.681 91.3683 125.24 90.99Z" fill="#D44D00"/>
<path d="M131.31 58.8V59.06L131.93 59.31L131.31 58.8Z" fill="#D44D00"/>
<path d="M129.5 59.26C129.429 58.9197 129.332 58.5854 129.21 58.26C129.27 58.49 129.36 58.82 129.5 59.26Z" fill="#D44D00"/>
<path d="M83.9596 32.3101L83.3096 32.6901C84.2396 32.7801 83.8596 32.5201 83.9596 32.3101Z" fill="#D44D00"/>
<path d="M106.36 60.8999C106.401 61.4984 106.502 62.0914 106.66 62.6699C106.6 61.7699 106.77 60.9899 106.36 60.8999Z" fill="#D44D00"/>
<path d="M107.1 34.0801C106.76 34.0101 106.59 34.0201 106.56 34.0801C106.91 34.2001 107.12 34.2101 107.1 34.0801Z" fill="#D44D00"/>
<path d="M107.38 64.5799C107.38 64.4499 107.38 64.3299 107.38 64.1999C107.098 63.716 106.87 63.203 106.7 62.6699C106.687 63.368 106.929 64.0467 107.38 64.5799Z" fill="#D44D00"/>
<path d="M17.6002 59.8501L17.4502 59.9501C17.4502 59.9501 17.6002 59.9901 17.6002 59.8501Z" fill="#D44D00"/>
<path d="M2.44043 76.86C2.53244 76.5556 2.64605 76.2582 2.78043 75.97C2.61864 76.2458 2.50375 76.5465 2.44043 76.86Z" fill="#D44D00"/>
<path d="M105.88 42.99C105.88 43.1 105.97 43.2 106.07 43.22C106.024 43.1975 105.983 43.1653 105.95 43.1256C105.917 43.0859 105.893 43.0397 105.88 42.99Z" fill="#D44D00"/>
<path d="M111.9 68.2299C111.93 68.0999 111.93 68.1299 111.9 68.2299V68.2299Z" fill="#D44D00"/>
<path d="M104.18 44.5701C104.094 44.7915 104.023 45.0187 103.97 45.2501C104.053 45.0278 104.123 44.8007 104.18 44.5701Z" fill="#D44D00"/>
<path d="M103.96 44.6601L104.05 44.1901C103.99 44.1101 103.94 44.1701 103.96 44.6601Z" fill="#D44D00"/>
<path d="M103.9 46.14C103.902 45.842 103.926 45.5446 103.97 45.25C103.97 45.36 103.91 45.4 103.9 45.37V46.14Z" fill="#D44D00"/>
<path d="M49.4902 35.46C49.4504 35.465 49.41 35.465 49.3702 35.46C48.9702 35.8 49.1702 35.7 49.4902 35.46Z" fill="#D44D00"/>
<path d="M135.15 82.0901C135.3 82.3304 135.372 82.6114 135.356 82.8944C135.34 83.1774 135.236 83.4484 135.06 83.6701C135.52 83.6701 135.96 83.6101 136.41 83.5601C136.022 83.0431 135.601 82.552 135.15 82.0901Z" fill="#D44D00"/>
<path d="M95.9795 34.617C95.8415 34.5875 95.7465 34.7856 95.8605 34.8688L95.9577 34.9398C96.0648 35.018 96.019 35.1837 95.8866 35.1909C95.3159 35.222 94.8581 35.1752 94.5786 35.1665C94.1305 35.1525 94.9717 35.3151 95.42 35.3191C95.9114 35.3236 96.5586 35.4986 97.1995 35.6801C98.2466 35.9766 99.2764 36.4019 99.6845 35.9854C99.7363 35.9326 99.8222 35.9155 99.8782 35.9638L100.267 36.2986C100.295 36.3229 100.252 36.3858 100.215 36.3831C100.176 36.3803 100.135 36.4786 100.167 36.5018C101.192 37.2518 101.532 35.8526 103.2 36.8401C103.8 37.2401 104.2 37.6201 103.66 37.5701L105.232 37.9284C105.237 37.9295 105.247 37.9342 105.252 37.9367C105.315 37.9717 105.694 38.3717 105.76 38.4021C106.242 38.6248 106.71 38.8717 107.186 39.0849C107.208 39.095 107.232 39.1001 107.257 39.1003C107.709 39.1038 108.16 39.1368 108.608 39.1988C108.784 39.2233 109.14 39.4679 108.963 39.4571C108.684 39.4401 108.753 39.4849 109.022 39.5586L109.641 39.7284C109.832 39.7806 110.088 39.981 109.922 40.0872C109.852 40.1316 109.732 40.1425 109.582 40.1262C109.074 40.0709 108.606 40.5275 109.105 40.639C109.486 40.7241 109.997 40.7632 110.696 41.369C110.849 41.5015 110.7 41.7061 110.517 41.6196C110.374 41.5517 110.223 41.6795 110.29 41.8234C110.365 41.9867 110.459 42.1312 110.568 42.2662C110.874 42.6467 111.163 41.8881 111.651 41.9119C111.715 41.915 111.793 41.9314 111.888 41.9631C111.955 41.9852 112.014 42.0268 112.064 42.0757C112.2 42.2082 112.347 42.3263 112.505 42.4288C112.94 42.7123 113.614 43.3831 114.035 43.6876C114.162 43.7796 114.304 43.8763 114.454 43.9794C114.585 44.0696 114.606 44.2542 114.5 44.3728C114.384 44.5028 114.421 44.7097 114.583 44.7744C115.139 44.9959 115.316 44.8565 115.764 44.8984C115.907 44.9118 116.045 44.9655 116.156 45.0576C116.362 45.2285 116.522 45.4489 116.621 45.6997C116.853 46.286 117.266 47.2735 117.157 46.6526C117.102 46.3376 117.07 46.0061 117.629 46.3659C117.842 46.5028 118.017 46.6917 118.187 46.8795C118.573 47.3077 119.01 47.6875 119.49 48.0101C119.78 48.2101 120.09 48.3901 120.43 48.5901L121.187 49.1279C121.347 49.2417 121.495 49.3808 121.578 49.5588C121.594 49.5939 121.606 49.6238 121.613 49.6491C121.731 50.0602 121.41 49.927 121.817 50.0573L122.129 50.1572C122.156 50.1657 122.198 50.2033 122.212 50.227C122.28 50.3387 122.25 50.5371 122.378 50.5596C122.702 50.6164 122.752 50.2737 123.329 50.6369C123.505 50.7475 123.748 50.7648 123.91 50.8944C124.442 51.3185 124.712 53.2983 125.886 54.0288C126.038 54.1237 126.22 54.344 126.044 54.3839C125.772 54.4459 125.759 54.6186 125.982 54.7867C126.385 55.0901 126.775 55.4116 127.15 55.7501C127.203 55.7926 127.257 55.834 127.313 55.8759C128.118 56.4827 128.779 57.2673 129.11 58.2201C128.9 57.2066 129.896 57.6893 130.818 58.4276C130.973 58.5514 131.21 58.3677 131.21 58.1697C131.21 57.9564 131.476 57.9361 131.613 58.0992L132.578 59.245C132.592 59.2612 132.6 59.282 132.598 59.3032C132.584 59.4513 132.475 59.4745 132.296 59.4214C132.245 59.4061 132.203 59.4817 132.247 59.5118C132.257 59.5184 132.261 59.5271 132.263 59.5386C132.378 60.1027 132.1 60.1406 131.707 60.0049C131.477 59.9254 131.34 59.6948 131.34 59.4511C131.34 59.1912 131.181 58.9533 130.934 58.8749C130.584 58.764 130.261 58.7093 130.039 58.7999C129.951 58.8359 129.961 58.949 130.033 59.0109C130.075 59.0467 130.115 59.0844 130.153 59.1239C130.224 59.1962 130.095 59.2857 130.06 59.3801C130.039 59.4356 130.143 59.5105 130.309 59.6179C130.452 59.71 130.5 59.8941 130.422 60.0445L130.266 60.3439C130.222 60.4287 130.284 60.5301 130.379 60.5301C130.433 60.5301 130.482 60.5642 130.5 60.615C130.7 61.1725 130.92 61.7174 131.111 62.275C131.267 62.732 131.514 63.1571 131.876 63.4766C132.418 63.9552 132.988 64.4288 133.57 64.9801C133.992 65.3778 134.374 65.8166 134.71 66.2901C134.887 66.5573 135.054 66.8308 135.212 67.1101C135.356 67.366 134.966 67.9396 134.734 68.1185C134.553 68.2577 134.337 68.0756 134.301 67.8502C134.164 67.0005 133.167 66.0778 132.73 64.9301C132.783 65.0768 132.963 66.1304 133.057 66.2552C133.142 66.3689 133.227 66.4836 133.31 66.6001L133.723 67.2761C133.87 67.5155 133.783 67.7748 133.753 68.054C133.715 68.418 134.464 69.061 134.666 69.3667C135.015 69.8978 135.319 70.8868 135.587 71.5603C135.652 71.7237 135.719 71.8849 135.544 71.8996C135.192 71.9293 134.956 71.6804 135.204 71.9307C135.581 72.3098 136.044 72.6304 136.093 73.2531C136.1 73.3468 135.997 73.3075 135.957 73.2226C135.921 73.1464 135.888 73.2314 135.924 73.3076C136.112 73.7007 136.229 74.1247 136.27 74.5601C136.304 74.8122 136.305 75.0253 136.271 75.1545C136.222 75.3387 136.06 75.1305 136.06 74.9401C136.19 75.9401 136.34 77.5201 136.41 78.8901C136.448 79.6458 136.481 80.3346 136.569 80.8406C136.586 80.9383 136.196 81.308 136.111 81.2577C136.035 81.2135 135.941 81.3033 135.983 81.3795C136.452 82.2211 136.827 83.11 137.104 84.0303C137.227 84.4425 136.395 85.1949 135.99 85.0501C135.699 84.983 135.445 84.8062 135.281 84.5566C135.263 84.53 135.247 84.5028 135.232 84.4751C135.142 84.3104 134.79 84.2207 134.71 84.3901C134.525 84.7427 135.02 85.2012 135.352 85.4202C135.375 85.4355 135.395 85.4523 135.412 85.471C135.505 85.577 135.374 85.7104 135.244 85.7677C134.944 85.9007 134.652 86.0518 134.37 86.2201C134.01 86.4256 133.623 86.5772 133.22 86.6701C133.42 86.6001 133.65 86.8401 133.73 87.1601C133.793 87.3398 133.795 87.5355 133.735 87.7165C133.697 87.8335 133.634 87.94 133.551 88.0295C133.494 88.0925 133.368 88.0498 133.325 87.9758C133.309 87.9479 133.291 87.9184 133.271 87.8876C133.209 87.7891 132.514 87.817 132.46 87.9201C132.267 88.2131 132.057 88.4936 131.83 88.7601C132.21 88.4101 131.6 87.8601 131.21 87.5901C131.31 87.6701 131 87.7801 130.6 87.7901C130.34 87.7966 130.056 87.7947 129.831 87.7925C129.751 87.7918 129.721 87.8864 129.794 87.919C129.872 87.9538 129.849 88.0746 129.764 88.0761C129.214 88.0858 128.67 88.2127 128.17 88.4501C127.787 88.6084 127.369 88.6631 126.958 88.6087C126.56 88.556 126.58 87.7049 126.645 87.309C126.67 87.1572 126.65 86.996 126.563 86.8359C126.465 86.6571 126.24 86.6147 126.042 86.6595C125.395 86.8049 124.732 86.8592 124.07 86.8201C123.016 86.7823 121.997 86.4424 121.133 85.8438C120.99 85.7442 120.91 85.5776 120.91 85.4027V85.3138C120.91 85.2037 120.861 85.0996 120.777 85.0287C120.477 84.7761 120.71 84.3586 121.082 84.4827C121.541 84.6358 122.042 84.8027 122.55 84.9601C123.173 85.1538 123.803 85.33 124.369 85.4812C124.852 85.6102 125.485 85.186 125.141 84.8235C125.053 84.7312 124.808 84.4299 124.922 84.3741C125.107 84.2837 125.692 84.7491 125.87 84.9101C125.588 84.5995 125.316 84.2803 125.055 83.9528C124.585 83.3644 123.403 82.6237 122.813 82.1567C122.317 81.7649 122.263 82.1014 122.737 82.5189C122.861 82.6287 122.987 82.7372 123.113 82.8447C123.803 83.4293 123.67 84.1528 122.843 83.788C122.815 83.7758 122.787 83.7632 122.76 83.7501C121.924 83.3467 121.211 82.7315 120.69 81.9677C120.594 81.8265 120.498 81.6343 120.613 81.5079C120.762 81.3444 121.128 81.3354 121.439 81.3301C121.71 81.3256 121.738 81.1277 121.534 80.9489C121.208 80.6627 120.923 80.3328 120.687 79.9688C120.61 79.8501 120.745 79.7301 120.86 79.8118C120.971 79.8903 121.093 79.7854 121.012 79.6762C120.45 78.9188 119.437 78.6989 119.162 77.4608C119.137 77.3489 119.098 77.2395 119.066 77.1295C119.046 77.0586 119.029 76.9793 119.016 76.8954C118.883 76.0558 118.556 76.2169 117.968 76.8308C117.824 76.9809 117.666 77.1245 117.502 77.2567C116.553 78.0204 115.491 77.2952 115.24 76.1033C115.143 75.6433 115.063 75.1796 115 74.7134C114.986 74.6116 114.976 74.5049 115.013 74.409C115.186 73.9575 115.913 74.2992 116.434 74.3642C116.756 74.4043 116.586 73.9671 116.322 73.7781C116.245 73.7226 116.197 73.649 116.205 73.5541C116.228 73.277 116.62 73.4416 116.384 72.9369C116.298 72.7531 116.064 72.6774 115.903 72.5548C115.849 72.5139 115.798 72.4619 115.75 72.4038C115.476 72.0694 114.908 71.5384 114.773 71.1273C114.659 70.7802 113.807 70.309 113.473 70.161C113.026 69.9631 112.494 69.5888 112.094 69.169C111.938 69.0062 111.988 68.5605 112.048 68.3436C112.064 68.2844 112.056 68.2296 112.032 68.1731C111.656 67.286 111.334 66.3766 111.07 65.4501C110.9 64.9605 110.755 64.4709 110.586 63.9437C110.335 63.1583 109.818 61.2755 110.5 61.7401C110.226 61.5016 110.005 61.2106 109.849 60.8854C109.776 60.7339 109.752 60.559 109.79 60.3954C109.798 60.3612 109.806 60.3333 109.815 60.311C110.088 59.615 110.185 60.5203 109.818 59.869C109.501 59.306 108.915 59.1312 109.165 59.7268C109.217 59.8504 109.277 59.9773 109.341 60.105C109.728 60.8765 109.339 61.5115 108.715 60.9145C108.7 60.8999 108.685 60.8851 108.67 60.8701C107.951 60.1398 107.38 59.2772 106.99 58.3301C106.612 57.356 107.095 56.5547 106.704 55.5861C106.493 55.0646 106.213 54.5713 105.87 54.1201C105.334 53.3511 105.108 52.4096 105.234 51.4833C105.243 51.4145 105.261 51.3464 105.287 51.282C105.584 50.547 105.932 50.7912 106.252 50.9237C106.447 51.0043 106.726 51.1504 106.761 51.3586C106.891 52.1433 106.792 52.7556 106.754 53.3364C106.747 53.4549 106.815 53.4484 106.825 53.33C106.832 53.2328 106.954 53.2168 106.99 53.3072C107.038 53.4261 107.082 53.5467 107.12 53.6686C107.169 53.8224 107.377 53.8101 107.351 53.6508C107.35 53.6437 107.35 53.6366 107.349 53.6294C107.348 53.0012 107.219 52.2254 107.12 51.4001C106.958 49.9728 106.968 48.532 107.148 47.1083C107.196 46.7348 107.171 46.3515 107.055 45.9932C107.023 45.8944 106.991 45.8016 106.957 45.7247C106.844 45.4658 106.68 45.7619 106.7 46.0437L106.721 46.3452C106.727 46.42 106.697 46.5251 106.642 46.5759C106.353 46.8416 105.706 44.7139 105.668 44.3232C105.656 44.2091 105.647 44.0947 105.64 43.9801C105.556 43.2484 105.635 42.5076 105.871 41.8107C105.889 41.7599 105.93 41.7209 105.981 41.7054C106.145 41.6557 106.305 41.8808 106.239 42.0389C106.214 42.0982 106.192 42.1589 106.174 42.2208C106.098 42.4767 106.079 42.7462 106.12 43.0101C105.947 42.3725 107.029 41.1263 106.917 40.2115C106.891 40.0022 106.638 40 106.528 40.1801C106.386 40.4121 106.044 40.3426 106.023 40.0716C105.941 39.0041 106.062 37.9292 106.382 36.9044C106.413 36.8047 106.25 36.7554 106.176 36.8292C106.08 36.9255 105.683 38.5878 105.645 38.7186C105.594 38.8939 105.536 39.0786 105.48 39.2601C105.21 40.1201 105.12 40.9501 105.72 40.2601C104.941 40.9763 104.896 41.6561 104.527 42.5684C104.372 42.9524 104.451 43.2166 104.406 43.6284C104.389 43.782 104.373 44.2769 104.431 44.42C104.432 44.4215 104.432 44.423 104.433 44.4245C104.453 44.4738 104.46 44.5271 104.46 44.5803V44.5901V44.5201C104.46 44.5801 104.46 44.5801 104.46 44.5201C104.564 44.1968 104.966 44.2761 105.028 44.6103C105.086 44.9261 105.11 45.2478 105.1 45.5701C105.122 46.0445 105.178 46.5166 105.268 46.9827C105.3 47.1466 105.34 47.3305 105.255 47.4741C105.204 47.5613 105.15 47.4248 105.084 47.3222C104.982 47.1617 104.903 47.4229 104.963 47.6037L105.148 48.1625C105.175 48.247 105.124 48.3445 105.063 48.4101C105.002 48.4772 104.945 48.5738 104.892 48.6791C104.822 48.8169 104.262 49.9892 104.269 50.1437C104.269 50.1546 104.268 50.1655 104.266 50.1761C104.055 51.1509 104.1 52.1636 104.395 53.1157C104.405 53.1451 104.41 53.1938 104.411 53.2246C104.429 53.5572 105.127 55.6324 105.227 55.9499L105.464 56.7001C105.472 56.7249 105.453 56.7501 105.427 56.7501C105.403 56.7501 105.384 56.7726 105.39 56.7966C105.852 58.9198 107.072 60.8827 107.473 63.2756C107.571 63.8625 107.722 64.4417 107.95 64.9913C108.185 65.5582 108.385 66.1393 108.549 66.7312C108.582 66.8514 108.561 66.9798 108.494 67.0848C108.405 67.2235 108.401 67.3989 108.471 67.548C108.615 67.8543 108.758 68.2363 108.9 68.624C109.322 69.7753 109.774 71.4975 110.319 72.5959C110.478 72.9158 110.663 73.2467 110.86 73.5801C111.484 74.6398 112.232 75.6667 112.643 76.475C112.711 76.6092 112.871 76.6727 113.009 76.6138C113.136 76.5601 113.282 76.6078 113.354 76.7246C113.963 77.7156 114.651 78.6563 115.411 79.5378C115.497 79.6375 115.649 79.6434 115.743 79.5517C115.831 79.4666 115.97 79.4641 116.053 79.554C116.79 80.3549 117.29 81.7995 118.085 83.1836C118.313 83.5814 118.194 83.6889 118.06 83.2501C118.451 84.5607 119.254 85.7105 120.35 86.5301C121.407 87.319 122.365 88.2329 123.202 89.252C123.233 89.2901 123.273 89.3205 123.318 89.3419C123.758 89.5532 124.153 89.8497 124.478 90.2144C124.485 90.2225 124.476 90.2346 124.466 90.23C124.455 90.2247 124.446 90.2404 124.456 90.2474L124.587 90.3384C124.589 90.3395 124.59 90.3409 124.591 90.3424C124.8 90.5854 125.026 90.812 125.27 91.0201C125.192 90.9352 125.335 90.7523 125.439 90.8002C125.786 90.9589 126.146 91.0881 126.516 91.186C126.598 91.2079 126.663 91.2716 126.684 91.354L126.764 91.6625C126.785 91.7435 126.858 91.8001 126.942 91.8001C126.973 91.8001 127.005 91.8086 127.032 91.8236C127.212 91.9208 127.342 91.9662 127.43 91.9718C127.751 91.9923 127.864 91.3669 128.185 91.3422C128.349 91.3296 128.503 91.4191 128.628 91.5262C128.907 91.7652 129.36 91.7704 129.82 91.7301C130.791 91.5146 132.063 91.6574 132.971 91.2499C133.174 91.1588 133.38 91.0568 133.58 90.9401C134.395 90.462 135.035 89.7554 134.988 89.2899C134.985 89.2623 135.016 89.2246 135.042 89.2317C135.076 89.2405 135.203 89.2953 135.232 89.2768C135.782 88.9224 136.225 88.4211 136.507 87.8283C136.546 87.7467 136.63 87.6953 136.721 87.7031L136.879 87.7166C137.1 87.7356 137.3 87.5824 137.33 87.3625C137.397 86.8723 137.431 86.378 137.43 85.8829C137.43 85.8427 137.47 85.7775 137.498 85.7485C137.63 85.6116 138.767 84.091 138.788 83.9021C138.803 83.7671 138.819 83.6476 138.84 83.5301C138.903 82.9629 138.885 82.3899 138.786 81.8285C138.769 81.7285 138.869 81.6462 138.963 81.6865C139.037 81.7188 139.122 81.6722 139.127 81.5911C139.168 80.9243 138.881 79.996 139.038 79.5372C139.071 79.4394 139.135 79.3553 139.174 79.2595C139.527 78.3911 139.576 76.4216 139.17 74.2201C138.831 72.387 138.406 70.5105 138.021 68.8147C137.902 68.2914 137.256 67.3481 137.224 66.8125C137.193 66.3096 137.145 65.7688 136.878 65.6758C136.82 65.6553 136.768 65.5685 136.789 65.5098C136.818 65.4262 136.929 64.5744 136.892 64.4937C136.307 63.1977 136.216 62.2334 135.346 61.4651C135.224 61.3573 135.203 61.1405 135.356 61.1953C135.4 61.2111 135.446 61.2363 135.489 61.2617C135.646 61.3535 135.648 61.2152 135.534 61.074C135.4 60.9093 135.264 60.6955 135.29 60.5301C135.309 60.4003 135.511 60.3329 135.432 60.2279C134.805 59.3936 134.211 59.317 133.684 59.4207C133.432 59.4703 133.181 59.3003 133.112 59.053C133.048 58.8186 132.944 58.5954 132.804 58.3933C132.581 58.0704 132.276 57.8141 131.92 57.6509C131.878 57.6315 131.849 57.597 131.85 57.5506C131.85 57.4088 131.92 56.4732 131.847 56.3521C131.36 55.5529 130.726 54.6268 130.261 54.2029C130.075 54.0331 129.675 53.6896 129.521 53.4896C129.379 53.3037 129.205 53.1271 129.088 53.0334C129.051 53.003 129.014 52.9697 128.984 52.9313C128.11 51.8015 127.972 51.5677 127.143 50.6336C127.105 50.5903 127.036 50.6364 127.063 50.688C127.079 50.721 127.055 50.76 127.018 50.758C126.11 50.709 126.072 49.8295 125.136 49.0212C125.124 49.0107 125.131 48.9901 125.147 48.9901C125.161 48.9901 125.168 48.9734 125.161 48.9619C123.592 46.6329 124.109 48.0511 122.72 46.1074C122.609 45.952 122.369 45.9708 122.289 46.1446C122.27 46.1874 122.238 46.2255 122.196 46.2459C121.389 46.6326 120.79 44.3768 119.489 43.4029C119.403 43.3388 119.297 43.4274 119.342 43.5245C119.386 43.6184 119.299 43.7013 119.228 43.6266C118.541 42.911 118.235 40.9636 117.619 40.3489C117.606 40.336 117.597 40.327 117.59 40.3102C117.519 40.1406 117.865 40.1105 117.734 39.9805C116.85 39.0978 117.324 40.5241 116.259 39.9827C116.11 39.9068 115.996 39.7388 116.093 39.6024C116.273 39.3515 116.691 39.2197 115.9 38.6401C115.261 38.2163 114.554 37.9051 113.81 37.7201C113.212 37.5328 112.644 37.266 112.12 36.9281C111.911 36.7927 111.013 36.8409 110.772 36.7773C110.752 36.7719 110.7 36.7545 110.683 36.7434C110.005 36.3191 109.371 35.829 108.79 35.2801C108.48 35.0113 108.145 34.7735 107.79 34.5701C107.483 34.4223 107.143 34.3601 106.805 34.3894C106.745 34.3945 106.657 34.3397 106.625 34.2891C106.563 34.1928 106.483 34.0952 106.372 34.0656C105.892 33.9366 105.249 33.7183 104.626 33.5348C103.679 33.2559 102.372 32.4073 101.444 32.0727C100.937 31.89 100.348 31.7533 99.7895 31.6301C99.1366 31.4861 98.4813 31.3812 98.0041 31.2281C97.3912 31.0315 96.7889 30.3061 96.1685 30.1344L94.3965 29.6442C94.3577 29.6334 94.3448 29.5848 94.3733 29.5563C94.4 29.5297 94.3907 29.4845 94.3556 29.4709C93.3268 29.0736 92.1981 29.015 91.1339 29.3035C91.073 29.3201 90.9284 29.2758 90.8812 29.2338C90.7333 29.1021 90.8063 28.9176 90.6195 28.8519C90.1345 28.6814 89.7324 28.5442 89.3795 28.4501C88.9849 28.3605 88.5835 28.3036 88.1795 28.2801C87.3781 28.2629 86.5772 28.3259 85.7888 28.4683C85.6346 28.4961 85.4817 28.4088 85.4313 28.2604C85.3794 28.1075 85.2172 28.0107 85.0567 27.9931C84.0134 27.8791 81.0884 26.7972 78.5188 27.2103C78.4955 27.2141 78.4527 27.2292 78.4664 27.2099C78.486 27.1823 78.4824 27.0344 78.4486 27.0368C77.7096 27.0892 76.9674 27.0804 76.2295 27.0101C75.3595 26.9401 74.4695 26.7901 73.6395 26.7501C72.0454 26.6342 70.6753 26.6583 70.1334 27.5438C70.0965 27.604 70.0417 27.6522 69.9745 27.6737L69.3933 27.8597C69.1891 27.925 69.1226 28.6163 68.9575 28.7529C68.7982 28.8848 68.0169 29.3165 67.8114 29.294C67.0943 29.2154 66.5854 28.9882 67.362 28.8011C67.3918 28.794 67.425 28.7945 67.4545 28.803C67.5474 28.8295 67.6576 28.7762 67.6407 28.6811C67.5863 28.3746 66.9254 28.3903 66.2038 28.4508C65.1275 28.541 63.3538 28.4718 62.2885 28.6498C58.0325 29.361 53.833 30.3792 49.7227 31.6968C49.5465 31.7532 49.5173 31.9895 49.6739 32.0879C49.829 32.1853 49.8023 32.419 49.6291 32.4789L48.5049 32.8675C48.4616 32.8825 48.4208 32.891 48.3751 32.8881C47.9611 32.8623 47.8573 32.4512 47.5576 32.738C47.4603 32.8311 47.3728 32.9255 47.2992 33.0135C47.1283 33.218 46.8622 33.4727 46.6003 33.5224C45.1625 33.7954 47.555 32.2715 46.9195 32.5201L46.1588 32.8879C46.1224 32.9055 46.135 32.9601 46.1753 32.9601C46.2063 32.9601 46.2241 32.9951 46.2056 33.0199C45.7239 33.6634 45.0653 34.1535 44.3095 34.4301C44.0825 34.4982 43.9306 34.5192 43.8242 34.5147C43.4486 34.4986 43.1149 34.3917 42.7895 34.5801C42.3125 34.7969 41.825 34.9981 41.3422 35.2176C41.1764 35.2929 41.2162 35.5313 41.3971 35.553C41.5522 35.5716 41.6099 35.7583 41.4837 35.8503C40.8029 36.3461 40.1244 36.522 41.1395 36.6001C40.2695 36.4901 38.4195 37.3201 36.7395 38.3201C35.1826 39.2468 33.7546 40.2422 33.1716 40.4548C33.0936 40.4832 33.0196 40.5238 32.9637 40.5851C32.3633 41.2437 31.7034 41.8441 30.993 42.3787C30.8583 42.4801 29.968 43.9014 29.8371 44.0077C29.765 44.0662 29.4854 44.1466 29.4421 44.0644C28.9313 43.0939 27.0171 45.3106 25.6095 45.3201C26.2195 45.2401 25.4495 45.9101 24.7795 46.5601C24.6545 46.6813 24.5351 46.8071 24.4294 46.9299C24.2477 47.1411 23.6084 47.6333 23.3411 47.7119C23.2987 47.7243 23.2152 47.7682 23.1874 47.8025C21.5064 49.8794 18.7653 51.5647 16.6203 54.0328C16.3811 54.3081 16.4122 54.3825 16.6522 54.6572C16.8032 54.8299 16.5008 55.191 16.2899 55.2814L14.7925 55.9231C14.7514 55.9407 14.7155 55.9697 14.6946 56.0092C14.4654 56.4424 14.8146 56.8653 14.4127 57.2989C14.3504 57.3661 14.2167 57.8685 14.1683 57.9463C14.1653 57.951 14.1575 57.9621 14.1536 57.966C12.9216 59.1919 11.8055 60.5289 10.8195 61.9601C9.81951 63.4001 8.89951 64.8801 8.04951 66.4101C6.51099 69.2772 4.8408 72.0714 3.04432 74.784C3.00121 74.8491 3.06653 75.1485 3.05616 75.2258C3.04595 75.302 3.24885 76.0517 3.30898 76.0997C3.31628 76.1055 3.32366 76.111 3.33114 76.1162C3.37525 76.1467 3.40413 76.2191 3.37174 76.2618C2.94363 76.8269 2.56289 77.4161 2.17549 78.0116C1.92948 78.3898 1.89543 78.9111 1.80457 79.353C1.73702 79.6814 1.605 80.0622 1.48951 80.4401C1.32163 80.9896 1.15374 81.5215 1.19472 81.8494C1.20899 81.9636 1.32758 81.9399 1.34871 81.8268C1.37719 81.6743 1.74129 81.6077 1.89638 81.6046C2.28212 81.5968 2.84361 81.1314 3.38612 80.8155C3.77267 80.5905 4.47504 79.8872 4.68336 79.4914C4.8721 79.1328 5.14683 78.7698 5.41999 78.3893C5.45303 78.3433 5.48957 78.2999 5.52819 78.2585C5.87644 77.8848 6.15009 77.4477 6.33407 76.9706C6.4954 76.5523 6.58502 76.1105 6.59981 75.6637C6.60559 75.4893 6.74725 75.2011 6.80608 75.3654C6.90574 75.6437 6.95292 75.5344 6.95966 75.2389C6.97096 74.7432 7.19805 74.2115 7.73909 73.4747C7.75184 73.4574 7.77951 73.4661 7.77951 73.4876C7.77951 73.5116 7.81281 73.5177 7.82289 73.4959C9.19696 70.5235 10.2776 69.4045 12.405 66.5143C12.4732 66.4216 12.4076 66.2901 12.2926 66.2901C12.1764 66.2901 12.1117 66.1581 12.1875 66.0701C12.3741 65.8537 12.5807 65.6555 12.8046 65.4781C12.9588 65.3558 13.1452 65.0366 12.9497 65.0136C12.8472 65.0015 12.6845 65.1997 12.5051 65.4445C11.9924 66.1445 12.156 65.7591 12.7072 65.0891C13.0912 64.6224 13.4894 64.0467 13.8995 63.4901C14.443 62.7525 14.9907 62.04 15.4911 61.6452C15.9079 61.3163 16.7106 60.9599 16.2051 60.7976C16.125 60.7719 16.1116 60.6919 16.3243 60.4222C16.3716 60.3622 16.4406 60.3226 16.5158 60.309C16.6945 60.2765 16.8126 60.1035 16.7798 59.9249C16.7608 59.8218 16.7909 59.7138 16.8668 59.6415C17.2814 59.2459 17.6734 59.1189 17.9169 59.1462C18.0098 59.1567 18.0305 59.2629 17.9765 59.3392C17.8806 59.4748 18.0115 59.5858 18.1283 59.4676C18.8897 58.697 19.6038 57.4728 19.8695 57.2901C19.7367 57.4017 19.576 57.2477 19.6867 57.1141C21.6854 54.7018 24.3824 52.3524 26.2963 50.0853C26.3416 50.0315 26.3029 49.9501 26.2326 49.9501C26.1648 49.9501 26.126 49.8733 26.1676 49.8197C26.6186 49.2387 27.1841 48.7554 27.8295 48.4001C28.5606 47.984 29.2433 47.4883 29.8654 46.9221C29.8708 46.9172 29.879 46.9232 29.876 46.9299C29.8726 46.9374 29.8836 46.9435 29.8883 46.9367C30.1948 46.483 30.5693 46.08 30.9981 45.7415C31.0691 45.6855 31.2969 45.7255 31.3874 45.7237C31.4898 45.7217 32.8128 45.2066 32.8834 45.1323C33.7892 44.1784 33.2575 44.526 34.0327 43.2418C34.0847 43.1558 34.1838 43.1093 34.2832 43.1235L34.4401 43.1459C34.5813 43.1661 34.7171 43.0881 34.782 42.9611C34.9273 42.677 35.1109 42.4157 35.3266 42.184C35.4542 42.0469 36.2678 41.9766 36.4486 42.0254C36.6095 42.0688 36.7218 42.4025 36.8764 42.3406C37.776 41.9802 38.6042 41.4587 39.3195 40.8001C39.7974 40.3914 40.2178 40.0691 40.7235 39.9761C41.1489 39.8978 41.8003 39.4726 41.3685 39.4466C40.5567 39.3977 39.9032 39.1354 40.6211 38.7531C40.7374 38.6912 40.8517 38.6389 40.9595 38.6001C41.8495 38.2801 42.9595 38.9901 45.1195 37.9801C45.0482 38.0141 45.1066 38.1359 45.1781 38.1023C45.773 37.8224 46.2553 37.2755 47.0668 37.1758C47.2126 37.1579 47.3393 37.066 47.4248 36.9465C47.5055 36.8338 47.6028 36.751 47.7056 36.6845C48.2344 36.342 47.917 36.1263 47.3535 36.4081L46.4895 36.8401C47.4556 36.2386 48.1392 35.0723 49.8424 34.6432C50.0336 34.595 50.1556 34.8047 50.0149 34.9427C49.8577 35.0969 49.9462 35.3007 50.1418 35.1998C50.3386 35.0983 50.5323 34.9851 50.7577 34.9212C50.9597 34.864 51.1407 35.0473 51.0017 35.2046C50.783 35.4519 50.2941 35.6538 49.7425 35.8791C48.8881 36.228 49.753 35.7227 49.4995 36.6101C49.9843 35.3363 51.5445 35.8336 52.7626 34.7864C52.8396 34.7201 52.9656 34.7641 52.9761 34.8651C52.986 34.9607 53.0995 35.0069 53.1763 34.9491C53.3784 34.7971 53.5943 34.6647 53.8212 34.5535C53.9011 34.5144 53.9739 34.6052 53.922 34.6775C53.8606 34.763 54.0267 34.9424 54.1252 34.9051C54.5495 34.7446 55.005 34.7122 55.4593 34.6842C55.6641 34.6715 55.6892 34.3628 55.657 34.1601C55.6291 33.9844 55.6766 33.7127 55.8424 33.6481C58.0428 32.7909 57.5795 34.4791 60.7095 33.5401C60.5521 33.6031 60.2808 33.6391 60.0242 33.6427C59.3792 33.6516 59.8993 33.2247 60.5441 33.2414C60.6883 33.2451 60.8323 33.2537 60.9759 33.2671C61.4027 33.3069 61.8415 33.3244 62.2477 33.1872C62.7852 33.0057 62.5184 32.9303 62.239 32.8444C61.8223 32.7164 62.3439 32.6754 62.7592 32.5426C63.1325 32.4231 63.4107 32.0312 63.9367 31.7614C64.0653 31.6953 64.2143 31.7794 64.2415 31.9214C64.2633 32.0355 64.3674 32.1166 64.4833 32.1089C66.7115 31.9608 65.1732 31.1452 66.8202 31.0408C66.9794 31.0307 67.0551 31.2256 66.9348 31.3303C66.7952 31.4519 66.918 31.6784 67.0961 31.6277L67.3162 31.565C67.4284 31.5331 67.5306 31.6395 67.4943 31.7502C67.4546 31.8714 67.58 31.9836 67.6985 31.9366C68.0009 31.8167 68.3124 31.724 68.6293 31.6593C69.1787 31.547 71.071 30.6825 71.628 30.6167C71.6953 30.6088 71.8445 30.6091 71.908 30.6328C72.3503 30.7974 71.958 30.9462 72.2242 30.9733C72.5558 31.0072 72.7011 31.3148 72.3745 31.381C72.1973 31.4169 72.0156 31.4106 71.8438 31.3645C71.6825 31.3213 71.464 31.3675 71.3383 31.4774C71.3132 31.4994 71.2881 31.5214 71.2644 31.5437C71.1795 31.6232 71.2361 31.7364 71.3515 31.7507C72.0291 31.8344 72.7142 31.831 73.39 31.7409C73.4382 31.7345 73.4339 31.6134 73.3866 31.6021C73.3496 31.5933 73.3484 31.5436 73.3844 31.5316C74.1402 31.2798 74.913 31.0547 75.6859 30.8562C75.7012 30.8522 75.73 30.8597 75.744 30.8669C75.8185 30.9051 76.1451 31.1645 76.2271 31.1475C76.4246 31.1066 76.6231 31.0698 76.8222 31.0371C76.9214 31.0208 77.001 31.1269 76.9637 31.2202C76.8372 31.5366 76.7081 31.8376 75.8795 32.0001C76.5939 31.8702 77.3168 31.6973 78.0325 31.6091C78.1372 31.5962 78.2178 31.6166 78.3081 31.6712C78.5806 31.8363 79.7775 32.2988 80.0951 32.2734C81.0945 32.1933 82.2869 31.9021 83.4083 32.062C83.7419 32.1095 84.0881 32.0569 84.425 32.0531C84.4731 32.0526 84.5214 32.0549 84.5695 32.0601C85.3595 32.2301 86.0795 32.4901 86.8495 32.6801C87.4551 32.8224 88.0726 32.9058 88.6931 32.9294C89.1486 32.9467 89.5898 33.1185 89.9049 33.4478C90.1601 33.7144 90.8645 34.076 90.7659 33.7204C90.6792 33.4079 89.7683 32.7534 91.5595 32.9701C92.8763 33.1107 92.513 33.4427 92.4412 33.7397C92.3902 33.9509 92.6786 34.0006 92.8933 33.9671C93.9684 33.7993 95.0676 33.9638 96.044 34.4352C96.1657 34.494 96.1116 34.6452 95.9795 34.617ZM111.15 41.3031C111.471 41.3068 111.145 41.7943 110.918 41.5666C110.809 41.4566 110.916 41.3226 111.07 41.3068C111.098 41.304 111.124 41.3028 111.15 41.3031ZM131.89 61.6507C131.89 61.6503 131.889 61.65 131.889 61.6498C131.736 61.5208 131.614 61.3602 131.529 61.179C131.49 61.0963 131.46 61.0102 131.439 60.9221C131.415 60.8237 131.525 60.7857 131.575 60.8737C131.713 61.117 131.819 61.3784 131.887 61.6509C131.888 61.6523 131.89 61.652 131.89 61.6507ZM104.39 51.3101C104.34 52.2401 104.37 51.9301 104.39 51.3201V51.3101ZM104.49 49.4867C104.49 49.4824 104.489 49.4779 104.487 49.474C104.474 49.445 104.461 49.4211 104.449 49.4019C104.379 49.2911 104.319 49.4666 104.36 49.5911C104.453 49.8711 104.574 49.9127 104.517 49.6232C104.509 49.5818 104.5 49.5386 104.49 49.4935C104.49 49.4913 104.49 49.489 104.49 49.4867ZM43.2195 34.618C43.2195 34.6136 43.223 34.6101 43.2274 34.6101H43.3057C43.39 34.6101 43.4228 34.7179 43.3514 34.7626C42.9911 34.9882 43.1076 34.8093 43.2184 34.622C43.2191 34.6207 43.2195 34.6194 43.2195 34.618Z" fill="url(#paint0_linear_584_3811)"/>
<path d="M129.72 59.21C129.738 59.1077 129.787 59.0133 129.86 58.94C129.72 58.86 129.6 58.91 129.72 59.21Z" fill="#D44D00"/>
<path d="M84.08 32.24H84.02C83.9919 32.2596 83.9709 32.2876 83.96 32.32L84.08 32.24Z" fill="#D44D00"/>
<path d="M116.74 73.3201C116.829 73.5458 116.866 73.7882 116.85 74.0301C116.96 73.9901 116.97 73.8001 116.74 73.3201Z" fill="#D44D00"/>
<path d="M104.54 39.7L104.42 40.9C104.468 40.5435 104.595 40.2021 104.79 39.9C104.67 39.88 104.47 40.07 104.54 39.7Z" fill="#D44D00"/>
<path d="M110.92 31.55C110.92 31.38 111.09 31.26 111.12 31.09L110.9 31.02C110.54 31.61 110.53 32.14 110.92 31.55Z" fill="#D44D00"/>
<path d="M106.36 39.0401C106.78 39.0401 106.85 38.3401 107.01 37.5601C107.015 37.6033 107.015 37.6468 107.01 37.6901C106.5 37.2901 106.42 38.1701 106.36 39.0401Z" fill="#D44D00"/>
<path d="M107.05 37.37C107.1 37.1322 107.167 36.8983 107.25 36.67C107.07 36.5 107.12 36.99 107.05 37.37Z" fill="#D44D00"/>
<path d="M104.18 47.18C104.3 46.79 103.67 46.92 103.84 46.7C103.33 46.26 104.4 49.32 104.18 47.18Z" fill="#D44D00"/>
<path d="M107.83 38.79L107.27 38.92L107.53 39.44L107.83 38.79Z" fill="#D44D00"/>
<path d="M106.33 44.7099L106.61 43.4899C106.52 43.4899 106.49 43.3399 106.47 43.1399C106.37 43.8999 106.18 44.7299 106.33 44.7099Z" fill="#D44D00"/>
<path d="M106.47 43.1399C106.531 42.8101 106.557 42.4751 106.55 42.1399C106.479 42.4681 106.452 42.8045 106.47 43.1399Z" fill="#D44D00"/>
<path d="M107.54 40.45L107.36 40.7799L107.16 41.6199L107.54 40.45Z" fill="#D44D00"/>
<path d="M107.49 57.99L107.98 59.26C108.18 59.35 108.18 58.96 107.98 58.5C107.79 58.17 107.6 57.7 107.49 57.99Z" fill="#D44D00"/>
<path d="M107.96 53.72C107.942 53.952 107.851 54.1724 107.7 54.35L108.32 54.28L107.96 53.72Z" fill="#D44D00"/>
<path d="M108.92 57.4201C109.13 57.5101 109.92 59.1201 109.43 57.5401C109.23 57.4601 108.75 56.2201 108.92 57.4201Z" fill="#D44D00"/>
<path d="M116.31 75.9499L116.13 75.6699L115.28 76.2299L116.31 75.9499Z" fill="#D44D00"/>
<path d="M128.5 86.83C128.06 86.52 127.93 86.61 127.81 86.72C127.69 86.83 127.58 86.95 127.19 86.52C126.8 86.59 127.85 87.2 127.5 87.23C128.29 87.34 128.6 87.56 128.5 86.83Z" fill="#D44D00"/>
<path d="M127.5 87.23H127.08C127.22 87.247 127.361 87.247 127.5 87.23Z" fill="#D44D00"/>
<path d="M0.590312 80.3L0.0703125 81.25L0.600313 80.7L0.590312 80.3Z" fill="#D44D00"/>
<path d="M0.690002 82.46L0 82.51L0.37001 83.28C0.41001 83.04 0.500002 82.59 0.690002 82.46Z" fill="#D44D00"/>
<path d="M113.5 44.6101L113.65 44.5301C113.65 44.3001 113.45 44.1501 113.1 43.8501L113.5 44.6101Z" fill="#D44D00"/>
<path d="M102.33 37.63L102.53 37.74L102.38 37.02L102.33 37.63Z" fill="#D44D00"/>
<path d="M91.6504 34.7101C92.1249 34.775 92.5955 34.8651 93.0604 34.9801C92.0904 34.8101 91.7104 33.9901 91.6504 34.7101Z" fill="#D44D00"/>
</g>
<defs>
<linearGradient id="paint0_linear_584_3811" x1="1.18848" y1="59.3365" x2="139.457" y2="59.3365" gradientUnits="userSpaceOnUse">
<stop stop-color="#4C86D4"/>
<stop offset="0.574307" stop-color="#716CB6"/>
</linearGradient>
<clipPath id="clip0_584_3811">
<rect width="139.45" height="92.44" fill="white"/>
</clipPath>
</defs>
</svg>
