<svg width="49" height="49" viewBox="0 0 49 49" fill="none" xmlns="http://www.w3.org/2000/svg">
<path fill-rule="evenodd" clip-rule="evenodd" d="M26.869 37.0628C27.5948 37.1514 28.1891 36.9399 28.3914 36.1846C28.5722 35.5096 28.1448 34.8782 27.5101 34.6544C25.3789 34.2632 23.3165 33.5176 21.6942 32.931C19.3806 32.0947 18.7862 31.8955 16.5031 33.2172L12.4873 35.5423L15.8699 41.5192L16.027 41.4285C16.198 41.33 16.4012 41.3034 16.5918 41.3546L25.9019 43.8468C27.0385 44.1515 28.1215 44.0164 29.1271 43.3973L41.9619 35.4942C42.3445 35.2587 42.5321 34.7078 42.4761 34.1678C42.4307 33.7299 42.2166 33.329 41.814 33.1252C41.1617 32.7948 40.0225 32.8972 38.2522 33.9281L31.1797 38.0474C30.6066 38.3812 30.0167 38.5933 29.4042 38.6963C27.6418 38.9923 24.9989 38.1659 23.4183 37.7146C22.9134 37.5704 22.4008 37.424 21.9018 37.2903C21.8057 37.266 21.7153 37.2227 21.636 37.1632C21.5566 37.1036 21.4899 37.0289 21.4397 36.9434C21.3895 36.8578 21.3568 36.7632 21.3434 36.6649C21.3301 36.5666 21.3364 36.4666 21.362 36.3708C21.3876 36.275 21.432 36.1852 21.4926 36.1066C21.5532 36.0281 21.6288 35.9624 21.715 35.9133C21.8012 35.8642 21.8963 35.8327 21.9947 35.8206C22.0932 35.8086 22.1931 35.8162 22.2885 35.8431C23.8127 36.2513 25.3243 36.7426 26.869 37.0628ZM15.3596 7.82121C15.4653 7.82101 15.5667 7.77892 15.6414 7.70416C15.7162 7.62939 15.7583 7.52804 15.7585 7.4223V2.94321C15.6713 2.98358 15.5922 3.03931 15.5248 3.10774L11.0449 7.58759C10.9765 7.65498 10.9208 7.73415 10.8804 7.82131L15.3596 7.82121ZM41.3461 37.6284V41.6521C41.3461 42.0915 40.9877 42.45 40.5482 42.45H33.5157L41.3461 37.6284ZM40.5483 2.87402H17.2585V7.4223C17.2585 8.46996 16.4072 9.32121 15.3596 9.32121H10.8113V33.1C11.126 33.314 11.3871 33.5978 11.5742 33.9292L11.7501 34.24L13.8599 33.0185V30.6522C13.8599 30.2392 14.1968 29.9022 14.6099 29.9022H16.8291C17.2422 29.9022 17.5791 30.2392 17.5791 30.6522V31.0597C18.6717 30.6906 19.6576 30.6521 20.7659 31.0184V26.0474C20.7659 25.6344 21.1029 25.2974 21.5159 25.2974H23.7353C24.1484 25.2974 24.4853 25.6344 24.4853 26.0474V32.3196C25.5 32.6492 26.5853 32.9583 27.6721 33.1647V27.5977C27.6721 27.1846 28.0091 26.8477 28.4221 26.8477H30.6415C31.0545 26.8477 31.3915 27.1846 31.3915 27.5977V36.1924L34.5782 34.3362V21.1686C34.5782 20.7555 34.9152 20.4186 35.3282 20.4186H37.5476C37.9606 20.4186 38.2976 20.7555 38.2976 21.1686V32.208C39.5195 31.6157 40.5318 31.4174 41.3461 31.4811V3.67193C41.3461 3.23243 40.9877 2.87402 40.5483 2.87402ZM22.9215 6.67924H33.0266C33.2255 6.67924 33.4163 6.75826 33.5569 6.89891C33.6976 7.03956 33.7766 7.23033 33.7766 7.42924C33.7766 7.62815 33.6976 7.81892 33.5569 7.95957C33.4163 8.10022 33.2255 8.17924 33.0266 8.17924H22.9215C22.7226 8.17924 22.5319 8.10022 22.3912 7.95957C22.2506 7.81892 22.1715 7.62815 22.1715 7.42924C22.1715 7.23033 22.2506 7.03956 22.3912 6.89891C22.5319 6.75826 22.7226 6.67924 22.9215 6.67924ZM22.9215 10.0599H33.0266C33.2255 10.0599 33.4163 10.1389 33.5569 10.2795C33.6976 10.4202 33.7766 10.611 33.7766 10.8099C33.7766 11.0088 33.6976 11.1995 33.5569 11.3402C33.4163 11.4808 33.2255 11.5599 33.0266 11.5599H22.9215C22.7226 11.5599 22.5319 11.4808 22.3912 11.3402C22.2506 11.1995 22.1715 11.0088 22.1715 10.8099C22.1715 10.611 22.2506 10.4202 22.3912 10.2795C22.5319 10.1389 22.7226 10.0599 22.9215 10.0599ZM22.9215 13.4408H33.0266C33.2255 13.4408 33.4163 13.5198 33.5569 13.6604C33.6976 13.8011 33.7766 13.9919 33.7766 14.1908C33.7766 14.3897 33.6976 14.5805 33.5569 14.7211C33.4163 14.8618 33.2255 14.9408 33.0266 14.9408H22.9215C22.7226 14.9408 22.5319 14.8618 22.3912 14.7211C22.2506 14.5805 22.1715 14.3897 22.1715 14.1908C22.1715 13.9919 22.2506 13.8011 22.3912 13.6604C22.5319 13.5198 22.7226 13.4408 22.9215 13.4408ZM18.9224 6.67924H20.0027C20.2016 6.67924 20.3924 6.75826 20.5331 6.89891C20.6737 7.03956 20.7527 7.23033 20.7527 7.42924C20.7527 7.62815 20.6737 7.81892 20.5331 7.95957C20.3924 8.10022 20.2016 8.17924 20.0027 8.17924H18.9224C18.7235 8.17924 18.5328 8.10022 18.3921 7.95957C18.2515 7.81892 18.1724 7.62815 18.1724 7.42924C18.1724 7.23033 18.2515 7.03956 18.3921 6.89891C18.5328 6.75826 18.7235 6.67924 18.9224 6.67924ZM18.9224 10.0599H20.0027C20.2016 10.0599 20.3924 10.1389 20.5331 10.2795C20.6737 10.4202 20.7527 10.611 20.7527 10.8099C20.7527 11.0088 20.6737 11.1995 20.5331 11.3402C20.3924 11.4808 20.2016 11.5599 20.0027 11.5599H18.9224C18.7235 11.5599 18.5328 11.4808 18.3921 11.3402C18.2515 11.1995 18.1724 11.0088 18.1724 10.8099C18.1724 10.611 18.2515 10.4202 18.3921 10.2795C18.5328 10.1389 18.7235 10.0599 18.9224 10.0599ZM18.9224 13.4408H20.0027C20.2016 13.4408 20.3924 13.5198 20.5331 13.6604C20.6737 13.8011 20.7527 13.9919 20.7527 14.1908C20.7527 14.3897 20.6737 14.5805 20.5331 14.7211C20.3924 14.8618 20.2016 14.9408 20.0027 14.9408H18.9224C18.7235 14.9408 18.5328 14.8618 18.3921 14.7211C18.2515 14.5805 18.1724 14.3897 18.1724 14.1908C18.1724 13.9919 18.2515 13.8011 18.3921 13.6604C18.5328 13.5198 18.7235 13.4408 18.9224 13.4408ZM37.177 16.0723L36.9314 18.2696C36.9206 18.3673 36.8907 18.4619 36.8433 18.5481C36.796 18.6342 36.7321 18.7102 36.6554 18.7717C36.5787 18.8331 36.4906 18.8789 36.3962 18.9063C36.3018 18.9338 36.2029 18.9423 36.1052 18.9316C35.9078 18.9098 35.7272 18.8105 35.6031 18.6556C35.5416 18.5789 35.4958 18.4908 35.4684 18.3964C35.441 18.302 35.4324 18.2031 35.4432 18.1054L35.4552 17.9981L30.0623 23.4371C29.9651 23.5348 29.8428 23.6037 29.7089 23.6363C29.575 23.6689 29.4347 23.6638 29.3035 23.6216L22.7718 21.5047L16.1796 26.6378C16.0231 26.7554 15.8266 26.807 15.6325 26.7813C15.4384 26.7556 15.2621 26.6547 15.1415 26.5004C15.021 26.3461 14.9658 26.1506 14.9879 25.9561C15.01 25.7615 15.1076 25.5834 15.2596 25.46L22.1658 20.0825C22.2618 20.0074 22.3748 19.957 22.4947 19.9356C22.6147 19.9142 22.7381 19.9226 22.8541 19.9599L29.3248 22.0566L34.4671 16.8702L34.2543 16.8889C34.0579 16.9028 33.8639 16.8389 33.7142 16.711C33.5645 16.5831 33.4712 16.4014 33.4542 16.2053C33.4373 16.0091 33.4982 15.8142 33.6238 15.6625C33.7494 15.5109 33.9296 15.4147 34.1255 15.3948L36.3736 15.1976C36.8628 15.1555 37.2593 15.5944 37.177 16.0723ZM15.8416 44.5149L10.2688 34.6681C9.99932 34.192 9.38929 34.0229 8.91323 34.2924L7.0177 35.3651C6.54154 35.6346 6.37251 36.2446 6.64195 36.7208L12.2148 46.5676C12.4844 47.0438 13.0943 47.2128 13.5704 46.9434L15.4659 45.8706C15.942 45.601 16.1111 44.9909 15.8416 44.5149ZM9.18679 37.4833C9.01028 37.5069 8.83158 37.46 8.68942 37.3528C8.54726 37.2455 8.45309 37.0866 8.42732 36.9104C8.40156 36.7342 8.44627 36.5549 8.55178 36.4114C8.65728 36.268 8.81507 36.1719 8.99095 36.1439C9.16855 36.118 9.34919 36.1636 9.49313 36.2709C9.63707 36.3781 9.73252 36.5381 9.75848 36.7157C9.78444 36.8933 9.73879 37.0739 9.63159 37.2179C9.52438 37.3619 9.36439 37.4573 9.18679 37.4833Z" fill="#4F4F4F"/>
</svg>
