<svg width="48" height="49" viewBox="0 0 48 49" fill="none" xmlns="http://www.w3.org/2000/svg">
<path d="M35.8382 30.9832C37.6752 29.5134 38.8522 27.253 38.8522 24.7174C38.8522 20.2875 35.2612 16.6965 30.8314 16.6965C26.4016 16.6965 22.8105 20.2875 22.8105 24.7174C22.8105 29.1471 26.4016 32.7382 30.8314 32.7382C31.8632 32.7382 32.8494 32.5432 33.7555 32.1883L35.0786 34.4802C35.3688 34.1964 35.6934 33.9503 36.0449 33.7475C36.3965 33.5447 36.7724 33.3872 37.1635 33.2786L35.8382 30.9832ZM34.5166 24.1786L30.7355 27.9596C30.2656 28.4295 29.5039 28.4295 29.034 27.9596L27.1435 26.0691C26.6736 25.5993 26.6736 24.8375 27.1435 24.3677C27.6133 23.8978 28.3751 23.8978 28.8449 24.3677L29.8848 25.4075L32.8151 22.4771C33.285 22.0073 34.0467 22.0073 34.5166 22.4771C34.9864 22.947 34.9864 23.7087 34.5166 24.1786ZM43.7433 42.2691L40.535 36.7121C39.8705 35.5612 38.3989 35.1669 37.248 35.8313C36.0971 36.4958 35.7028 37.9675 36.3672 39.1184L39.5755 44.6754C40.24 45.8263 41.7116 46.2206 42.8625 45.5561C44.0135 44.8916 44.4078 43.42 43.7433 42.2691Z" fill="#4F4F4F"/>
<path d="M21.3416 29.0351H9.04963C8.40179 29.0351 7.84434 28.5373 7.81386 27.8902C7.78138 27.1993 8.33185 26.6289 9.01562 26.6289H20.581C20.4637 25.9985 20.4047 25.3586 20.4048 24.7174C20.4048 24.5515 20.4091 24.3867 20.4168 24.2227H9.04963C8.40179 24.2227 7.84434 23.7248 7.81386 23.0777C7.78138 22.3868 8.33185 21.8164 9.01562 21.8164H20.8158C21.0606 20.9734 21.4115 20.1648 21.8599 19.4102H9.04963C8.40179 19.4102 7.84434 18.9123 7.81386 18.2652C7.78138 17.5743 8.33185 17.0039 9.01562 17.0039H23.8236C25.6764 15.319 28.1362 14.2903 30.8319 14.2903V6.17578C30.8319 5.51134 30.2932 4.97266 29.6288 4.97266H4.20312C3.53868 4.97266 3 5.51126 3 6.17578V44.6758C3 45.3402 3.53868 45.8789 4.20312 45.8789H29.6288C30.2932 45.8789 30.8319 45.3402 30.8319 44.6758V35.1445C26.6215 35.1445 22.9864 32.6359 21.3416 29.0351ZM9.01562 12.1914H20.2448C20.9092 12.1914 21.4479 12.7301 21.4479 13.3945C21.4479 14.059 20.9092 14.5977 20.2448 14.5977H9.01562C8.35118 14.5977 7.8125 14.059 7.8125 13.3945C7.8125 12.7301 8.35118 12.1914 9.01562 12.1914ZM7.8125 32.6445C7.8125 31.9801 8.35118 31.4414 9.01562 31.4414H20.2448C20.9092 31.4414 21.4479 31.9801 21.4479 32.6445C21.4479 33.309 20.9092 33.8476 20.2448 33.8476H9.01562C8.35118 33.8476 7.8125 33.309 7.8125 32.6445ZM26.2604 37.457C26.2604 38.1215 25.7217 38.6601 25.0573 38.6601H17.0365C16.372 38.6601 15.8333 38.1215 15.8333 37.457C15.8333 36.7926 16.372 36.2539 17.0365 36.2539H25.0573C25.7217 36.2539 26.2604 36.7926 26.2604 37.457ZM30.8319 14.2903V14.2911C30.852 14.2906 30.8722 14.2903 30.8319 14.2903Z" fill="#4F4F4F"/>
<path d="M30.8317 14.2933V14.291C30.8117 14.2916 30.7917 14.2924 30.8317 14.2933ZM30.8317 35.1444C30.8721 35.1444 30.8518 35.1441 30.8317 35.1435V35.1444ZM30.8317 35.1435V35.1413C30.7917 35.1422 30.8117 35.1429 30.8317 35.1435Z" fill="#4F4F4F"/>
</svg>
