<svg width="48" height="49" viewBox="0 0 48 49" fill="none" xmlns="http://www.w3.org/2000/svg">
<path fill-rule="evenodd" clip-rule="evenodd" d="M19.7842 28.1794C19.5871 27.3516 19.2592 26.5606 18.8129 25.8361L19.4887 24.3143L17.6945 22.5202L16.1722 23.1963C15.4479 22.7501 14.6571 22.4222 13.8296 22.2251L13.2316 20.6717H10.6944L10.0965 22.2251C9.26892 22.4222 8.47812 22.7501 7.75384 23.1963L6.23152 22.5202L4.43743 24.3143L5.11346 25.8365C4.66719 26.5608 4.33932 27.3517 4.14221 28.1793L2.58887 28.7771V31.3144L4.14193 31.9122C4.33907 32.74 4.66697 33.531 5.11327 34.2555L4.43734 35.7772L6.23152 37.5713L7.75374 36.8953C8.47805 37.3415 9.26889 37.6694 10.0965 37.8665L10.6944 39.4199H13.2316L13.8294 37.8668C14.6572 37.6698 15.4482 37.3418 16.1727 36.8954L17.6944 37.5713L19.4885 35.7772L18.8125 34.2549C19.2587 33.5307 19.5865 32.7399 19.7836 31.9123L21.3371 31.3144V28.777L19.7842 28.1794ZM11.963 34.4707C9.51896 34.4707 7.53802 32.4898 7.53802 30.0457C7.53802 27.6017 9.51896 25.6208 11.963 25.6208C14.4071 25.6208 16.388 27.6017 16.388 30.0457C16.388 32.4899 14.4072 34.4707 11.963 34.4707ZM42.6142 21.4266H26.6007C25.0621 21.4266 23.8032 22.6854 23.8032 24.2241V44.6752C23.8032 46.2138 25.0621 47.4727 26.6007 47.4727H42.6143C44.153 47.4727 45.4119 46.2138 45.4119 44.6752V24.2241C45.4118 22.6854 44.1529 21.4266 42.6142 21.4266ZM31.1708 42.8141C31.1708 43.1683 30.8819 43.4573 30.5277 43.4573H28.124C27.7698 43.4573 27.481 43.1683 27.481 42.8141V41.9781C27.481 41.6239 27.7698 41.3349 28.124 41.3349H30.5277C30.8819 41.3349 31.1708 41.6239 31.1708 41.9781V42.8141ZM31.1708 38.3043C31.1708 38.6585 30.8819 38.9474 30.5277 38.9474H28.124C27.7698 38.9474 27.481 38.6585 27.481 38.3043V37.4682C27.481 37.114 27.7698 36.8251 28.124 36.8251H30.5277C30.8819 36.8251 31.1708 37.114 31.1708 37.4682V38.3043ZM31.1708 33.7944C31.1708 34.1486 30.8819 34.4376 30.5277 34.4376H28.124C27.7698 34.4376 27.481 34.1486 27.481 33.7944V32.9584C27.481 32.6042 27.7698 32.3153 28.124 32.3153H30.5277C30.8819 32.3153 31.1708 32.6042 31.1708 32.9584V33.7944ZM36.4524 42.8141C36.4524 43.1683 36.1635 43.4573 35.8093 43.4573H33.4056C33.0514 43.4573 32.7626 43.1683 32.7626 42.8141V41.9781C32.7626 41.6239 33.0514 41.3349 33.4056 41.3349H35.8093C36.1635 41.3349 36.4524 41.6239 36.4524 41.9781V42.8141ZM36.4524 38.3043C36.4524 38.6585 36.1635 38.9474 35.8093 38.9474H33.4056C33.0514 38.9474 32.7626 38.6585 32.7626 38.3043V37.4682C32.7626 37.114 33.0514 36.8251 33.4056 36.8251H35.8093C36.1635 36.8251 36.4524 37.114 36.4524 37.4682V38.3043ZM36.4524 33.7944C36.4524 34.1486 36.1635 34.4376 35.8093 34.4376H33.4056C33.0514 34.4376 32.7626 34.1486 32.7626 33.7944V32.9584C32.7626 32.6042 33.0514 32.3153 33.4056 32.3153H35.8093C36.1635 32.3153 36.4524 32.6042 36.4524 32.9584V33.7944ZM41.734 42.8141C41.734 43.1683 41.4451 43.4573 41.0909 43.4573H38.6872C38.333 43.4573 38.0442 43.1683 38.0442 42.8141V41.9781C38.0442 41.6239 38.333 41.3349 38.6872 41.3349H41.0909C41.4451 41.3349 41.734 41.6239 41.734 41.9781V42.8141ZM41.734 38.3043C41.734 38.6585 41.4451 38.9474 41.0909 38.9474H38.6872C38.333 38.9474 38.0442 38.6585 38.0442 38.3043V37.4682C38.0442 37.114 38.333 36.8251 38.6872 36.8251H41.0909C41.4451 36.8251 41.734 37.114 41.734 37.4682V38.3043ZM41.734 33.7944C41.734 34.1486 41.4451 34.4376 41.0909 34.4376H38.6872C38.333 34.4376 38.0442 34.1486 38.0442 33.7944V32.9584C38.0442 32.6042 38.333 32.3153 38.6872 32.3153H41.0909C41.4451 32.3153 41.734 32.6042 41.734 32.9584V33.7944ZM42.3248 28.6093C42.3248 28.9635 42.0359 29.2524 41.6817 29.2524H27.5332C27.179 29.2524 26.8901 28.9636 26.8901 28.6093V26.0851C26.8901 25.7309 27.179 25.442 27.5332 25.442H41.6818C42.036 25.442 42.3249 25.7309 42.3249 26.0851V28.6093H42.3248ZM37.518 2.54175V7.01513C37.5182 7.12074 37.5602 7.22197 37.6349 7.29664C37.7096 7.37132 37.8108 7.41336 37.9164 7.41356H42.3898C42.3494 7.32655 42.2938 7.24751 42.2254 7.18022L37.7514 2.70609C37.6841 2.63773 37.605 2.58206 37.518 2.54175ZM22.3032 41.998H12.7599C12.321 41.998 11.963 41.64 11.963 41.2012V40.92H14.2616L14.9608 39.1036C15.4022 38.9575 15.8323 38.7792 16.2477 38.5701L18.0271 39.3604L21.2776 36.1097L20.4871 34.3298C20.6961 33.9147 20.8743 33.4849 21.0204 33.0437L22.3032 32.5499V41.998ZM23.0023 10.3519C22.6908 9.61012 22.1101 9.16772 21.4636 8.97891V8.85694C21.4636 8.65803 21.3846 8.46726 21.244 8.32661C21.1033 8.18596 20.9126 8.10694 20.7136 8.10694C20.5147 8.10694 20.324 8.18596 20.1833 8.32661C20.0427 8.46726 19.9636 8.65803 19.9636 8.85694V8.98866C19.0322 9.26831 18.3581 10.0388 18.4071 11.0491C18.4674 12.291 19.5058 12.8294 20.5985 13.0087C20.9607 13.0682 21.6455 13.1949 21.7005 13.6478L21.7066 13.7021C21.7145 14.037 21.1935 14.1631 20.9399 14.1938C20.8666 14.2028 20.8089 14.2076 20.7671 14.2087C20.3296 14.2191 19.8167 14.0394 19.6999 13.5707C19.6499 13.3808 19.5273 13.2182 19.3585 13.1179C19.1897 13.0176 18.9882 12.9877 18.7976 13.0346C18.6069 13.0815 18.4423 13.2014 18.3393 13.3686C18.2362 13.5357 18.203 13.7367 18.2468 13.9281C18.4619 14.7907 19.1232 15.3804 19.9638 15.6045V15.723C19.9638 15.9219 20.0429 16.1127 20.1835 16.2533C20.3242 16.394 20.5149 16.473 20.7138 16.473C20.9127 16.473 21.1035 16.394 21.2442 16.2533C21.3848 16.1127 21.4638 15.9219 21.4638 15.723V15.6201C22.4233 15.3934 23.2262 14.7295 23.2009 13.667C23.2 13.6018 23.1959 13.5368 23.1888 13.4721C23.0352 12.2062 21.9616 11.7165 20.8389 11.5322C20.542 11.4834 19.9201 11.3663 19.9015 10.9788C19.885 10.6385 20.2 10.4534 20.4942 10.3942C20.9533 10.3017 21.43 10.4801 21.6196 10.932C21.6573 11.0235 21.7126 11.1066 21.7825 11.1766C21.8524 11.2466 21.9354 11.3021 22.0268 11.3398C22.1182 11.3776 22.2162 11.3969 22.3151 11.3966C22.414 11.3963 22.5119 11.3765 22.6031 11.3382C22.6943 11.3 22.777 11.244 22.8465 11.1736C22.916 11.1033 22.9709 11.0198 23.008 10.9281C23.0451 10.8365 23.0637 10.7383 23.0627 10.6394C23.0617 10.5405 23.0412 10.4428 23.0023 10.3519ZM37.9164 8.91356C36.8691 8.91356 36.018 8.0625 36.018 7.01513V2.47266H12.7599C12.321 2.47266 11.963 2.83069 11.963 3.26953V19.1716H14.2616L14.9609 20.9885C15.402 21.1346 15.8319 21.3128 16.247 21.5217L18.027 20.7312L21.2776 23.9819L20.4873 25.7612C20.6963 26.1765 20.8747 26.6066 21.0209 27.048L22.3032 27.5415V24.224C22.3032 21.8603 24.2371 19.9265 26.6007 19.9265H42.4589V8.91356H37.9164ZM20.7136 17.7151C17.7173 17.7151 15.2884 15.2861 15.2884 12.2899C15.2884 9.29363 17.7174 6.86475 20.7136 6.86475C23.7098 6.86475 26.1387 9.29363 26.1387 12.2899C26.1388 15.2862 23.7098 17.7151 20.7136 17.7151ZM35.5561 16.6462H28.9531C28.7542 16.6462 28.5635 16.5672 28.4228 16.4266C28.2822 16.2859 28.2031 16.0952 28.2031 15.8962C28.2031 15.6973 28.2822 15.5066 28.4228 15.3659C28.5635 15.2253 28.7542 15.1462 28.9531 15.1462H35.5561C35.755 15.1462 35.9457 15.2253 36.0864 15.3659C36.227 15.5066 36.3061 15.6973 36.3061 15.8962C36.3061 16.0952 36.227 16.2859 36.0864 16.4266C35.9457 16.5672 35.755 16.6462 35.5561 16.6462ZM35.5561 13.04H28.9531C28.7542 13.04 28.5635 12.961 28.4228 12.8203C28.2822 12.6796 28.2031 12.4889 28.2031 12.29C28.2031 12.0911 28.2822 11.9003 28.4228 11.7596C28.5635 11.619 28.7542 11.54 28.9531 11.54H35.5561C35.755 11.54 35.9457 11.619 36.0864 11.7596C36.227 11.9003 36.3061 12.0911 36.3061 12.29C36.3061 12.4889 36.227 12.6796 36.0864 12.8203C35.9457 12.961 35.755 13.04 35.5561 13.04ZM35.5561 9.43359H28.9531C28.7542 9.43359 28.5635 9.35458 28.4228 9.21392C28.2822 9.07327 28.2031 8.88251 28.2031 8.68359C28.2031 8.48468 28.2822 8.29392 28.4228 8.15326C28.5635 8.01261 28.7542 7.93359 28.9531 7.93359H35.5561C35.755 7.93359 35.9457 8.01261 36.0864 8.15326C36.227 8.29392 36.3061 8.48468 36.3061 8.68359C36.3061 8.88251 36.227 9.07327 36.0864 9.21392C35.9457 9.35458 35.755 9.43359 35.5561 9.43359Z" fill="white"/>
</svg>
